<?xml version="1.0" encoding="UTF-8"?>
<svg id="Layer_1" data-name="Layer 1" xmlns="http://www.w3.org/2000/svg" viewBox="0 0 1920 532">
  <defs>
    <style>
      .cls-1 {
        fill: #294c89;
      }

      .cls-1, .cls-2 {
        stroke-width: 0px;
      }

      .cls-2 {
        fill: #fff;
      }
    </style>
  </defs>
  <rect class="cls-2" x="1.07" width="1917.86" height="537"/>
  <g>
    <g>
      <g>
        <g>
          <path class="cls-1" d="M413.69,261.57v28.74c0,2.81-1.45,5.42-3.84,6.91l-91.94,57.46c-.27.16-.55.33-.84.46-.24.1-.48.21-.72.3h-.01c-.6.22-1.22.37-1.85.43-.3.04-.61.06-.91.06-.34,0-.7-.03-1.04-.07-.16-.03-.34-.06-.51-.09-.16-.03-.34-.06-.51-.1-.18-.04-.34-.1-.51-.15h0s-.06-.01-.08-.03c-.13-.04-.28-.1-.42-.16-.03,0-.06-.02-.09-.03-.12-.04-.25-.1-.39-.16h0s-.03-.03-.06-.03c-.13-.07-.27-.15-.4-.22-.05-.03-.09-.04-.13-.07l-83.41-49.06-.12-.08c-.27.18-.54.34-.82.49,0,.01-.01.01-.01.01-.18.1-.36.21-.54.3-.06.03-.1.06-.15.09-2.55,1.33-5.43,2.11-8.51,2.11-10.15,0-18.38-8.23-18.38-18.36s8.23-18.38,18.38-18.38c3.17,0,6.15.81,8.76,2.22.21.12.43.24.64.37.05.01.09.04.12.06.25.15.51.31.75.48.03.02.05.03.08.06.22.15.43.3.64.45.27.19.55.4.81.64.15.12.28.24.42.37.27.21.52.46.78.72.21.21.4.42.61.64.39.43.76.88,1.12,1.36.18.24.34.48.51.72.16.25.33.49.48.75.04.06.09.12.12.19.25.45.51.91.73,1.37.39.81.72,1.64.99,2.51.09.28.16.58.24.87.07.3.15.6.21.9.06.3.12.58.16.88.01.16.04.33.06.48.03.24.06.46.07.7.02.24.03.46.05.7.01.31.03.63.03.94s-.04.63-.09.96l-.03.31.19.12,79.13,46.55,83.92-52.46v-19.36l-90.56-49.42c-3.96-2.15-5.42-7.11-3.25-11.06,1.1-2.03,2.97-3.42,5.05-3.97.24-.07.49-.12.75-.16.07,0,.16-.01.24-.03.01-.01.04-.01.06-.01.81-.1,1.61-.1,2.42.03,0,0,0,.01.02.01h.07c.09.01.19.04.3.07.06,0,.1.01.16.03.69.16,1.36.42,2,.78l94.82,51.73c.25.13.49.28.73.45.13.1.25.19.39.3.09.06.16.13.25.19.03.03.08.06.1.1,1.73,1.51,2.78,3.73,2.78,6.11Z"/>
          <path class="cls-1" d="M410.91,255.46s-.07-.07-.1-.1c-.09-.06-.16-.13-.25-.19-.13-.1-.25-.19-.39-.3-.24-.16-.48-.31-.73-.45l-94.82-51.73c-.64-.36-1.31-.61-2-.78-.06-.01-.1-.03-.16-.03-.1-.03-.21-.06-.3-.07-.03,0-.06,0-.09-.01-.81-.13-1.61-.13-2.42-.03-.01,0-.04,0-.06.01-.08.01-.16.03-.24.03-.25.04-.51.09-.75.16-2.08.55-3.94,1.94-5.05,3.97-2.17,3.96-.7,8.91,3.25,11.06l90.56,49.42v19.36l-83.92,52.46-79.13-46.55-.09-2.16c0-.06,0-.1-.01-.16-.02-.24-.03-.46-.05-.7-.01-.24-.04-.46-.07-.7-.02-.15-.05-.31-.06-.48-.05-.3-.1-.58-.16-.88-.06-.3-.13-.6-.21-.9-.07-.28-.15-.58-.24-.87-.27-.87-.6-1.7-.99-2.51-.22-.48-.46-.93-.73-1.37-.03-.07-.08-.13-.12-.19-.15-.25-.31-.49-.48-.75-.16-.24-.33-.48-.51-.72-.33-.48-.7-.93-1.12-1.36-.21-.22-.4-.43-.61-.64-.25-.25-.51-.51-.78-.72-.13-.13-.27-.25-.42-.37-.25-.24-.54-.45-.81-.64-.21-.15-.42-.3-.64-.45-.03-.03-.05-.04-.08-.06-.24-.16-.49-.33-.75-.48-.25-.16-.51-.31-.76-.43-2.61-1.42-5.6-2.22-8.76-2.22-10.15,0-18.38,8.23-18.38,18.38s8.23,18.36,18.38,18.36c3.08,0,5.96-.78,8.51-2.11l1.64-.82,83.41,49.06s.09.04.13.07c.13.07.27.15.4.22.03,0,.04.01.06.03.13.06.27.12.39.16.03.01.06.03.09.03.13.06.28.12.42.16.03.01.06.01.08.03.16.04.33.1.51.15.16.04.34.07.51.1.16.03.34.06.51.09.34.04.7.07,1.04.07.3,0,.61-.01.91-.06.63-.06,1.25-.21,1.85-.43h.01c.24-.09.48-.19.72-.3.28-.13.57-.3.84-.46l91.94-57.46c2.39-1.49,3.84-4.11,3.84-6.91v-28.74c0-2.37-1.05-4.6-2.78-6.11ZM409.72,290.31c0,1.45-.73,2.78-1.96,3.55l-91.95,57.46c-1.3.82-3.03.84-4.34.06l-85.67-50.37-2.06,1.34c-2.36,1.54-5.08,2.36-7.85,2.36-7.94,0-14.41-6.46-14.41-14.41s6.46-14.41,14.41-14.41,14.41,6.46,14.38,14.62c-.03.25-.07.51-.09.76l-.18,2.46,83.53,49.13,87.82-54.9v-23.92l-92.64-50.54c-.98-.54-1.7-1.42-2.01-2.49-.31-1.07-.19-2.21.34-3.19.54-.99,1.42-1.7,2.49-2.02,1.07-.3,2.21-.19,3.2.34l94.82,51.72c1.34.75,2.18,2.16,2.18,3.69v28.74Z"/>
        </g>
        <g>
          <path class="cls-1" d="M410.91,255.46s-.07-.07-.1-.1c-.09-.06-.16-.13-.25-.19-.13-.1-.25-.19-.39-.3-.24-.16-.48-.31-.73-.45l-94.82-51.73c-.64-.36-1.31-.61-2-.78-.06-.01-.1-.03-.16-.03-.1-.03-.21-.06-.3-.07-.03,0-.06,0-.09-.01-.81-.13-1.61-.13-2.42-.03-.01,0-.04,0-.06.01-.08.01-.16.03-.24.03-.25.04-.51.09-.75.16-2.08.55-3.94,1.94-5.05,3.97-2.17,3.96-.7,8.91,3.25,11.06l90.56,49.42v19.36l-83.92,52.46-79.13-46.55-.09-2.16c0-.06,0-.1-.01-.16-.02-.24-.03-.46-.05-.7-.01-.24-.04-.46-.07-.7-.02-.15-.05-.31-.06-.48-.05-.3-.1-.58-.16-.88-.06-.3-.13-.6-.21-.9-.07-.28-.15-.58-.24-.87-.27-.87-.6-1.7-.99-2.51-.22-.48-.46-.93-.73-1.37-.03-.07-.08-.13-.12-.19-.15-.25-.31-.49-.48-.75-.16-.24-.33-.48-.51-.72-.33-.48-.7-.93-1.12-1.36-.21-.22-.4-.43-.61-.64-.25-.25-.51-.51-.78-.72-.13-.13-.27-.25-.42-.37-.25-.24-.54-.45-.81-.64-.21-.15-.42-.3-.64-.45-.03-.03-.05-.04-.08-.06-.24-.16-.49-.33-.75-.48-.25-.16-.51-.31-.76-.43-2.61-1.42-5.6-2.22-8.76-2.22-10.15,0-18.38,8.23-18.38,18.38s8.23,18.36,18.38,18.36c3.08,0,5.96-.78,8.51-2.11l1.64-.82,83.41,49.06s.09.04.13.07c.13.07.27.15.4.22.03,0,.04.01.06.03.13.06.27.12.39.16.03.01.06.03.09.03.13.06.28.12.42.16.03.01.06.01.08.03.16.04.33.1.51.15.16.04.34.07.51.1.16.03.34.06.51.09.34.04.7.07,1.04.07.3,0,.61-.01.91-.06.63-.06,1.25-.21,1.85-.43h.01c.24-.09.48-.19.72-.3.28-.13.57-.3.84-.46l91.94-57.46c2.39-1.49,3.84-4.11,3.84-6.91v-28.74c0-2.37-1.05-4.6-2.78-6.11ZM409.72,290.31c0,1.45-.73,2.78-1.96,3.55l-91.95,57.46c-1.3.82-3.03.84-4.34.06l-85.67-50.37-2.06,1.34c-2.36,1.54-5.08,2.36-7.85,2.36-7.94,0-14.41-6.46-14.41-14.41s6.46-14.41,14.41-14.41,14.41,6.46,14.38,14.62c-.03.25-.07.51-.09.76l-.18,2.46,83.53,49.13,87.82-54.9v-23.92l-92.64-50.54c-.98-.54-1.7-1.42-2.01-2.49-.31-1.07-.19-2.21.34-3.19.54-.99,1.42-1.7,2.49-2.02,1.07-.3,2.21-.19,3.2.34l94.82,51.72c1.34.75,2.18,2.16,2.18,3.69v28.74Z"/>
          <path class="cls-1" d="M410.91,255.46c-.12-.1-.24-.21-.36-.3-.13-.1-.25-.19-.39-.3-.24-.16-.48-.31-.73-.45l-94.82-51.73c-.64-.36-1.31-.61-2-.78-.06-.01-.1-.03-.16-.03-.12-.03-.25-.06-.37-.07-.43-.07-.88-.1-1.34-.1-.37,0-.76.03-1.15.07-.08.01-.16.03-.24.03-.25.04-.51.09-.75.16-2.08.55-3.94,1.94-5.05,3.97-2.17,3.96-.7,8.91,3.25,11.06l90.56,49.42v19.36l-83.92,52.46-79.13-46.55-.19-.12.03-.31.06-.73c.03-5.02-1.9-9.7-5.39-13.23-.81-.81-1.69-1.54-2.6-2.18-.31-.21-.63-.4-.94-.6-.21-.13-.43-.25-.64-.37-2.61-1.42-5.6-2.22-8.76-2.22-10.15,0-18.38,8.23-18.38,18.38s8.23,18.36,18.38,18.36c3.08,0,5.96-.78,8.51-2.11.04-.03.09-.06.15-.09.18-.09.36-.19.54-.3,0,0,.01,0,.01-.01.28-.15.55-.31.82-.49l.12.08,83.41,49.06s.09.04.13.07c.13.07.27.15.4.22.03,0,.04.01.06.03.13.06.27.12.39.16.03.01.06.03.09.03.13.06.28.12.42.16.03.01.06.01.08.03.16.04.33.1.51.15.16.04.34.07.51.1.16.03.34.06.51.09.34.04.7.07,1.04.07.3,0,.61-.01.91-.06.63-.06,1.25-.21,1.85-.43h.01c.24-.09.48-.19.72-.3.28-.13.57-.3.84-.46l91.94-57.46c2.39-1.49,3.84-4.11,3.84-6.91v-28.74c0-2.37-1.05-4.6-2.78-6.11ZM313.47,347.98l-87.77-51.64-4.12,2.7c-1.72,1.12-3.67,1.72-5.69,1.72-5.76,0-10.45-4.69-10.45-10.45s4.69-10.45,10.45-10.45c2.76,0,5.37,1.09,7.33,3.05,1.94,1.96,3.03,4.55,3.08,7.36-.03.24-.05.49-.08.73l-.36,4.91,87.73,51.6,91.71-57.33v-28.47l-94.82-51.79.34-.27,94.94,51.93-.1,28.93-92.19,57.48ZM310.05,355.12c-.15-.07-.31-.15-.46-.24.13.07.27.15.4.22.03,0,.04.01.06.03.13.06.27.12.39.16-.12-.06-.25-.12-.39-.18ZM311.02,355.51c-.16-.06-.33-.12-.49-.18.13.06.28.12.42.16.03.01.06.01.08.03.16.04.33.1.51.15.16.04.34.07.51.1.16.03.34.06.51.09.66.07,1.31.09,1.96.01.31-.04.61-.09.91-.16-1.45.31-2.97.25-4.39-.21Z"/>
        </g>
      </g>
      <g>
        <g>
          <path class="cls-1" d="M413.69,179.34c0,10.14-8.23,18.36-18.38,18.36-3.17,0-6.15-.81-8.75-2.22-1.06-.55-2.05-1.21-2.94-1.97-.22-.18-.45-.37-.66-.57-.22-.19-.43-.39-.64-.61-.21-.21-.42-.42-.61-.64-.19-.21-.39-.43-.57-.66-.19-.22-.39-.46-.55-.7-.16-.24-.34-.48-.51-.72-.16-.25-.33-.49-.48-.75-.3-.51-.58-1.03-.85-1.57-.13-.27-.25-.54-.36-.81-.12-.28-.22-.55-.33-.84-.12-.28-.21-.57-.3-.85-.16-.57-.31-1.15-.45-1.73-.01-.1-.04-.21-.04-.31-.08-.33-.12-.64-.16-.97-.02-.06-.02-.1-.02-.15-.06-.45-.1-.9-.12-1.36-.01-.31-.03-.63-.03-.94s.05-.64.09-.96l.03-.31-.19-.12-79.13-46.55-83.92,52.45v19.38l90.58,49.4c3.96,2.15,5.4,7.11,3.25,11.06-.19.36-.4.69-.64.99-.04.07-.1.13-.15.19h-.01c-1.57,1.99-3.94,3.08-6.36,3.08-.08,0-.15-.01-.23-.02-.28,0-.56-.02-.83-.06-.12-.01-.24-.06-.36-.07-.36-.06-.72-.15-1.06-.24t-.03-.01s-.02,0-.03-.01c-.16-.04-.31-.09-.46-.15h0c-.1-.04-.18-.09-.27-.12-.01-.01-.04-.01-.06-.03-.19-.09-.39-.18-.57-.28l-94.83-51.72c-2.61-1.43-4.26-4.18-4.26-7.17v-28.74c0-2.81,1.45-5.42,3.84-6.91l91.95-57.47c2.58-1.61,5.84-1.66,8.45-.12l83.44,49.07.1.06c.31-.19.63-.39.94-.57.24-.13.48-.27.72-.39.05-.03.1-.06.15-.09.06-.03.12-.06.18-.09.03,0,.08-.03.1-.04.1-.04.21-.09.31-.15l.09-.04h.03c2.28-1.05,4.82-1.63,7.49-1.63,10.15,0,18.38,8.23,18.38,18.38Z"/>
          <path class="cls-1" d="M395.31,160.96c-2.67,0-5.21.58-7.49,1.63h-.03l-.09.04c-.1.06-.21.1-.31.15-.03.02-.07.04-.1.04-.06.03-.12.06-.18.09l-1.91.99-83.44-49.07c-2.61-1.54-5.87-1.49-8.45.12l-91.95,57.47c-2.39,1.49-3.84,4.11-3.84,6.91v28.74c0,2.99,1.64,5.73,4.26,7.17l94.83,51.72c.18.1.37.19.57.28.02.02.05.02.06.03.1.05.18.09.27.12.15.06.3.1.46.15.01.01.01.03.03.01t.03.01c.34.09.7.18,1.06.24.12.01.24.06.36.07.27.03.55.05.83.06.08,0,.15.02.23.02,2.42,0,4.79-1.09,6.36-3.06h.01c.05-.07.1-.13.15-.21.24-.3.45-.63.64-.99,2.15-3.96.7-8.91-3.25-11.06l-90.58-49.4v-19.38l83.92-52.45,79.13,46.55.09,2.15c0,.06,0,.12.01.18.02.46.06.91.12,1.36,0,.04,0,.09.02.15.04.33.09.64.16.97,0,.1.03.21.04.31.13.58.28,1.16.45,1.73.09.28.18.57.3.85.1.28.21.55.33.84.1.27.22.54.36.81.27.54.55,1.06.85,1.57.15.25.31.49.48.75.16.24.34.48.51.72.16.24.36.48.55.7.18.22.37.45.57.66.19.22.4.43.61.64.21.22.42.42.64.61.21.19.43.39.66.57.9.76,1.88,1.42,2.94,1.97,2.6,1.42,5.58,2.22,8.75,2.22,10.15,0,18.38-8.23,18.38-18.36s-8.23-18.38-18.38-18.38ZM395.31,193.74c-7.94,0-14.41-6.46-14.38-14.62.05-.27.08-.52.09-.79l.16-2.45-83.5-49.12-87.83,54.88v23.93l92.64,50.52c.98.54,1.72,1.42,2.03,2.49.31,1.07.19,2.21-.34,3.19-1.08,1.97-3.7,2.76-5.69,1.67l-94.83-51.72c-1.34-.73-2.18-2.15-2.18-3.69v-28.74c0-1.45.73-2.78,1.96-3.55l91.95-57.47c.69-.42,1.46-.64,2.24-.64.73,0,1.46.19,2.12.58l85.65,50.39,2.06-1.36c2.36-1.54,5.08-2.36,7.85-2.36,7.96,0,14.42,6.46,14.42,14.41s-6.46,14.42-14.42,14.42Z"/>
        </g>
        <g>
          <path class="cls-1" d="M395.31,160.96c-2.67,0-5.21.58-7.49,1.63h-.03l-.09.04c-.1.06-.21.1-.31.15-.03.02-.07.04-.1.04-.06.03-.12.06-.18.09l-1.91.99-83.44-49.07c-2.61-1.54-5.87-1.49-8.45.12l-91.95,57.47c-2.39,1.49-3.84,4.11-3.84,6.91v28.74c0,2.99,1.64,5.73,4.26,7.17l94.83,51.72c.18.1.37.19.57.28.02.02.05.02.06.03.1.05.18.09.27.12.15.06.3.1.46.15.01.01.01.03.03.01t.03.01c.34.09.7.18,1.06.24.12.01.24.06.36.07.27.03.55.05.83.06.08,0,.15.02.23.02,2.42,0,4.79-1.09,6.36-3.06h.01c.05-.07.1-.13.15-.21.24-.3.45-.63.64-.99,2.15-3.96.7-8.91-3.25-11.06l-90.58-49.4v-19.38l83.92-52.45,79.13,46.55.09,2.15c0,.06,0,.12.01.18.02.46.06.91.12,1.36,0,.04,0,.09.02.15.04.33.09.64.16.97,0,.1.03.21.04.31.13.58.28,1.16.45,1.73.09.28.18.57.3.85.1.28.21.55.33.84.1.27.22.54.36.81.27.54.55,1.06.85,1.57.15.25.31.49.48.75.16.24.34.48.51.72.16.24.36.48.55.7.18.22.37.45.57.66.19.22.4.43.61.64.21.22.42.42.64.61.21.19.43.39.66.57.9.76,1.88,1.42,2.94,1.97,2.6,1.42,5.58,2.22,8.75,2.22,10.15,0,18.38-8.23,18.38-18.36s-8.23-18.38-18.38-18.38ZM395.31,193.74c-7.94,0-14.41-6.46-14.38-14.62.05-.27.08-.52.09-.79l.16-2.45-83.5-49.12-87.83,54.88v23.93l92.64,50.52c.98.54,1.72,1.42,2.03,2.49.31,1.07.19,2.21-.34,3.19-1.08,1.97-3.7,2.76-5.69,1.67l-94.83-51.72c-1.34-.73-2.18-2.15-2.18-3.69v-28.74c0-1.45.73-2.78,1.96-3.55l91.95-57.47c.69-.42,1.46-.64,2.24-.64.73,0,1.46.19,2.12.58l85.65,50.39,2.06-1.36c2.36-1.54,5.08-2.36,7.85-2.36,7.96,0,14.42,6.46,14.42,14.41s-6.46,14.42-14.42,14.42Z"/>
          <path class="cls-1" d="M395.31,160.96c-2.67,0-5.21.58-7.49,1.63h-.02s-.07.03-.1.04c-.1.06-.21.1-.31.15-.03.02-.07.04-.1.04-.1.06-.22.12-.33.18-.24.12-.48.25-.72.39-.31.18-.63.37-.94.57l-.1-.06-83.44-49.07c-2.61-1.54-5.87-1.49-8.45.12l-91.95,57.47c-2.39,1.49-3.84,4.11-3.84,6.91v28.74c0,2.99,1.64,5.73,4.26,7.17l94.83,51.72c.18.1.37.19.57.28.02.02.05.02.06.03.1.05.18.09.27.12.15.06.3.1.46.15.01.01.01.03.03.01t.03.01c.34.09.7.18,1.06.24.12.01.24.06.36.07.27.03.55.05.83.06.08,0,.15.02.23.02,2.42,0,4.79-1.09,6.36-3.06h.01c.05-.07.1-.13.15-.21.24-.3.45-.63.64-.99,2.15-3.96.7-8.91-3.25-11.06l-90.58-49.4v-19.38l83.92-52.45,79.13,46.55.19.12-.03.31-.06.73c-.01,5.02,1.9,9.7,5.39,13.21,1.25,1.27,2.67,2.31,4.2,3.15,2.6,1.42,5.58,2.22,8.75,2.22,10.15,0,18.38-8.23,18.38-18.36s-8.23-18.38-18.38-18.38ZM395.31,189.77c-2.76,0-5.37-1.07-7.33-3.05-1.94-1.96-3.03-4.55-3.08-7.35.03-.27.06-.52.08-.78l.33-4.9-87.68-51.58-91.73,57.33v28.47l94.82,51.79-.33.27-94.95-51.93.1-28.93,91.94-57.45c.06-.03.1-.04.15-.04l87.88,51.66,4.12-2.69c1.72-1.12,3.69-1.72,5.69-1.72,5.76,0,10.45,4.69,10.45,10.44s-4.69,10.45-10.45,10.45ZM297.49,267.36c-.1-.03-.18-.07-.27-.1.1.05.18.09.27.12.15.06.3.1.46.15-.16-.04-.31-.1-.46-.16ZM299.08,267.8c.12.01.24.06.36.07,1.09.13,2.22.04,3.33-.28.48-.13.94-.34,1.37-.58-1.55.76-3.34,1.06-5.06.79Z"/>
        </g>
      </g>
      <g>
        <path class="cls-1" d="M418.65,356.33l-112.08,66.63-93.48-57.23c-4.67-2.85-6.14-8.94-3.28-13.62,2.87-4.66,8.96-6.14,13.63-3.27l83.28,50.97,101.81-60.53c4.7-2.78,10.78-1.24,13.57,3.46,2.81,4.7,1.25,10.78-3.45,13.57Z"/>
        <path class="cls-1" d="M422.1,342.76c-2.79-4.7-8.87-6.24-13.57-3.46l-101.81,60.53-83.28-50.97c-4.67-2.87-10.76-1.39-13.63,3.27-2.85,4.67-1.39,10.76,3.28,13.62l93.48,57.23,112.08-66.63c4.7-2.79,6.26-8.87,3.45-13.57ZM416.62,352.93l-110.02,65.41-91.45-55.97c-1.34-.84-2.3-2.14-2.67-3.67-.37-1.55-.12-3.15.72-4.49.82-1.36,2.13-2.31,3.67-2.69.46-.1.94-.16,1.4-.16,1.08,0,2.15.3,3.09.88l85.32,52.22,103.85-61.73c2.82-1.69,6.48-.75,8.15,2.06,1.67,2.82.75,6.48-2.07,8.15Z"/>
      </g>
    </g>
    <g>
      <g>
        <path class="cls-1" d="M679.89,156.27c-11.09-9.95-34.69-23.03-68.81-23.03-23.88,0-48.34,8.53-48.34,31.85s30.71,25.02,60.85,26.73c32.42,2.28,84.73,5.4,84.73,55.16,0,43.22-38.39,60.56-83.03,60.56-47.2,0-77.34-19.62-97.53-38.1l15.07-17.06c15.64,14.5,41.51,34.12,83.03,34.12,31.56,0,57.72-11.37,57.72-36.4,0-27.87-28.44-32.13-60-34.41-40.09-2.56-85.59-5.4-85.59-48.34s40.66-55.16,73.93-55.16c38.39,0,68.53,15.35,82.74,27.01l-14.79,17.06Z"/>
        <path class="cls-1" d="M752.67,302.7V117.02h24.74v185.68h-24.74Z"/>
        <path class="cls-1" d="M865.26,117.02v163.78h117.15v21.9h-141.89V117.02h24.74Z"/>
        <path class="cls-1" d="M1017.08,302.7V117.02h24.74v185.68h-24.74Z"/>
        <path class="cls-1" d="M1279.24,270.57c-20.19,19.9-50.9,36.96-89,36.96-60,0-102.08-43.79-102.08-97.81s42.08-97.53,100.94-97.53c33.27,0,64.55,12.8,85.02,31.85l-16.78,16.49c-17.06-16.21-43.22-26.44-67.67-26.44-44.36,0-75.63,34.41-75.63,75.92s31.56,75.64,76.49,75.64c29.57,0,55.16-13.65,72.22-31.28l16.49,16.21Z"/>
        <path class="cls-1" d="M1407.17,112.19c57.44,0,103.5,43.5,103.5,97.24s-46.06,98.1-103.5,98.1-102.93-43.5-102.93-98.1,45.21-97.24,102.93-97.24ZM1407.17,285.64c43.5,0,77.62-34.12,77.62-76.21s-34.12-75.35-77.62-75.35-77.06,33.84-77.06,75.35,33.55,76.21,77.06,76.21Z"/>
        <path class="cls-1" d="M1722.49,117.02v185.68h-22.46l-118-142.46h-.28v142.46h-24.74V117.02h22.46l118,142.46h.28V117.02h24.74Z"/>
      </g>
      <g>
        <path class="cls-1" d="M583.84,413.6c-6.12,6.03-15.43,11.21-26.98,11.21-18.19,0-30.95-13.28-30.95-29.66s12.76-29.57,30.6-29.57c10.09,0,19.57,3.88,25.78,9.66l-5.09,5c-5.17-4.91-13.1-8.02-20.52-8.02-13.45,0-22.93,10.43-22.93,23.02s9.57,22.93,23.19,22.93c8.97,0,16.73-4.14,21.9-9.48l5,4.91Z"/>
        <path class="cls-1" d="M647.37,397.05h-22.76v19.66h39.74v6.64h-47.24v-56.29h45.26v6.64h-37.76v16.73h22.76v6.64Z"/>
        <path class="cls-1" d="M748.04,367.05v56.29h-6.81l-35.78-43.19h-.09v43.19h-7.5v-56.29h6.81l35.78,43.19h.09v-43.19h7.5Z"/>
        <path class="cls-1" d="M780.1,367.05h51.21v6.64h-21.81v49.66h-7.5v-49.66h-21.9v-6.64Z"/>
        <path class="cls-1" d="M911.73,367.05v36.29c0,13.71-10.61,21.47-24.83,21.47s-24.66-7.76-24.66-21.47v-36.29h7.42v36.29c0,9.57,7.59,14.83,17.24,14.83s17.33-5.26,17.33-14.83v-36.29h7.5Z"/>
        <path class="cls-1" d="M950.43,423.34v-56.29h31.03c7.24,0,12.24,1.98,15.78,5.69,2.76,2.93,4.31,6.73,4.31,11.03,0,7.59-5.17,13.54-13.1,15.69l13.88,23.88h-8.53l-12.93-22.93h-22.93v22.93h-7.5ZM957.93,373.69v20.08h25.43c6.21,0,10.78-4.57,10.78-10.09,0-2.5-1.03-4.83-2.67-6.55-2.76-2.76-6.12-3.45-10-3.45h-23.54Z"/>
        <path class="cls-1" d="M1082.83,367.05l-23.1,29.91v26.38h-7.5v-26.38l-23.1-29.91h9.48l17.67,23.27,17.76-23.27h8.79Z"/>
        <path class="cls-1" d="M1243.51,413.6c-6.12,6.03-15.43,11.21-26.98,11.21-18.19,0-30.95-13.28-30.95-29.66s12.76-29.57,30.6-29.57c10.09,0,19.57,3.88,25.78,9.66l-5.09,5c-5.17-4.91-13.1-8.02-20.52-8.02-13.45,0-22.93,10.43-22.93,23.02s9.57,22.93,23.19,22.93c8.97,0,16.73-4.14,21.9-9.48l5,4.91Z"/>
        <path class="cls-1" d="M1272.64,423.34l26.12-56.29h7.07l26.12,56.29h-8.19l-7.67-16.9h-28.1l-7.59,16.9h-7.76ZM1290.65,400.41h22.76l-11.12-24.57h-.52l-11.12,24.57Z"/>
        <path class="cls-1" d="M1370.99,423.34v-56.29h30.43c7.32,0,12.24,1.98,15.78,5.69,2.84,3.1,4.31,6.9,4.31,10.86,0,4.65-1.9,8.71-5,11.64-3.36,3.27-8.1,5.17-15.08,5.17h-22.93v22.93h-7.5ZM1378.49,373.69v20.08h22.93c3.19,0,6.72-.43,9.65-3.19,1.9-1.81,3.02-4.31,3.02-6.9s-.95-4.66-2.67-6.55c-2.67-2.85-6.29-3.45-10-3.45h-22.93Z"/>
        <path class="cls-1" d="M1461.32,423.34v-56.29h7.5v56.29h-7.5Z"/>
        <path class="cls-1" d="M1507.78,367.05h51.21v6.64h-21.81v49.66h-7.5v-49.66h-21.9v-6.64Z"/>
        <path class="cls-1" d="M1585.7,423.34l26.12-56.29h7.07l26.12,56.29h-8.19l-7.67-16.9h-28.1l-7.59,16.9h-7.76ZM1603.72,400.41h22.76l-11.12-24.57h-.52l-11.12,24.57Z"/>
        <path class="cls-1" d="M1686.38,367.05v49.66h35.52v6.64h-43.01v-56.29h7.5Z"/>
      </g>
    </g>
  </g>
</svg>