<?xml version="1.0" encoding="UTF-8"?>
<svg id="Layer_1" data-name="Layer 1" xmlns="http://www.w3.org/2000/svg" viewBox="0 0 1000 205.5">
  <defs>
    <style>
      .cls-1 {
        stroke-width: 0px;
      }
    </style>
  </defs>
  <g>
    <g>
      <g>
        <path class="cls-1" d="M141.76,97.46v18.85c0,1.84-.95,3.55-2.52,4.53l-60.29,37.68c-.18.11-.36.22-.55.3-.16.07-.31.14-.47.2h0c-.39.15-.8.24-1.21.28-.2.03-.4.04-.6.04-.23,0-.46-.02-.69-.05-.11-.02-.23-.04-.33-.06-.11-.02-.23-.04-.33-.07-.12-.03-.23-.07-.33-.1h0s-.04,0-.05-.02c-.09-.03-.19-.07-.27-.11-.02,0-.04-.01-.06-.02-.08-.03-.17-.07-.25-.11h0s-.02-.02-.04-.02c-.09-.05-.18-.1-.26-.15-.03-.02-.06-.03-.09-.05l-54.7-32.17-.08-.05c-.18.12-.35.23-.54.32,0,0,0,0,0,0-.12.07-.24.14-.35.2-.04.02-.07.04-.1.06-1.67.87-3.56,1.38-5.58,1.38-6.66,0-12.05-5.39-12.05-12.04s5.39-12.05,12.05-12.05c2.08,0,4.03.53,5.75,1.46.14.08.28.16.42.24.03,0,.06.03.08.04.17.1.33.21.49.31.02.01.03.02.05.04.15.1.28.2.42.29.18.13.36.26.53.42.1.08.19.16.27.24.18.14.34.3.51.47.14.14.26.27.4.42.25.28.5.58.73.89.12.16.22.31.33.47.11.17.22.32.31.49.03.04.06.08.08.13.17.29.33.6.48.9.25.53.47,1.08.65,1.64.06.19.11.38.16.57.05.2.1.39.14.59.04.2.08.38.11.58,0,.11.03.22.04.31.02.16.04.3.05.46.01.16.02.3.03.46,0,.21.02.41.02.62s-.03.41-.06.63l-.02.21.13.08,51.89,30.53,55.03-34.4v-12.7l-59.39-32.41c-2.59-1.41-3.55-4.66-2.13-7.25.72-1.33,1.95-2.24,3.31-2.6.16-.05.32-.08.49-.11.05,0,.11,0,.16-.02,0,0,.03,0,.04,0,.53-.07,1.06-.07,1.59.02,0,0,0,0,.01,0h.05c.06,0,.13.03.2.05.04,0,.07,0,.11.02.45.11.89.27,1.31.51l62.18,33.92c.17.09.32.19.48.29.09.07.17.13.25.2.06.04.11.09.17.13.02.02.05.04.07.07,1.14.99,1.82,2.45,1.82,4Z"/>
        <path class="cls-1" d="M139.94,93.45s-.05-.05-.07-.07c-.06-.04-.11-.09-.17-.13-.09-.07-.17-.13-.25-.2-.16-.11-.31-.21-.48-.29l-62.18-33.92c-.42-.23-.86-.4-1.31-.51-.04,0-.07-.02-.11-.02-.07-.02-.14-.04-.2-.05-.02,0-.04,0-.06,0-.53-.09-1.06-.09-1.59-.02,0,0-.03,0-.04,0-.05,0-.11.02-.16.02-.17.03-.33.06-.49.11-1.36.36-2.58,1.27-3.31,2.6-1.42,2.59-.46,5.84,2.13,7.25l59.39,32.41v12.7l-55.03,34.4-51.89-30.53-.06-1.42s0-.07,0-.11c-.01-.16-.02-.3-.03-.46,0-.16-.03-.3-.05-.46-.01-.1-.03-.21-.04-.31-.03-.2-.07-.38-.11-.58-.04-.2-.09-.39-.14-.59-.05-.19-.1-.38-.16-.57-.18-.57-.39-1.12-.65-1.64-.15-.31-.3-.61-.48-.9-.02-.05-.05-.09-.08-.13-.1-.17-.21-.32-.31-.49-.11-.16-.22-.31-.33-.47-.22-.31-.46-.61-.73-.89-.14-.15-.26-.28-.4-.42-.17-.17-.33-.33-.51-.47-.09-.09-.18-.17-.27-.24-.17-.16-.35-.29-.53-.42-.14-.1-.27-.2-.42-.29-.02-.02-.03-.03-.05-.04-.16-.11-.32-.22-.49-.31-.17-.11-.33-.21-.5-.28-1.71-.93-3.67-1.46-5.75-1.46-6.66,0-12.05,5.39-12.05,12.05s5.39,12.04,12.05,12.04c2.02,0,3.91-.51,5.58-1.38l1.08-.54,54.7,32.17s.06.03.09.05c.09.05.18.1.26.15.02,0,.03,0,.04.02.09.04.18.08.25.11.02,0,.04.02.06.02.09.04.19.08.27.11.02,0,.04,0,.05.02.11.03.22.07.33.1.11.03.23.05.33.07.11.02.23.04.33.06.23.03.46.05.69.05.2,0,.4,0,.6-.04.41-.04.82-.14,1.21-.28h0c.16-.06.31-.13.47-.2.19-.09.37-.2.55-.3l60.29-37.68c1.57-.98,2.52-2.69,2.52-4.53v-18.85c0-1.56-.69-3.02-1.82-4ZM139.16,116.3c0,.95-.48,1.82-1.28,2.33l-60.3,37.68c-.85.54-1.99.55-2.85.04l-56.18-33.03-1.35.88c-1.55,1.01-3.33,1.55-5.15,1.55-5.21,0-9.45-4.24-9.45-9.45s4.24-9.45,9.45-9.45,9.45,4.24,9.43,9.58c-.02.17-.05.33-.06.5l-.12,1.62,54.78,32.22,57.59-36v-15.68l-60.75-33.14c-.65-.35-1.12-.93-1.32-1.64s-.13-1.45.22-2.09c.35-.65.93-1.12,1.64-1.32.7-.2,1.45-.13,2.1.23l62.18,33.91c.88.49,1.43,1.42,1.43,2.42v18.85Z"/>
      </g>
      <g>
        <path class="cls-1" d="M139.94,93.45s-.05-.05-.07-.07c-.06-.04-.11-.09-.17-.13-.09-.07-.17-.13-.25-.2-.16-.11-.31-.21-.48-.29l-62.18-33.92c-.42-.23-.86-.4-1.31-.51-.04,0-.07-.02-.11-.02-.07-.02-.14-.04-.2-.05-.02,0-.04,0-.06,0-.53-.09-1.06-.09-1.59-.02,0,0-.03,0-.04,0-.05,0-.11.02-.16.02-.17.03-.33.06-.49.11-1.36.36-2.58,1.27-3.31,2.6-1.42,2.59-.46,5.84,2.13,7.25l59.39,32.41v12.7l-55.03,34.4-51.89-30.53-.06-1.42s0-.07,0-.11c-.01-.16-.02-.3-.03-.46,0-.16-.03-.3-.05-.46-.01-.1-.03-.21-.04-.31-.03-.2-.07-.38-.11-.58-.04-.2-.09-.39-.14-.59-.05-.19-.1-.38-.16-.57-.18-.57-.39-1.12-.65-1.64-.15-.31-.3-.61-.48-.9-.02-.05-.05-.09-.08-.13-.1-.17-.21-.32-.31-.49-.11-.16-.22-.31-.33-.47-.22-.31-.46-.61-.73-.89-.14-.15-.26-.28-.4-.42-.17-.17-.33-.33-.51-.47-.09-.09-.18-.17-.27-.24-.17-.16-.35-.29-.53-.42-.14-.1-.27-.2-.42-.29-.02-.02-.03-.03-.05-.04-.16-.11-.32-.22-.49-.31-.17-.11-.33-.21-.5-.28-1.71-.93-3.67-1.46-5.75-1.46-6.66,0-12.05,5.39-12.05,12.05s5.39,12.04,12.05,12.04c2.02,0,3.91-.51,5.58-1.38l1.08-.54,54.7,32.17s.06.03.09.05c.09.05.18.1.26.15.02,0,.03,0,.04.02.09.04.18.08.25.11.02,0,.04.02.06.02.09.04.19.08.27.11.02,0,.04,0,.05.02.11.03.22.07.33.1.11.03.23.05.33.07.11.02.23.04.33.06.23.03.46.05.69.05.2,0,.4,0,.6-.04.41-.04.82-.14,1.21-.28h0c.16-.06.31-.13.47-.2.19-.09.37-.2.55-.3l60.29-37.68c1.57-.98,2.52-2.69,2.52-4.53v-18.85c0-1.56-.69-3.02-1.82-4ZM139.16,116.3c0,.95-.48,1.82-1.28,2.33l-60.3,37.68c-.85.54-1.99.55-2.85.04l-56.18-33.03-1.35.88c-1.55,1.01-3.33,1.55-5.15,1.55-5.21,0-9.45-4.24-9.45-9.45s4.24-9.45,9.45-9.45,9.45,4.24,9.43,9.58c-.02.17-.05.33-.06.5l-.12,1.62,54.78,32.22,57.59-36v-15.68l-60.75-33.14c-.65-.35-1.12-.93-1.32-1.64s-.13-1.45.22-2.09c.35-.65.93-1.12,1.64-1.32.7-.2,1.45-.13,2.1.23l62.18,33.91c.88.49,1.43,1.42,1.43,2.42v18.85Z"/>
        <path class="cls-1" d="M139.94,93.45c-.08-.07-.16-.14-.23-.2-.09-.07-.17-.13-.25-.2-.16-.11-.31-.21-.48-.29l-62.18-33.92c-.42-.23-.86-.4-1.31-.51-.04,0-.07-.02-.11-.02-.08-.02-.17-.04-.24-.05-.28-.05-.58-.07-.88-.07-.24,0-.5.02-.75.05-.05,0-.11.02-.16.02-.17.03-.33.06-.49.11-1.36.36-2.58,1.27-3.31,2.6-1.42,2.59-.46,5.84,2.13,7.25l59.39,32.41v12.7l-55.03,34.4-51.89-30.53-.13-.08.02-.21.04-.48c.02-3.29-1.24-6.36-3.53-8.67-.53-.53-1.11-1.01-1.7-1.43-.21-.14-.41-.26-.62-.39-.14-.09-.28-.17-.42-.24-1.71-.93-3.67-1.46-5.75-1.46-6.66,0-12.05,5.39-12.05,12.05s5.39,12.04,12.05,12.04c2.02,0,3.91-.51,5.58-1.38.03-.02.06-.04.1-.06.12-.06.24-.13.35-.2,0,0,0,0,0,0,.19-.1.36-.21.54-.32l.08.05,54.7,32.17s.06.03.09.05c.09.05.18.1.26.15.02,0,.03,0,.04.02.09.04.18.08.25.11.02,0,.04.02.06.02.09.04.19.08.27.11.02,0,.04,0,.05.02.11.03.22.07.33.1.11.03.23.05.33.07.11.02.23.04.33.06.23.03.46.05.69.05.2,0,.4,0,.6-.04.41-.04.82-.14,1.21-.28h0c.16-.06.31-.13.47-.2.19-.09.37-.2.55-.3l60.29-37.68c1.57-.98,2.52-2.69,2.52-4.53v-18.85c0-1.56-.69-3.02-1.82-4ZM76.04,154.12l-57.56-33.86-2.7,1.77c-1.13.73-2.41,1.13-3.73,1.13-3.78,0-6.85-3.07-6.85-6.85s3.07-6.85,6.85-6.85c1.81,0,3.52.71,4.81,2,1.27,1.28,1.99,2.99,2.02,4.83-.02.16-.03.32-.05.48l-.23,3.22,57.53,33.83,60.14-37.59v-18.67l-62.18-33.96.22-.18,62.26,34.05-.07,18.97-60.45,37.69ZM73.8,158.8c-.1-.05-.21-.1-.3-.16.09.05.18.1.26.15.02,0,.03,0,.04.02.09.04.18.08.25.11-.08-.04-.17-.08-.25-.12ZM74.43,159.05c-.11-.04-.22-.08-.32-.12.09.04.19.08.27.11.02,0,.04,0,.05.02.11.03.22.07.33.1.11.03.23.05.33.07.11.02.23.04.33.06.43.05.86.06,1.28,0,.21-.03.4-.06.6-.11-.95.21-1.95.17-2.88-.14Z"/>
      </g>
    </g>
    <g>
      <g>
        <path class="cls-1" d="M141.76,43.53c0,6.65-5.39,12.04-12.05,12.04-2.08,0-4.03-.53-5.74-1.46-.7-.36-1.34-.79-1.93-1.29-.15-.12-.29-.24-.43-.37-.15-.13-.28-.25-.42-.4-.14-.14-.27-.27-.4-.42-.13-.14-.25-.28-.37-.43-.13-.15-.25-.3-.36-.46-.11-.16-.23-.31-.33-.47-.11-.17-.22-.32-.31-.49-.2-.33-.38-.68-.56-1.03-.09-.18-.17-.35-.23-.53-.08-.19-.15-.36-.22-.55-.08-.19-.14-.37-.2-.56-.11-.37-.21-.75-.29-1.14,0-.07-.03-.14-.03-.21-.05-.22-.08-.42-.11-.64-.01-.04-.01-.07-.01-.1-.04-.29-.07-.59-.08-.89,0-.21-.02-.41-.02-.62s.03-.42.06-.63l.02-.21-.13-.08-51.89-30.53L10.7,46.49v12.71l59.4,32.4c2.59,1.41,3.54,4.66,2.13,7.25-.13.23-.26.45-.42.65-.03.05-.07.09-.1.13h0c-1.03,1.3-2.58,2.02-4.17,2.02-.05,0-.1,0-.15-.01-.18,0-.36-.02-.54-.04-.08,0-.16-.04-.23-.05-.24-.04-.47-.1-.7-.16t-.02,0s-.01,0-.02,0c-.11-.03-.21-.06-.3-.1h0c-.07-.03-.12-.06-.18-.08,0,0-.03,0-.04-.02-.13-.06-.25-.12-.37-.19L2.79,67.07c-1.71-.94-2.79-2.74-2.79-4.7v-18.85c0-1.84.95-3.55,2.52-4.53L62.81,1.31c1.69-1.06,3.83-1.09,5.54-.08l54.72,32.18.07.04c.21-.13.41-.25.62-.37.16-.09.31-.18.47-.25.03-.02.07-.04.1-.06.04-.02.08-.04.12-.06.02,0,.05-.02.07-.03.07-.03.14-.06.21-.1l.06-.03h.02c1.5-.69,3.16-1.07,4.91-1.07,6.66,0,12.05,5.39,12.05,12.05Z"/>
        <path class="cls-1" d="M129.71,31.48c-1.75,0-3.42.38-4.91,1.07h-.02l-.06.03c-.07.04-.14.07-.21.1-.02.01-.05.03-.07.03-.04.02-.08.04-.12.06l-1.25.65L68.36,1.23c-1.71-1.01-3.85-.98-5.54.08L2.52,38.99c-1.57.98-2.52,2.69-2.52,4.53v18.85c0,1.96,1.08,3.76,2.79,4.7l62.19,33.91c.12.07.24.13.37.19.01.01.03.01.04.02.07.03.12.06.18.08.1.04.2.07.3.1,0,0,0,.02.02,0t.02,0c.23.06.46.12.7.16.08,0,.16.04.23.05.18.02.36.03.54.04.05,0,.1.01.15.01,1.59,0,3.14-.71,4.17-2.01h0s.07-.09.1-.14c.16-.2.29-.41.42-.65,1.41-2.59.46-5.84-2.13-7.25L10.7,59.2v-12.71L65.73,12.1l51.89,30.53.06,1.41s0,.08,0,.12c.01.3.04.6.08.89,0,.03,0,.06.01.1.03.22.06.42.11.64,0,.07.02.14.03.21.09.38.19.76.29,1.14.06.19.12.37.2.56.07.19.14.36.22.55.07.18.15.35.23.53.18.35.36.7.56,1.03.1.17.21.32.31.49.11.16.23.31.33.47.11.16.23.31.36.46.12.15.24.29.37.43.13.15.26.28.4.42.14.15.27.27.42.4.14.13.28.25.43.37.59.5,1.23.93,1.93,1.29,1.7.93,3.66,1.46,5.74,1.46,6.66,0,12.05-5.39,12.05-12.04s-5.39-12.05-12.05-12.05ZM129.71,52.98c-5.21,0-9.45-4.24-9.43-9.58.03-.18.05-.34.06-.52l.11-1.61L65.69,9.06,8.1,45.05v15.69l60.75,33.13c.65.35,1.13.93,1.33,1.63.21.7.13,1.45-.23,2.09-.71,1.29-2.43,1.81-3.73,1.1L4.03,64.79c-.88-.48-1.43-1.41-1.43-2.42v-18.85c0-.95.48-1.82,1.28-2.33L64.18,3.51c.45-.27.96-.42,1.47-.42.48,0,.96.13,1.39.38l56.17,33.04,1.35-.89c1.55-1.01,3.33-1.55,5.15-1.55,5.22,0,9.46,4.24,9.46,9.45s-4.24,9.46-9.46,9.46Z"/>
      </g>
      <g>
        <path class="cls-1" d="M129.71,31.48c-1.75,0-3.42.38-4.91,1.07h-.02l-.06.03c-.07.04-.14.07-.21.1-.02.01-.05.03-.07.03-.04.02-.08.04-.12.06l-1.25.65L68.36,1.23c-1.71-1.01-3.85-.98-5.54.08L2.52,38.99c-1.57.98-2.52,2.69-2.52,4.53v18.85c0,1.96,1.08,3.76,2.79,4.7l62.19,33.91c.12.07.24.13.37.19.01.01.03.01.04.02.07.03.12.06.18.08.1.04.2.07.3.1,0,0,0,.02.02,0t.02,0c.23.06.46.12.7.16.08,0,.16.04.23.05.18.02.36.03.54.04.05,0,.1.01.15.01,1.59,0,3.14-.71,4.17-2.01h0s.07-.09.1-.14c.16-.2.29-.41.42-.65,1.41-2.59.46-5.84-2.13-7.25L10.7,59.2v-12.71L65.73,12.1l51.89,30.53.06,1.41s0,.08,0,.12c.01.3.04.6.08.89,0,.03,0,.06.01.1.03.22.06.42.11.64,0,.07.02.14.03.21.09.38.19.76.29,1.14.06.19.12.37.2.56.07.19.14.36.22.55.07.18.15.35.23.53.18.35.36.7.56,1.03.1.17.21.32.31.49.11.16.23.31.33.47.11.16.23.31.36.46.12.15.24.29.37.43.13.15.26.28.4.42.14.15.27.27.42.4.14.13.28.25.43.37.59.5,1.23.93,1.93,1.29,1.7.93,3.66,1.46,5.74,1.46,6.66,0,12.05-5.39,12.05-12.04s-5.39-12.05-12.05-12.05ZM129.71,52.98c-5.21,0-9.45-4.24-9.43-9.58.03-.18.05-.34.06-.52l.11-1.61L65.69,9.06,8.1,45.05v15.69l60.75,33.13c.65.35,1.13.93,1.33,1.63.21.7.13,1.45-.23,2.09-.71,1.29-2.43,1.81-3.73,1.1L4.03,64.79c-.88-.48-1.43-1.41-1.43-2.42v-18.85c0-.95.48-1.82,1.28-2.33L64.18,3.51c.45-.27.96-.42,1.47-.42.48,0,.96.13,1.39.38l56.17,33.04,1.35-.89c1.55-1.01,3.33-1.55,5.15-1.55,5.22,0,9.46,4.24,9.46,9.45s-4.24,9.46-9.46,9.46Z"/>
        <path class="cls-1" d="M129.71,31.48c-1.75,0-3.42.38-4.91,1.07h-.01s-.05.02-.07.03c-.07.04-.14.07-.21.1-.02.01-.05.03-.07.03-.07.04-.15.08-.22.12-.16.08-.31.17-.47.25-.21.12-.41.24-.62.37l-.07-.04L68.36,1.23c-1.71-1.01-3.85-.98-5.54.08L2.52,38.99c-1.57.98-2.52,2.69-2.52,4.53v18.85c0,1.96,1.08,3.76,2.79,4.7l62.19,33.91c.12.07.24.13.37.19.01.01.03.01.04.02.07.03.12.06.18.08.1.04.2.07.3.1,0,0,0,.02.02,0t.02,0c.23.06.46.12.7.16.08,0,.16.04.23.05.18.02.36.03.54.04.05,0,.1.01.15.01,1.59,0,3.14-.71,4.17-2.01h0s.07-.09.1-.14c.16-.2.29-.41.42-.65,1.41-2.59.46-5.84-2.13-7.25L10.7,59.2v-12.71L65.73,12.1l51.89,30.53.13.08-.02.21-.04.48c0,3.29,1.24,6.36,3.53,8.66.82.83,1.75,1.52,2.75,2.07,1.7.93,3.66,1.46,5.74,1.46,6.66,0,12.05-5.39,12.05-12.04s-5.39-12.05-12.05-12.05ZM129.71,50.37c-1.81,0-3.52-.7-4.81-2-1.27-1.28-1.99-2.99-2.02-4.82.02-.18.04-.34.05-.51l.22-3.21L65.65,6.02,5.5,43.61v18.67l62.18,33.96-.22.18L5.2,62.37l.07-18.97L65.55,5.72s.07-.03.1-.03l57.63,33.87,2.7-1.76c1.13-.73,2.42-1.13,3.73-1.13,3.78,0,6.85,3.07,6.85,6.84s-3.07,6.85-6.85,6.85ZM65.56,101.25c-.07-.02-.12-.05-.18-.07.07.03.12.06.18.08.1.04.2.07.3.1-.11-.03-.21-.07-.3-.11ZM66.6,101.54c.08,0,.16.04.23.05.71.09,1.46.03,2.18-.19.31-.09.62-.23.9-.38-1.02.5-2.19.7-3.32.52Z"/>
      </g>
    </g>
    <g>
      <path class="cls-1" d="M145.01,159.59l-73.49,43.69-61.3-37.53c-3.06-1.87-4.02-5.86-2.15-8.93,1.88-3.05,5.87-4.02,8.94-2.14l54.61,33.42,66.76-39.69c3.08-1.82,7.07-.81,8.9,2.27,1.84,3.08.82,7.07-2.26,8.9Z"/>
      <path class="cls-1" d="M147.27,150.69c-1.83-3.08-5.82-4.09-8.9-2.27l-66.76,39.69-54.61-33.42c-3.06-1.88-7.06-.91-8.94,2.14-1.87,3.06-.91,7.06,2.15,8.93l61.3,37.53,73.49-43.69c3.08-1.83,4.1-5.82,2.26-8.9ZM143.68,157.36l-72.14,42.89-59.96-36.7c-.88-.55-1.51-1.4-1.75-2.41-.24-1.02-.08-2.07.47-2.95.54-.89,1.4-1.52,2.41-1.76.3-.07.62-.11.92-.11.71,0,1.41.2,2.03.58l55.95,34.25,68.1-40.48c1.85-1.11,4.25-.49,5.35,1.35,1.1,1.85.49,4.25-1.36,5.35Z"/>
    </g>
  </g>
  <g>
    <g>
      <path class="cls-1" d="M316.32,28.4c-7.27-6.53-22.75-15.1-45.12-15.1-15.66,0-31.7,5.59-31.7,20.88s20.14,16.41,39.9,17.53c21.26,1.49,55.56,3.54,55.56,36.17,0,28.34-25.17,39.72-54.45,39.72-30.95,0-50.72-12.87-63.95-24.98l9.88-11.19c10.26,9.51,27.22,22.37,54.44,22.37,20.7,0,37.85-7.46,37.85-23.87,0-18.27-18.65-21.07-39.34-22.56-26.29-1.68-56.12-3.54-56.12-31.7S249.94-.5,271.76-.5c25.17,0,44.94,10.07,54.26,17.71l-9.7,11.19Z"/>
      <path class="cls-1" d="M364.04,124.43V2.67h16.22v121.76h-16.22Z"/>
      <path class="cls-1" d="M437.87,2.67v107.4h76.82v14.36h-93.04V2.67h16.22Z"/>
      <path class="cls-1" d="M537.43,124.43V2.67h16.22v121.76h-16.22Z"/>
      <path class="cls-1" d="M709.34,103.36c-13.24,13.05-33.38,24.24-58.36,24.24-39.34,0-66.94-28.71-66.94-64.14S611.64-.5,650.23-.5c21.82,0,42.33,8.39,55.75,20.88l-11,10.81c-11.19-10.63-28.34-17.34-44.38-17.34-29.09,0-49.6,22.56-49.6,49.78s20.7,49.6,50.16,49.6c19.39,0,36.17-8.95,47.36-20.51l10.81,10.63Z"/>
      <path class="cls-1" d="M793.23-.5c37.66,0,67.87,28.53,67.87,63.77s-30.21,64.33-67.87,64.33-67.5-28.53-67.5-64.33S755.38-.5,793.23-.5ZM793.23,113.24c28.53,0,50.9-22.38,50.9-49.97s-22.37-49.41-50.9-49.41-50.53,22.19-50.53,49.41,22,49.97,50.53,49.97Z"/>
      <path class="cls-1" d="M1000,2.67v121.76h-14.73l-77.38-93.41h-.19v93.41h-16.22V2.67h14.73l77.38,93.42h.19V2.67h16.22Z"/>
    </g>
    <g>
      <path class="cls-1" d="M253.33,197.15c-4.01,3.96-10.12,7.35-17.69,7.35-11.93,0-20.29-8.71-20.29-19.45s8.37-19.39,20.07-19.39c6.61,0,12.83,2.54,16.9,6.33l-3.33,3.28c-3.39-3.22-8.59-5.26-13.46-5.26-8.82,0-15.04,6.84-15.04,15.09s6.28,15.04,15.21,15.04c5.88,0,10.97-2.71,14.36-6.22l3.28,3.22Z"/>
      <path class="cls-1" d="M294.99,186.3h-14.92v12.89h26.06v4.35h-30.98v-36.91h29.68v4.35h-24.76v10.97h14.92v4.35Z"/>
      <path class="cls-1" d="M361.01,166.62v36.91h-4.47l-23.46-28.32h-.06v28.32h-4.92v-36.91h4.47l23.46,28.32h.06v-28.32h4.92Z"/>
      <path class="cls-1" d="M382.03,166.62h33.58v4.35h-14.3v32.56h-4.92v-32.56h-14.36v-4.35Z"/>
      <path class="cls-1" d="M468.35,166.62v23.8c0,8.99-6.95,14.08-16.28,14.08s-16.17-5.09-16.17-14.08v-23.8h4.86v23.8c0,6.27,4.97,9.72,11.3,9.72s11.36-3.45,11.36-9.72v-23.8h4.92Z"/>
      <path class="cls-1" d="M493.72,203.54v-36.91h20.35c4.75,0,8.03,1.3,10.34,3.73,1.81,1.92,2.83,4.41,2.83,7.24,0,4.97-3.39,8.88-8.59,10.29l9.1,15.66h-5.6l-8.48-15.04h-15.04v15.04h-4.92ZM498.64,170.98v13.17h16.68c4.07,0,7.07-3,7.07-6.61,0-1.64-.68-3.16-1.75-4.3-1.81-1.81-4.01-2.26-6.56-2.26h-15.43Z"/>
      <path class="cls-1" d="M580.55,166.62l-15.15,19.62v17.3h-4.92v-17.3l-15.15-19.62h6.22l11.59,15.26,11.64-15.26h5.77Z"/>
      <path class="cls-1" d="M685.91,197.15c-4.01,3.96-10.12,7.35-17.69,7.35-11.93,0-20.29-8.71-20.29-19.45s8.37-19.39,20.07-19.39c6.61,0,12.83,2.54,16.9,6.33l-3.33,3.28c-3.39-3.22-8.59-5.26-13.46-5.26-8.82,0-15.04,6.84-15.04,15.09s6.28,15.04,15.21,15.04c5.88,0,10.97-2.71,14.36-6.22l3.28,3.22Z"/>
      <path class="cls-1" d="M705.01,203.54l17.13-36.91h4.64l17.13,36.91h-5.37l-5.03-11.08h-18.43l-4.97,11.08h-5.09ZM716.82,188.5h14.92l-7.29-16.11h-.34l-7.29,16.11Z"/>
      <path class="cls-1" d="M769.5,203.54v-36.91h19.96c4.8,0,8.03,1.3,10.34,3.73,1.86,2.04,2.83,4.52,2.83,7.12,0,3.05-1.24,5.71-3.28,7.63-2.21,2.15-5.31,3.39-9.89,3.39h-15.04v15.04h-4.92ZM774.42,170.98v13.17h15.04c2.09,0,4.41-.28,6.33-2.09,1.24-1.19,1.98-2.83,1.98-4.52s-.62-3.05-1.75-4.3c-1.75-1.87-4.13-2.26-6.56-2.26h-15.04Z"/>
      <path class="cls-1" d="M828.74,203.54v-36.91h4.92v36.91h-4.92Z"/>
      <path class="cls-1" d="M859.2,166.62h33.58v4.35h-14.3v32.56h-4.92v-32.56h-14.36v-4.35Z"/>
      <path class="cls-1" d="M910.3,203.54l17.13-36.91h4.64l17.13,36.91h-5.37l-5.03-11.08h-18.43l-4.97,11.08h-5.09ZM922.11,188.5h14.92l-7.29-16.11h-.34l-7.29,16.11Z"/>
      <path class="cls-1" d="M976.32,166.62v32.56h23.29v4.35h-28.21v-36.91h4.92Z"/>
    </g>
  </g>
</svg>