<?xml version="1.0" encoding="UTF-8"?>
<svg id="Layer_1" data-name="Layer 1" xmlns="http://www.w3.org/2000/svg" viewBox="0 0 1000 280">
  <defs>
    <style>
      .cls-1, .cls-2 {
        stroke-width: 0px;
      }

      .cls-2 {
        fill: #fff;
      }
    </style>
  </defs>
  <rect class="cls-2" width="1000" height="280"/>
  <g>
    <g>
      <g>
        <g>
          <path class="cls-1" d="M215.15,136.39v14.99c0,1.46-.76,2.83-2,3.6l-47.94,29.96c-.14.09-.29.17-.44.24-.12.05-.25.11-.37.16h0c-.31.12-.64.19-.97.23-.16.02-.32.03-.47.03-.18,0-.37-.02-.54-.04-.09-.02-.18-.03-.26-.05-.09-.02-.18-.03-.26-.05-.09-.02-.18-.05-.26-.08h0s-.03,0-.04-.02c-.07-.02-.15-.05-.22-.09-.02,0-.03,0-.05-.02-.06-.02-.13-.05-.2-.09h0s-.02-.02-.03-.02c-.07-.04-.14-.08-.21-.12-.02-.02-.05-.02-.07-.04l-43.49-25.58-.06-.04c-.14.09-.28.18-.43.26,0,0,0,0,0,0-.09.05-.19.11-.28.16-.03.02-.05.03-.08.05-1.33.69-2.83,1.1-4.44,1.1-5.29,0-9.58-4.29-9.58-9.58s4.29-9.58,9.58-9.58c1.65,0,3.21.42,4.57,1.16.11.06.23.12.33.19.02,0,.05.02.06.03.13.08.26.16.39.25.02,0,.02.02.04.03.12.08.23.16.33.23.14.1.29.21.42.33.08.06.15.12.22.19.14.11.27.24.4.37.11.11.21.22.32.33.2.23.4.46.58.71.09.12.18.25.26.37.09.13.17.26.25.39.02.03.05.06.06.1.13.23.26.47.38.72.2.42.37.86.51,1.31.05.15.09.3.12.45.04.16.08.31.11.47.03.16.06.3.09.46,0,.09.02.17.03.25.02.12.03.24.04.37,0,.12.02.24.02.37,0,.16.02.33.02.49s-.02.33-.05.5l-.02.16.1.06,41.26,24.27,43.76-27.36v-10.1l-47.22-25.77c-2.06-1.12-2.83-3.71-1.7-5.77.58-1.06,1.55-1.78,2.63-2.07.12-.04.26-.06.39-.09.04,0,.09,0,.12-.02,0,0,.02,0,.03,0,.42-.05.84-.05,1.26.02,0,0,0,0,0,0h.04s.1.02.16.04c.03,0,.05,0,.09.02.36.09.71.22,1.04.4l49.44,26.97c.13.07.26.15.38.23.07.05.13.1.2.16.05.03.09.07.13.1.02.02.04.03.05.05.9.79,1.45,1.95,1.45,3.18Z"/>
          <path class="cls-1" d="M213.7,133.2s-.04-.04-.05-.05c-.05-.03-.09-.07-.13-.1-.07-.05-.13-.1-.2-.16-.12-.09-.25-.16-.38-.23l-49.44-26.97c-.33-.19-.68-.32-1.04-.4-.03,0-.05-.02-.09-.02-.05-.02-.11-.03-.16-.04-.02,0-.03,0-.05,0-.42-.07-.84-.07-1.26-.02,0,0-.02,0-.03,0-.04,0-.09.02-.12.02-.13.02-.26.05-.39.09-1.08.29-2.06,1.01-2.63,2.07-1.13,2.06-.37,4.65,1.7,5.77l47.22,25.77v10.1l-43.76,27.36-41.26-24.27-.05-1.13s0-.05,0-.09c0-.12-.02-.24-.02-.37,0-.12-.02-.24-.04-.37,0-.08-.02-.16-.03-.25-.02-.16-.05-.3-.09-.46-.03-.16-.07-.31-.11-.47-.04-.15-.08-.3-.12-.45-.14-.45-.31-.89-.51-1.31-.12-.25-.24-.48-.38-.72-.02-.04-.04-.07-.06-.1-.08-.13-.16-.26-.25-.39-.09-.12-.17-.25-.26-.37-.17-.25-.37-.48-.58-.71-.11-.12-.21-.23-.32-.33-.13-.13-.26-.26-.4-.37-.07-.07-.14-.13-.22-.19-.13-.12-.28-.23-.42-.33-.11-.08-.22-.16-.33-.23-.02-.02-.02-.02-.04-.03-.12-.09-.26-.17-.39-.25-.13-.09-.26-.16-.4-.23-1.36-.74-2.92-1.16-4.57-1.16-5.29,0-9.58,4.29-9.58,9.58s4.29,9.58,9.58,9.58c1.6,0,3.11-.4,4.44-1.1l.86-.43,43.49,25.58s.05.02.07.04c.07.04.14.08.21.12.02,0,.02,0,.03.02.07.03.14.06.2.09.02,0,.03.02.05.02.07.03.15.06.22.09.02,0,.03,0,.04.02.09.02.17.05.26.08.09.02.18.04.26.05.09.02.18.03.26.05.18.02.37.04.54.04.16,0,.32,0,.47-.03.33-.03.65-.11.97-.23h0c.12-.05.25-.1.37-.16.15-.07.3-.16.44-.24l47.94-29.96c1.25-.78,2-2.14,2-3.6v-14.99c0-1.24-.55-2.4-1.45-3.18ZM213.08,151.37c0,.76-.38,1.45-1.02,1.85l-47.95,29.96c-.68.43-1.58.44-2.27.03l-44.67-26.27-1.07.7c-1.23.8-2.65,1.23-4.09,1.23-4.14,0-7.51-3.37-7.51-7.51s3.37-7.51,7.51-7.51,7.51,3.37,7.5,7.62c-.02.13-.04.26-.05.4l-.09,1.28,43.55,25.62,45.79-28.62v-12.47l-48.3-26.35c-.51-.28-.89-.74-1.05-1.3s-.1-1.15.18-1.67c.28-.51.74-.89,1.3-1.05.56-.16,1.15-.1,1.67.18l49.44,26.97c.7.39,1.14,1.13,1.14,1.92v14.99Z"/>
        </g>
        <g>
          <path class="cls-1" d="M213.7,133.2s-.04-.04-.05-.05c-.05-.03-.09-.07-.13-.1-.07-.05-.13-.1-.2-.16-.12-.09-.25-.16-.38-.23l-49.44-26.97c-.33-.19-.68-.32-1.04-.4-.03,0-.05-.02-.09-.02-.05-.02-.11-.03-.16-.04-.02,0-.03,0-.05,0-.42-.07-.84-.07-1.26-.02,0,0-.02,0-.03,0-.04,0-.09.02-.12.02-.13.02-.26.05-.39.09-1.08.29-2.06,1.01-2.63,2.07-1.13,2.06-.37,4.65,1.7,5.77l47.22,25.77v10.1l-43.76,27.36-41.26-24.27-.05-1.13s0-.05,0-.09c0-.12-.02-.24-.02-.37,0-.12-.02-.24-.04-.37,0-.08-.02-.16-.03-.25-.02-.16-.05-.3-.09-.46-.03-.16-.07-.31-.11-.47-.04-.15-.08-.3-.12-.45-.14-.45-.31-.89-.51-1.31-.12-.25-.24-.48-.38-.72-.02-.04-.04-.07-.06-.1-.08-.13-.16-.26-.25-.39-.09-.12-.17-.25-.26-.37-.17-.25-.37-.48-.58-.71-.11-.12-.21-.23-.32-.33-.13-.13-.26-.26-.4-.37-.07-.07-.14-.13-.22-.19-.13-.12-.28-.23-.42-.33-.11-.08-.22-.16-.33-.23-.02-.02-.02-.02-.04-.03-.12-.09-.26-.17-.39-.25-.13-.09-.26-.16-.4-.23-1.36-.74-2.92-1.16-4.57-1.16-5.29,0-9.58,4.29-9.58,9.58s4.29,9.58,9.58,9.58c1.6,0,3.11-.4,4.44-1.1l.86-.43,43.49,25.58s.05.02.07.04c.07.04.14.08.21.12.02,0,.02,0,.03.02.07.03.14.06.2.09.02,0,.03.02.05.02.07.03.15.06.22.09.02,0,.03,0,.04.02.09.02.17.05.26.08.09.02.18.04.26.05.09.02.18.03.26.05.18.02.37.04.54.04.16,0,.32,0,.47-.03.33-.03.65-.11.97-.23h0c.12-.05.25-.1.37-.16.15-.07.3-.16.44-.24l47.94-29.96c1.25-.78,2-2.14,2-3.6v-14.99c0-1.24-.55-2.4-1.45-3.18ZM213.08,151.37c0,.76-.38,1.45-1.02,1.85l-47.95,29.96c-.68.43-1.58.44-2.27.03l-44.67-26.27-1.07.7c-1.23.8-2.65,1.23-4.09,1.23-4.14,0-7.51-3.37-7.51-7.51s3.37-7.51,7.51-7.51,7.51,3.37,7.5,7.62c-.02.13-.04.26-.05.4l-.09,1.28,43.55,25.62,45.79-28.62v-12.47l-48.3-26.35c-.51-.28-.89-.74-1.05-1.3s-.1-1.15.18-1.67c.28-.51.74-.89,1.3-1.05.56-.16,1.15-.1,1.67.18l49.44,26.97c.7.39,1.14,1.13,1.14,1.92v14.99Z"/>
          <path class="cls-1" d="M213.7,133.2c-.06-.05-.12-.11-.19-.16-.07-.05-.13-.1-.2-.16-.12-.09-.25-.16-.38-.23l-49.44-26.97c-.33-.19-.68-.32-1.04-.4-.03,0-.05-.02-.09-.02-.06-.02-.13-.03-.19-.04-.23-.04-.46-.05-.7-.05-.19,0-.4.02-.6.04-.04,0-.09.02-.12.02-.13.02-.26.05-.39.09-1.08.29-2.06,1.01-2.63,2.07-1.13,2.06-.37,4.65,1.7,5.77l47.22,25.77v10.1l-43.76,27.36-41.26-24.27-.1-.06.02-.16.03-.38c.02-2.62-.99-5.06-2.81-6.9-.42-.42-.88-.8-1.35-1.14-.16-.11-.33-.21-.49-.31-.11-.07-.23-.13-.33-.19-1.36-.74-2.92-1.16-4.57-1.16-5.29,0-9.58,4.29-9.58,9.58s4.29,9.58,9.58,9.58c1.6,0,3.11-.4,4.44-1.1.02-.02.05-.03.08-.05.09-.05.19-.1.28-.16,0,0,0,0,0,0,.15-.08.29-.16.43-.26l.06.04,43.49,25.58s.05.02.07.04c.07.04.14.08.21.12.02,0,.02,0,.03.02.07.03.14.06.2.09.02,0,.03.02.05.02.07.03.15.06.22.09.02,0,.03,0,.04.02.09.02.17.05.26.08.09.02.18.04.26.05.09.02.18.03.26.05.18.02.37.04.54.04.16,0,.32,0,.47-.03.33-.03.65-.11.97-.23h0c.12-.05.25-.1.37-.16.15-.07.3-.16.44-.24l47.94-29.96c1.25-.78,2-2.14,2-3.6v-14.99c0-1.24-.55-2.4-1.45-3.18ZM162.89,181.44l-45.77-26.93-2.15,1.41c-.9.58-1.91.9-2.97.9-3,0-5.45-2.44-5.45-5.45s2.44-5.45,5.45-5.45c1.44,0,2.8.57,3.82,1.59,1.01,1.02,1.58,2.37,1.6,3.84-.02.12-.02.26-.04.38l-.19,2.56,45.74,26.9,47.82-29.89v-14.85l-49.44-27.01.18-.14,49.5,27.07-.05,15.09-48.07,29.97ZM161.11,185.16c-.08-.04-.16-.08-.24-.12.07.04.14.08.21.12.02,0,.02,0,.03.02.07.03.14.06.2.09-.06-.03-.13-.06-.2-.09ZM161.61,185.37c-.09-.03-.17-.06-.26-.09.07.03.15.06.22.09.02,0,.03,0,.04.02.09.02.17.05.26.08.09.02.18.04.26.05.09.02.18.03.26.05.34.04.68.05,1.02,0,.16-.02.32-.05.48-.09-.76.16-1.55.13-2.29-.11Z"/>
        </g>
      </g>
      <g>
        <g>
          <path class="cls-1" d="M215.15,93.51c0,5.29-4.29,9.58-9.58,9.58-1.65,0-3.21-.42-4.56-1.16-.55-.29-1.07-.63-1.53-1.03-.12-.09-.23-.19-.34-.3-.12-.1-.23-.2-.33-.32-.11-.11-.22-.22-.32-.33-.1-.11-.2-.23-.3-.34-.1-.12-.2-.24-.29-.37-.09-.12-.18-.25-.26-.37-.09-.13-.17-.26-.25-.39-.16-.26-.3-.54-.44-.82-.07-.14-.13-.28-.19-.42-.06-.15-.12-.29-.17-.44-.06-.15-.11-.3-.16-.44-.09-.3-.16-.6-.23-.9,0-.05-.02-.11-.02-.16-.04-.17-.06-.33-.09-.51,0-.03,0-.05,0-.08-.03-.23-.05-.47-.06-.71,0-.16-.02-.33-.02-.49s.02-.33.05-.5l.02-.16-.1-.06-41.26-24.27-43.76,27.35v10.1l47.23,25.76c2.06,1.12,2.82,3.71,1.7,5.77-.1.19-.21.36-.33.51-.02.04-.05.07-.08.1h0c-.82,1.04-2.06,1.6-3.32,1.6-.04,0-.08,0-.12,0-.15,0-.29-.01-.43-.03-.06,0-.12-.03-.19-.04-.19-.03-.37-.08-.55-.12t-.02,0s0,0-.02,0c-.09-.02-.16-.05-.24-.08h0c-.05-.02-.09-.05-.14-.06,0,0-.02,0-.03-.02-.1-.05-.2-.09-.3-.15l-49.45-26.97c-1.36-.75-2.22-2.18-2.22-3.74v-14.99c0-1.46.76-2.83,2-3.6l47.95-29.96c1.35-.84,3.04-.86,4.41-.06l43.51,25.59.05.03c.16-.1.33-.2.49-.3.12-.07.25-.14.37-.2.02-.02.05-.03.08-.05.03-.02.06-.03.09-.05.02,0,.04-.02.05-.02.05-.02.11-.05.16-.08l.05-.02h.02c1.19-.54,2.51-.85,3.91-.85,5.29,0,9.58,4.29,9.58,9.58Z"/>
          <path class="cls-1" d="M205.56,83.93c-1.39,0-2.72.3-3.91.85h-.02l-.05.02c-.05.03-.11.05-.16.08-.02,0-.04.02-.05.02-.03.02-.06.03-.09.05l-1,.51-43.51-25.59c-1.36-.8-3.06-.78-4.41.06l-47.95,29.96c-1.25.78-2,2.14-2,3.6v14.99c0,1.56.86,2.99,2.22,3.74l49.45,26.97c.09.05.19.1.3.15,0,0,.02,0,.03.02.05.02.09.05.14.06.08.03.16.05.24.08,0,0,0,.02.02,0t.02,0c.18.05.37.09.55.12.06,0,.12.03.19.04.14.02.29.03.43.03.04,0,.08,0,.12,0,1.26,0,2.5-.57,3.32-1.6h0s.05-.07.08-.11c.12-.16.23-.33.33-.51,1.12-2.06.37-4.65-1.7-5.77l-47.23-25.76v-10.1l43.76-27.35,41.26,24.27.05,1.12s0,.06,0,.09c0,.24.03.47.06.71,0,.02,0,.05,0,.08.02.17.05.33.09.51,0,.05.02.11.02.16.07.3.15.61.23.9.05.15.09.3.16.44.05.15.11.29.17.44.05.14.12.28.19.42.14.28.29.55.44.82.08.13.16.26.25.39.09.12.18.25.26.37.09.12.19.25.29.37.09.12.19.23.3.34.1.12.21.23.32.33.11.12.22.22.33.32.11.1.23.2.34.3.47.4.98.74,1.53,1.03,1.35.74,2.91,1.16,4.56,1.16,5.29,0,9.58-4.29,9.58-9.58s-4.29-9.58-9.58-9.58ZM205.56,101.02c-4.14,0-7.51-3.37-7.5-7.62.02-.14.04-.27.05-.41l.09-1.28-43.54-25.61-45.8,28.62v12.48l48.3,26.34c.51.28.9.74,1.06,1.3.16.56.1,1.15-.18,1.67-.56,1.03-1.93,1.44-2.97.87l-49.45-26.97c-.7-.38-1.14-1.12-1.14-1.92v-14.99c0-.76.38-1.45,1.02-1.85l47.95-29.96c.36-.22.76-.33,1.17-.33.38,0,.76.1,1.11.3l44.66,26.27,1.07-.71c1.23-.8,2.65-1.23,4.09-1.23,4.15,0,7.52,3.37,7.52,7.51s-3.37,7.52-7.52,7.52Z"/>
        </g>
        <g>
          <path class="cls-1" d="M205.56,83.93c-1.39,0-2.72.3-3.91.85h-.02l-.05.02c-.05.03-.11.05-.16.08-.02,0-.04.02-.05.02-.03.02-.06.03-.09.05l-1,.51-43.51-25.59c-1.36-.8-3.06-.78-4.41.06l-47.95,29.96c-1.25.78-2,2.14-2,3.6v14.99c0,1.56.86,2.99,2.22,3.74l49.45,26.97c.09.05.19.1.3.15,0,0,.02,0,.03.02.05.02.09.05.14.06.08.03.16.05.24.08,0,0,0,.02.02,0t.02,0c.18.05.37.09.55.12.06,0,.12.03.19.04.14.02.29.03.43.03.04,0,.08,0,.12,0,1.26,0,2.5-.57,3.32-1.6h0s.05-.07.08-.11c.12-.16.23-.33.33-.51,1.12-2.06.37-4.65-1.7-5.77l-47.23-25.76v-10.1l43.76-27.35,41.26,24.27.05,1.12s0,.06,0,.09c0,.24.03.47.06.71,0,.02,0,.05,0,.08.02.17.05.33.09.51,0,.05.02.11.02.16.07.3.15.61.23.9.05.15.09.3.16.44.05.15.11.29.17.44.05.14.12.28.19.42.14.28.29.55.44.82.08.13.16.26.25.39.09.12.18.25.26.37.09.12.19.25.29.37.09.12.19.23.3.34.1.12.21.23.32.33.11.12.22.22.33.32.11.1.23.2.34.3.47.4.98.74,1.53,1.03,1.35.74,2.91,1.16,4.56,1.16,5.29,0,9.58-4.29,9.58-9.58s-4.29-9.58-9.58-9.58ZM205.56,101.02c-4.14,0-7.51-3.37-7.5-7.62.02-.14.04-.27.05-.41l.09-1.28-43.54-25.61-45.8,28.62v12.48l48.3,26.34c.51.28.9.74,1.06,1.3.16.56.1,1.15-.18,1.67-.56,1.03-1.93,1.44-2.97.87l-49.45-26.97c-.7-.38-1.14-1.12-1.14-1.92v-14.99c0-.76.38-1.45,1.02-1.85l47.95-29.96c.36-.22.76-.33,1.17-.33.38,0,.76.1,1.11.3l44.66,26.27,1.07-.71c1.23-.8,2.65-1.23,4.09-1.23,4.15,0,7.52,3.37,7.52,7.51s-3.37,7.52-7.52,7.52Z"/>
          <path class="cls-1" d="M205.56,83.93c-1.39,0-2.72.3-3.91.85h0s-.04.02-.05.02c-.05.03-.11.05-.16.08-.02,0-.04.02-.05.02-.05.03-.12.06-.17.09-.12.06-.25.13-.37.2-.16.09-.33.19-.49.3l-.05-.03-43.51-25.59c-1.36-.8-3.06-.78-4.41.06l-47.95,29.96c-1.25.78-2,2.14-2,3.6v14.99c0,1.56.86,2.99,2.22,3.74l49.45,26.97c.09.05.19.1.3.15,0,0,.02,0,.03.02.05.02.09.05.14.06.08.03.16.05.24.08,0,0,0,.02.02,0t.02,0c.18.05.37.09.55.12.06,0,.12.03.19.04.14.02.29.03.43.03.04,0,.08,0,.12,0,1.26,0,2.5-.57,3.32-1.6h0s.05-.07.08-.11c.12-.16.23-.33.33-.51,1.12-2.06.37-4.65-1.7-5.77l-47.23-25.76v-10.1l43.76-27.35,41.26,24.27.1.06-.02.16-.03.38c0,2.62.99,5.06,2.81,6.89.65.66,1.39,1.21,2.19,1.64,1.35.74,2.91,1.16,4.56,1.16,5.29,0,9.58-4.29,9.58-9.58s-4.29-9.58-9.58-9.58ZM205.56,98.95c-1.44,0-2.8-.56-3.82-1.59-1.01-1.02-1.58-2.37-1.6-3.83.02-.14.03-.27.04-.4l.17-2.55-45.72-26.9-47.83,29.89v14.85l49.44,27-.17.14-49.51-27.07.05-15.09,47.94-29.96s.05-.02.08-.02l45.82,26.93,2.15-1.4c.9-.58,1.92-.9,2.97-.9,3,0,5.45,2.44,5.45,5.44s-2.44,5.45-5.45,5.45ZM154.56,139.41c-.05-.02-.09-.04-.14-.05.05.02.09.05.14.06.08.03.16.05.24.08-.09-.02-.16-.05-.24-.09ZM155.38,139.63c.06,0,.12.03.19.04.57.07,1.16.02,1.74-.15.25-.07.49-.18.72-.3-.81.4-1.74.55-2.64.41Z"/>
        </g>
      </g>
      <g>
        <path class="cls-1" d="M217.73,185.8l-58.44,34.74-48.74-29.84c-2.44-1.49-3.2-4.66-1.71-7.1,1.49-2.43,4.67-3.2,7.11-1.7l43.42,26.58,53.08-31.56c2.45-1.45,5.62-.65,7.08,1.81,1.46,2.45.65,5.62-1.8,7.08Z"/>
        <path class="cls-1" d="M219.53,178.72c-1.46-2.45-4.62-3.25-7.08-1.81l-53.08,31.56-43.42-26.58c-2.44-1.49-5.61-.72-7.11,1.7-1.49,2.44-.72,5.61,1.71,7.1l48.74,29.84,58.44-34.74c2.45-1.46,3.26-4.62,1.8-7.08ZM216.67,184.02l-57.36,34.1-47.68-29.18c-.7-.44-1.2-1.11-1.39-1.91-.19-.81-.06-1.64.37-2.34.43-.71,1.11-1.21,1.91-1.4.24-.05.49-.09.73-.09.56,0,1.12.16,1.61.46l44.49,27.23,54.15-32.19c1.47-.88,3.38-.39,4.25,1.07.87,1.47.39,3.38-1.08,4.25Z"/>
      </g>
    </g>
    <g>
      <g>
        <path class="cls-1" d="M353.95,81.48c-5.78-5.19-18.09-12.01-35.88-12.01-12.45,0-25.2,4.45-25.2,16.61s16.01,13.05,31.73,13.94c16.9,1.19,44.18,2.82,44.18,28.76,0,22.54-20.02,31.58-43.29,31.58-24.61,0-40.33-10.23-50.85-19.87l7.86-8.9c8.15,7.56,21.64,17.79,43.29,17.79,16.46,0,30.1-5.93,30.1-18.98,0-14.53-14.83-16.75-31.28-17.94-20.91-1.33-44.63-2.82-44.63-25.2s21.2-28.76,38.55-28.76c20.02,0,35.73,8.01,43.14,14.08l-7.71,8.9Z"/>
        <path class="cls-1" d="M391.89,157.83V61.02h12.9v96.82h-12.9Z"/>
        <path class="cls-1" d="M450.6,61.02v85.4h61.08v11.42h-73.98V61.02h12.9Z"/>
        <path class="cls-1" d="M529.76,157.83V61.02h12.9v96.82h-12.9Z"/>
        <path class="cls-1" d="M666.46,141.08c-10.53,10.38-26.54,19.27-46.41,19.27-31.28,0-53.23-22.83-53.23-51s21.94-50.85,52.63-50.85c17.35,0,33.66,6.67,44.33,16.61l-8.75,8.6c-8.9-8.45-22.53-13.79-35.29-13.79-23.13,0-39.44,17.94-39.44,39.58s16.46,39.44,39.88,39.44c15.42,0,28.76-7.12,37.66-16.31l8.6,8.45Z"/>
        <path class="cls-1" d="M733.16,58.5c29.95,0,53.97,22.68,53.97,50.7s-24.02,51.15-53.97,51.15-53.67-22.68-53.67-51.15,23.57-50.7,53.67-50.7ZM733.16,148.94c22.68,0,40.47-17.79,40.47-39.74s-17.79-39.29-40.47-39.29-40.18,17.64-40.18,39.29,17.5,39.74,40.18,39.74Z"/>
        <path class="cls-1" d="M897.58,61.02v96.82h-11.71l-61.53-74.28h-.15v74.28h-12.9V61.02h11.71l61.53,74.28h.15V61.02h12.9Z"/>
      </g>
      <g>
        <path class="cls-1" d="M303.86,215.66c-3.19,3.15-8.05,5.84-14.07,5.84-9.48,0-16.14-6.92-16.14-15.46s6.65-15.42,15.96-15.42c5.26,0,10.2,2.02,13.44,5.03l-2.65,2.61c-2.7-2.56-6.83-4.18-10.7-4.18-7.01,0-11.96,5.44-11.96,12s4.99,11.96,12.09,11.96c4.68,0,8.72-2.16,11.42-4.94l2.61,2.56Z"/>
        <path class="cls-1" d="M336.99,207.03h-11.87v10.25h20.72v3.46h-24.63v-29.35h23.6v3.46h-19.69v8.72h11.87v3.46Z"/>
        <path class="cls-1" d="M389.48,191.39v29.35h-3.55l-18.65-22.52h-.05v22.52h-3.91v-29.35h3.55l18.65,22.52h.04v-22.52h3.91Z"/>
        <path class="cls-1" d="M406.2,191.39h26.7v3.46h-11.37v25.89h-3.91v-25.89h-11.42v-3.46Z"/>
        <path class="cls-1" d="M474.83,191.39v18.92c0,7.15-5.53,11.19-12.95,11.19s-12.86-4.05-12.86-11.19v-18.92h3.87v18.92c0,4.99,3.96,7.73,8.99,7.73s9.03-2.74,9.03-7.73v-18.92h3.91Z"/>
        <path class="cls-1" d="M495.01,220.74v-29.35h16.18c3.77,0,6.38,1.03,8.23,2.97,1.44,1.53,2.25,3.51,2.25,5.75,0,3.96-2.7,7.06-6.83,8.18l7.24,12.45h-4.45l-6.74-11.96h-11.96v11.96h-3.91ZM498.92,194.85v10.47h13.26c3.24,0,5.62-2.38,5.62-5.26,0-1.3-.54-2.52-1.39-3.42-1.44-1.44-3.19-1.8-5.21-1.8h-12.27Z"/>
        <path class="cls-1" d="M564.05,191.39l-12.05,15.6v13.75h-3.91v-13.75l-12.05-15.6h4.94l9.22,12.14,9.26-12.14h4.59Z"/>
        <path class="cls-1" d="M647.82,215.66c-3.19,3.15-8.05,5.84-14.07,5.84-9.48,0-16.14-6.92-16.14-15.46s6.65-15.42,15.96-15.42c5.26,0,10.2,2.02,13.44,5.03l-2.65,2.61c-2.7-2.56-6.83-4.18-10.7-4.18-7.01,0-11.96,5.44-11.96,12s4.99,11.96,12.09,11.96c4.68,0,8.72-2.16,11.42-4.94l2.61,2.56Z"/>
        <path class="cls-1" d="M663.01,220.74l13.62-29.35h3.69l13.62,29.35h-4.27l-4-8.81h-14.65l-3.96,8.81h-4.04ZM672.41,208.78h11.87l-5.8-12.81h-.27l-5.8,12.81Z"/>
        <path class="cls-1" d="M714.3,220.74v-29.35h15.87c3.82,0,6.38,1.03,8.23,2.97,1.48,1.62,2.25,3.6,2.25,5.66,0,2.43-.99,4.54-2.61,6.07-1.75,1.71-4.23,2.7-7.87,2.7h-11.96v11.96h-3.91ZM718.2,194.85v10.47h11.96c1.66,0,3.51-.22,5.03-1.66.99-.94,1.57-2.25,1.57-3.6s-.5-2.43-1.39-3.42c-1.39-1.48-3.28-1.8-5.21-1.8h-11.96Z"/>
        <path class="cls-1" d="M761.4,220.74v-29.35h3.91v29.35h-3.91Z"/>
        <path class="cls-1" d="M785.62,191.39h26.7v3.46h-11.37v25.89h-3.91v-25.89h-11.42v-3.46Z"/>
        <path class="cls-1" d="M826.25,220.74l13.62-29.35h3.69l13.62,29.35h-4.27l-4-8.81h-14.65l-3.96,8.81h-4.04ZM835.64,208.78h11.87l-5.8-12.81h-.27l-5.8,12.81Z"/>
        <path class="cls-1" d="M878.75,191.39v25.89h18.52v3.46h-22.43v-29.35h3.91Z"/>
      </g>
    </g>
  </g>
</svg>