<?xml version="1.0" encoding="UTF-8"?>
<svg id="Layer_1" data-name="Layer 1" xmlns="http://www.w3.org/2000/svg" viewBox="0 0 500 103">
  <defs>
    <style>
      .cls-1 {
        stroke-width: 0px;
      }
    </style>
  </defs>
  <g>
    <g>
      <g>
        <path class="cls-1" d="M70.88,48.98v9.42c0,.92-.47,1.78-1.26,2.27l-30.14,18.84c-.09.05-.18.11-.27.15-.08.03-.16.07-.24.1h0c-.2.07-.4.12-.61.14-.1.01-.2.02-.3.02-.11,0-.23,0-.34-.02-.05,0-.11-.02-.17-.03-.05,0-.11-.02-.17-.03-.06-.01-.11-.03-.17-.05h0s-.02,0-.02,0c-.04-.01-.09-.03-.14-.05,0,0-.02,0-.03,0-.04-.01-.08-.03-.13-.05h0s-.01,0-.02,0c-.04-.02-.09-.05-.13-.07-.01,0-.03-.01-.04-.02l-27.35-16.09-.04-.02c-.09.06-.18.11-.27.16,0,0,0,0,0,0-.06.03-.12.07-.18.1-.02,0-.03.02-.05.03-.84.44-1.78.69-2.79.69-3.33,0-6.03-2.7-6.03-6.02s2.7-6.03,6.03-6.03c1.04,0,2.02.26,2.87.73.07.04.14.08.21.12.01,0,.03.01.04.02.08.05.17.1.24.16,0,0,.01,0,.02.02.07.05.14.1.21.15.09.06.18.13.26.21.05.04.09.08.14.12.09.07.17.15.25.23.07.07.13.14.2.21.13.14.25.29.37.45.06.08.11.16.17.23.05.08.11.16.16.24.01.02.03.04.04.06.08.15.17.3.24.45.13.26.24.54.32.82.03.09.05.19.08.28.02.1.05.2.07.29.02.1.04.19.05.29,0,.05.01.11.02.16,0,.08.02.15.02.23,0,.08,0,.15.01.23,0,.1,0,.21,0,.31s-.01.21-.03.31v.1s.05.04.05.04l25.94,15.26,27.52-17.2v-6.35l-29.69-16.2c-1.3-.7-1.78-2.33-1.07-3.63.36-.67.97-1.12,1.65-1.3.08-.02.16-.04.24-.05.02,0,.05,0,.08,0,0,0,.01,0,.02,0,.26-.03.53-.03.79,0,0,0,0,0,0,0h.02s.06.01.1.02c.02,0,.03,0,.05,0,.23.05.45.14.66.25l31.09,16.96c.08.04.16.09.24.15.04.03.08.06.13.1.03.02.05.04.08.06,0,0,.02.02.03.03.57.49.91,1.22.91,2Z"/>
        <path class="cls-1" d="M69.97,46.97s-.02-.02-.03-.03c-.03-.02-.05-.04-.08-.06-.04-.03-.08-.06-.13-.1-.08-.05-.16-.1-.24-.15l-31.09-16.96c-.21-.12-.43-.2-.66-.25-.02,0-.03,0-.05,0-.03,0-.07-.02-.1-.02,0,0-.02,0-.03,0-.26-.04-.53-.04-.79,0,0,0-.01,0-.02,0-.02,0-.05,0-.08,0-.08.01-.17.03-.24.05-.68.18-1.29.64-1.65,1.3-.71,1.3-.23,2.92,1.07,3.63l29.69,16.2v6.35l-27.52,17.2-25.94-15.26-.03-.71s0-.03,0-.05c0-.08,0-.15-.01-.23,0-.08-.01-.15-.02-.23,0-.05-.01-.1-.02-.16-.01-.1-.03-.19-.05-.29-.02-.1-.04-.2-.07-.29-.02-.09-.05-.19-.08-.28-.09-.28-.2-.56-.32-.82-.07-.16-.15-.3-.24-.45,0-.02-.02-.04-.04-.06-.05-.08-.1-.16-.16-.24-.05-.08-.11-.16-.17-.23-.11-.16-.23-.3-.37-.45-.07-.07-.13-.14-.2-.21-.08-.08-.17-.17-.25-.23-.04-.04-.09-.08-.14-.12-.08-.08-.18-.15-.26-.21-.07-.05-.14-.1-.21-.15,0,0-.01-.01-.02-.02-.08-.05-.16-.11-.24-.16-.08-.05-.17-.1-.25-.14-.86-.47-1.84-.73-2.87-.73-3.33,0-6.03,2.7-6.03,6.03s2.7,6.02,6.03,6.02c1.01,0,1.95-.25,2.79-.69l.54-.27,27.35,16.09s.03.01.04.02c.04.02.09.05.13.07,0,0,.01,0,.02,0,.04.02.09.04.13.05,0,0,.02,0,.03,0,.04.02.09.04.14.05,0,0,.02,0,.02,0,.05.01.11.03.17.05.05.01.11.02.17.03.05,0,.11.02.17.03.11.01.23.02.34.02.1,0,.2,0,.3-.02.21-.02.41-.07.61-.14h0c.08-.03.16-.06.24-.1.09-.04.19-.1.27-.15l30.14-18.84c.78-.49,1.26-1.35,1.26-2.27v-9.42c0-.78-.34-1.51-.91-2ZM69.58,58.4c0,.47-.24.91-.64,1.16l-30.15,18.84c-.43.27-.99.27-1.42.02l-28.09-16.52-.68.44c-.77.5-1.66.77-2.57.77-2.6,0-4.72-2.12-4.72-4.72s2.12-4.72,4.72-4.72,4.72,2.12,4.71,4.79c0,.08-.02.17-.03.25l-.06.81,27.39,16.11,28.79-18v-7.84l-30.37-16.57c-.32-.18-.56-.47-.66-.82s-.06-.72.11-1.05c.18-.32.47-.56.82-.66.35-.1.72-.06,1.05.11l31.09,16.96c.44.24.71.71.71,1.21v9.42Z"/>
      </g>
      <g>
        <path class="cls-1" d="M69.97,46.97s-.02-.02-.03-.03c-.03-.02-.05-.04-.08-.06-.04-.03-.08-.06-.13-.1-.08-.05-.16-.1-.24-.15l-31.09-16.96c-.21-.12-.43-.2-.66-.25-.02,0-.03,0-.05,0-.03,0-.07-.02-.1-.02,0,0-.02,0-.03,0-.26-.04-.53-.04-.79,0,0,0-.01,0-.02,0-.02,0-.05,0-.08,0-.08.01-.17.03-.24.05-.68.18-1.29.64-1.65,1.3-.71,1.3-.23,2.92,1.07,3.63l29.69,16.2v6.35l-27.52,17.2-25.94-15.26-.03-.71s0-.03,0-.05c0-.08,0-.15-.01-.23,0-.08-.01-.15-.02-.23,0-.05-.01-.1-.02-.16-.01-.1-.03-.19-.05-.29-.02-.1-.04-.2-.07-.29-.02-.09-.05-.19-.08-.28-.09-.28-.2-.56-.32-.82-.07-.16-.15-.3-.24-.45,0-.02-.02-.04-.04-.06-.05-.08-.1-.16-.16-.24-.05-.08-.11-.16-.17-.23-.11-.16-.23-.3-.37-.45-.07-.07-.13-.14-.2-.21-.08-.08-.17-.17-.25-.23-.04-.04-.09-.08-.14-.12-.08-.08-.18-.15-.26-.21-.07-.05-.14-.1-.21-.15,0,0-.01-.01-.02-.02-.08-.05-.16-.11-.24-.16-.08-.05-.17-.1-.25-.14-.86-.47-1.84-.73-2.87-.73-3.33,0-6.03,2.7-6.03,6.03s2.7,6.02,6.03,6.02c1.01,0,1.95-.25,2.79-.69l.54-.27,27.35,16.09s.03.01.04.02c.04.02.09.05.13.07,0,0,.01,0,.02,0,.04.02.09.04.13.05,0,0,.02,0,.03,0,.04.02.09.04.14.05,0,0,.02,0,.02,0,.05.01.11.03.17.05.05.01.11.02.17.03.05,0,.11.02.17.03.11.01.23.02.34.02.1,0,.2,0,.3-.02.21-.02.41-.07.61-.14h0c.08-.03.16-.06.24-.1.09-.04.19-.1.27-.15l30.14-18.84c.78-.49,1.26-1.35,1.26-2.27v-9.42c0-.78-.34-1.51-.91-2ZM69.58,58.4c0,.47-.24.91-.64,1.16l-30.15,18.84c-.43.27-.99.27-1.42.02l-28.09-16.52-.68.44c-.77.5-1.66.77-2.57.77-2.6,0-4.72-2.12-4.72-4.72s2.12-4.72,4.72-4.72,4.72,2.12,4.71,4.79c0,.08-.02.17-.03.25l-.06.81,27.39,16.11,28.79-18v-7.84l-30.37-16.57c-.32-.18-.56-.47-.66-.82s-.06-.72.11-1.05c.18-.32.47-.56.82-.66.35-.1.72-.06,1.05.11l31.09,16.96c.44.24.71.71.71,1.21v9.42Z"/>
        <path class="cls-1" d="M69.97,46.97s-.08-.07-.12-.1c-.04-.03-.08-.06-.13-.1-.08-.05-.16-.1-.24-.15l-31.09-16.96c-.21-.12-.43-.2-.66-.25-.02,0-.03,0-.05,0-.04,0-.08-.02-.12-.02-.14-.02-.29-.03-.44-.03-.12,0-.25,0-.38.02-.02,0-.05,0-.08,0-.08.01-.17.03-.24.05-.68.18-1.29.64-1.65,1.3-.71,1.3-.23,2.92,1.07,3.63l29.69,16.2v6.35l-27.52,17.2-25.94-15.26-.06-.04v-.1s.03-.24.03-.24c0-1.64-.62-3.18-1.77-4.34-.26-.26-.55-.5-.85-.71-.1-.07-.21-.13-.31-.2-.07-.04-.14-.08-.21-.12-.86-.47-1.84-.73-2.87-.73-3.33,0-6.03,2.7-6.03,6.03s2.7,6.02,6.03,6.02c1.01,0,1.95-.25,2.79-.69.01,0,.03-.02.05-.03.06-.03.12-.06.18-.1,0,0,0,0,0,0,.09-.05.18-.1.27-.16l.04.02,27.35,16.09s.03.01.04.02c.04.02.09.05.13.07,0,0,.01,0,.02,0,.04.02.09.04.13.05,0,0,.02,0,.03,0,.04.02.09.04.14.05,0,0,.02,0,.02,0,.05.01.11.03.17.05.05.01.11.02.17.03.05,0,.11.02.17.03.11.01.23.02.34.02.1,0,.2,0,.3-.02.21-.02.41-.07.61-.14h0c.08-.03.16-.06.24-.1.09-.04.19-.1.27-.15l30.14-18.84c.78-.49,1.26-1.35,1.26-2.27v-9.42c0-.78-.34-1.51-.91-2ZM38.02,77.31l-28.78-16.93-1.35.89c-.56.37-1.2.56-1.87.56-1.89,0-3.43-1.54-3.43-3.43s1.54-3.43,3.43-3.43c.91,0,1.76.36,2.4,1,.64.64.99,1.49,1.01,2.41,0,.08-.01.16-.02.24l-.12,1.61,28.76,16.92,30.07-18.8v-9.33l-31.09-16.98.11-.09,31.13,17.03-.03,9.49-30.23,18.85ZM36.9,79.65s-.1-.05-.15-.08c.04.02.09.05.13.07,0,0,.01,0,.02,0,.04.02.09.04.13.05-.04-.02-.08-.04-.13-.06ZM37.22,79.78c-.05-.02-.11-.04-.16-.06.04.02.09.04.14.05,0,0,.02,0,.02,0,.05.01.11.03.17.05.05.01.11.02.17.03.05,0,.11.02.17.03.22.02.43.03.64,0,.1-.01.2-.03.3-.05-.47.1-.97.08-1.44-.07Z"/>
      </g>
    </g>
    <g>
      <g>
        <path class="cls-1" d="M70.88,22.01c0,3.32-2.7,6.02-6.03,6.02-1.04,0-2.02-.26-2.87-.73-.35-.18-.67-.4-.96-.65-.07-.06-.15-.12-.22-.19-.07-.06-.14-.13-.21-.2-.07-.07-.14-.14-.2-.21-.06-.07-.13-.14-.19-.22-.06-.07-.13-.15-.18-.23-.05-.08-.11-.16-.17-.23-.05-.08-.11-.16-.16-.24-.1-.17-.19-.34-.28-.51-.04-.09-.08-.18-.12-.26-.04-.09-.07-.18-.11-.27-.04-.09-.07-.19-.1-.28-.05-.19-.1-.38-.15-.57,0-.03-.01-.07-.01-.1-.02-.11-.04-.21-.05-.32,0-.02,0-.03,0-.05-.02-.15-.03-.29-.04-.45,0-.1,0-.21,0-.31s.01-.21.03-.31v-.1s-.05-.04-.05-.04l-25.94-15.26L5.35,23.49v6.35l29.7,16.2c1.3.7,1.77,2.33,1.07,3.63-.06.12-.13.23-.21.32-.01.02-.03.04-.05.06h0c-.51.65-1.29,1.01-2.09,1.01-.03,0-.05,0-.08,0-.09,0-.18,0-.27-.02-.04,0-.08-.02-.12-.02-.12-.02-.23-.05-.35-.08t0,0s0,0,0,0c-.05-.01-.1-.03-.15-.05h0s-.06-.03-.09-.04c0,0-.01,0-.02,0-.06-.03-.13-.06-.19-.09L1.4,33.78c-.86-.47-1.4-1.37-1.4-2.35v-9.42c0-.92.47-1.78,1.26-2.27L31.41.9c.85-.53,1.91-.54,2.77-.04l27.36,16.09.03.02c.1-.06.21-.13.31-.19.08-.04.16-.09.23-.13.01,0,.03-.02.05-.03.02,0,.04-.02.06-.03.01,0,.02,0,.03-.01.03-.01.07-.03.1-.05h.03s0-.01,0-.01c.75-.34,1.58-.53,2.46-.53,3.33,0,6.03,2.7,6.03,6.03Z"/>
        <path class="cls-1" d="M64.85,15.99c-.88,0-1.71.19-2.46.53h-.04s-.07.05-.1.06c0,0-.02.01-.03.01-.02,0-.04.02-.06.03l-.63.32L34.18.86c-.86-.5-1.92-.49-2.77.04L1.26,19.74c-.78.49-1.26,1.35-1.26,2.27v9.42c0,.98.54,1.88,1.4,2.35l31.09,16.96c.06.03.12.06.19.09,0,0,.01,0,.02,0,.03.01.06.03.09.04.05.02.1.03.15.05,0,0,0,0,0,0t0,0c.11.03.23.06.35.08.04,0,.08.02.12.02.09.01.18.02.27.02.03,0,.05,0,.08,0,.79,0,1.57-.36,2.09-1h0s.03-.04.05-.07c.08-.1.15-.21.21-.32.7-1.3.23-2.92-1.07-3.63L5.35,29.85v-6.35L32.87,6.3l25.94,15.26.03.7s0,.04,0,.06c0,.15.02.3.04.45,0,.01,0,.03,0,.05.01.11.03.21.05.32,0,.03,0,.07.01.1.04.19.09.38.15.57.03.09.06.19.1.28.03.09.07.18.11.27.03.09.07.18.12.26.09.18.18.35.28.51.05.08.1.16.16.24.05.08.11.16.17.23.05.08.12.16.18.23.06.07.12.15.19.22.06.07.13.14.2.21.07.07.14.14.21.2.07.06.14.13.22.19.29.25.62.47.96.65.85.47,1.83.73,2.87.73,3.33,0,6.03-2.7,6.03-6.02s-2.7-6.03-6.03-6.03ZM64.85,26.74c-2.6,0-4.72-2.12-4.71-4.79.01-.09.02-.17.03-.26l.05-.8L32.85,4.78,4.05,22.77v7.85l30.37,16.56c.32.18.56.46.67.82.1.35.06.72-.11,1.05-.35.65-1.21.91-1.87.55L2.02,32.64c-.44-.24-.71-.7-.71-1.21v-9.42c0-.47.24-.91.64-1.16L32.09,2c.23-.14.48-.21.73-.21.24,0,.48.06.7.19l28.08,16.52.68-.45c.77-.5,1.66-.77,2.57-.77,2.61,0,4.73,2.12,4.73,4.72s-2.12,4.73-4.73,4.73Z"/>
      </g>
      <g>
        <path class="cls-1" d="M64.85,15.99c-.88,0-1.71.19-2.46.53h-.04s-.07.05-.1.06c0,0-.02.01-.03.01-.02,0-.04.02-.06.03l-.63.32L34.18.86c-.86-.5-1.92-.49-2.77.04L1.26,19.74c-.78.49-1.26,1.35-1.26,2.27v9.42c0,.98.54,1.88,1.4,2.35l31.09,16.96c.06.03.12.06.19.09,0,0,.01,0,.02,0,.03.01.06.03.09.04.05.02.1.03.15.05,0,0,0,0,0,0t0,0c.11.03.23.06.35.08.04,0,.08.02.12.02.09.01.18.02.27.02.03,0,.05,0,.08,0,.79,0,1.57-.36,2.09-1h0s.03-.04.05-.07c.08-.1.15-.21.21-.32.7-1.3.23-2.92-1.07-3.63L5.35,29.85v-6.35L32.87,6.3l25.94,15.26.03.7s0,.04,0,.06c0,.15.02.3.04.45,0,.01,0,.03,0,.05.01.11.03.21.05.32,0,.03,0,.07.01.1.04.19.09.38.15.57.03.09.06.19.1.28.03.09.07.18.11.27.03.09.07.18.12.26.09.18.18.35.28.51.05.08.1.16.16.24.05.08.11.16.17.23.05.08.12.16.18.23.06.07.12.15.19.22.06.07.13.14.2.21.07.07.14.14.21.2.07.06.14.13.22.19.29.25.62.47.96.65.85.47,1.83.73,2.87.73,3.33,0,6.03-2.7,6.03-6.02s-2.7-6.03-6.03-6.03ZM64.85,26.74c-2.6,0-4.72-2.12-4.71-4.79.01-.09.02-.17.03-.26l.05-.8L32.85,4.78,4.05,22.77v7.85l30.37,16.56c.32.18.56.46.67.82.1.35.06.72-.11,1.05-.35.65-1.21.91-1.87.55L2.02,32.64c-.44-.24-.71-.7-.71-1.21v-9.42c0-.47.24-.91.64-1.16L32.09,2c.23-.14.48-.21.73-.21.24,0,.48.06.7.19l28.08,16.52.68-.45c.77-.5,1.66-.77,2.57-.77,2.61,0,4.73,2.12,4.73,4.72s-2.12,4.73-4.73,4.73Z"/>
        <path class="cls-1" d="M64.85,15.99c-.88,0-1.71.19-2.46.53h0s-.02,0-.03.01c-.03.02-.07.03-.1.05,0,0-.02.01-.03.01-.03.02-.07.04-.11.06-.08.04-.16.08-.23.13-.1.06-.21.12-.31.19l-.03-.02L34.18.86c-.86-.5-1.92-.49-2.77.04L1.26,19.74c-.78.49-1.26,1.35-1.26,2.27v9.42c0,.98.54,1.88,1.4,2.35l31.09,16.96c.06.03.12.06.19.09,0,0,.01,0,.02,0,.03.01.06.03.09.04.05.02.1.03.15.05,0,0,0,0,0,0t0,0c.11.03.23.06.35.08.04,0,.08.02.12.02.09.01.18.02.27.02.03,0,.05,0,.08,0,.79,0,1.57-.36,2.09-1h0s.03-.04.05-.07c.08-.1.15-.21.21-.32.7-1.3.23-2.92-1.07-3.63L5.35,29.85v-6.35L32.87,6.3l25.94,15.26.06.04v.1s-.03.24-.03.24c0,1.64.62,3.18,1.77,4.33.41.42.88.76,1.38,1.03.85.47,1.83.73,2.87.73,3.33,0,6.03-2.7,6.03-6.02s-2.7-6.03-6.03-6.03ZM64.85,25.44c-.91,0-1.76-.35-2.4-1-.64-.64-.99-1.49-1.01-2.41,0-.09.02-.17.02-.25l.11-1.61L32.83,3.26,2.75,22.05v9.33l31.09,16.98-.11.09L2.6,31.43l.03-9.49L32.78,3.11s.03-.01.05-.01l28.81,16.94,1.35-.88c.56-.37,1.21-.56,1.87-.56,1.89,0,3.43,1.54,3.43,3.42s-1.54,3.43-3.43,3.43ZM32.78,50.88s-.06-.02-.09-.03c.03.01.06.03.09.04.05.02.1.03.15.05-.05-.01-.1-.03-.15-.05ZM33.3,51.02s.08.02.12.02c.36.04.73.01,1.09-.09.16-.04.31-.11.45-.19-.51.25-1.1.35-1.66.26Z"/>
      </g>
    </g>
    <g>
      <path class="cls-1" d="M72.51,80.05l-36.75,21.85-30.65-18.76c-1.53-.94-2.01-2.93-1.08-4.46.94-1.53,2.94-2.01,4.47-1.07l27.3,16.71,33.38-19.84c1.54-.91,3.53-.41,4.45,1.14.92,1.54.41,3.53-1.13,4.45Z"/>
      <path class="cls-1" d="M73.64,75.6c-.92-1.54-2.91-2.05-4.45-1.14l-33.38,19.84-27.3-16.71c-1.53-.94-3.53-.46-4.47,1.07-.94,1.53-.46,3.53,1.08,4.46l30.65,18.76,36.75-21.85c1.54-.92,2.05-2.91,1.13-4.45ZM71.84,78.93l-36.07,21.45-29.98-18.35c-.44-.27-.75-.7-.88-1.2-.12-.51-.04-1.03.23-1.47.27-.45.7-.76,1.2-.88.15-.03.31-.05.46-.05.35,0,.7.1,1.01.29l27.98,17.12,34.05-20.24c.93-.55,2.12-.24,2.67.68.55.93.24,2.12-.68,2.67Z"/>
    </g>
  </g>
  <g>
    <g>
      <path class="cls-1" d="M158.16,14.45c-3.64-3.26-11.37-7.55-22.56-7.55-7.83,0-15.85,2.8-15.85,10.44s10.07,8.2,19.95,8.76c10.63.75,27.78,1.77,27.78,18.09,0,14.17-12.59,19.86-27.22,19.86-15.48,0-25.36-6.43-31.98-12.49l4.94-5.59c5.13,4.75,13.61,11.19,27.22,11.19,10.35,0,18.93-3.73,18.93-11.93,0-9.14-9.32-10.53-19.67-11.28-13.15-.84-28.06-1.77-28.06-15.85S124.97,0,135.88,0c12.59,0,22.47,5.03,27.13,8.86l-4.85,5.59Z"/>
      <path class="cls-1" d="M182.02,62.46V1.58h8.11v60.88h-8.11Z"/>
      <path class="cls-1" d="M218.94,1.58v53.7h38.41v7.18h-46.52V1.58h8.11Z"/>
      <path class="cls-1" d="M268.72,62.46V1.58h8.11v60.88h-8.11Z"/>
      <path class="cls-1" d="M354.67,51.93c-6.62,6.53-16.69,12.12-29.18,12.12-19.67,0-33.47-14.36-33.47-32.07S305.82,0,325.12,0c10.91,0,21.16,4.2,27.88,10.44l-5.5,5.41c-5.59-5.31-14.17-8.67-22.19-8.67-14.54,0-24.8,11.28-24.8,24.89s10.35,24.8,25.08,24.8c9.7,0,18.09-4.47,23.68-10.26l5.41,5.31Z"/>
      <path class="cls-1" d="M396.62,0c18.83,0,33.93,14.26,33.93,31.88s-15.1,32.16-33.93,32.16-33.75-14.26-33.75-32.16S377.69,0,396.62,0ZM396.62,56.87c14.26,0,25.45-11.19,25.45-24.99s-11.19-24.7-25.45-24.7-25.27,11.09-25.27,24.7,11,24.99,25.27,24.99Z"/>
      <path class="cls-1" d="M500,1.58v60.88h-7.37l-38.69-46.71h-.09v46.71h-8.11V1.58h7.36l38.69,46.71h.09V1.58h8.11Z"/>
    </g>
    <g>
      <path class="cls-1" d="M126.67,98.82c-2.01,1.98-5.06,3.67-8.85,3.67-5.96,0-10.15-4.35-10.15-9.72s4.18-9.7,10.03-9.7c3.31,0,6.42,1.27,8.45,3.17l-1.67,1.64c-1.7-1.61-4.3-2.63-6.73-2.63-4.41,0-7.52,3.42-7.52,7.55s3.14,7.52,7.6,7.52c2.94,0,5.48-1.36,7.18-3.11l1.64,1.61Z"/>
      <path class="cls-1" d="M147.5,93.4h-7.46v6.44h13.03v2.18h-15.49v-18.46h14.84v2.18h-12.38v5.48h7.46v2.18Z"/>
      <path class="cls-1" d="M180.51,83.56v18.46h-2.23l-11.73-14.16h-.03v14.16h-2.46v-18.46h2.23l11.73,14.16h.03v-14.16h2.46Z"/>
      <path class="cls-1" d="M191.02,83.56h16.79v2.18h-7.15v16.28h-2.46v-16.28h-7.18v-2.18Z"/>
      <path class="cls-1" d="M234.17,83.56v11.9c0,4.49-3.48,7.04-8.14,7.04s-8.08-2.54-8.08-7.04v-11.9h2.43v11.9c0,3.14,2.49,4.86,5.65,4.86s5.68-1.72,5.68-4.86v-11.9h2.46Z"/>
      <path class="cls-1" d="M246.86,102.02v-18.46h10.18c2.37,0,4.01.65,5.17,1.86.9.96,1.41,2.21,1.41,3.62,0,2.49-1.7,4.44-4.3,5.14l4.55,7.83h-2.8l-4.24-7.52h-7.52v7.52h-2.46ZM249.32,85.74v6.59h8.34c2.04,0,3.53-1.5,3.53-3.31,0-.82-.34-1.58-.88-2.15-.9-.9-2.01-1.13-3.28-1.13h-7.72Z"/>
      <path class="cls-1" d="M290.27,83.56l-7.58,9.81v8.65h-2.46v-8.65l-7.58-9.81h3.11l5.8,7.63,5.82-7.63h2.88Z"/>
      <path class="cls-1" d="M342.95,98.82c-2.01,1.98-5.06,3.67-8.85,3.67-5.96,0-10.15-4.35-10.15-9.72s4.18-9.7,10.03-9.7c3.31,0,6.42,1.27,8.45,3.17l-1.67,1.64c-1.7-1.61-4.3-2.63-6.73-2.63-4.41,0-7.52,3.42-7.52,7.55s3.14,7.52,7.6,7.52c2.94,0,5.48-1.36,7.18-3.11l1.64,1.61Z"/>
      <path class="cls-1" d="M352.5,102.02l8.56-18.46h2.32l8.56,18.46h-2.69l-2.52-5.54h-9.21l-2.49,5.54h-2.54ZM358.41,94.5h7.46l-3.65-8.06h-.17l-3.65,8.06Z"/>
      <path class="cls-1" d="M384.75,102.02v-18.46h9.98c2.4,0,4.01.65,5.17,1.86.93,1.02,1.41,2.26,1.41,3.56,0,1.53-.62,2.85-1.64,3.82-1.1,1.07-2.66,1.7-4.95,1.7h-7.52v7.52h-2.46ZM387.21,85.74v6.59h7.52c1.05,0,2.2-.14,3.16-1.05.62-.59.99-1.41.99-2.26s-.31-1.53-.88-2.15c-.88-.93-2.06-1.13-3.28-1.13h-7.52Z"/>
      <path class="cls-1" d="M414.37,102.02v-18.46h2.46v18.46h-2.46Z"/>
      <path class="cls-1" d="M429.6,83.56h16.79v2.18h-7.15v16.28h-2.46v-16.28h-7.18v-2.18Z"/>
      <path class="cls-1" d="M455.15,102.02l8.56-18.46h2.32l8.56,18.46h-2.69l-2.52-5.54h-9.21l-2.49,5.54h-2.54ZM461.06,94.5h7.46l-3.65-8.06h-.17l-3.65,8.06Z"/>
      <path class="cls-1" d="M488.16,83.56v16.28h11.64v2.18h-14.1v-18.46h2.46Z"/>
    </g>
  </g>
</svg>