<?xml version="1.0" encoding="UTF-8"?>
<svg id="Layer_1" data-name="Layer 1" xmlns="http://www.w3.org/2000/svg" viewBox="0 0 1920 394.5">
  <defs>
    <style>
      .cls-1 {
        stroke-width: 0px;
      }
    </style>
  </defs>
  <g>
    <g>
      <g>
        <path class="cls-1" d="M272.18,187.57v36.18c0,3.53-1.82,6.82-4.83,8.7l-115.75,72.35c-.34.21-.69.41-1.05.58-.3.13-.6.26-.9.38h-.02c-.75.28-1.54.47-2.33.55-.38.06-.77.08-1.15.08-.43,0-.88-.04-1.32-.09-.21-.04-.43-.08-.64-.11-.21-.04-.43-.08-.64-.13-.23-.06-.43-.13-.64-.19v-.02s-.08,0-.09-.02c-.17-.06-.36-.13-.53-.21-.04,0-.08-.02-.11-.04-.15-.06-.32-.13-.49-.21v-.02s-.04-.02-.08-.02c-.17-.09-.34-.19-.51-.28-.06-.04-.11-.06-.17-.09l-105.02-61.77-.15-.09c-.34.23-.68.43-1.03.62,0,.02-.02.02-.02.02-.23.13-.45.26-.68.38-.07.04-.13.08-.19.11-3.21,1.67-6.84,2.65-10.71,2.65-12.78,0-23.14-10.36-23.14-23.12s10.36-23.14,23.14-23.14c3.99,0,7.74,1.02,11.03,2.8.26.15.55.3.81.47.06.02.11.06.15.08.32.19.64.39.94.6.04.02.06.04.09.08.28.19.55.38.81.56.34.24.69.51,1.01.81.19.15.36.3.53.47.34.26.66.58.98.9.26.26.51.53.77.81.49.55.96,1.11,1.41,1.71.22.3.43.6.64.9.21.32.41.62.6.94.06.08.11.15.15.24.32.56.64,1.15.92,1.73.49,1.02.9,2.07,1.24,3.16.11.36.21.73.3,1.09.09.38.19.75.26,1.13.08.38.15.73.21,1.11.02.21.06.41.08.6.04.3.08.58.09.88.02.3.04.58.06.88.02.39.04.79.04,1.18s-.06.79-.11,1.2l-.04.39.24.15,99.62,58.61,105.66-66.05v-24.38l-114.02-62.22c-4.98-2.71-6.82-8.95-4.1-13.93,1.39-2.56,3.74-4.3,6.35-5,.3-.09.62-.15.94-.21.09,0,.21-.02.3-.04.02-.02.06-.02.07-.02,1.02-.13,2.03-.13,3.05.04,0,0,0,.02.02.02h.09c.11.02.25.06.38.09.08,0,.13.02.21.04.86.21,1.71.53,2.52.98l119.38,65.13c.32.17.62.36.92.56.17.13.32.24.49.38.11.08.21.17.32.24.04.04.09.07.13.13,2.18,1.9,3.5,4.7,3.5,7.69Z"/>
        <path class="cls-1" d="M268.69,179.88c-.04-.06-.09-.09-.13-.13-.11-.08-.21-.17-.32-.24-.17-.13-.32-.24-.49-.38-.3-.21-.6-.39-.92-.56l-119.38-65.13c-.81-.45-1.65-.77-2.52-.98-.08-.02-.13-.04-.21-.04-.13-.04-.26-.08-.38-.09-.04,0-.08,0-.11-.02-1.02-.17-2.03-.17-3.05-.04-.02,0-.06,0-.07.02-.09.02-.21.04-.3.04-.32.06-.64.11-.94.21-2.61.7-4.96,2.44-6.35,5-2.73,4.98-.88,11.22,4.1,13.93l114.02,62.22v24.38l-105.66,66.05-99.62-58.61-.11-2.73c0-.08,0-.13-.02-.21-.02-.3-.04-.58-.06-.88-.02-.3-.06-.58-.09-.88-.02-.19-.06-.39-.08-.6-.06-.38-.13-.73-.21-1.11-.07-.38-.17-.75-.26-1.13-.09-.36-.19-.73-.3-1.09-.34-1.09-.75-2.14-1.24-3.16-.28-.6-.58-1.17-.92-1.73-.04-.09-.09-.17-.15-.24-.19-.32-.39-.62-.6-.94-.21-.3-.41-.6-.64-.9-.41-.6-.88-1.17-1.41-1.71-.26-.28-.51-.55-.77-.81-.32-.32-.64-.64-.98-.9-.17-.17-.34-.32-.53-.47-.32-.3-.68-.56-1.01-.81-.26-.19-.53-.38-.81-.56-.04-.04-.06-.06-.09-.08-.3-.21-.62-.41-.94-.6-.32-.21-.64-.39-.96-.55-3.29-1.79-7.05-2.8-11.03-2.8-12.78,0-23.14,10.36-23.14,23.14s10.36,23.12,23.14,23.12c3.87,0,7.5-.98,10.71-2.65l2.07-1.03,105.02,61.77c.06.04.11.06.17.09.17.09.34.19.51.28.04,0,.06.02.08.04.17.08.34.15.49.21.04.02.08.04.11.04.17.08.36.15.53.21.04.02.08.02.09.04.21.06.41.13.64.19.21.06.43.09.64.13.21.04.43.08.64.11.43.06.88.09,1.32.09.38,0,.77-.02,1.15-.08.79-.08,1.58-.26,2.33-.55h.02c.3-.11.6-.24.9-.38.36-.17.71-.38,1.05-.58l115.75-72.35c3.01-1.88,4.83-5.17,4.83-8.7v-36.18c0-2.99-1.32-5.79-3.5-7.69ZM267.18,223.76c0,1.82-.92,3.5-2.46,4.47l-115.77,72.35c-1.64,1.03-3.82,1.05-5.47.08l-107.86-63.42-2.59,1.69c-2.97,1.94-6.39,2.97-9.89,2.97-10,0-18.14-8.14-18.14-18.14s8.14-18.14,18.14-18.14,18.14,8.14,18.1,18.4c-.04.32-.09.64-.11.96l-.23,3.1,105.17,61.86,110.56-69.12v-30.11l-116.64-63.63c-1.24-.68-2.14-1.79-2.54-3.14-.39-1.35-.25-2.78.43-4.02.68-1.24,1.79-2.14,3.14-2.54,1.35-.38,2.78-.24,4.02.43l119.38,65.11c1.69.94,2.74,2.73,2.74,4.64v36.18Z"/>
      </g>
      <g>
        <path class="cls-1" d="M268.69,179.88c-.04-.06-.09-.09-.13-.13-.11-.08-.21-.17-.32-.24-.17-.13-.32-.24-.49-.38-.3-.21-.6-.39-.92-.56l-119.38-65.13c-.81-.45-1.65-.77-2.52-.98-.08-.02-.13-.04-.21-.04-.13-.04-.26-.08-.38-.09-.04,0-.08,0-.11-.02-1.02-.17-2.03-.17-3.05-.04-.02,0-.06,0-.07.02-.09.02-.21.04-.3.04-.32.06-.64.11-.94.21-2.61.7-4.96,2.44-6.35,5-2.73,4.98-.88,11.22,4.1,13.93l114.02,62.22v24.38l-105.66,66.05-99.62-58.61-.11-2.73c0-.08,0-.13-.02-.21-.02-.3-.04-.58-.06-.88-.02-.3-.06-.58-.09-.88-.02-.19-.06-.39-.08-.6-.06-.38-.13-.73-.21-1.11-.07-.38-.17-.75-.26-1.13-.09-.36-.19-.73-.3-1.09-.34-1.09-.75-2.14-1.24-3.16-.28-.6-.58-1.17-.92-1.73-.04-.09-.09-.17-.15-.24-.19-.32-.39-.62-.6-.94-.21-.3-.41-.6-.64-.9-.41-.6-.88-1.17-1.41-1.71-.26-.28-.51-.55-.77-.81-.32-.32-.64-.64-.98-.9-.17-.17-.34-.32-.53-.47-.32-.3-.68-.56-1.01-.81-.26-.19-.53-.38-.81-.56-.04-.04-.06-.06-.09-.08-.3-.21-.62-.41-.94-.6-.32-.21-.64-.39-.96-.55-3.29-1.79-7.05-2.8-11.03-2.8-12.78,0-23.14,10.36-23.14,23.14s10.36,23.12,23.14,23.12c3.87,0,7.5-.98,10.71-2.65l2.07-1.03,105.02,61.77c.06.04.11.06.17.09.17.09.34.19.51.28.04,0,.06.02.08.04.17.08.34.15.49.21.04.02.08.04.11.04.17.08.36.15.53.21.04.02.08.02.09.04.21.06.41.13.64.19.21.06.43.09.64.13.21.04.43.08.64.11.43.06.88.09,1.32.09.38,0,.77-.02,1.15-.08.79-.08,1.58-.26,2.33-.55h.02c.3-.11.6-.24.9-.38.36-.17.71-.38,1.05-.58l115.75-72.35c3.01-1.88,4.83-5.17,4.83-8.7v-36.18c0-2.99-1.32-5.79-3.5-7.69ZM267.18,223.76c0,1.82-.92,3.5-2.46,4.47l-115.77,72.35c-1.64,1.03-3.82,1.05-5.47.08l-107.86-63.42-2.59,1.69c-2.97,1.94-6.39,2.97-9.89,2.97-10,0-18.14-8.14-18.14-18.14s8.14-18.14,18.14-18.14,18.14,8.14,18.1,18.4c-.04.32-.09.64-.11.96l-.23,3.1,105.17,61.86,110.56-69.12v-30.11l-116.64-63.63c-1.24-.68-2.14-1.79-2.54-3.14-.39-1.35-.25-2.78.43-4.02.68-1.24,1.79-2.14,3.14-2.54,1.35-.38,2.78-.24,4.02.43l119.38,65.11c1.69.94,2.74,2.73,2.74,4.64v36.18Z"/>
        <path class="cls-1" d="M268.69,179.88c-.15-.13-.3-.26-.45-.38-.17-.13-.32-.24-.49-.38-.3-.21-.6-.39-.92-.56l-119.38-65.13c-.81-.45-1.65-.77-2.52-.98-.08-.02-.13-.04-.21-.04-.15-.04-.32-.08-.47-.09-.55-.09-1.11-.13-1.69-.13-.47,0-.96.04-1.45.09-.09.02-.21.04-.3.04-.32.06-.64.11-.94.21-2.61.7-4.96,2.44-6.35,5-2.73,4.98-.88,11.22,4.1,13.93l114.02,62.22v24.38l-105.66,66.05-99.62-58.61-.24-.15.04-.39.08-.92c.04-6.32-2.39-12.22-6.79-16.65-1.02-1.01-2.12-1.94-3.27-2.74-.39-.26-.79-.51-1.18-.75-.26-.17-.54-.32-.81-.47-3.29-1.79-7.05-2.8-11.03-2.8-12.78,0-23.14,10.36-23.14,23.14s10.36,23.12,23.14,23.12c3.87,0,7.5-.98,10.71-2.65.06-.04.11-.08.19-.11.23-.11.45-.24.68-.38,0,0,.02,0,.02-.02.36-.19.7-.39,1.03-.62l.15.09,105.02,61.77c.06.04.11.06.17.09.17.09.34.19.51.28.04,0,.06.02.08.04.17.08.34.15.49.21.04.02.08.04.11.04.17.08.36.15.53.21.04.02.08.02.09.04.21.06.41.13.64.19.21.06.43.09.64.13.21.04.43.08.64.11.43.06.88.09,1.32.09.38,0,.77-.02,1.15-.08.79-.08,1.58-.26,2.33-.55h.02c.3-.11.6-.24.9-.38.36-.17.71-.38,1.05-.58l115.75-72.35c3.01-1.88,4.83-5.17,4.83-8.7v-36.18c0-2.99-1.32-5.79-3.5-7.69ZM146,296.37l-110.51-65.02-5.19,3.4c-2.16,1.41-4.62,2.16-7.16,2.16-7.26,0-13.16-5.9-13.16-13.16s5.9-13.16,13.16-13.16c3.48,0,6.77,1.37,9.23,3.83,2.44,2.46,3.82,5.73,3.87,9.27-.04.3-.06.62-.09.92l-.45,6.18,110.45,64.96,115.47-72.18v-35.85l-119.38-65.21.43-.34,119.53,65.38-.13,36.43-116.07,72.37ZM141.69,305.36c-.19-.09-.39-.19-.58-.3.17.09.34.19.51.28.04,0,.06.02.08.04.17.08.34.15.49.21-.15-.08-.32-.15-.49-.23ZM142.91,305.84c-.21-.08-.41-.15-.62-.23.17.08.36.15.53.21.04.02.08.02.09.04.21.06.41.13.64.19.21.06.43.09.64.13.21.04.43.08.64.11.83.09,1.65.11,2.46.02.4-.06.77-.11,1.15-.21-1.82.4-3.74.32-5.53-.26Z"/>
      </g>
    </g>
    <g>
      <g>
        <path class="cls-1" d="M272.18,84.04c0,12.76-10.36,23.12-23.14,23.12-3.99,0-7.74-1.02-11.01-2.8-1.33-.7-2.58-1.52-3.7-2.48-.28-.23-.56-.47-.83-.71-.28-.24-.55-.49-.81-.77-.26-.26-.53-.53-.77-.81-.25-.26-.49-.55-.71-.83-.24-.28-.49-.58-.69-.88-.21-.3-.43-.6-.64-.9-.21-.32-.41-.62-.6-.94-.38-.64-.73-1.3-1.07-1.97-.17-.34-.32-.68-.45-1.02-.15-.36-.28-.7-.41-1.05-.15-.36-.26-.71-.38-1.07-.21-.71-.39-1.45-.56-2.18-.02-.13-.06-.26-.06-.39-.09-.41-.15-.81-.21-1.22-.02-.07-.02-.13-.02-.19-.08-.56-.13-1.13-.15-1.71-.02-.39-.04-.79-.04-1.18s.06-.81.11-1.2l.04-.39-.24-.15L126.2,23.68,20.55,89.72v24.4l114.04,62.2c4.98,2.71,6.8,8.95,4.1,13.93-.25.45-.51.86-.81,1.24-.06.09-.13.17-.19.24l-.02.02c-1.97,2.48-4.96,3.85-8.01,3.85-.1,0-.19-.02-.29-.02-.35,0-.7-.03-1.04-.07-.15-.02-.3-.08-.45-.09-.45-.08-.9-.19-1.33-.3t-.04-.02s-.02,0-.04-.02c-.21-.06-.39-.11-.58-.19v-.02c-.13-.04-.23-.09-.34-.13-.02-.02-.06-.02-.08-.04-.24-.11-.49-.23-.71-.36L5.36,129.23c-3.29-1.8-5.36-5.26-5.36-9.02v-36.18c0-3.53,1.82-6.82,4.83-8.7L120.6,2.97c3.25-2.03,7.35-2.09,10.64-.15l105.06,61.79.13.08c.39-.24.79-.49,1.18-.71.3-.17.6-.34.9-.49.06-.04.13-.08.19-.11.08-.04.15-.08.22-.11.04,0,.09-.04.13-.06.13-.06.26-.11.39-.19l.11-.06h.04c2.88-1.32,6.07-2.05,9.44-2.05,12.78,0,23.14,10.36,23.14,23.14Z"/>
        <path class="cls-1" d="M249.04,60.9c-3.36,0-6.56.73-9.44,2.05h-.04l-.11.06c-.13.08-.26.13-.39.19-.04.02-.09.06-.13.06-.07.04-.15.08-.22.11l-2.41,1.24L131.24,2.82c-3.29-1.94-7.39-1.88-10.64.15L4.83,75.32c-3.01,1.88-4.83,5.17-4.83,8.7v36.18c0,3.76,2.07,7.22,5.36,9.02l119.4,65.11c.23.13.47.24.71.36.02.02.06.02.08.04.13.06.23.11.34.15.19.08.38.13.58.19.02.02.02.04.04.02t.04.02c.43.11.88.23,1.33.3.15.02.3.08.45.09.35.04.69.07,1.04.07.1,0,.19.02.29.02,3.05,0,6.03-1.37,8.01-3.85l.02-.02c.06-.08.13-.15.19-.24.3-.38.56-.79.81-1.24,2.71-4.98.88-11.22-4.1-13.93L20.55,114.11v-24.4L126.2,23.68l99.62,58.61.11,2.71c0,.08,0,.15.02.23.02.58.08,1.15.15,1.71,0,.06,0,.11.02.19.06.41.11.81.21,1.22,0,.13.04.26.06.39.17.73.36,1.47.56,2.18.11.36.22.71.38,1.07.13.36.26.7.41,1.05.13.34.28.68.45,1.02.34.68.7,1.33,1.07,1.97.19.32.39.62.6.94.21.3.43.6.64.9.21.3.45.6.69.88.23.28.47.56.71.83.24.28.51.55.77.81.26.28.53.53.81.77.26.24.55.49.83.71,1.13.96,2.37,1.79,3.7,2.48,3.27,1.79,7.03,2.8,11.01,2.8,12.78,0,23.14-10.36,23.14-23.12s-10.36-23.14-23.14-23.14ZM249.04,102.18c-10,0-18.14-8.14-18.1-18.4.06-.34.09-.66.11-1l.21-3.08L126.13,17.85,15.55,86.95v30.13l116.64,63.61c1.24.68,2.16,1.79,2.56,3.14.39,1.35.24,2.78-.43,4.02-1.35,2.48-4.66,3.48-7.16,2.11L7.74,124.85c-1.69-.92-2.74-2.71-2.74-4.64v-36.18c0-1.82.92-3.5,2.46-4.47L123.23,7.2c.86-.53,1.84-.81,2.82-.81.92,0,1.84.24,2.67.73l107.84,63.44,2.59-1.71c2.97-1.94,6.39-2.97,9.89-2.97,10.02,0,18.16,8.14,18.16,18.14s-8.14,18.16-18.16,18.16Z"/>
      </g>
      <g>
        <path class="cls-1" d="M249.04,60.9c-3.36,0-6.56.73-9.44,2.05h-.04l-.11.06c-.13.08-.26.13-.39.19-.04.02-.09.06-.13.06-.07.04-.15.08-.22.11l-2.41,1.24L131.24,2.82c-3.29-1.94-7.39-1.88-10.64.15L4.83,75.32c-3.01,1.88-4.83,5.17-4.83,8.7v36.18c0,3.76,2.07,7.22,5.36,9.02l119.4,65.11c.23.13.47.24.71.36.02.02.06.02.08.04.13.06.23.11.34.15.19.08.38.13.58.19.02.02.02.04.04.02t.04.02c.43.11.88.23,1.33.3.15.02.3.08.45.09.35.04.69.07,1.04.07.1,0,.19.02.29.02,3.05,0,6.03-1.37,8.01-3.85l.02-.02c.06-.08.13-.15.19-.24.3-.38.56-.79.81-1.24,2.71-4.98.88-11.22-4.1-13.93L20.55,114.11v-24.4L126.2,23.68l99.62,58.61.11,2.71c0,.08,0,.15.02.23.02.58.08,1.15.15,1.71,0,.06,0,.11.02.19.06.41.11.81.21,1.22,0,.13.04.26.06.39.17.73.36,1.47.56,2.18.11.36.22.71.38,1.07.13.36.26.7.41,1.05.13.34.28.68.45,1.02.34.68.7,1.33,1.07,1.97.19.32.39.62.6.94.21.3.43.6.64.9.21.3.45.6.69.88.23.28.47.56.71.83.24.28.51.55.77.81.26.28.53.53.81.77.26.24.55.49.83.71,1.13.96,2.37,1.79,3.7,2.48,3.27,1.79,7.03,2.8,11.01,2.8,12.78,0,23.14-10.36,23.14-23.12s-10.36-23.14-23.14-23.14ZM249.04,102.18c-10,0-18.14-8.14-18.1-18.4.06-.34.09-.66.11-1l.21-3.08L126.13,17.85,15.55,86.95v30.13l116.64,63.61c1.24.68,2.16,1.79,2.56,3.14.39,1.35.24,2.78-.43,4.02-1.35,2.48-4.66,3.48-7.16,2.11L7.74,124.85c-1.69-.92-2.74-2.71-2.74-4.64v-36.18c0-1.82.92-3.5,2.46-4.47L123.23,7.2c.86-.53,1.84-.81,2.82-.81.92,0,1.84.24,2.67.73l107.84,63.44,2.59-1.71c2.97-1.94,6.39-2.97,9.89-2.97,10.02,0,18.16,8.14,18.16,18.14s-8.14,18.16-18.16,18.16Z"/>
        <path class="cls-1" d="M249.04,60.9c-3.36,0-6.56.73-9.44,2.05h-.02s-.09.04-.13.06c-.13.08-.26.13-.39.19-.04.02-.09.06-.13.06-.13.08-.28.15-.41.23-.3.15-.6.32-.9.49-.39.23-.79.47-1.18.71l-.13-.08L131.24,2.82c-3.29-1.94-7.39-1.88-10.64.15L4.83,75.32c-3.01,1.88-4.83,5.17-4.83,8.7v36.18c0,3.76,2.07,7.22,5.36,9.02l119.4,65.11c.23.13.47.24.71.36.02.02.06.02.08.04.13.06.23.11.34.15.19.08.38.13.58.19.02.02.02.04.04.02t.04.02c.43.11.88.23,1.33.3.15.02.3.08.45.09.35.04.69.07,1.04.07.1,0,.19.02.29.02,3.05,0,6.03-1.37,8.01-3.85l.02-.02c.06-.08.13-.15.19-.24.3-.38.56-.79.81-1.24,2.71-4.98.88-11.22-4.1-13.93L20.55,114.11v-24.4L126.2,23.68l99.62,58.61.24.15-.04.39-.08.92c-.02,6.32,2.39,12.22,6.79,16.64,1.58,1.6,3.36,2.91,5.28,3.97,3.27,1.79,7.03,2.8,11.01,2.8,12.78,0,23.14-10.36,23.14-23.12s-10.36-23.14-23.14-23.14ZM249.04,97.18c-3.48,0-6.77-1.35-9.23-3.83-2.44-2.46-3.82-5.73-3.87-9.25.04-.34.08-.66.09-.98l.41-6.17L126.05,12.01,10.56,84.19v35.85l119.38,65.21-.41.34L9.98,120.2l.13-36.43L125.87,11.44c.08-.04.13-.06.19-.06l110.64,65.04,5.19-3.38c2.16-1.41,4.64-2.16,7.16-2.16,7.26,0,13.16,5.9,13.16,13.14s-5.9,13.16-13.16,13.16ZM125.88,194.87c-.13-.04-.23-.09-.34-.13.13.06.23.11.34.15.19.08.38.13.58.19-.21-.06-.39-.13-.58-.21ZM127.88,195.41c.15.02.3.08.45.09,1.37.17,2.8.06,4.19-.36.6-.17,1.18-.43,1.73-.73-1.95.96-4.21,1.33-6.37,1Z"/>
      </g>
    </g>
    <g>
      <path class="cls-1" d="M278.42,306.88l-141.11,83.89-117.69-72.05c-5.88-3.59-7.73-11.26-4.13-17.14,3.61-5.86,11.28-7.73,17.16-4.12l104.85,64.17,128.18-76.2c5.92-3.5,13.57-1.56,17.09,4.36,3.53,5.92,1.58,13.57-4.34,17.09Z"/>
      <path class="cls-1" d="M282.76,289.79c-3.52-5.92-11.17-7.86-17.09-4.36l-128.18,76.2-104.85-64.17c-5.88-3.61-13.55-1.75-17.16,4.12-3.59,5.88-1.75,13.55,4.13,17.14l117.69,72.05,141.11-83.89c5.92-3.52,7.88-11.17,4.34-17.09ZM275.87,302.59l-138.52,82.35-115.13-70.47c-1.69-1.05-2.89-2.69-3.36-4.62-.47-1.95-.15-3.97.9-5.66,1.03-1.71,2.69-2.91,4.62-3.38.58-.13,1.18-.21,1.77-.21,1.35,0,2.71.38,3.89,1.11l107.43,65.75,130.75-77.73c3.55-2.12,8.16-.94,10.26,2.59,2.11,3.55.94,8.16-2.61,10.26Z"/>
    </g>
  </g>
  <g>
    <g>
      <path class="cls-1" d="M607.33,54.99c-13.96-12.53-43.67-29-86.64-29-30.07,0-60.86,10.74-60.86,40.1s38.66,31.51,76.61,33.65c40.81,2.87,106.68,6.8,106.68,69.45,0,54.42-48.33,76.25-104.54,76.25-59.43,0-97.38-24.7-122.79-47.97l18.98-21.48c19.69,18.26,52.26,42.96,104.53,42.96,39.74,0,72.67-14.32,72.67-45.82,0-35.08-35.8-40.45-75.54-43.32-50.48-3.22-107.76-6.8-107.76-60.86S479.89-.5,521.77-.5c48.33,0,86.28,19.33,104.18,34.01l-18.62,21.48Z"/>
      <path class="cls-1" d="M698.96,239.36V5.59h31.15v233.77h-31.15Z"/>
      <path class="cls-1" d="M840.72,5.59v206.21h147.49v27.57h-178.64V5.59h31.15Z"/>
      <path class="cls-1" d="M1031.87,239.36V5.59h31.15v233.77h-31.15Z"/>
      <path class="cls-1" d="M1361.93,198.91c-25.42,25.06-64.08,46.54-112.05,46.54-75.54,0-128.52-55.13-128.52-123.15S1174.34-.5,1248.44-.5c41.89,0,81.27,16.11,107.04,40.1l-21.12,20.76c-21.48-20.41-54.41-33.29-85.2-33.29-55.85,0-95.23,43.32-95.23,95.58s39.74,95.23,96.3,95.23c37.23,0,69.45-17.18,90.93-39.38l20.76,20.41Z"/>
      <path class="cls-1" d="M1523-.5c72.31,0,130.31,54.77,130.31,122.43s-58,123.51-130.31,123.51-129.59-54.77-129.59-123.51S1450.33-.5,1523-.5ZM1523,217.88c54.77,0,97.73-42.96,97.73-95.95s-42.96-94.87-97.73-94.87-97.02,42.6-97.02,94.87,42.25,95.95,97.02,95.95Z"/>
      <path class="cls-1" d="M1920,5.59v233.77h-28.28l-148.57-179.36h-.36v179.36h-31.15V5.59h28.28l148.57,179.36h.36V5.59h31.15Z"/>
    </g>
    <g>
      <path class="cls-1" d="M486.4,378.98c-7.7,7.6-19.43,14.11-33.97,14.11-22.9,0-38.97-16.72-38.97-37.34s16.07-37.23,38.53-37.23c12.7,0,24.64,4.89,32.45,12.16l-6.4,6.3c-6.51-6.19-16.5-10.1-25.84-10.1-16.93,0-28.87,13.13-28.87,28.98s12.05,28.87,29.2,28.87c11.29,0,21.06-5.21,27.57-11.94l6.3,6.19Z"/>
      <path class="cls-1" d="M566.38,358.15h-28.66v24.75h50.04v8.36h-59.48v-70.87h56.98v8.36h-47.54v21.06h28.66v8.36Z"/>
      <path class="cls-1" d="M693.14,320.38v70.87h-8.57l-45.04-54.38h-.11v54.38h-9.44v-70.87h8.57l45.04,54.38h.11v-54.38h9.44Z"/>
      <path class="cls-1" d="M733.51,320.38h64.47v8.36h-27.46v62.52h-9.44v-62.52h-27.57v-8.36Z"/>
      <path class="cls-1" d="M899.23,320.38v45.69c0,17.26-13.35,27.03-31.26,27.03s-31.04-9.77-31.04-27.03v-45.69h9.34v45.69c0,12.05,9.55,18.67,21.7,18.67s21.82-6.62,21.82-18.67v-45.69h9.44Z"/>
      <path class="cls-1" d="M947.95,391.25v-70.87h39.07c9.11,0,15.41,2.49,19.86,7.16,3.47,3.69,5.43,8.47,5.43,13.89,0,9.55-6.51,17.04-16.5,19.75l17.48,30.07h-10.74l-16.28-28.87h-28.87v28.87h-9.44ZM957.39,328.73v25.29h32.02c7.82,0,13.57-5.75,13.57-12.7,0-3.15-1.3-6.08-3.36-8.25-3.48-3.47-7.7-4.34-12.59-4.34h-29.63Z"/>
      <path class="cls-1" d="M1114.65,320.38l-29.09,37.66v33.21h-9.44v-33.21l-29.09-37.66h11.94l22.25,29.3,22.36-29.3h11.07Z"/>
      <path class="cls-1" d="M1316.94,378.98c-7.7,7.6-19.43,14.11-33.97,14.11-22.9,0-38.97-16.72-38.97-37.34s16.07-37.23,38.53-37.23c12.7,0,24.64,4.89,32.45,12.16l-6.4,6.3c-6.51-6.19-16.5-10.1-25.84-10.1-16.93,0-28.87,13.13-28.87,28.98s12.05,28.87,29.2,28.87c11.29,0,21.06-5.21,27.57-11.94l6.3,6.19Z"/>
      <path class="cls-1" d="M1353.62,391.25l32.89-70.87h8.9l32.89,70.87h-10.31l-9.66-21.27h-35.38l-9.55,21.27h-9.77ZM1376.3,362.38h28.66l-14-30.93h-.65l-14,30.93Z"/>
      <path class="cls-1" d="M1477.44,391.25v-70.87h38.31c9.22,0,15.41,2.49,19.86,7.16,3.58,3.91,5.43,8.69,5.43,13.68,0,5.86-2.39,10.96-6.3,14.65-4.23,4.12-10.2,6.51-18.99,6.51h-28.87v28.87h-9.44ZM1486.89,328.73v25.29h28.87c4.02,0,8.46-.54,12.15-4.02,2.39-2.28,3.8-5.43,3.8-8.68s-1.2-5.86-3.36-8.25c-3.37-3.58-7.92-4.34-12.59-4.34h-28.87Z"/>
      <path class="cls-1" d="M1591.18,391.25v-70.87h9.44v70.87h-9.44Z"/>
      <path class="cls-1" d="M1649.67,320.38h64.47v8.36h-27.46v62.52h-9.44v-62.52h-27.57v-8.36Z"/>
      <path class="cls-1" d="M1747.78,391.25l32.89-70.87h8.9l32.89,70.87h-10.31l-9.66-21.27h-35.38l-9.55,21.27h-9.77ZM1770.46,362.38h28.66l-14-30.93h-.65l-14,30.93Z"/>
      <path class="cls-1" d="M1874.53,320.38v62.52h44.72v8.36h-54.16v-70.87h9.44Z"/>
    </g>
  </g>
</svg>