<?xml version="1.0" encoding="UTF-8"?>
<svg id="Layer_1" data-name="Layer 1" xmlns="http://www.w3.org/2000/svg" viewBox="0 0 500 140">
  <defs>
    <style>
      .cls-1, .cls-2 {
        stroke-width: 0px;
      }

      .cls-2 {
        fill: #fff;
      }
    </style>
  </defs>
  <rect class="cls-1" width="500" height="140"/>
  <g>
    <g>
      <g>
        <g>
          <path class="cls-2" d="M107.57,68.19v7.49c0,.73-.38,1.41-1,1.8l-23.97,14.98c-.07.04-.14.09-.22.12-.06.03-.12.05-.19.08h0c-.16.06-.32.1-.48.11-.08.01-.16.02-.24.02-.09,0-.18,0-.27-.02-.04,0-.09-.02-.13-.02-.04,0-.09-.02-.13-.03-.05-.01-.09-.03-.13-.04h0s-.02,0-.02,0c-.03-.01-.07-.03-.11-.04,0,0-.02,0-.02,0-.03-.01-.07-.03-.1-.04h0s0,0-.02,0c-.04-.02-.07-.04-.11-.06-.01,0-.02-.01-.04-.02l-21.75-12.79-.03-.02c-.07.05-.14.09-.21.13,0,0,0,0,0,0-.05.03-.09.05-.14.08-.02,0-.03.02-.04.02-.67.35-1.42.55-2.22.55-2.65,0-4.79-2.14-4.79-4.79s2.14-4.79,4.79-4.79c.83,0,1.6.21,2.28.58.05.03.11.06.17.1.01,0,.02.01.03.02.07.04.13.08.19.12,0,0,.01,0,.02.02.06.04.11.08.17.12.07.05.14.11.21.17.04.03.07.06.11.1.07.05.14.12.2.19.05.05.11.11.16.17.1.11.2.23.29.35.05.06.09.12.13.19.04.07.09.13.12.19.01.02.02.03.03.05.07.12.13.24.19.36.1.21.19.43.26.65.02.07.04.15.06.23.02.08.04.16.05.23.02.08.03.15.04.23,0,.04.01.09.02.12,0,.06.02.12.02.18,0,.06,0,.12.01.18,0,.08,0,.16,0,.25s-.01.16-.02.25v.08s.04.03.04.03l20.63,12.14,21.88-13.68v-5.05l-23.61-12.88c-1.03-.56-1.41-1.85-.85-2.88.29-.53.77-.89,1.32-1.04.06-.02.13-.03.19-.04.02,0,.04,0,.06,0,0,0,.01,0,.02,0,.21-.03.42-.03.63,0,0,0,0,0,0,0h.02s.05.01.08.02c.02,0,.03,0,.04,0,.18.04.35.11.52.2l24.72,13.49c.07.04.13.07.19.12.04.03.07.05.1.08.02.02.04.04.07.05,0,0,.02.02.03.03.45.39.72.97.72,1.59Z"/>
          <path class="cls-2" d="M106.85,66.6s-.02-.02-.03-.03c-.02-.02-.04-.04-.07-.05-.04-.03-.07-.05-.1-.08-.06-.04-.12-.08-.19-.12l-24.72-13.49c-.17-.09-.34-.16-.52-.2-.02,0-.03,0-.04,0-.03,0-.05-.02-.08-.02,0,0-.02,0-.02,0-.21-.04-.42-.04-.63,0,0,0-.01,0-.02,0-.02,0-.04,0-.06,0-.07.01-.13.02-.19.04-.54.14-1.03.51-1.32,1.04-.56,1.03-.18,2.32.85,2.88l23.61,12.88v5.05l-21.88,13.68-20.63-12.14-.02-.56s0-.03,0-.04c0-.06,0-.12-.01-.18,0-.06-.01-.12-.02-.18,0-.04-.01-.08-.02-.12-.01-.08-.03-.15-.04-.23-.02-.08-.03-.16-.05-.23-.02-.07-.04-.15-.06-.23-.07-.23-.16-.44-.26-.65-.06-.12-.12-.24-.19-.36,0-.02-.02-.04-.03-.05-.04-.07-.08-.13-.12-.19-.04-.06-.09-.12-.13-.19-.09-.12-.18-.24-.29-.35-.05-.06-.11-.11-.16-.17-.07-.07-.13-.13-.2-.19-.04-.03-.07-.07-.11-.1-.07-.06-.14-.12-.21-.17-.05-.04-.11-.08-.17-.12,0,0-.01-.01-.02-.02-.06-.04-.13-.09-.19-.12-.07-.04-.13-.08-.2-.11-.68-.37-1.46-.58-2.28-.58-2.65,0-4.79,2.14-4.79,4.79s2.14,4.79,4.79,4.79c.8,0,1.55-.2,2.22-.55l.43-.21,21.75,12.79s.02.01.04.02c.03.02.07.04.11.06,0,0,.01,0,.02,0,.03.02.07.03.1.04,0,0,.02,0,.02,0,.03.02.07.03.11.04,0,0,.02,0,.02,0,.04.01.09.03.13.04.04.01.09.02.13.03.04,0,.09.02.13.02.09.01.18.02.27.02.08,0,.16,0,.24-.02.16-.02.33-.05.48-.11h0c.06-.02.12-.05.19-.08.07-.03.15-.08.22-.12l23.97-14.98c.62-.39,1-1.07,1-1.8v-7.49c0-.62-.27-1.2-.72-1.59ZM106.54,75.69c0,.38-.19.72-.51.93l-23.97,14.98c-.34.21-.79.22-1.13.02l-22.33-13.13-.54.35c-.62.4-1.32.61-2.05.61-2.07,0-3.76-1.69-3.76-3.76s1.69-3.76,3.76-3.76,3.76,1.69,3.75,3.81c0,.07-.02.13-.02.2l-.05.64,21.78,12.81,22.89-14.31v-6.24l-24.15-13.18c-.26-.14-.44-.37-.53-.65s-.05-.58.09-.83c.14-.26.37-.44.65-.53.28-.08.58-.05.83.09l24.72,13.48c.35.19.57.56.57.96v7.49Z"/>
        </g>
        <g>
          <path class="cls-2" d="M106.85,66.6s-.02-.02-.03-.03c-.02-.02-.04-.04-.07-.05-.04-.03-.07-.05-.1-.08-.06-.04-.12-.08-.19-.12l-24.72-13.49c-.17-.09-.34-.16-.52-.2-.02,0-.03,0-.04,0-.03,0-.05-.02-.08-.02,0,0-.02,0-.02,0-.21-.04-.42-.04-.63,0,0,0-.01,0-.02,0-.02,0-.04,0-.06,0-.07.01-.13.02-.19.04-.54.14-1.03.51-1.32,1.04-.56,1.03-.18,2.32.85,2.88l23.61,12.88v5.05l-21.88,13.68-20.63-12.14-.02-.56s0-.03,0-.04c0-.06,0-.12-.01-.18,0-.06-.01-.12-.02-.18,0-.04-.01-.08-.02-.12-.01-.08-.03-.15-.04-.23-.02-.08-.03-.16-.05-.23-.02-.07-.04-.15-.06-.23-.07-.23-.16-.44-.26-.65-.06-.12-.12-.24-.19-.36,0-.02-.02-.04-.03-.05-.04-.07-.08-.13-.12-.19-.04-.06-.09-.12-.13-.19-.09-.12-.18-.24-.29-.35-.05-.06-.11-.11-.16-.17-.07-.07-.13-.13-.2-.19-.04-.03-.07-.07-.11-.1-.07-.06-.14-.12-.21-.17-.05-.04-.11-.08-.17-.12,0,0-.01-.01-.02-.02-.06-.04-.13-.09-.19-.12-.07-.04-.13-.08-.2-.11-.68-.37-1.46-.58-2.28-.58-2.65,0-4.79,2.14-4.79,4.79s2.14,4.79,4.79,4.79c.8,0,1.55-.2,2.22-.55l.43-.21,21.75,12.79s.02.01.04.02c.03.02.07.04.11.06,0,0,.01,0,.02,0,.03.02.07.03.1.04,0,0,.02,0,.02,0,.03.02.07.03.11.04,0,0,.02,0,.02,0,.04.01.09.03.13.04.04.01.09.02.13.03.04,0,.09.02.13.02.09.01.18.02.27.02.08,0,.16,0,.24-.02.16-.02.33-.05.48-.11h0c.06-.02.12-.05.19-.08.07-.03.15-.08.22-.12l23.97-14.98c.62-.39,1-1.07,1-1.8v-7.49c0-.62-.27-1.2-.72-1.59ZM106.54,75.69c0,.38-.19.72-.51.93l-23.97,14.98c-.34.21-.79.22-1.13.02l-22.33-13.13-.54.35c-.62.4-1.32.61-2.05.61-2.07,0-3.76-1.69-3.76-3.76s1.69-3.76,3.76-3.76,3.76,1.69,3.75,3.81c0,.07-.02.13-.02.2l-.05.64,21.78,12.81,22.89-14.31v-6.24l-24.15-13.18c-.26-.14-.44-.37-.53-.65s-.05-.58.09-.83c.14-.26.37-.44.65-.53.28-.08.58-.05.83.09l24.72,13.48c.35.19.57.56.57.96v7.49Z"/>
          <path class="cls-2" d="M106.85,66.6s-.06-.05-.09-.08c-.04-.03-.07-.05-.1-.08-.06-.04-.12-.08-.19-.12l-24.72-13.49c-.17-.09-.34-.16-.52-.2-.02,0-.03,0-.04,0-.03,0-.07-.02-.1-.02-.11-.02-.23-.03-.35-.03-.1,0-.2,0-.3.02-.02,0-.04,0-.06,0-.07.01-.13.02-.19.04-.54.14-1.03.51-1.32,1.04-.56,1.03-.18,2.32.85,2.88l23.61,12.88v5.05l-21.88,13.68-20.63-12.14-.05-.03v-.08s.02-.19.02-.19c0-1.31-.49-2.53-1.41-3.45-.21-.21-.44-.4-.68-.57-.08-.05-.16-.11-.25-.16-.05-.03-.11-.07-.17-.1-.68-.37-1.46-.58-2.28-.58-2.65,0-4.79,2.14-4.79,4.79s2.14,4.79,4.79,4.79c.8,0,1.55-.2,2.22-.55.01,0,.02-.02.04-.02.05-.02.09-.05.14-.08,0,0,0,0,0,0,.07-.04.14-.08.21-.13l.03.02,21.75,12.79s.02.01.04.02c.03.02.07.04.11.06,0,0,.01,0,.02,0,.03.02.07.03.1.04,0,0,.02,0,.02,0,.03.02.07.03.11.04,0,0,.02,0,.02,0,.04.01.09.03.13.04.04.01.09.02.13.03.04,0,.09.02.13.02.09.01.18.02.27.02.08,0,.16,0,.24-.02.16-.02.33-.05.48-.11h0c.06-.02.12-.05.19-.08.07-.03.15-.08.22-.12l23.97-14.98c.62-.39,1-1.07,1-1.8v-7.49c0-.62-.27-1.2-.72-1.59ZM81.44,90.72l-22.88-13.46-1.07.7c-.45.29-.96.45-1.48.45-1.5,0-2.72-1.22-2.72-2.72s1.22-2.72,2.72-2.72c.72,0,1.4.28,1.91.79.51.51.79,1.19.8,1.92,0,.06-.01.13-.02.19l-.09,1.28,22.87,13.45,23.91-14.95v-7.42l-24.72-13.5.09-.07,24.75,13.54-.03,7.54-24.04,14.99ZM80.55,92.58s-.08-.04-.12-.06c.03.02.07.04.11.06,0,0,.01,0,.02,0,.03.02.07.03.1.04-.03-.02-.07-.03-.1-.05ZM80.81,92.68s-.09-.03-.13-.05c.03.02.07.03.11.04,0,0,.02,0,.02,0,.04.01.09.03.13.04.04.01.09.02.13.03.04,0,.09.02.13.02.17.02.34.02.51,0,.08-.01.16-.02.24-.04-.38.08-.77.07-1.14-.05Z"/>
        </g>
      </g>
      <g>
        <g>
          <path class="cls-2" d="M107.57,46.75c0,2.64-2.14,4.79-4.79,4.79-.83,0-1.6-.21-2.28-.58-.28-.14-.53-.32-.77-.51-.06-.05-.12-.1-.17-.15-.06-.05-.11-.1-.17-.16-.05-.05-.11-.11-.16-.17-.05-.05-.1-.11-.15-.17-.05-.06-.1-.12-.14-.18-.04-.06-.09-.12-.13-.19-.04-.07-.09-.13-.12-.19-.08-.13-.15-.27-.22-.41-.03-.07-.07-.14-.09-.21-.03-.07-.06-.14-.09-.22-.03-.07-.05-.15-.08-.22-.04-.15-.08-.3-.12-.45,0-.03-.01-.05-.01-.08-.02-.09-.03-.17-.04-.25,0-.02,0-.03,0-.04-.02-.12-.03-.23-.03-.35,0-.08,0-.16,0-.25s.01-.17.02-.25v-.08s-.04-.03-.04-.03l-20.63-12.14-21.88,13.67v5.05l23.61,12.88c1.03.56,1.41,1.85.85,2.88-.05.09-.11.18-.17.26-.01.02-.03.04-.04.05h0c-.41.52-1.03.8-1.66.8-.02,0-.04,0-.06,0-.07,0-.14,0-.22-.02-.03,0-.06-.02-.09-.02-.09-.02-.19-.04-.28-.06t0,0s0,0,0,0c-.04-.01-.08-.02-.12-.04h0s-.05-.02-.07-.03c0,0-.01,0-.02,0-.05-.02-.1-.05-.15-.07l-24.72-13.48c-.68-.37-1.11-1.09-1.11-1.87v-7.49c0-.73.38-1.41,1-1.8l23.97-14.98c.67-.42,1.52-.43,2.2-.03l21.75,12.79.03.02c.08-.05.16-.1.25-.15.06-.04.12-.07.19-.1.01,0,.03-.02.04-.02.02,0,.03-.02.05-.02,0,0,.02,0,.03-.01.03-.01.05-.02.08-.04h.02s0-.01,0-.01c.6-.27,1.26-.42,1.95-.42,2.65,0,4.79,2.14,4.79,4.79Z"/>
          <path class="cls-2" d="M102.78,41.96c-.7,0-1.36.15-1.95.42h-.03s-.05.04-.08.05c0,0-.02.01-.03.01-.02,0-.03.02-.05.02l-.5.26-21.75-12.79c-.68-.4-1.53-.39-2.2.03l-23.97,14.98c-.62.39-1,1.07-1,1.8v7.49c0,.78.43,1.49,1.11,1.87l24.72,13.48s.1.05.15.07c0,0,.01,0,.02,0,.03.01.05.02.07.03.04.02.08.03.12.04,0,0,0,0,0,0t0,0c.09.02.18.05.28.06.03,0,.06.02.09.02.07,0,.14.01.22.02.02,0,.04,0,.06,0,.63,0,1.25-.28,1.66-.8h0s.03-.04.04-.05c.06-.08.12-.16.17-.26.56-1.03.18-2.32-.85-2.88l-23.61-12.88v-5.05l21.88-13.67,20.63,12.14.02.56s0,.03,0,.05c0,.12.02.24.03.35,0,.01,0,.02,0,.04.01.09.02.17.04.25,0,.03,0,.05.01.08.04.15.07.3.12.45.02.07.05.15.08.22.03.07.05.14.09.22.03.07.06.14.09.21.07.14.14.28.22.41.04.07.08.13.12.19.04.06.09.12.13.19.04.06.09.12.14.18.05.06.1.12.15.17.05.06.1.11.16.17.05.06.11.11.17.16.05.05.11.1.17.15.23.2.49.37.77.51.68.37,1.46.58,2.28.58,2.65,0,4.79-2.14,4.79-4.79s-2.14-4.79-4.79-4.79ZM102.78,50.51c-2.07,0-3.76-1.69-3.75-3.81.01-.07.02-.14.02-.21l.04-.64-21.77-12.81-22.9,14.31v6.24l24.15,13.17c.26.14.45.37.53.65.08.28.05.58-.09.83-.28.51-.97.72-1.48.44l-24.72-13.48c-.35-.19-.57-.56-.57-.96v-7.49c0-.38.19-.72.51-.93l23.97-14.98c.18-.11.38-.17.58-.17.19,0,.38.05.55.15l22.33,13.14.54-.35c.62-.4,1.32-.62,2.05-.62,2.07,0,3.76,1.69,3.76,3.76s-1.69,3.76-3.76,3.76Z"/>
        </g>
        <g>
          <path class="cls-2" d="M102.78,41.96c-.7,0-1.36.15-1.95.42h-.03s-.05.04-.08.05c0,0-.02.01-.03.01-.02,0-.03.02-.05.02l-.5.26-21.75-12.79c-.68-.4-1.53-.39-2.2.03l-23.97,14.98c-.62.39-1,1.07-1,1.8v7.49c0,.78.43,1.49,1.11,1.87l24.72,13.48s.1.05.15.07c0,0,.01,0,.02,0,.03.01.05.02.07.03.04.02.08.03.12.04,0,0,0,0,0,0t0,0c.09.02.18.05.28.06.03,0,.06.02.09.02.07,0,.14.01.22.02.02,0,.04,0,.06,0,.63,0,1.25-.28,1.66-.8h0s.03-.04.04-.05c.06-.08.12-.16.17-.26.56-1.03.18-2.32-.85-2.88l-23.61-12.88v-5.05l21.88-13.67,20.63,12.14.02.56s0,.03,0,.05c0,.12.02.24.03.35,0,.01,0,.02,0,.04.01.09.02.17.04.25,0,.03,0,.05.01.08.04.15.07.3.12.45.02.07.05.15.08.22.03.07.05.14.09.22.03.07.06.14.09.21.07.14.14.28.22.41.04.07.08.13.12.19.04.06.09.12.13.19.04.06.09.12.14.18.05.06.1.12.15.17.05.06.1.11.16.17.05.06.11.11.17.16.05.05.11.1.17.15.23.2.49.37.77.51.68.37,1.46.58,2.28.58,2.65,0,4.79-2.14,4.79-4.79s-2.14-4.79-4.79-4.79ZM102.78,50.51c-2.07,0-3.76-1.69-3.75-3.81.01-.07.02-.14.02-.21l.04-.64-21.77-12.81-22.9,14.31v6.24l24.15,13.17c.26.14.45.37.53.65.08.28.05.58-.09.83-.28.51-.97.72-1.48.44l-24.72-13.48c-.35-.19-.57-.56-.57-.96v-7.49c0-.38.19-.72.51-.93l23.97-14.98c.18-.11.38-.17.58-.17.19,0,.38.05.55.15l22.33,13.14.54-.35c.62-.4,1.32-.62,2.05-.62,2.07,0,3.76,1.69,3.76,3.76s-1.69,3.76-3.76,3.76Z"/>
          <path class="cls-2" d="M102.78,41.96c-.7,0-1.36.15-1.95.42h0s-.02,0-.03.01c-.03.02-.05.03-.08.04,0,0-.02.01-.03.01-.03.02-.06.03-.09.05-.06.03-.12.07-.19.1-.08.05-.16.1-.25.15l-.03-.02-21.75-12.79c-.68-.4-1.53-.39-2.2.03l-23.97,14.98c-.62.39-1,1.07-1,1.8v7.49c0,.78.43,1.49,1.11,1.87l24.72,13.48s.1.05.15.07c0,0,.01,0,.02,0,.03.01.05.02.07.03.04.02.08.03.12.04,0,0,0,0,0,0t0,0c.09.02.18.05.28.06.03,0,.06.02.09.02.07,0,.14.01.22.02.02,0,.04,0,.06,0,.63,0,1.25-.28,1.66-.8h0s.03-.04.04-.05c.06-.08.12-.16.17-.26.56-1.03.18-2.32-.85-2.88l-23.61-12.88v-5.05l21.88-13.67,20.63,12.14.05.03v.08s-.02.19-.02.19c0,1.31.49,2.53,1.41,3.44.33.33.7.6,1.09.82.68.37,1.46.58,2.28.58,2.65,0,4.79-2.14,4.79-4.79s-2.14-4.79-4.79-4.79ZM102.78,49.48c-.72,0-1.4-.28-1.91-.79-.51-.51-.79-1.19-.8-1.91,0-.07.02-.14.02-.2l.09-1.28-22.86-13.45-23.91,14.95v7.42l24.72,13.5-.09.07-24.76-13.54.03-7.54,23.97-14.98s.03-.01.04-.01l22.91,13.47,1.07-.7c.45-.29.96-.45,1.48-.45,1.5,0,2.72,1.22,2.72,2.72s-1.22,2.72-2.72,2.72ZM77.28,69.7s-.05-.02-.07-.03c.03.01.05.02.07.03.04.02.08.03.12.04-.04-.01-.08-.03-.12-.04ZM77.69,69.82s.06.02.09.02c.28.03.58.01.87-.07.12-.04.25-.09.36-.15-.4.2-.87.28-1.32.21Z"/>
        </g>
      </g>
      <g>
        <path class="cls-2" d="M108.87,92.9l-29.22,17.37-24.37-14.92c-1.22-.74-1.6-2.33-.86-3.55.75-1.21,2.34-1.6,3.55-.85l21.71,13.29,26.54-15.78c1.23-.72,2.81-.32,3.54.9.73,1.23.33,2.81-.9,3.54Z"/>
        <path class="cls-2" d="M109.76,89.36c-.73-1.23-2.31-1.63-3.54-.9l-26.54,15.78-21.71-13.29c-1.22-.75-2.81-.36-3.55.85-.74,1.22-.36,2.81.86,3.55l24.37,14.92,29.22-17.37c1.23-.73,1.63-2.31.9-3.54ZM108.34,92.01l-28.68,17.05-23.84-14.59c-.35-.22-.6-.56-.7-.96-.1-.4-.03-.82.19-1.17.21-.35.56-.6.96-.7.12-.03.25-.04.37-.04.28,0,.56.08.81.23l22.24,13.62,27.07-16.09c.74-.44,1.69-.19,2.13.54.44.74.19,1.69-.54,2.13Z"/>
      </g>
    </g>
    <g>
      <g>
        <path class="cls-2" d="M176.97,40.74c-2.89-2.6-9.04-6.01-17.94-6.01-6.23,0-12.6,2.22-12.6,8.3s8.01,6.52,15.86,6.97c8.45.59,22.09,1.41,22.09,14.38,0,11.27-10.01,15.79-21.65,15.79-12.31,0-20.16-5.11-25.43-9.93l3.93-4.45c4.08,3.78,10.82,8.9,21.65,8.9,8.23,0,15.05-2.96,15.05-9.49,0-7.26-7.41-8.38-15.64-8.97-10.45-.67-22.31-1.41-22.31-12.6s10.6-14.38,19.27-14.38c10.01,0,17.87,4,21.57,7.04l-3.86,4.45Z"/>
        <path class="cls-2" d="M195.95,78.92V30.51h6.45v48.41h-6.45Z"/>
        <path class="cls-2" d="M225.3,30.51v42.7h30.54v5.71h-36.99V30.51h6.45Z"/>
        <path class="cls-2" d="M264.88,78.92V30.51h6.45v48.41h-6.45Z"/>
        <path class="cls-2" d="M333.23,70.54c-5.26,5.19-13.27,9.64-23.2,9.64-15.64,0-26.61-11.42-26.61-25.5s10.97-25.43,26.32-25.43c8.67,0,16.83,3.34,22.17,8.3l-4.37,4.3c-4.45-4.23-11.27-6.89-17.64-6.89-11.56,0-19.72,8.97-19.72,19.79s8.23,19.72,19.94,19.72c7.71,0,14.38-3.56,18.83-8.15l4.3,4.23Z"/>
        <path class="cls-2" d="M366.58,29.25c14.97,0,26.98,11.34,26.98,25.35s-12.01,25.58-26.98,25.58-26.84-11.34-26.84-25.58,11.79-25.35,26.84-25.35ZM366.58,74.47c11.34,0,20.24-8.9,20.24-19.87s-8.9-19.64-20.24-19.64-20.09,8.82-20.09,19.64,8.75,19.87,20.09,19.87Z"/>
        <path class="cls-2" d="M448.79,30.51v48.41h-5.86l-30.76-37.14h-.07v37.14h-6.45V30.51h5.86l30.76,37.14h.07V30.51h6.45Z"/>
      </g>
      <g>
        <path class="cls-2" d="M151.93,107.83c-1.6,1.57-4.02,2.92-7.03,2.92-4.74,0-8.07-3.46-8.07-7.73s3.33-7.71,7.98-7.71c2.63,0,5.1,1.01,6.72,2.52l-1.33,1.3c-1.35-1.28-3.42-2.09-5.35-2.09-3.51,0-5.98,2.72-5.98,6s2.5,5.98,6.05,5.98c2.34,0,4.36-1.08,5.71-2.47l1.3,1.28Z"/>
        <path class="cls-2" d="M168.49,103.51h-5.93v5.12h10.36v1.73h-12.32v-14.68h11.8v1.73h-9.84v4.36h5.93v1.73Z"/>
        <path class="cls-2" d="M194.74,95.69v14.68h-1.78l-9.33-11.26h-.02v11.26h-1.95v-14.68h1.78l9.33,11.26h.02v-11.26h1.96Z"/>
        <path class="cls-2" d="M203.1,95.69h13.35v1.73h-5.69v12.95h-1.95v-12.95h-5.71v-1.73Z"/>
        <path class="cls-2" d="M237.42,95.69v9.46c0,3.57-2.76,5.6-6.47,5.6s-6.43-2.02-6.43-5.6v-9.46h1.93v9.46c0,2.49,1.98,3.87,4.49,3.87s4.52-1.37,4.52-3.87v-9.46h1.96Z"/>
        <path class="cls-2" d="M247.5,110.37v-14.68h8.09c1.89,0,3.19.52,4.11,1.48.72.76,1.12,1.75,1.12,2.88,0,1.98-1.35,3.53-3.42,4.09l3.62,6.23h-2.22l-3.37-5.98h-5.98v5.98h-1.95ZM249.46,97.42v5.24h6.63c1.62,0,2.81-1.19,2.81-2.63,0-.65-.27-1.26-.7-1.71-.72-.72-1.6-.9-2.61-.9h-6.14Z"/>
        <path class="cls-2" d="M282.02,95.69l-6.02,7.8v6.88h-1.96v-6.88l-6.02-7.8h2.47l4.61,6.07,4.63-6.07h2.29Z"/>
        <path class="cls-2" d="M323.91,107.83c-1.6,1.57-4.02,2.92-7.03,2.92-4.74,0-8.07-3.46-8.07-7.73s3.33-7.71,7.98-7.71c2.63,0,5.1,1.01,6.72,2.52l-1.33,1.3c-1.35-1.28-3.42-2.09-5.35-2.09-3.51,0-5.98,2.72-5.98,6s2.5,5.98,6.05,5.98c2.34,0,4.36-1.08,5.71-2.47l1.3,1.28Z"/>
        <path class="cls-2" d="M331.51,110.37l6.81-14.68h1.84l6.81,14.68h-2.14l-2-4.4h-7.33l-1.98,4.4h-2.02ZM336.2,104.39h5.93l-2.9-6.41h-.13l-2.9,6.41Z"/>
        <path class="cls-2" d="M357.15,110.37v-14.68h7.93c1.91,0,3.19.52,4.11,1.48.74.81,1.12,1.8,1.12,2.83,0,1.21-.49,2.27-1.3,3.03-.88.85-2.11,1.35-3.93,1.35h-5.98v5.98h-1.95ZM359.1,97.42v5.24h5.98c.83,0,1.75-.11,2.52-.83.49-.47.79-1.12.79-1.8s-.25-1.21-.7-1.71c-.7-.74-1.64-.9-2.61-.9h-5.98Z"/>
        <path class="cls-2" d="M380.7,110.37v-14.68h1.95v14.68h-1.95Z"/>
        <path class="cls-2" d="M392.81,95.69h13.35v1.73h-5.69v12.95h-1.95v-12.95h-5.71v-1.73Z"/>
        <path class="cls-2" d="M413.13,110.37l6.81-14.68h1.84l6.81,14.68h-2.14l-2-4.4h-7.33l-1.98,4.4h-2.02ZM417.82,104.39h5.93l-2.9-6.41h-.13l-2.9,6.41Z"/>
        <path class="cls-2" d="M439.37,95.69v12.95h9.26v1.73h-11.21v-14.68h1.95Z"/>
      </g>
    </g>
  </g>
</svg>