<?xml version="1.0" encoding="UTF-8"?><svg id="Layer_1" xmlns="http://www.w3.org/2000/svg" viewBox="0 0 500 672.5"><defs><style>.cls-1{fill:#294c89;stroke-width:0px;}</style></defs><path class="cls-1" d="m375.48,329.46v34.71c0,3.39-1.75,6.54-4.63,8.35l-111.03,69.4c-.32.2-.67.4-1.01.56-.29.13-.58.25-.87.36h-.02c-.72.27-1.48.45-2.24.52-.36.05-.74.07-1.1.07-.42,0-.85-.04-1.26-.09-.2-.04-.41-.07-.61-.11-.2-.04-.41-.07-.61-.13-.22-.05-.42-.13-.61-.18v-.02s-.07,0-.09-.02c-.16-.05-.34-.13-.5-.2-.04,0-.07-.02-.11-.04-.15-.05-.31-.13-.47-.2v-.02s-.04-.02-.07-.02c-.16-.09-.32-.18-.49-.27-.05-.04-.11-.05-.16-.09l-100.74-59.25-.14-.09c-.33.22-.65.42-.99.6,0,.02-.02.02-.02.02-.22.13-.43.25-.65.36-.07.03-.13.07-.18.11-3.08,1.61-6.56,2.54-10.28,2.54-12.26,0-22.2-9.94-22.2-22.18s9.93-22.2,22.2-22.2c3.82,0,7.43.97,10.58,2.69.25.14.52.29.77.45.05.02.11.05.15.07.31.18.61.38.9.58.03.02.05.04.09.07.27.18.52.36.78.54.32.24.67.49.97.77.18.15.34.29.5.45.33.25.63.56.94.87.25.25.49.5.74.77.47.52.92,1.06,1.35,1.64.22.29.41.58.61.87.2.31.4.6.58.9.05.07.11.14.14.24.31.54.61,1.1.88,1.66.47.97.87,1.98,1.19,3.03.11.34.2.7.29,1.05.09.36.18.72.25,1.08.07.36.14.7.2,1.06.02.2.05.4.07.58.04.29.07.56.09.85.02.29.04.56.05.85.02.38.03.76.03,1.14s-.05.76-.11,1.15l-.03.38.23.14,95.56,56.22,101.35-63.36v-23.39l-109.37-59.68c-4.78-2.6-6.55-8.58-3.93-13.36,1.33-2.45,3.59-4.13,6.09-4.8.29-.09.6-.14.9-.2.09,0,.2-.02.29-.04.02-.02.05-.02.07-.02.97-.13,1.95-.13,2.92.03,0,0,0,.02.02.02h.09c.11.02.24.05.36.09.07,0,.13.02.2.03.83.2,1.64.51,2.42.94l114.51,62.48c.31.16.6.34.88.54.16.13.31.24.47.36.11.07.2.16.31.24.04.04.09.07.13.13,2.09,1.82,3.35,4.51,3.35,7.38"/><path class="cls-1" d="m372.13,322.08c-.04-.05-.09-.09-.13-.13-.11-.07-.2-.16-.31-.23-.16-.13-.31-.24-.47-.36-.29-.2-.58-.38-.88-.54l-114.51-62.48c-.77-.43-1.59-.74-2.42-.94-.07-.02-.13-.04-.2-.04-.13-.04-.25-.07-.36-.09-.04,0-.07,0-.11-.02-.97-.16-1.95-.16-2.92-.04-.02,0-.05,0-.07.02-.09.02-.2.03-.29.03-.31.05-.61.11-.9.2-2.51.67-4.76,2.34-6.09,4.8-2.61,4.78-.85,10.76,3.93,13.36l109.38,59.68v23.38l-101.35,63.36-95.56-56.22-.11-2.61c0-.07,0-.13-.02-.2-.02-.29-.04-.56-.05-.85-.02-.29-.05-.56-.09-.85-.02-.18-.05-.38-.07-.58-.05-.36-.13-.7-.2-1.06-.07-.36-.16-.72-.25-1.08-.09-.34-.18-.7-.29-1.05-.32-1.05-.72-2.06-1.19-3.03-.27-.58-.56-1.12-.88-1.66-.04-.09-.09-.16-.14-.24-.18-.31-.38-.59-.58-.9-.2-.29-.4-.58-.61-.87-.4-.58-.85-1.12-1.35-1.64-.25-.27-.49-.52-.74-.78-.31-.31-.61-.61-.94-.87-.16-.16-.32-.31-.5-.45-.31-.29-.65-.54-.97-.78-.25-.18-.51-.36-.78-.54-.04-.04-.05-.05-.09-.07-.29-.2-.59-.4-.9-.58-.31-.2-.61-.38-.92-.52-3.16-1.71-6.76-2.69-10.59-2.69-12.26,0-22.19,9.93-22.19,22.2s9.93,22.18,22.19,22.18c3.71,0,7.19-.94,10.28-2.54l1.98-.99,100.74,59.25c.05.04.11.05.16.09.16.09.32.18.49.27.04,0,.05.02.07.04.16.07.32.14.47.2.04.02.07.03.11.03.16.07.34.14.5.2.03.02.07.02.09.04.2.05.4.13.61.18.2.05.41.09.61.13.2.04.42.07.61.11.41.05.85.09,1.26.09.36,0,.74-.02,1.1-.07.76-.07,1.51-.25,2.24-.52h.02c.29-.11.58-.23.87-.36.34-.16.69-.36,1.01-.56l111.03-69.4c2.88-1.8,4.63-4.96,4.63-8.35v-34.71c0-2.87-1.26-5.55-3.35-7.38m-1.44,42.08c0,1.75-.88,3.35-2.36,4.29l-111.05,69.4c-1.57.99-3.66,1.01-5.25.07l-103.46-60.84-2.49,1.62c-2.85,1.86-6.13,2.85-9.48,2.85-9.59,0-17.4-7.81-17.4-17.4s7.81-17.4,17.4-17.4,17.4,7.81,17.36,17.65c-.04.31-.09.61-.11.92l-.22,2.98,100.88,59.34,106.06-66.3v-28.88l-111.88-61.03c-1.19-.65-2.06-1.71-2.43-3.01-.38-1.3-.24-2.67.42-3.86.65-1.19,1.71-2.06,3.01-2.43,1.3-.36,2.67-.24,3.86.41l114.51,62.46c1.62.9,2.63,2.61,2.63,4.45v34.71Z"/><path class="cls-1" d="m372.13,322.08c-.04-.05-.09-.09-.13-.13-.11-.07-.2-.16-.31-.23-.16-.13-.31-.24-.47-.36-.29-.2-.58-.38-.88-.54l-114.51-62.48c-.77-.43-1.59-.74-2.42-.94-.07-.02-.13-.04-.2-.04-.13-.04-.25-.07-.36-.09-.04,0-.07,0-.11-.02-.97-.16-1.95-.16-2.92-.04-.02,0-.05,0-.07.02-.09.02-.2.03-.29.03-.31.05-.61.11-.9.2-2.51.67-4.76,2.34-6.09,4.8-2.61,4.78-.85,10.76,3.93,13.36l109.38,59.68v23.38l-101.35,63.36-95.56-56.22-.11-2.61c0-.07,0-.13-.02-.2-.02-.29-.04-.56-.05-.85-.02-.29-.05-.56-.09-.85-.02-.18-.05-.38-.07-.58-.05-.36-.13-.7-.2-1.06-.07-.36-.16-.72-.25-1.08-.09-.34-.18-.7-.29-1.05-.32-1.05-.72-2.06-1.19-3.03-.27-.58-.56-1.12-.88-1.66-.04-.09-.09-.16-.14-.24-.18-.31-.38-.59-.58-.9-.2-.29-.4-.58-.61-.87-.4-.58-.85-1.12-1.35-1.64-.25-.27-.49-.52-.74-.78-.31-.31-.61-.61-.94-.87-.16-.16-.32-.31-.5-.45-.31-.29-.65-.54-.97-.78-.25-.18-.51-.36-.78-.54-.04-.04-.05-.05-.09-.07-.29-.2-.59-.4-.9-.58-.31-.2-.61-.38-.92-.52-3.16-1.71-6.76-2.69-10.59-2.69-12.26,0-22.19,9.93-22.19,22.2s9.93,22.18,22.19,22.18c3.71,0,7.19-.94,10.28-2.54l1.98-.99,100.74,59.25c.05.04.11.05.16.09.16.09.32.18.49.27.04,0,.05.02.07.04.16.07.32.14.47.2.04.02.07.03.11.03.16.07.34.14.5.2.03.02.07.02.09.04.2.05.4.13.61.18.2.05.41.09.61.13.2.04.42.07.61.11.41.05.85.09,1.26.09.36,0,.74-.02,1.1-.07.76-.07,1.51-.25,2.24-.52h.02c.29-.11.58-.23.87-.36.34-.16.69-.36,1.01-.56l111.03-69.4c2.88-1.8,4.63-4.96,4.63-8.35v-34.71c0-2.87-1.26-5.55-3.35-7.38m-1.44,42.08c0,1.75-.88,3.35-2.36,4.29l-111.05,69.4c-1.57.99-3.66,1.01-5.25.07l-103.46-60.84-2.49,1.62c-2.85,1.86-6.13,2.85-9.48,2.85-9.59,0-17.4-7.81-17.4-17.4s7.81-17.4,17.4-17.4,17.4,7.81,17.36,17.65c-.04.31-.09.61-.11.92l-.22,2.98,100.88,59.34,106.06-66.3v-28.88l-111.88-61.03c-1.19-.65-2.06-1.71-2.43-3.01-.38-1.3-.24-2.67.42-3.86.65-1.19,1.71-2.06,3.01-2.43,1.3-.36,2.67-.24,3.86.41l114.51,62.46c1.62.9,2.63,2.61,2.63,4.45v34.71Z"/><path class="cls-1" d="m372.13,322.08c-.14-.13-.29-.25-.43-.36-.16-.13-.31-.24-.47-.36-.29-.2-.58-.38-.88-.54l-114.51-62.48c-.78-.43-1.59-.74-2.42-.94-.07-.02-.13-.04-.2-.04-.14-.04-.31-.07-.45-.09-.52-.09-1.07-.13-1.62-.13-.45,0-.92.04-1.39.09-.09.02-.2.03-.29.03-.31.05-.61.11-.9.2-2.51.67-4.76,2.34-6.09,4.8-2.61,4.78-.85,10.76,3.93,13.36l109.37,59.68v23.38l-101.35,63.36-95.56-56.22-.23-.14.04-.38.07-.88c.04-6.06-2.29-11.72-6.51-15.97-.97-.97-2.04-1.86-3.14-2.63-.38-.25-.76-.49-1.14-.72-.25-.16-.52-.31-.77-.45-3.16-1.71-6.76-2.69-10.59-2.69-12.26,0-22.19,9.93-22.19,22.2s9.93,22.18,22.19,22.18c3.71,0,7.19-.94,10.28-2.54.05-.04.11-.07.18-.11.22-.11.43-.24.65-.36,0,0,.02,0,.02-.02.34-.18.67-.38.99-.6l.14.09,100.74,59.25c.05.04.11.05.16.09.16.09.32.18.49.27.04,0,.05.02.07.04.16.07.32.14.47.2.04.02.07.03.11.03.16.07.34.14.5.2.04.02.07.02.09.04.2.05.4.13.61.18.2.05.42.09.61.13.2.04.41.07.61.11.42.05.85.09,1.26.09.36,0,.74-.02,1.1-.07.76-.07,1.52-.25,2.24-.52h.02c.29-.11.58-.23.87-.36.34-.16.69-.36,1.01-.56l111.03-69.4c2.88-1.8,4.63-4.96,4.63-8.35v-34.71c0-2.87-1.26-5.55-3.35-7.38m-117.69,111.74l-106-62.37-4.98,3.26c-2.07,1.35-4.44,2.08-6.87,2.08-6.96,0-12.62-5.66-12.62-12.62s5.66-12.62,12.62-12.62c3.34,0,6.49,1.32,8.85,3.68,2.34,2.36,3.66,5.5,3.71,8.89-.04.29-.05.6-.09.88l-.43,5.93,105.95,62.31,110.76-69.24v-34.39l-114.51-62.55.41-.32,114.66,62.71-.13,34.94-111.34,69.42Zm-4.13,8.62c-.18-.09-.38-.18-.56-.29.16.09.32.18.49.27.04,0,.05.02.07.04.16.07.32.14.47.2-.14-.07-.31-.15-.47-.22m1.17.47c-.2-.07-.4-.14-.6-.22.16.07.34.14.5.2.04.02.07.02.09.04.2.05.4.13.61.18.2.05.42.09.61.13.2.04.41.07.61.11.79.09,1.59.11,2.36.02.38-.05.74-.11,1.1-.2-1.75.38-3.59.31-5.3-.25"/><path class="cls-1" d="m375.48,230.14c0,12.24-9.93,22.18-22.2,22.18-3.82,0-7.43-.97-10.57-2.69-1.28-.67-2.47-1.46-3.55-2.38-.27-.22-.54-.45-.79-.69-.27-.24-.52-.47-.78-.74-.25-.25-.5-.5-.74-.78-.24-.25-.47-.52-.69-.79-.23-.27-.47-.56-.66-.85-.2-.29-.42-.58-.61-.87-.2-.31-.4-.6-.58-.9-.36-.61-.7-1.24-1.03-1.89-.16-.32-.31-.65-.43-.97-.15-.34-.27-.67-.4-1.01-.15-.34-.25-.69-.36-1.03-.2-.69-.38-1.39-.54-2.09-.02-.13-.05-.25-.05-.38-.09-.4-.14-.77-.2-1.17-.02-.07-.02-.13-.02-.18-.07-.54-.13-1.08-.14-1.64-.02-.38-.04-.76-.04-1.14s.05-.77.11-1.15l.04-.38-.24-.14-95.56-56.22-101.35,63.34v23.4l109.39,59.66c4.78,2.6,6.53,8.58,3.93,13.36-.24.43-.49.83-.78,1.19-.05.09-.13.16-.18.24l-.02.02c-1.89,2.38-4.76,3.7-7.68,3.7-.09,0-.19-.02-.28-.02-.34,0-.67-.03-1-.07-.15-.02-.29-.07-.43-.09-.43-.07-.87-.18-1.28-.29t-.04-.02s-.02,0-.04-.02c-.2-.05-.38-.11-.56-.18v-.02c-.13-.04-.22-.09-.32-.13-.02-.02-.05-.02-.07-.03-.23-.11-.47-.22-.69-.34l-114.53-62.46c-3.16-1.73-5.14-5.05-5.14-8.65v-34.71c0-3.39,1.75-6.54,4.63-8.35l111.05-69.4c3.12-1.95,7.05-2,10.21-.14l100.77,59.27.13.07c.38-.24.76-.47,1.14-.69.29-.16.58-.33.87-.47.05-.04.13-.07.18-.11.07-.04.14-.07.22-.11.04,0,.09-.03.13-.05.13-.05.25-.11.38-.18.04-.02.07-.04.11-.05h.04c2.76-1.26,5.82-1.97,9.05-1.97,12.26,0,22.2,9.93,22.2,22.2"/><path class="cls-1" d="m353.29,207.95c-3.23,0-6.29.7-9.05,1.97h-.04s-.07.04-.11.05c-.13.07-.25.13-.38.18-.04.02-.09.05-.13.05-.07.04-.14.07-.21.11l-2.31,1.19-100.77-59.27c-3.16-1.86-7.09-1.8-10.21.14l-111.05,69.4c-2.89,1.8-4.63,4.96-4.63,8.35v34.71c0,3.61,1.98,6.92,5.14,8.65l114.53,62.46c.22.13.45.24.69.34.02.02.05.02.07.04.13.05.22.11.32.14.18.07.36.13.56.18.02.02.02.04.04.02t.03.02c.42.11.85.22,1.28.29.14.02.29.07.43.09.33.04.67.06,1,.07.09,0,.18.02.28.02,2.92,0,5.79-1.32,7.68-3.7l.02-.02c.05-.07.13-.14.18-.24.29-.36.54-.76.78-1.19,2.6-4.78.85-10.76-3.93-13.36l-109.39-59.66v-23.4l101.35-63.34,95.56,56.22.11,2.6c0,.07,0,.15.02.22.02.56.07,1.1.14,1.64,0,.05,0,.11.02.18.05.4.11.77.2,1.17,0,.13.04.25.05.38.16.7.34,1.41.54,2.09.11.34.21.69.36,1.03.13.34.25.67.4,1.01.13.32.27.65.43.97.33.65.67,1.28,1.03,1.89.18.31.38.59.58.9.2.29.42.58.61.87.2.29.43.58.67.85.22.27.45.54.69.79.24.27.49.52.74.78.25.27.5.5.78.74.25.23.52.47.79.69,1.08.92,2.27,1.71,3.55,2.38,3.14,1.71,6.74,2.69,10.57,2.69,12.26,0,22.2-9.93,22.2-22.18s-9.94-22.2-22.2-22.2m0,39.6c-9.59,0-17.4-7.81-17.36-17.65.05-.32.09-.63.11-.95l.2-2.96-100.85-59.32-106.08,66.28v28.9l111.88,61.02c1.19.65,2.07,1.71,2.45,3.01.38,1.3.24,2.67-.41,3.86-1.3,2.38-4.47,3.34-6.87,2.02l-114.53-62.46c-1.62-.88-2.63-2.6-2.63-4.45v-34.71c0-1.75.88-3.35,2.36-4.29l111.05-69.4c.83-.5,1.77-.78,2.71-.78.88,0,1.77.24,2.56.7l103.44,60.85,2.49-1.64c2.85-1.86,6.13-2.85,9.48-2.85,9.61,0,17.42,7.81,17.42,17.4s-7.81,17.42-17.42,17.42"/><path class="cls-1" d="m353.29,207.95c-3.23,0-6.29.7-9.05,1.97h-.04s-.07.04-.11.05c-.13.07-.25.13-.38.18-.04.02-.09.05-.13.05-.07.04-.14.07-.21.11l-2.31,1.19-100.77-59.27c-3.16-1.86-7.09-1.8-10.21.14l-111.05,69.4c-2.89,1.8-4.63,4.96-4.63,8.35v34.71c0,3.61,1.98,6.92,5.14,8.65l114.53,62.46c.22.13.45.24.69.34.02.02.05.02.07.04.13.05.22.11.32.14.18.07.36.13.56.18.02.02.02.04.04.02t.03.02c.42.11.85.22,1.28.29.14.02.29.07.43.09.33.04.67.06,1,.07.09,0,.18.02.28.02,2.92,0,5.79-1.32,7.68-3.7l.02-.02c.05-.07.13-.14.18-.24.29-.36.54-.76.78-1.19,2.6-4.78.85-10.76-3.93-13.36l-109.39-59.66v-23.4l101.35-63.34,95.56,56.22.11,2.6c0,.07,0,.15.02.22.02.56.07,1.1.14,1.64,0,.05,0,.11.02.18.05.4.11.77.2,1.17,0,.13.04.25.05.38.16.7.34,1.41.54,2.09.11.34.21.69.36,1.03.13.34.25.67.4,1.01.13.32.27.65.43.97.33.65.67,1.28,1.03,1.89.18.31.38.59.58.9.2.29.42.58.61.87.2.29.43.58.67.85.22.27.45.54.69.79.24.27.49.52.74.78.25.27.5.5.78.74.25.23.52.47.79.69,1.08.92,2.27,1.71,3.55,2.38,3.14,1.71,6.74,2.69,10.57,2.69,12.26,0,22.2-9.93,22.2-22.18s-9.94-22.2-22.2-22.2m0,39.6c-9.59,0-17.4-7.81-17.36-17.65.05-.32.09-.63.11-.95l.2-2.96-100.85-59.32-106.08,66.28v28.9l111.88,61.02c1.19.65,2.07,1.71,2.45,3.01.38,1.3.24,2.67-.41,3.86-1.3,2.38-4.47,3.34-6.87,2.02l-114.53-62.46c-1.62-.88-2.63-2.6-2.63-4.45v-34.71c0-1.75.88-3.35,2.36-4.29l111.05-69.4c.83-.5,1.77-.78,2.71-.78.88,0,1.77.24,2.56.7l103.44,60.85,2.49-1.64c2.85-1.86,6.13-2.85,9.48-2.85,9.61,0,17.42,7.81,17.42,17.4s-7.81,17.42-17.42,17.42"/><path class="cls-1" d="m353.29,207.95c-3.23,0-6.29.71-9.05,1.97h-.02s-.09.04-.13.05c-.13.07-.25.13-.38.18-.04.02-.09.05-.13.05-.13.07-.27.14-.4.22-.29.14-.58.31-.87.47-.38.21-.76.45-1.14.69l-.13-.07-100.77-59.27c-3.16-1.86-7.09-1.8-10.21.14l-111.05,69.4c-2.88,1.8-4.63,4.96-4.63,8.35v34.71c0,3.61,1.98,6.92,5.14,8.65l114.53,62.46c.22.13.45.24.69.34.02.02.05.02.07.04.13.05.21.11.32.14.18.07.36.13.56.18.02.02.02.04.04.02t.03.02c.42.11.85.21,1.28.29.14.02.29.07.43.09.33.04.67.06,1,.07.09,0,.18.02.28.02,2.92,0,5.79-1.32,7.68-3.7l.02-.02c.05-.07.13-.14.18-.23.29-.36.54-.76.77-1.19,2.6-4.78.85-10.76-3.93-13.36l-109.39-59.66v-23.4l101.35-63.34,95.56,56.22.23.14-.04.38-.07.88c-.02,6.06,2.29,11.72,6.51,15.96,1.51,1.53,3.23,2.79,5.07,3.8,3.14,1.71,6.74,2.69,10.57,2.69,12.26,0,22.2-9.93,22.2-22.18s-9.94-22.2-22.2-22.2m0,34.8c-3.34,0-6.49-1.3-8.85-3.68-2.34-2.36-3.66-5.5-3.71-8.87.04-.32.07-.63.09-.94l.4-5.91-105.89-62.3-110.78,69.24v34.39l114.51,62.55-.4.32-114.68-62.71.13-34.94,111.03-69.38c.07-.04.13-.05.18-.05l106.13,62.39,4.98-3.24c2.07-1.35,4.45-2.07,6.87-2.07,6.96,0,12.62,5.66,12.62,12.6s-5.66,12.62-12.62,12.62m-118.14,93.71c-.13-.04-.22-.09-.32-.13.13.05.21.11.32.14.18.07.36.13.56.18-.2-.05-.38-.13-.56-.2m1.91.52c.14.02.29.07.43.09,1.32.16,2.69.05,4.02-.34.58-.16,1.14-.42,1.66-.71-1.87.92-4.04,1.28-6.11.96"/><path class="cls-1" d="m381.47,443.9l-135.36,80.47-112.89-69.11c-5.64-3.45-7.41-10.8-3.97-16.44,3.46-5.62,10.82-7.41,16.46-3.95l100.58,61.56,122.95-73.1c5.68-3.35,13.02-1.5,16.39,4.18,3.39,5.68,1.51,13.02-4.16,16.39"/><path class="cls-1" d="m385.63,427.51c-3.37-5.68-10.71-7.54-16.39-4.18l-122.95,73.1-100.57-61.56c-5.64-3.46-13-1.68-16.46,3.95-3.44,5.64-1.68,13,3.97,16.44l112.89,69.11,135.36-80.47c5.68-3.37,7.55-10.71,4.16-16.39m-6.62,12.28l-132.87,78.99-110.44-67.6c-1.62-1.01-2.78-2.58-3.23-4.44-.45-1.87-.14-3.8.87-5.43.99-1.64,2.58-2.79,4.43-3.24.56-.13,1.14-.2,1.7-.2,1.3,0,2.6.36,3.73,1.06l103.05,63.07,125.42-74.56c3.41-2.04,7.83-.9,9.84,2.49,2.02,3.41.9,7.83-2.51,9.84"/></svg>