<?xml version="1.0" encoding="UTF-8"?><svg id="Layer_1" xmlns="http://www.w3.org/2000/svg" viewBox="0 0 1000 1368"><defs><style>.cls-1{fill:#294c89;stroke-width:0px;}</style></defs><path class="cls-1" d="m956.62,654.31v127.17c0,12.41-6.41,23.98-16.98,30.59l-406.83,254.28c-1.18.73-2.44,1.45-3.69,2.06-1.06.45-2.12.92-3.18,1.32h-.06c-2.65.99-5.42,1.65-8.2,1.92-1.32.19-2.7.26-4.02.26-1.52,0-3.11-.14-4.62-.33-.74-.14-1.52-.27-2.25-.4-.73-.14-1.52-.26-2.25-.47-.8-.19-1.52-.47-2.25-.66v-.07c-.12,0-.26,0-.33-.07-.59-.19-1.25-.45-1.85-.73-.12,0-.26-.07-.4-.12-.52-.2-1.11-.47-1.72-.73v-.07c-.07,0-.14-.07-.26-.07-.59-.33-1.19-.66-1.78-.99-.2-.14-.4-.2-.6-.33l-369.09-217.09-.53-.33c-1.18.8-2.37,1.52-3.63,2.18,0,.07-.06.07-.06.07-.8.45-1.59.92-2.39,1.32-.26.14-.47.26-.66.4-11.29,5.88-24.05,9.31-37.65,9.31C36.41,862.75,0,826.34,0,781.49s36.4-81.33,81.33-81.33c14.01,0,27.22,3.57,38.78,9.85.92.53,1.92,1.06,2.84,1.65.19.07.4.2.52.27,1.12.66,2.25,1.39,3.31,2.11.14.07.2.12.33.26,1,.66,1.92,1.32,2.85,1.98,1.18.86,2.44,1.79,3.56,2.85.67.52,1.26,1.06,1.85,1.65,1.19.92,2.32,2.04,3.44,3.17.92.93,1.78,1.85,2.7,2.84,1.73,1.92,3.37,3.9,4.96,6.02.78,1.06,1.51,2.11,2.24,3.17.73,1.12,1.45,2.18,2.11,3.29.2.27.4.53.53.86,1.12,1.99,2.25,4.03,3.24,6.08,1.72,3.57,3.17,7.27,4.36,11.1.4,1.26.73,2.58,1.06,3.84.33,1.32.66,2.64.92,3.96.26,1.32.53,2.57.73,3.9.07.73.2,1.45.27,2.11.12,1.06.26,2.04.33,3.1.06,1.06.12,2.06.19,3.11.07,1.39.12,2.77.12,4.16,0,1.45-.19,2.77-.39,4.23l-.14,1.39.86.53,350.13,205.99,371.35-232.15v-85.69l-400.75-218.67c-17.5-9.52-23.98-31.45-14.4-48.96,4.9-8.98,13.15-15.13,22.33-17.57,1.06-.33,2.18-.53,3.31-.73.33,0,.73-.07,1.06-.14.07-.07.19-.07.26-.07,3.57-.45,7.13-.45,10.7.14,0,0,0,.07.07.07h.33c.4.07.86.19,1.33.33.26,0,.45.07.73.14,3.03.73,6.01,1.85,8.85,3.43l419.57,228.91c1.12.59,2.18,1.26,3.24,1.99.6.45,1.12.85,1.73,1.32.39.26.72.59,1.11.86.14.12.34.26.47.45,7.67,6.68,12.29,16.52,12.29,27.02"/><path class="cls-1" d="m944.32,627.29c-.13-.19-.33-.33-.45-.47-.4-.26-.73-.59-1.12-.85-.6-.47-1.12-.86-1.73-1.33-1.05-.73-2.11-1.39-3.23-1.98l-419.58-228.91c-2.84-1.59-5.82-2.7-8.85-3.44-.27-.06-.47-.12-.73-.12-.47-.14-.93-.26-1.33-.33-.12,0-.26,0-.4-.07-3.57-.59-7.13-.59-10.7-.14-.06,0-.19,0-.26.07-.33.07-.73.14-1.06.14-1.12.19-2.25.4-3.31.73-9.18,2.44-17.44,8.59-22.33,17.57-9.58,17.5-3.1,39.44,14.4,48.96l400.75,218.67v85.69l-371.35,232.15-350.13-205.99-.4-9.58c0-.27,0-.47-.07-.73-.07-1.07-.12-2.06-.19-3.11-.07-1.06-.2-2.04-.33-3.1-.07-.66-.2-1.39-.27-2.11-.19-1.33-.45-2.58-.73-3.9-.26-1.33-.59-2.65-.92-3.96-.33-1.26-.66-2.58-1.06-3.84-1.19-3.83-2.65-7.53-4.36-11.1-.99-2.11-2.04-4.1-3.24-6.08-.14-.33-.33-.59-.52-.86-.67-1.11-1.4-2.17-2.12-3.29-.73-1.06-1.45-2.12-2.24-3.18-1.45-2.11-3.11-4.09-4.95-6.01-.93-.99-1.79-1.91-2.71-2.84-1.12-1.12-2.25-2.25-3.43-3.17-.6-.59-1.19-1.12-1.85-1.66-1.12-1.06-2.39-1.98-3.57-2.84-.93-.66-1.85-1.32-2.84-1.98-.14-.14-.2-.19-.34-.26-1.06-.73-2.18-1.45-3.29-2.11-1.12-.73-2.25-1.4-3.37-1.92-11.56-6.28-24.77-9.85-38.78-9.85C36.4,700.16,0,736.57,0,781.49s36.4,81.26,81.33,81.26c13.61,0,26.36-3.44,37.65-9.31l7.27-3.63,369.1,217.09c.19.12.4.19.59.33.59.33,1.19.66,1.78.99.14,0,.2.07.27.14.59.26,1.18.52,1.72.73.12.06.26.12.4.12.59.27,1.25.53,1.84.73.14.07.27.07.34.14.72.19,1.44.47,2.24.66.73.19,1.52.33,2.25.47.73.12,1.52.26,2.25.4,1.52.19,3.1.33,4.62.33,1.32,0,2.7-.07,4.02-.27,2.78-.26,5.55-.92,8.2-1.91h.06c1.07-.4,2.12-.86,3.18-1.33,1.25-.59,2.51-1.32,3.69-2.04l406.83-254.28c10.58-6.61,16.98-18.17,16.98-30.59v-127.17c0-10.51-4.62-20.35-12.29-27.02m-5.28,154.2c0,6.41-3.24,12.29-8.66,15.72l-406.89,254.29c-5.75,3.62-13.4,3.69-19.22.26l-379.08-222.9-9.12,5.95c-10.44,6.8-22.46,10.44-34.75,10.44-35.14,0-63.76-28.61-63.76-63.76s28.61-63.76,63.76-63.76,63.75,28.61,63.62,64.68c-.14,1.12-.33,2.25-.4,3.37l-.8,10.9,369.63,217.42,388.6-242.92v-105.84l-409.93-223.62c-4.36-2.39-7.53-6.28-8.92-11.04-1.39-4.76-.86-9.78,1.51-14.13,2.39-4.36,6.28-7.54,11.04-8.93,4.76-1.32,9.78-.85,14.14,1.52l419.57,228.85c5.94,3.31,9.64,9.59,9.64,16.32v127.17Z"/><path class="cls-1" d="m944.32,627.29c-.13-.19-.33-.33-.45-.47-.4-.26-.73-.59-1.12-.85-.6-.47-1.12-.86-1.73-1.33-1.05-.73-2.11-1.39-3.23-1.98l-419.58-228.91c-2.84-1.59-5.82-2.7-8.85-3.44-.27-.06-.47-.12-.73-.12-.47-.14-.93-.26-1.33-.33-.12,0-.26,0-.4-.07-3.57-.59-7.13-.59-10.7-.14-.06,0-.19,0-.26.07-.33.07-.73.14-1.06.14-1.12.19-2.25.4-3.31.73-9.18,2.44-17.44,8.59-22.33,17.57-9.58,17.5-3.1,39.44,14.4,48.96l400.75,218.67v85.69l-371.35,232.15-350.13-205.99-.4-9.58c0-.27,0-.47-.07-.73-.07-1.07-.12-2.06-.19-3.11-.07-1.06-.2-2.04-.33-3.1-.07-.66-.2-1.39-.27-2.11-.19-1.33-.45-2.58-.73-3.9-.26-1.33-.59-2.65-.92-3.96-.33-1.26-.66-2.58-1.06-3.84-1.19-3.83-2.65-7.53-4.36-11.1-.99-2.11-2.04-4.1-3.24-6.08-.14-.33-.33-.59-.52-.86-.67-1.11-1.4-2.17-2.12-3.29-.73-1.06-1.45-2.12-2.24-3.18-1.45-2.11-3.11-4.09-4.95-6.01-.93-.99-1.79-1.91-2.71-2.84-1.12-1.12-2.25-2.25-3.43-3.17-.6-.59-1.19-1.12-1.85-1.66-1.12-1.06-2.39-1.98-3.57-2.84-.93-.66-1.85-1.32-2.84-1.98-.14-.14-.2-.19-.34-.26-1.06-.73-2.18-1.45-3.29-2.11-1.12-.73-2.25-1.4-3.37-1.92-11.56-6.28-24.77-9.85-38.78-9.85C36.4,700.16,0,736.57,0,781.49s36.4,81.26,81.33,81.26c13.61,0,26.36-3.44,37.65-9.31l7.27-3.63,369.1,217.09c.19.12.4.19.59.33.59.33,1.19.66,1.78.99.14,0,.2.07.27.14.59.26,1.18.52,1.72.73.12.06.26.12.4.12.59.27,1.25.53,1.84.73.14.07.27.07.34.14.72.19,1.44.47,2.24.66.73.19,1.52.33,2.25.47.73.12,1.52.26,2.25.4,1.52.19,3.1.33,4.62.33,1.32,0,2.7-.07,4.02-.27,2.78-.26,5.55-.92,8.2-1.91h.06c1.07-.4,2.12-.86,3.18-1.33,1.25-.59,2.51-1.32,3.69-2.04l406.83-254.28c10.58-6.61,16.98-18.17,16.98-30.59v-127.17c0-10.51-4.62-20.35-12.29-27.02m-5.28,154.2c0,6.41-3.24,12.29-8.66,15.72l-406.89,254.29c-5.75,3.62-13.4,3.69-19.22.26l-379.08-222.9-9.12,5.95c-10.44,6.8-22.46,10.44-34.75,10.44-35.14,0-63.76-28.61-63.76-63.76s28.61-63.76,63.76-63.76,63.75,28.61,63.62,64.68c-.14,1.12-.33,2.25-.4,3.37l-.8,10.9,369.63,217.42,388.6-242.92v-105.84l-409.93-223.62c-4.36-2.39-7.53-6.28-8.92-11.04-1.39-4.76-.86-9.78,1.51-14.13,2.39-4.36,6.28-7.54,11.04-8.93,4.76-1.32,9.78-.85,14.14,1.52l419.57,228.85c5.94,3.31,9.64,9.59,9.64,16.32v127.17Z"/><path class="cls-1" d="m944.33,627.29c-.53-.47-1.06-.92-1.59-1.32-.59-.47-1.12-.86-1.72-1.33-1.06-.73-2.11-1.39-3.24-1.98l-419.58-228.91c-2.83-1.59-5.8-2.71-8.85-3.44-.26-.06-.45-.12-.73-.12-.52-.14-1.12-.26-1.65-.33-1.92-.33-3.9-.47-5.94-.47-1.66,0-3.37.14-5.09.33-.34.07-.74.14-1.06.14-1.12.19-2.25.4-3.31.73-9.19,2.44-17.45,8.59-22.33,17.57-9.59,17.5-3.11,39.44,14.4,48.96l400.75,218.67v85.69l-371.35,232.15-350.15-205.99-.85-.53.12-1.39.27-3.24c.12-22.19-8.39-42.94-23.85-58.53-3.57-3.57-7.46-6.8-11.5-9.64-1.39-.93-2.77-1.78-4.17-2.65-.92-.59-1.91-1.12-2.83-1.65-11.56-6.28-24.78-9.85-38.79-9.85C36.41,700.16,0,736.57,0,781.49s36.4,81.26,81.32,81.26c13.62,0,26.36-3.44,37.67-9.31.19-.14.4-.27.66-.4.78-.4,1.58-.86,2.37-1.33,0,0,.07,0,.07-.06,1.26-.66,2.44-1.39,3.63-2.18l.52.33,369.1,217.09c.2.12.4.19.6.33.59.33,1.18.66,1.78.99.12,0,.19.07.26.14.59.26,1.19.52,1.72.73.14.06.26.12.4.12.59.27,1.25.53,1.85.73.12.07.26.07.33.14.73.19,1.45.47,2.25.66.73.19,1.51.33,2.24.47.73.12,1.52.26,2.25.4,1.52.19,3.1.33,4.62.33,1.33,0,2.71-.07,4.03-.27,2.77-.26,5.55-.92,8.19-1.91h.07c1.06-.4,2.11-.86,3.17-1.33,1.26-.59,2.51-1.32,3.7-2.04l406.83-254.28c10.56-6.61,16.98-18.17,16.98-30.59v-127.17c0-10.51-4.63-20.35-12.29-27.02m-431.2,409.4l-388.39-228.52-18.24,11.95c-7.59,4.96-16.24,7.6-25.17,7.6-25.5,0-46.24-20.74-46.24-46.24s20.74-46.24,46.24-46.24c12.22,0,23.79,4.82,32.44,13.47,8.59,8.66,13.41,20.15,13.61,32.57-.12,1.06-.19,2.18-.33,3.24l-1.58,21.74,388.19,228.31,405.84-253.68v-125.99l-419.57-229.17,1.51-1.19,420.1,229.78-.45,128.02-407.95,254.36Zm-15.13,31.58c-.66-.33-1.39-.66-2.04-1.06.59.33,1.18.66,1.78.99.12,0,.19.07.26.14.59.26,1.19.52,1.72.73-.52-.27-1.12-.53-1.72-.8m4.29,1.72c-.73-.26-1.45-.52-2.18-.8.59.27,1.25.53,1.85.73.12.07.26.07.33.14.73.19,1.45.47,2.25.66.73.19,1.51.33,2.24.47.73.12,1.52.26,2.25.4,2.91.33,5.82.4,8.66.06,1.39-.19,2.7-.4,4.03-.73-6.41,1.4-13.15,1.12-19.42-.92"/><path class="cls-1" d="m956.62,290.43c0,44.86-36.41,81.26-81.33,81.26-14.01,0-27.22-3.57-38.71-9.85-4.69-2.44-9.05-5.35-13.02-8.71-.99-.8-1.98-1.66-2.91-2.51-.99-.86-1.91-1.73-2.84-2.71-.92-.92-1.85-1.85-2.7-2.84-.86-.92-1.72-1.92-2.51-2.91-.86-.99-1.72-2.04-2.44-3.1-.74-1.06-1.52-2.11-2.25-3.17-.73-1.12-1.45-2.18-2.11-3.31-1.33-2.25-2.58-4.57-3.77-6.94-.59-1.19-1.12-2.37-1.58-3.57-.53-1.26-1-2.44-1.47-3.7-.52-1.25-.92-2.51-1.32-3.76-.73-2.51-1.39-5.09-1.98-7.67-.07-.47-.2-.92-.2-1.39-.33-1.45-.52-2.84-.73-4.29-.07-.26-.07-.47-.07-.66-.26-1.99-.45-3.96-.52-6.02-.07-1.39-.14-2.77-.14-4.16,0-1.45.2-2.84.4-4.23l.14-1.39-.86-.53L443.56,78.3,72.21,310.38v85.76l400.82,218.61c17.5,9.51,23.91,31.44,14.4,48.95-.86,1.59-1.78,3.04-2.84,4.36-.2.33-.47.59-.67.86l-.06.07c-6.94,8.71-17.45,13.54-28.15,13.54-.35,0-.68-.07-1.02-.08-1.23-.01-2.45-.1-3.67-.25-.53-.07-1.06-.27-1.59-.33-1.58-.27-3.17-.66-4.68-1.06q-.07-.07-.14-.07c-.07.07-.07,0-.14-.07-.73-.19-1.39-.4-2.04-.66v-.07c-.47-.14-.8-.33-1.19-.47-.07-.06-.19-.06-.26-.12-.86-.4-1.72-.8-2.51-1.26L18.84,449.25C7.27,442.91,0,430.75,0,417.54v-127.17c0-12.42,6.41-23.98,16.98-30.59L423.88,5.5c11.43-7.13,25.83-7.34,37.39-.53l369.23,217.16.47.26c1.39-.85,2.77-1.72,4.16-2.51,1.06-.59,2.11-1.18,3.17-1.72.2-.13.47-.26.66-.4.27-.13.53-.26.8-.4.14,0,.33-.12.47-.19.45-.19.92-.4,1.39-.66.14-.07.26-.14.4-.2h.14c10.1-4.62,21.33-7.2,33.16-7.2,44.92,0,81.33,36.4,81.33,81.33"/><path class="cls-1" d="m875.29,209.11c-11.82,0-23.06,2.58-33.17,7.2h-.13c-.14.06-.27.12-.4.19-.47.26-.93.47-1.39.66-.14.07-.33.2-.47.2-.26.12-.53.26-.79.4l-8.46,4.35L461.26,4.97c-11.56-6.8-25.97-6.61-37.39.52L16.99,259.78C6.41,266.38,0,277.95,0,290.37v127.17c0,13.21,7.27,25.36,18.82,31.7l419.65,228.85c.78.47,1.65.86,2.5,1.26.07.07.2.07.27.14.45.19.8.39,1.19.52.66.26,1.32.47,2.04.66.07.07.07.14.14.07q.06,0,.12.07c1.52.4,3.1.8,4.69,1.06.52.07,1.06.26,1.59.33,1.2.15,2.43.24,3.67.26.34.01.67.07,1.01.07,10.71,0,21.21-4.82,28.15-13.54l.07-.07c.2-.26.47-.53.66-.86,1.06-1.32,1.99-2.77,2.84-4.35,9.52-17.52,3.11-39.45-14.4-48.96L72.21,396.13v-85.75L443.55,78.3l350.15,205.98.4,9.52c0,.26,0,.53.07.8.07,2.04.26,4.03.52,6.01,0,.2,0,.4.07.66.19,1.45.4,2.84.73,4.29,0,.47.14.93.19,1.39.6,2.58,1.26,5.16,1.99,7.67.4,1.26.8,2.51,1.32,3.77.47,1.25.93,2.44,1.45,3.69.47,1.19.99,2.39,1.59,3.57,1.18,2.39,2.44,4.69,3.76,6.94.67,1.12,1.4,2.18,2.11,3.31.73,1.06,1.52,2.11,2.25,3.17.73,1.06,1.59,2.11,2.44,3.1.8,1,1.66,1.99,2.52,2.91.85,1,1.77,1.92,2.7,2.84.92,1,1.85,1.85,2.84,2.71.92.85,1.92,1.72,2.91,2.51,3.96,3.36,8.33,6.27,13.02,8.72,11.5,6.27,24.71,9.84,38.71,9.84,44.92,0,81.33-36.39,81.33-81.26s-36.4-81.32-81.33-81.32m0,145.07c-35.14,0-63.76-28.6-63.62-64.68.19-1.19.33-2.32.4-3.5l.73-10.84L443.29,57.82,54.64,300.67v105.9l409.93,223.56c4.36,2.37,7.6,6.27,8.98,11.03,1.39,4.76.86,9.78-1.52,14.14-4.76,8.72-16.38,12.22-25.17,7.39L27.22,433.86c-5.94-3.24-9.64-9.51-9.64-16.31v-127.17c0-6.42,3.24-12.29,8.66-15.73L433.12,20.36c3.04-1.85,6.47-2.84,9.92-2.84,3.24,0,6.47.85,9.38,2.58l379.01,222.96,9.12-6.01c10.44-6.8,22.46-10.44,34.75-10.44,35.21,0,63.81,28.6,63.81,63.76s-28.6,63.81-63.81,63.81"/><path class="cls-1" d="m875.29,209.11c-11.82,0-23.06,2.58-33.17,7.2h-.13c-.14.06-.27.12-.4.19-.47.26-.93.47-1.39.66-.14.07-.33.2-.47.2-.26.12-.53.26-.79.4l-8.46,4.35L461.26,4.97c-11.56-6.8-25.97-6.61-37.39.52L16.99,259.78C6.41,266.38,0,277.95,0,290.37v127.17c0,13.21,7.27,25.36,18.82,31.7l419.65,228.85c.78.47,1.65.86,2.5,1.26.07.07.2.07.27.14.45.19.8.39,1.19.52.66.26,1.32.47,2.04.66.07.07.07.14.14.07q.06,0,.12.07c1.52.4,3.1.8,4.69,1.06.52.07,1.06.26,1.59.33,1.2.15,2.43.24,3.67.26.34.01.67.07,1.01.07,10.71,0,21.21-4.82,28.15-13.54l.07-.07c.2-.26.47-.53.66-.86,1.06-1.32,1.99-2.77,2.84-4.35,9.52-17.52,3.11-39.45-14.4-48.96L72.21,396.13v-85.75L443.55,78.3l350.15,205.98.4,9.52c0,.26,0,.53.07.8.07,2.04.26,4.03.52,6.01,0,.2,0,.4.07.66.19,1.45.4,2.84.73,4.29,0,.47.14.93.19,1.39.6,2.58,1.26,5.16,1.99,7.67.4,1.26.8,2.51,1.32,3.77.47,1.25.93,2.44,1.45,3.69.47,1.19.99,2.39,1.59,3.57,1.18,2.39,2.44,4.69,3.76,6.94.67,1.12,1.4,2.18,2.11,3.31.73,1.06,1.52,2.11,2.25,3.17.73,1.06,1.59,2.11,2.44,3.1.8,1,1.66,1.99,2.52,2.91.85,1,1.77,1.92,2.7,2.84.92,1,1.85,1.85,2.84,2.71.92.85,1.92,1.72,2.91,2.51,3.96,3.36,8.33,6.27,13.02,8.72,11.5,6.27,24.71,9.84,38.71,9.84,44.92,0,81.33-36.39,81.33-81.26s-36.4-81.32-81.33-81.32m0,145.07c-35.14,0-63.76-28.6-63.62-64.68.19-1.19.33-2.32.4-3.5l.73-10.84L443.29,57.82,54.64,300.67v105.9l409.93,223.56c4.36,2.37,7.6,6.27,8.98,11.03,1.39,4.76.86,9.78-1.52,14.14-4.76,8.72-16.38,12.22-25.17,7.39L27.22,433.86c-5.94-3.24-9.64-9.51-9.64-16.31v-127.17c0-6.42,3.24-12.29,8.66-15.73L433.12,20.36c3.04-1.85,6.47-2.84,9.92-2.84,3.24,0,6.47.85,9.38,2.58l379.01,222.96,9.12-6.01c10.44-6.8,22.46-10.44,34.75-10.44,35.21,0,63.81,28.6,63.81,63.76s-28.6,63.81-63.81,63.81"/><path class="cls-1" d="m875.29,209.11c-11.82,0-23.06,2.58-33.17,7.2h-.07c-.12.06-.33.12-.45.19-.47.26-.93.47-1.4.66-.12.07-.32.2-.45.2-.47.26-1,.52-1.45.8-1.06.52-2.11,1.11-3.17,1.72-1.4.78-2.78,1.65-4.17,2.51l-.47-.27L461.26,4.97c-11.56-6.8-25.97-6.61-37.39.52L16.99,259.78C6.41,266.38,0,277.95,0,290.37v127.17c0,13.21,7.26,25.36,18.82,31.7l419.64,228.85c.8.47,1.66.86,2.51,1.26.07.07.2.07.27.14.45.19.8.39,1.18.52.67.26,1.33.47,2.06.66.06.07.06.14.12.07q.07,0,.14.07c1.52.4,3.1.8,4.69,1.06.52.07,1.06.26,1.58.33,1.22.15,2.44.24,3.68.26.33.01.67.07,1.01.07,10.71,0,21.21-4.82,28.15-13.54l.07-.07c.19-.26.47-.53.66-.86,1.06-1.32,1.98-2.77,2.84-4.35,9.52-17.52,3.1-39.45-14.4-48.96L72.21,396.13v-85.75L443.56,78.3l350.15,205.98.85.53-.13,1.39-.27,3.24c-.06,22.2,8.39,42.95,23.85,58.46,5.55,5.62,11.82,10.25,18.57,13.95,11.5,6.27,24.71,9.84,38.71,9.84,44.92,0,81.33-36.39,81.33-81.26s-36.41-81.32-81.33-81.32m0,127.5c-12.22,0-23.79-4.76-32.44-13.48-8.59-8.66-13.41-20.15-13.61-32.5.14-1.19.26-2.32.33-3.44l1.45-21.66L443.03,37.28,37.13,290.96v125.98l419.58,229.19-1.45,1.18L35.08,417.54l.47-128.04L442.36,35.29c.27-.12.47-.19.67-.19l388.86,228.58,18.23-11.89c7.6-4.95,16.31-7.6,25.17-7.6,25.5,0,46.24,20.74,46.24,46.18s-20.74,46.24-46.24,46.24m-432.86,343.33c-.45-.12-.78-.33-1.18-.45.45.19.8.39,1.18.52.67.26,1.33.47,2.06.66-.73-.19-1.39-.45-2.06-.73m7.01,1.92c.52.07,1.06.26,1.58.33,4.83.59,9.85.2,14.73-1.25,2.12-.6,4.17-1.52,6.09-2.58-6.87,3.36-14.8,4.69-22.4,3.5"/><path class="cls-1" d="m978.55,1073.63l-495.95,294.84-413.63-253.22c-20.67-12.62-27.15-39.57-14.53-60.25,12.68-20.62,39.63-27.16,60.32-14.47l368.5,225.54,450.5-267.82c20.81-12.29,47.7-5.49,60.05,15.32,12.41,20.81,5.54,47.7-15.27,60.05"/><path class="cls-1" d="m993.8,1013.57c-12.35-20.81-39.23-27.61-60.04-15.32l-450.5,267.82-368.5-225.54c-20.68-12.69-47.64-6.15-60.32,14.47-12.62,20.67-6.15,47.63,14.53,60.25l413.63,253.22,495.95-294.84c20.81-12.36,27.68-39.24,15.25-60.05m-24.24,44.99l-486.83,289.43-404.65-247.68c-5.94-3.7-10.18-9.45-11.82-16.25-1.66-6.87-.53-13.94,3.17-19.89,3.63-6.01,9.45-10.23,16.25-11.89,2.04-.45,4.16-.73,6.2-.73,4.76,0,9.52,1.33,13.68,3.91l377.57,231.09,459.54-273.18c12.48-7.46,28.67-3.31,36.06,9.11,7.41,12.49,3.31,28.68-9.18,36.08"/></svg>