<?xml version="1.0" encoding="UTF-8"?>
<svg id="Layer_1" data-name="Layer 1" xmlns="http://www.w3.org/2000/svg" xmlns:xlink="http://www.w3.org/1999/xlink" viewBox="0 0 500 500">
  <defs>
    <style>
      .cls-1 {
        fill: url(#linear-gradient);
      }

      .cls-1, .cls-2 {
        stroke-width: 0px;
      }

      .cls-2 {
        fill: #fff;
      }

      .cls-3 {
        filter: url(#outer-glow-6);
      }
    </style>
    <linearGradient id="linear-gradient" x1="250" y1="513.01" x2="250" y2="-13.01" gradientUnits="userSpaceOnUse">
      <stop offset="0" stop-color="#29357b"/>
      <stop offset=".5" stop-color="#294c89"/>
      <stop offset=".77" stop-color="#294987"/>
      <stop offset=".9" stop-color="#294283"/>
      <stop offset="1" stop-color="#29357b"/>
      <stop offset="1" stop-color="#29357b"/>
    </linearGradient>
    <filter id="outer-glow-6" filterUnits="userSpaceOnUse">
      <feOffset dx="0" dy="0"/>
      <feGaussianBlur result="blur" stdDeviation="5"/>
      <feFlood flood-color="#fff" flood-opacity=".7"/>
      <feComposite in2="blur" operator="in"/>
      <feComposite in="SourceGraphic"/>
    </filter>
  </defs>
  <rect class="cls-1" x="-13.01" y="-13.01" width="526.02" height="526.02"/>
  <g class="cls-3">
    <g>
      <g>
        <path class="cls-2" d="M374.46,243.36v34.66c0,3.39-1.75,6.54-4.63,8.34l-110.89,69.31c-.32.2-.67.4-1.01.56-.29.13-.58.25-.87.36h-.02c-.72.27-1.48.45-2.23.52-.36.05-.74.07-1.1.07-.41,0-.85-.04-1.26-.09-.2-.04-.41-.07-.61-.11-.2-.04-.41-.07-.61-.13-.22-.05-.41-.13-.61-.18v-.02s-.07,0-.09-.02c-.16-.05-.34-.13-.5-.2-.04,0-.07-.02-.11-.04-.14-.05-.31-.13-.47-.2v-.02s-.04-.02-.07-.02c-.16-.09-.32-.18-.49-.27-.05-.04-.11-.05-.16-.09l-100.61-59.17-.14-.09c-.32.22-.65.41-.99.59,0,.02-.02.02-.02.02-.22.13-.43.25-.65.36-.07.04-.13.07-.18.11-3.08,1.6-6.55,2.54-10.26,2.54-12.24,0-22.17-9.92-22.17-22.15s9.92-22.17,22.17-22.17c3.82,0,7.42.97,10.57,2.68.25.14.52.29.77.45.05.02.11.05.14.07.31.18.61.38.9.58.04.02.05.04.09.07.27.18.52.36.77.54.32.23.67.49.97.77.18.14.34.29.5.45.32.25.63.56.94.86.25.25.49.5.74.77.47.52.92,1.06,1.35,1.64.22.29.41.58.61.86.2.31.4.59.58.9.05.07.11.14.14.23.31.54.61,1.1.88,1.66.47.97.87,1.98,1.19,3.03.11.34.2.7.29,1.04.09.36.18.72.25,1.08.07.36.14.7.2,1.06.02.2.05.4.07.58.04.29.07.56.09.85.02.29.04.56.05.85.02.38.04.76.04,1.13s-.05.76-.11,1.15l-.04.38.23.14,95.44,56.15,101.22-63.28v-23.36l-109.23-59.6c-4.77-2.59-6.54-8.57-3.92-13.34,1.33-2.45,3.58-4.12,6.09-4.79.29-.09.59-.14.9-.2.09,0,.2-.02.29-.04.02-.02.05-.02.07-.02.97-.13,1.94-.13,2.92.04,0,0,0,.02.02.02h.09c.11.02.23.05.36.09.07,0,.13.02.2.04.83.2,1.64.5,2.41.94l114.36,62.39c.31.16.59.34.88.54.16.13.31.23.47.36.11.07.2.16.31.23.04.04.09.07.13.13,2.09,1.82,3.35,4.5,3.35,7.37Z"/>
        <path class="cls-2" d="M371.11,235.99c-.04-.05-.09-.09-.13-.13-.11-.07-.2-.16-.31-.23-.16-.13-.31-.23-.47-.36-.29-.2-.58-.38-.88-.54l-114.36-62.39c-.77-.43-1.58-.74-2.41-.94-.07-.02-.13-.04-.2-.04-.13-.04-.25-.07-.36-.09-.04,0-.07,0-.11-.02-.97-.16-1.94-.16-2.92-.04-.02,0-.05,0-.07.02-.09.02-.2.04-.29.04-.31.05-.61.11-.9.2-2.5.67-4.75,2.34-6.09,4.79-2.61,4.77-.85,10.75,3.92,13.34l109.23,59.6v23.36l-101.22,63.28-95.44-56.15-.11-2.61c0-.07,0-.13-.02-.2-.02-.29-.04-.56-.05-.85-.02-.29-.05-.56-.09-.85-.02-.18-.05-.38-.07-.58-.05-.36-.13-.7-.2-1.06-.07-.36-.16-.72-.25-1.08-.09-.34-.18-.7-.29-1.04-.32-1.04-.72-2.05-1.19-3.03-.27-.58-.56-1.12-.88-1.66-.04-.09-.09-.16-.14-.23-.18-.31-.38-.59-.58-.9-.2-.29-.4-.58-.61-.86-.4-.58-.85-1.12-1.35-1.64-.25-.27-.49-.52-.74-.77-.31-.31-.61-.61-.94-.86-.16-.16-.32-.31-.5-.45-.31-.29-.65-.54-.97-.77-.25-.18-.5-.36-.77-.54-.04-.04-.05-.05-.09-.07-.29-.2-.59-.4-.9-.58-.31-.2-.61-.38-.92-.52-3.15-1.71-6.75-2.68-10.57-2.68-12.24,0-22.17,9.92-22.17,22.17s9.92,22.15,22.17,22.15c3.71,0,7.19-.94,10.26-2.54l1.98-.99,100.61,59.17c.05.04.11.05.16.09.16.09.32.18.49.27.04,0,.05.02.07.04.16.07.32.14.47.2.04.02.07.04.11.04.16.07.34.14.5.2.04.02.07.02.09.04.2.05.4.13.61.18.2.05.41.09.61.13.2.04.41.07.61.11.41.05.85.09,1.26.09.36,0,.74-.02,1.1-.07.76-.07,1.51-.25,2.23-.52h.02c.29-.11.58-.23.87-.36.34-.16.68-.36,1.01-.56l110.89-69.31c2.88-1.8,4.63-4.95,4.63-8.34v-34.66c0-2.86-1.26-5.55-3.35-7.37ZM369.67,278.02c0,1.75-.88,3.35-2.36,4.29l-110.9,69.31c-1.57.99-3.66,1.01-5.24.07l-103.32-60.76-2.48,1.62c-2.85,1.85-6.12,2.84-9.47,2.84-9.58,0-17.38-7.8-17.38-17.38s7.8-17.38,17.38-17.38,17.38,7.8,17.34,17.63c-.04.31-.09.61-.11.92l-.22,2.97,100.75,59.26,105.92-66.21v-28.85l-111.73-60.95c-1.19-.65-2.05-1.71-2.43-3.01-.38-1.3-.23-2.67.41-3.85.65-1.19,1.71-2.05,3.01-2.43,1.3-.36,2.67-.23,3.85.41l114.36,62.38c1.62.9,2.63,2.61,2.63,4.45v34.66Z"/>
      </g>
      <g>
        <path class="cls-2" d="M371.11,235.99c-.04-.05-.09-.09-.13-.13-.11-.07-.2-.16-.31-.23-.16-.13-.31-.23-.47-.36-.29-.2-.58-.38-.88-.54l-114.36-62.39c-.77-.43-1.58-.74-2.41-.94-.07-.02-.13-.04-.2-.04-.13-.04-.25-.07-.36-.09-.04,0-.07,0-.11-.02-.97-.16-1.94-.16-2.92-.04-.02,0-.05,0-.07.02-.09.02-.2.04-.29.04-.31.05-.61.11-.9.2-2.5.67-4.75,2.34-6.09,4.79-2.61,4.77-.85,10.75,3.92,13.34l109.23,59.6v23.36l-101.22,63.28-95.44-56.15-.11-2.61c0-.07,0-.13-.02-.2-.02-.29-.04-.56-.05-.85-.02-.29-.05-.56-.09-.85-.02-.18-.05-.38-.07-.58-.05-.36-.13-.7-.2-1.06-.07-.36-.16-.72-.25-1.08-.09-.34-.18-.7-.29-1.04-.32-1.04-.72-2.05-1.19-3.03-.27-.58-.56-1.12-.88-1.66-.04-.09-.09-.16-.14-.23-.18-.31-.38-.59-.58-.9-.2-.29-.4-.58-.61-.86-.4-.58-.85-1.12-1.35-1.64-.25-.27-.49-.52-.74-.77-.31-.31-.61-.61-.94-.86-.16-.16-.32-.31-.5-.45-.31-.29-.65-.54-.97-.77-.25-.18-.5-.36-.77-.54-.04-.04-.05-.05-.09-.07-.29-.2-.59-.4-.9-.58-.31-.2-.61-.38-.92-.52-3.15-1.71-6.75-2.68-10.57-2.68-12.24,0-22.17,9.92-22.17,22.17s9.92,22.15,22.17,22.15c3.71,0,7.19-.94,10.26-2.54l1.98-.99,100.61,59.17c.05.04.11.05.16.09.16.09.32.18.49.27.04,0,.05.02.07.04.16.07.32.14.47.2.04.02.07.04.11.04.16.07.34.14.5.2.04.02.07.02.09.04.2.05.4.13.61.18.2.05.41.09.61.13.2.04.41.07.61.11.41.05.85.09,1.26.09.36,0,.74-.02,1.1-.07.76-.07,1.51-.25,2.23-.52h.02c.29-.11.58-.23.87-.36.34-.16.68-.36,1.01-.56l110.89-69.31c2.88-1.8,4.63-4.95,4.63-8.34v-34.66c0-2.86-1.26-5.55-3.35-7.37ZM369.67,278.02c0,1.75-.88,3.35-2.36,4.29l-110.9,69.31c-1.57.99-3.66,1.01-5.24.07l-103.32-60.76-2.48,1.62c-2.85,1.85-6.12,2.84-9.47,2.84-9.58,0-17.38-7.8-17.38-17.38s7.8-17.38,17.38-17.38,17.38,7.8,17.34,17.63c-.04.31-.09.61-.11.92l-.22,2.97,100.75,59.26,105.92-66.21v-28.85l-111.73-60.95c-1.19-.65-2.05-1.71-2.43-3.01-.38-1.3-.23-2.67.41-3.85.65-1.19,1.71-2.05,3.01-2.43,1.3-.36,2.67-.23,3.85.41l114.36,62.38c1.62.9,2.63,2.61,2.63,4.45v34.66Z"/>
        <path class="cls-2" d="M371.11,235.99c-.14-.13-.29-.25-.43-.36-.16-.13-.31-.23-.47-.36-.29-.2-.58-.38-.88-.54l-114.36-62.39c-.77-.43-1.58-.74-2.41-.94-.07-.02-.13-.04-.2-.04-.14-.04-.31-.07-.45-.09-.52-.09-1.06-.13-1.62-.13-.45,0-.92.04-1.39.09-.09.02-.2.04-.29.04-.31.05-.61.11-.9.2-2.5.67-4.75,2.34-6.09,4.79-2.61,4.77-.85,10.75,3.92,13.34l109.23,59.6v23.36l-101.22,63.28-95.44-56.15-.23-.14.04-.38.07-.88c.04-6.05-2.29-11.7-6.5-15.95-.97-.97-2.03-1.85-3.13-2.63-.38-.25-.76-.49-1.14-.72-.25-.16-.52-.31-.77-.45-3.15-1.71-6.75-2.68-10.57-2.68-12.24,0-22.17,9.92-22.17,22.17s9.92,22.15,22.17,22.15c3.71,0,7.19-.94,10.26-2.54.05-.04.11-.07.18-.11.22-.11.43-.23.65-.36,0,0,.02,0,.02-.02.34-.18.67-.38.99-.59l.14.09,100.61,59.17c.05.04.11.05.16.09.16.09.32.18.49.27.04,0,.05.02.07.04.16.07.32.14.47.2.04.02.07.04.11.04.16.07.34.14.5.2.04.02.07.02.09.04.2.05.4.13.61.18.2.05.41.09.61.13.2.04.41.07.61.11.41.05.85.09,1.26.09.36,0,.74-.02,1.1-.07.76-.07,1.51-.25,2.23-.52h.02c.29-.11.58-.23.87-.36.34-.16.68-.36,1.01-.56l110.89-69.31c2.88-1.8,4.63-4.95,4.63-8.34v-34.66c0-2.86-1.26-5.55-3.35-7.37ZM253.58,347.58l-105.86-62.29-4.97,3.26c-2.07,1.35-4.43,2.07-6.86,2.07-6.95,0-12.6-5.65-12.6-12.6s5.65-12.6,12.6-12.6c3.33,0,6.48,1.31,8.84,3.67,2.34,2.36,3.66,5.49,3.71,8.88-.04.29-.05.59-.09.88l-.43,5.92,105.81,62.23,110.62-69.15v-34.34l-114.36-62.47.41-.32,114.51,62.63-.13,34.9-111.19,69.33ZM249.45,356.19c-.18-.09-.38-.18-.56-.29.16.09.32.18.49.27.04,0,.05.02.07.04.16.07.32.14.47.2-.14-.07-.31-.14-.47-.22ZM250.62,356.66c-.2-.07-.4-.14-.59-.22.16.07.34.14.5.2.04.02.07.02.09.04.2.05.4.13.61.18.2.05.41.09.61.13.2.04.41.07.61.11.79.09,1.58.11,2.36.02.38-.05.74-.11,1.1-.2-1.75.38-3.58.31-5.29-.25Z"/>
      </g>
    </g>
    <g>
      <g>
        <path class="cls-2" d="M374.46,144.17c0,12.23-9.92,22.15-22.17,22.15-3.82,0-7.42-.97-10.55-2.68-1.28-.67-2.47-1.46-3.55-2.38-.27-.22-.54-.45-.79-.68-.27-.23-.52-.47-.77-.74-.25-.25-.5-.5-.74-.77-.23-.25-.47-.52-.68-.79-.23-.27-.47-.56-.67-.85-.2-.29-.42-.58-.61-.86-.2-.31-.4-.59-.58-.9-.36-.61-.7-1.24-1.03-1.89-.16-.32-.31-.65-.43-.97-.14-.34-.27-.67-.4-1.01-.14-.34-.25-.68-.36-1.03-.2-.68-.38-1.39-.54-2.09-.02-.13-.05-.25-.05-.38-.09-.4-.14-.77-.2-1.17-.02-.07-.02-.13-.02-.18-.07-.54-.13-1.08-.14-1.64-.02-.38-.04-.76-.04-1.13s.05-.77.11-1.15l.04-.38-.23-.14-95.44-56.15-101.22,63.26v23.37l109.25,59.59c4.77,2.59,6.52,8.57,3.93,13.34-.23.43-.49.83-.77,1.19-.05.09-.13.16-.18.23l-.02.02c-1.89,2.38-4.75,3.69-7.67,3.69-.09,0-.19-.02-.28-.02-.34,0-.67-.03-1-.07-.14-.02-.29-.07-.43-.09-.43-.07-.86-.18-1.28-.29t-.04-.02s-.02,0-.04-.02c-.2-.05-.38-.11-.56-.18v-.02c-.13-.04-.22-.09-.32-.13-.02-.02-.05-.02-.07-.04-.23-.11-.47-.22-.68-.34l-114.38-62.38c-3.15-1.73-5.13-5.04-5.13-8.64v-34.66c0-3.39,1.75-6.54,4.63-8.34l110.9-69.31c3.12-1.94,7.04-2,10.19-.14l100.64,59.19.13.07c.38-.23.76-.47,1.13-.68.29-.16.58-.32.86-.47.05-.04.13-.07.18-.11.07-.04.14-.07.22-.11.04,0,.09-.04.13-.05.13-.05.25-.11.38-.18l.11-.05h.04c2.75-1.26,5.82-1.96,9.04-1.96,12.24,0,22.17,9.92,22.17,22.17Z"/>
        <path class="cls-2" d="M352.29,122.01c-3.22,0-6.28.7-9.04,1.96h-.04l-.11.05c-.13.07-.25.13-.38.18-.04.02-.09.05-.13.05-.07.04-.14.07-.22.11l-2.31,1.19-100.64-59.19c-3.15-1.85-7.08-1.8-10.19.14l-110.9,69.31c-2.88,1.8-4.63,4.95-4.63,8.34v34.66c0,3.6,1.98,6.91,5.13,8.64l114.38,62.38c.22.13.45.23.68.34.02.02.05.02.07.04.13.05.22.11.32.14.18.07.36.13.56.18.02.02.02.04.04.02t.04.02c.41.11.85.22,1.28.29.14.02.29.07.43.09.33.04.66.06,1,.07.09,0,.18.02.28.02,2.92,0,5.78-1.31,7.67-3.69l.02-.02c.05-.07.13-.14.18-.23.29-.36.54-.76.77-1.19,2.59-4.77.85-10.75-3.93-13.34l-109.25-59.59v-23.37l101.22-63.26,95.44,56.15.11,2.59c0,.07,0,.14.02.22.02.56.07,1.1.14,1.64,0,.05,0,.11.02.18.05.4.11.77.2,1.17,0,.13.04.25.05.38.16.7.34,1.4.54,2.09.11.34.22.68.36,1.03.13.34.25.67.4,1.01.13.32.27.65.43.97.32.65.67,1.28,1.03,1.89.18.31.38.59.58.9.2.29.41.58.61.86.2.29.43.58.67.85.22.27.45.54.68.79.23.27.49.52.74.77.25.27.5.5.77.74.25.23.52.47.79.68,1.08.92,2.27,1.71,3.55,2.38,3.13,1.71,6.73,2.68,10.55,2.68,12.24,0,22.17-9.92,22.17-22.15s-9.92-22.17-22.17-22.17ZM352.29,161.55c-9.58,0-17.38-7.8-17.34-17.63.05-.32.09-.63.11-.95l.2-2.95-100.71-59.24-105.94,66.19v28.87l111.73,60.94c1.19.65,2.07,1.71,2.45,3.01.38,1.3.23,2.67-.41,3.85-1.3,2.38-4.47,3.33-6.86,2.02l-114.38-62.38c-1.62-.88-2.63-2.59-2.63-4.45v-34.66c0-1.75.88-3.35,2.36-4.29l110.9-69.31c.83-.5,1.76-.77,2.7-.77.88,0,1.76.23,2.56.7l103.31,60.77,2.48-1.64c2.85-1.86,6.12-2.85,9.47-2.85,9.6,0,17.39,7.8,17.39,17.38s-7.8,17.4-17.39,17.4Z"/>
      </g>
      <g>
        <path class="cls-2" d="M352.29,122.01c-3.22,0-6.28.7-9.04,1.96h-.04l-.11.05c-.13.07-.25.13-.38.18-.04.02-.09.05-.13.05-.07.04-.14.07-.22.11l-2.31,1.19-100.64-59.19c-3.15-1.85-7.08-1.8-10.19.14l-110.9,69.31c-2.88,1.8-4.63,4.95-4.63,8.34v34.66c0,3.6,1.98,6.91,5.13,8.64l114.38,62.38c.22.13.45.23.68.34.02.02.05.02.07.04.13.05.22.11.32.14.18.07.36.13.56.18.02.02.02.04.04.02t.04.02c.41.11.85.22,1.28.29.14.02.29.07.43.09.33.04.66.06,1,.07.09,0,.18.02.28.02,2.92,0,5.78-1.31,7.67-3.69l.02-.02c.05-.07.13-.14.18-.23.29-.36.54-.76.77-1.19,2.59-4.77.85-10.75-3.93-13.34l-109.25-59.59v-23.37l101.22-63.26,95.44,56.15.11,2.59c0,.07,0,.14.02.22.02.56.07,1.1.14,1.64,0,.05,0,.11.02.18.05.4.11.77.2,1.17,0,.13.04.25.05.38.16.7.34,1.4.54,2.09.11.34.22.68.36,1.03.13.34.25.67.4,1.01.13.32.27.65.43.97.32.65.67,1.28,1.03,1.89.18.31.38.59.58.9.2.29.41.58.61.86.2.29.43.58.67.85.22.27.45.54.68.79.23.27.49.52.74.77.25.27.5.5.77.74.25.23.52.47.79.68,1.08.92,2.27,1.71,3.55,2.38,3.13,1.71,6.73,2.68,10.55,2.68,12.24,0,22.17-9.92,22.17-22.15s-9.92-22.17-22.17-22.17ZM352.29,161.55c-9.58,0-17.38-7.8-17.34-17.63.05-.32.09-.63.11-.95l.2-2.95-100.71-59.24-105.94,66.19v28.87l111.73,60.94c1.19.65,2.07,1.71,2.45,3.01.38,1.3.23,2.67-.41,3.85-1.3,2.38-4.47,3.33-6.86,2.02l-114.38-62.38c-1.62-.88-2.63-2.59-2.63-4.45v-34.66c0-1.75.88-3.35,2.36-4.29l110.9-69.31c.83-.5,1.76-.77,2.7-.77.88,0,1.76.23,2.56.7l103.31,60.77,2.48-1.64c2.85-1.86,6.12-2.85,9.47-2.85,9.6,0,17.39,7.8,17.39,17.38s-7.8,17.4-17.39,17.4Z"/>
        <path class="cls-2" d="M352.29,122.01c-3.22,0-6.28.7-9.04,1.96h-.02s-.09.04-.13.05c-.13.07-.25.13-.38.18-.04.02-.09.05-.13.05-.13.07-.27.14-.4.22-.29.14-.58.31-.86.47-.38.22-.76.45-1.13.68l-.13-.07-100.64-59.19c-3.15-1.85-7.08-1.8-10.19.14l-110.9,69.31c-2.88,1.8-4.63,4.95-4.63,8.34v34.66c0,3.6,1.98,6.91,5.13,8.64l114.38,62.38c.22.13.45.23.68.34.02.02.05.02.07.04.13.05.22.11.32.14.18.07.36.13.56.18.02.02.02.04.04.02t.04.02c.41.11.85.22,1.28.29.14.02.29.07.43.09.33.04.66.06,1,.07.09,0,.18.02.28.02,2.92,0,5.78-1.31,7.67-3.69l.02-.02c.05-.07.13-.14.18-.23.29-.36.54-.76.77-1.19,2.59-4.77.85-10.75-3.93-13.34l-109.25-59.59v-23.37l101.22-63.26,95.44,56.15.23.14-.04.38-.07.88c-.02,6.05,2.29,11.7,6.5,15.94,1.51,1.53,3.22,2.79,5.06,3.8,3.13,1.71,6.73,2.68,10.55,2.68,12.24,0,22.17-9.92,22.17-22.15s-9.92-22.17-22.17-22.17ZM352.29,156.76c-3.33,0-6.48-1.3-8.84-3.67-2.34-2.36-3.66-5.49-3.71-8.86.04-.32.07-.63.09-.94l.4-5.91-105.76-62.21-110.63,69.15v34.34l114.36,62.47-.4.32-114.52-62.63.13-34.9,110.89-69.29c.07-.04.13-.05.18-.05l105.99,62.3,4.97-3.24c2.07-1.35,4.45-2.07,6.86-2.07,6.95,0,12.6,5.65,12.6,12.59s-5.65,12.6-12.6,12.6ZM234.31,250.34c-.13-.04-.22-.09-.32-.13.13.05.22.11.32.14.18.07.36.13.56.18-.2-.05-.38-.13-.56-.2ZM236.22,250.86c.14.02.29.07.43.09,1.31.16,2.68.05,4.02-.34.58-.16,1.14-.41,1.66-.7-1.87.92-4.03,1.28-6.1.95Z"/>
      </g>
    </g>
    <g>
      <path class="cls-2" d="M380.44,357.65l-135.18,80.37-112.74-69.02c-5.64-3.44-7.4-10.79-3.96-16.42,3.46-5.62,10.8-7.4,16.44-3.94l100.44,61.48,122.79-73c5.67-3.35,13-1.49,16.37,4.18,3.39,5.67,1.51,13-4.16,16.37Z"/>
      <path class="cls-2" d="M384.6,341.28c-3.37-5.67-10.7-7.53-16.37-4.18l-122.79,73-100.44-61.48c-5.64-3.46-12.98-1.67-16.44,3.94-3.44,5.64-1.67,12.98,3.96,16.42l112.74,69.02,135.18-80.37c5.67-3.37,7.54-10.7,4.16-16.37ZM377.99,353.54l-132.69,78.89-110.29-67.51c-1.62-1.01-2.77-2.58-3.22-4.43-.45-1.87-.14-3.8.86-5.42.99-1.64,2.57-2.79,4.43-3.24.56-.13,1.13-.2,1.69-.2,1.3,0,2.59.36,3.73,1.06l102.91,62.99,125.26-74.46c3.4-2.03,7.82-.9,9.83,2.49,2.02,3.4.9,7.82-2.5,9.83Z"/>
    </g>
  </g>
</svg>