<?xml version="1.0" encoding="UTF-8"?>
<svg id="Layer_1" data-name="Layer 1" xmlns="http://www.w3.org/2000/svg" xmlns:xlink="http://www.w3.org/1999/xlink" viewBox="0 0 1000 1000">
  <defs>
    <style>
      .cls-1 {
        fill: url(#linear-gradient);
      }

      .cls-1, .cls-2 {
        stroke-width: 0px;
      }

      .cls-2 {
        fill: #fff;
      }

      .cls-3 {
        filter: url(#outer-glow-5);
      }
    </style>
    <linearGradient id="linear-gradient" x1="500" y1="1018.89" x2="500" y2="-20.13" gradientUnits="userSpaceOnUse">
      <stop offset="0" stop-color="#29357b"/>
      <stop offset=".5" stop-color="#294c89"/>
      <stop offset=".77" stop-color="#294987"/>
      <stop offset=".9" stop-color="#294283"/>
      <stop offset="1" stop-color="#29357b"/>
      <stop offset="1" stop-color="#29357b"/>
    </linearGradient>
    <filter id="outer-glow-5" filterUnits="userSpaceOnUse">
      <feOffset dx="0" dy="0"/>
      <feGaussianBlur result="blur" stdDeviation="5"/>
      <feFlood flood-color="#fff" flood-opacity=".7"/>
      <feComposite in2="blur" operator="in"/>
      <feComposite in="SourceGraphic"/>
    </filter>
  </defs>
  <rect class="cls-1" x="-19.51" y="-20.13" width="1039.01" height="1039.01"/>
  <g class="cls-3">
    <g>
      <g>
        <path class="cls-2" d="M749.84,486.04v69.58c0,6.8-3.51,13.12-9.29,16.74l-222.6,139.13c-.65.4-1.34.8-2.02,1.12-.58.25-1.16.51-1.74.72h-.04c-1.45.54-2.96.9-4.48,1.05-.72.11-1.48.14-2.2.14-.83,0-1.7-.07-2.53-.18-.4-.07-.83-.14-1.23-.22-.4-.07-.83-.14-1.23-.25-.43-.11-.83-.25-1.23-.36v-.04c-.07,0-.14,0-.18-.04-.32-.11-.69-.25-1.01-.4-.07,0-.14-.04-.22-.07-.29-.11-.61-.25-.94-.4v-.04s-.07-.04-.14-.04c-.33-.18-.65-.36-.98-.54-.11-.07-.22-.11-.33-.18l-201.96-118.78-.29-.18c-.65.43-1.3.83-1.99,1.19,0,.04-.04.04-.04.04-.43.25-.87.51-1.3.72-.14.07-.25.14-.36.22-6.18,3.22-13.16,5.1-20.6,5.1-24.58,0-44.5-19.92-44.5-44.46s19.92-44.5,44.5-44.5c7.66,0,14.89,1.95,21.22,5.39.51.29,1.05.58,1.55.9.11.04.22.11.29.14.61.36,1.23.76,1.81,1.16.07.04.11.07.18.14.54.36,1.05.72,1.55,1.08.65.47,1.34.98,1.95,1.55.36.29.69.58,1.01.9.65.51,1.27,1.12,1.88,1.74.5.51.98,1.01,1.48,1.55.94,1.05,1.84,2.13,2.71,3.29.43.58.83,1.16,1.23,1.74.4.62.79,1.19,1.16,1.81.11.14.22.29.29.47.61,1.08,1.23,2.2,1.77,3.33.94,1.95,1.74,3.98,2.39,6.07.22.69.4,1.41.58,2.1.18.72.36,1.45.5,2.17.14.72.29,1.41.4,2.13.04.4.11.8.14,1.16.07.58.14,1.12.18,1.7.04.58.07,1.12.11,1.7.04.76.07,1.52.07,2.28s-.11,1.52-.22,2.31l-.07.76.47.29,191.58,112.71,203.19-127.02v-46.88l-219.27-119.65c-9.58-5.21-13.12-17.21-7.88-26.79,2.67-4.92,7.19-8.28,12.22-9.62.58-.18,1.19-.29,1.81-.4.18,0,.4-.04.58-.07.04-.04.11-.04.14-.04,1.95-.25,3.9-.25,5.86.07,0,0,0,.04.04.04h.18c.22.04.47.11.72.18.14,0,.25.04.4.07,1.66.4,3.29,1.01,4.84,1.88l229.58,125.25c.61.33,1.19.69,1.77,1.08.33.25.61.47.94.72.22.14.4.33.61.47.07.07.18.14.25.25,4.19,3.65,6.72,9.04,6.72,14.78Z"/>
        <path class="cls-2" d="M743.12,471.26c-.07-.11-.18-.18-.25-.25-.22-.14-.4-.33-.61-.47-.33-.25-.61-.47-.94-.72-.58-.4-1.16-.76-1.77-1.08l-229.58-125.25c-1.55-.87-3.18-1.48-4.84-1.88-.14-.04-.25-.07-.4-.07-.25-.07-.51-.14-.72-.18-.07,0-.14,0-.22-.04-1.95-.33-3.9-.33-5.86-.07-.04,0-.11,0-.14.04-.18.04-.4.07-.58.07-.61.11-1.23.22-1.81.4-5.03,1.34-9.54,4.7-12.22,9.62-5.24,9.58-1.7,21.58,7.88,26.79l219.27,119.65v46.88l-203.19,127.02-191.58-112.71-.22-5.24c0-.14,0-.25-.04-.4-.04-.58-.07-1.12-.11-1.7-.04-.58-.11-1.12-.18-1.7-.04-.36-.11-.76-.14-1.16-.11-.72-.25-1.41-.4-2.13-.14-.72-.32-1.45-.5-2.17-.18-.69-.36-1.41-.58-2.1-.65-2.1-1.45-4.12-2.39-6.07-.54-1.16-1.12-2.24-1.77-3.33-.07-.18-.18-.33-.29-.47-.36-.61-.76-1.19-1.16-1.81-.4-.58-.8-1.16-1.23-1.74-.8-1.16-1.7-2.24-2.71-3.29-.51-.54-.98-1.05-1.48-1.55-.61-.61-1.23-1.23-1.88-1.74-.33-.32-.65-.61-1.01-.9-.61-.58-1.3-1.08-1.95-1.55-.51-.36-1.01-.72-1.55-1.08-.07-.07-.11-.11-.18-.14-.58-.4-1.19-.79-1.81-1.16-.61-.4-1.23-.76-1.84-1.05-6.33-3.43-13.56-5.39-21.22-5.39-24.58,0-44.5,19.92-44.5,44.5s19.92,44.46,44.5,44.46c7.45,0,14.42-1.88,20.6-5.1l3.97-1.99,201.96,118.78c.11.07.22.11.33.18.32.18.65.36.98.54.07,0,.11.04.14.07.32.14.65.29.94.4.07.04.14.07.22.07.32.14.69.29,1.01.4.07.04.14.04.18.07.4.11.79.25,1.23.36.4.11.83.18,1.23.25.4.07.83.14,1.23.22.83.11,1.7.18,2.53.18.72,0,1.48-.04,2.2-.14,1.52-.14,3.04-.51,4.48-1.05h.04c.58-.22,1.16-.47,1.74-.72.69-.32,1.37-.72,2.02-1.12l222.6-139.13c5.78-3.61,9.29-9.94,9.29-16.74v-69.58c0-5.75-2.53-11.13-6.72-14.78ZM740.23,555.63c0,3.51-1.77,6.72-4.74,8.6l-222.63,139.13c-3.15,1.99-7.34,2.02-10.52.14l-207.42-121.96-4.99,3.25c-5.71,3.72-12.29,5.71-19.01,5.71-19.23,0-34.88-15.65-34.88-34.88s15.65-34.88,34.88-34.88,34.88,15.65,34.81,35.39c-.07.61-.18,1.23-.22,1.84l-.43,5.96,202.25,118.96,212.62-132.92v-57.91l-224.3-122.36c-2.38-1.3-4.12-3.43-4.88-6.04-.76-2.6-.47-5.35.83-7.74,1.3-2.39,3.43-4.12,6.04-4.88,2.6-.72,5.35-.47,7.74.83l229.57,125.22c3.25,1.81,5.28,5.24,5.28,8.93v69.58Z"/>
      </g>
      <g>
        <path class="cls-2" d="M743.12,471.26c-.07-.11-.18-.18-.25-.25-.22-.14-.4-.33-.61-.47-.33-.25-.61-.47-.94-.72-.58-.4-1.16-.76-1.77-1.08l-229.58-125.25c-1.55-.87-3.18-1.48-4.84-1.88-.14-.04-.25-.07-.4-.07-.25-.07-.51-.14-.72-.18-.07,0-.14,0-.22-.04-1.95-.33-3.9-.33-5.86-.07-.04,0-.11,0-.14.04-.18.04-.4.07-.58.07-.61.11-1.23.22-1.81.4-5.03,1.34-9.54,4.7-12.22,9.62-5.24,9.58-1.7,21.58,7.88,26.79l219.27,119.65v46.88l-203.19,127.02-191.58-112.71-.22-5.24c0-.14,0-.25-.04-.4-.04-.58-.07-1.12-.11-1.7-.04-.58-.11-1.12-.18-1.7-.04-.36-.11-.76-.14-1.16-.11-.72-.25-1.41-.4-2.13-.14-.72-.32-1.45-.5-2.17-.18-.69-.36-1.41-.58-2.1-.65-2.1-1.45-4.12-2.39-6.07-.54-1.16-1.12-2.24-1.77-3.33-.07-.18-.18-.33-.29-.47-.36-.61-.76-1.19-1.16-1.81-.4-.58-.8-1.16-1.23-1.74-.8-1.16-1.7-2.24-2.71-3.29-.51-.54-.98-1.05-1.48-1.55-.61-.61-1.23-1.23-1.88-1.74-.33-.32-.65-.61-1.01-.9-.61-.58-1.3-1.08-1.95-1.55-.51-.36-1.01-.72-1.55-1.08-.07-.07-.11-.11-.18-.14-.58-.4-1.19-.79-1.81-1.16-.61-.4-1.23-.76-1.84-1.05-6.33-3.43-13.56-5.39-21.22-5.39-24.58,0-44.5,19.92-44.5,44.5s19.92,44.46,44.5,44.46c7.45,0,14.42-1.88,20.6-5.1l3.97-1.99,201.96,118.78c.11.07.22.11.33.18.32.18.65.36.98.54.07,0,.11.04.14.07.32.14.65.29.94.4.07.04.14.07.22.07.32.14.69.29,1.01.4.07.04.14.04.18.07.4.11.79.25,1.23.36.4.11.83.18,1.23.25.4.07.83.14,1.23.22.83.11,1.7.18,2.53.18.72,0,1.48-.04,2.2-.14,1.52-.14,3.04-.51,4.48-1.05h.04c.58-.22,1.16-.47,1.74-.72.69-.32,1.37-.72,2.02-1.12l222.6-139.13c5.78-3.61,9.29-9.94,9.29-16.74v-69.58c0-5.75-2.53-11.13-6.72-14.78ZM740.23,555.63c0,3.51-1.77,6.72-4.74,8.6l-222.63,139.13c-3.15,1.99-7.34,2.02-10.52.14l-207.42-121.96-4.99,3.25c-5.71,3.72-12.29,5.71-19.01,5.71-19.23,0-34.88-15.65-34.88-34.88s15.65-34.88,34.88-34.88,34.88,15.65,34.81,35.39c-.07.61-.18,1.23-.22,1.84l-.43,5.96,202.25,118.96,212.62-132.92v-57.91l-224.3-122.36c-2.38-1.3-4.12-3.43-4.88-6.04-.76-2.6-.47-5.35.83-7.74,1.3-2.39,3.43-4.12,6.04-4.88,2.6-.72,5.35-.47,7.74.83l229.57,125.22c3.25,1.81,5.28,5.24,5.28,8.93v69.58Z"/>
        <path class="cls-2" d="M743.12,471.26c-.29-.25-.58-.51-.87-.72-.33-.25-.61-.47-.94-.72-.58-.4-1.16-.76-1.77-1.08l-229.58-125.25c-1.55-.87-3.18-1.48-4.84-1.88-.14-.04-.25-.07-.4-.07-.29-.07-.61-.14-.9-.18-1.05-.18-2.13-.25-3.25-.25-.9,0-1.84.07-2.78.18-.18.04-.4.07-.58.07-.61.11-1.23.22-1.81.4-5.03,1.34-9.54,4.7-12.22,9.62-5.24,9.58-1.7,21.58,7.88,26.79l219.27,119.65v46.88l-203.19,127.02-191.58-112.71-.47-.29.07-.76.14-1.77c.07-12.15-4.59-23.5-13.05-32.03-1.95-1.95-4.08-3.72-6.29-5.28-.76-.51-1.52-.98-2.28-1.45-.5-.32-1.05-.61-1.55-.9-6.33-3.43-13.56-5.39-21.22-5.39-24.58,0-44.5,19.92-44.5,44.5s19.92,44.46,44.5,44.46c7.45,0,14.42-1.88,20.6-5.1.11-.07.22-.14.36-.22.43-.22.87-.47,1.3-.72,0,0,.04,0,.04-.04.69-.36,1.34-.76,1.99-1.19l.29.18,201.96,118.78c.11.07.22.11.33.18.32.18.65.36.98.54.07,0,.11.04.14.07.32.14.65.29.94.4.07.04.14.07.22.07.32.14.69.29,1.01.4.07.04.14.04.18.07.4.11.79.25,1.23.36.4.11.83.18,1.23.25.4.07.83.14,1.23.22.83.11,1.7.18,2.53.18.72,0,1.48-.04,2.2-.14,1.52-.14,3.04-.51,4.48-1.05h.04c.58-.22,1.16-.47,1.74-.72.69-.32,1.37-.72,2.02-1.12l222.6-139.13c5.78-3.61,9.29-9.94,9.29-16.74v-69.58c0-5.75-2.53-11.13-6.72-14.78ZM507.18,695.27l-212.51-125.04-9.98,6.54c-4.16,2.71-8.89,4.16-13.77,4.16-13.95,0-25.3-11.35-25.3-25.3s11.35-25.3,25.3-25.3c6.69,0,13.01,2.64,17.75,7.37,4.7,4.74,7.34,11.03,7.45,17.82-.07.58-.11,1.19-.18,1.77l-.87,11.89,212.4,124.93,222.06-138.81v-68.93l-229.57-125.4.83-.65,229.87,125.72-.25,70.05-223.21,139.17ZM498.9,712.54c-.36-.18-.76-.36-1.12-.58.32.18.65.36.98.54.07,0,.11.04.14.07.32.14.65.29.94.4-.29-.14-.61-.29-.94-.43ZM501.25,713.48c-.4-.14-.8-.29-1.19-.43.32.14.69.29,1.01.4.07.04.14.04.18.07.4.11.79.25,1.23.36.4.11.83.18,1.23.25.4.07.83.14,1.23.22,1.59.18,3.18.22,4.73.04.76-.11,1.48-.22,2.21-.4-3.51.76-7.19.62-10.63-.51Z"/>
      </g>
    </g>
    <g>
      <g>
        <path class="cls-2" d="M749.84,286.94c0,24.54-19.92,44.46-44.5,44.46-7.66,0-14.89-1.95-21.18-5.39-2.57-1.34-4.95-2.93-7.12-4.77-.54-.43-1.09-.9-1.59-1.37-.54-.47-1.05-.94-1.55-1.48-.51-.51-1.01-1.01-1.48-1.55-.47-.51-.94-1.05-1.37-1.59-.47-.54-.94-1.12-1.34-1.7-.4-.58-.83-1.16-1.23-1.74-.4-.62-.79-1.19-1.16-1.81-.72-1.23-1.41-2.49-2.06-3.8-.32-.65-.61-1.3-.87-1.95-.29-.69-.54-1.34-.8-2.02-.29-.69-.5-1.37-.72-2.06-.4-1.37-.76-2.78-1.09-4.19-.04-.25-.11-.51-.11-.76-.18-.8-.29-1.55-.4-2.35-.04-.14-.04-.25-.04-.36-.14-1.08-.25-2.17-.29-3.29-.04-.76-.07-1.52-.07-2.28s.11-1.55.22-2.31l.07-.76-.47-.29-191.58-112.71-203.19,126.99v46.92l219.31,119.61c9.58,5.21,13.09,17.21,7.88,26.79-.47.87-.98,1.66-1.55,2.39-.11.18-.25.33-.36.47l-.04.04c-3.8,4.77-9.54,7.41-15.4,7.41-.19,0-.37-.04-.56-.04-.67-.01-1.34-.06-2.01-.14-.29-.04-.58-.14-.87-.18-.87-.14-1.74-.36-2.57-.58t-.07-.04s-.04,0-.07-.04c-.4-.11-.76-.22-1.12-.36v-.04c-.25-.07-.43-.18-.65-.25-.04-.04-.11-.04-.14-.07-.47-.22-.94-.43-1.37-.69l-229.61-125.22c-6.33-3.47-10.3-10.12-10.3-17.35v-69.58c0-6.8,3.51-13.12,9.29-16.74l222.63-139.13c6.25-3.9,14.13-4.01,20.46-.29l202.03,118.82.25.14c.76-.47,1.52-.94,2.28-1.37.58-.33,1.16-.65,1.74-.94.11-.07.25-.14.36-.22.14-.07.29-.14.43-.22.07,0,.18-.07.25-.11.25-.11.51-.22.76-.36l.22-.11h.07c5.53-2.53,11.68-3.94,18.15-3.94,24.58,0,44.5,19.92,44.5,44.5Z"/>
        <path class="cls-2" d="M705.34,242.44c-6.47,0-12.62,1.41-18.15,3.94h-.07l-.22.11c-.25.14-.51.25-.76.36-.07.04-.18.11-.25.11-.14.07-.29.14-.43.22l-4.63,2.39-202.03-118.82c-6.33-3.72-14.21-3.61-20.46.29l-222.63,139.13c-5.78,3.61-9.29,9.94-9.29,16.74v69.58c0,7.23,3.98,13.88,10.3,17.35l229.61,125.22c.43.25.9.47,1.37.69.04.04.11.04.14.07.25.11.43.22.65.29.36.14.72.25,1.12.36.04.04.04.07.07.04t.07.04c.83.22,1.7.43,2.57.58.29.04.58.14.87.18.66.08,1.33.13,2.01.14.19,0,.37.04.56.04,5.86,0,11.6-2.64,15.4-7.41l.04-.04c.11-.14.25-.29.36-.47.58-.72,1.08-1.52,1.55-2.39,5.21-9.58,1.7-21.58-7.88-26.79l-219.31-119.61v-46.92l203.19-126.99,191.58,112.71.22,5.21c0,.14,0,.29.04.43.04,1.12.14,2.2.29,3.29,0,.11,0,.22.04.36.11.8.22,1.55.4,2.35,0,.25.07.51.11.76.33,1.41.69,2.82,1.09,4.19.22.69.43,1.37.72,2.06.25.69.51,1.34.8,2.02.25.65.54,1.3.87,1.95.65,1.3,1.34,2.57,2.06,3.8.36.61.76,1.19,1.16,1.81.4.58.83,1.16,1.23,1.74.4.58.87,1.16,1.34,1.7.43.54.9,1.08,1.37,1.59.47.54.97,1.05,1.48,1.55.51.54,1.01,1.01,1.55,1.48.5.47,1.05.94,1.59,1.37,2.17,1.84,4.56,3.43,7.12,4.77,6.29,3.43,13.52,5.39,21.18,5.39,24.58,0,44.5-19.92,44.5-44.46s-19.92-44.5-44.5-44.5ZM705.34,321.82c-19.23,0-34.88-15.65-34.81-35.39.11-.65.18-1.27.22-1.92l.4-5.93-202.18-118.93-212.66,132.88v57.95l224.3,122.32c2.38,1.3,4.16,3.43,4.92,6.04.76,2.6.47,5.35-.83,7.74-2.6,4.77-8.96,6.69-13.77,4.05l-229.61-125.22c-3.25-1.77-5.28-5.21-5.28-8.93v-69.58c0-3.51,1.77-6.72,4.74-8.6l222.63-139.13c1.66-1.01,3.54-1.55,5.42-1.55,1.77,0,3.54.47,5.13,1.41l207.38,122,4.99-3.29c5.71-3.72,12.29-5.71,19.01-5.71,19.27,0,34.92,15.65,34.92,34.88s-15.65,34.92-34.92,34.92Z"/>
      </g>
      <g>
        <path class="cls-2" d="M705.34,242.44c-6.47,0-12.62,1.41-18.15,3.94h-.07l-.22.11c-.25.14-.51.25-.76.36-.07.04-.18.11-.25.11-.14.07-.29.14-.43.22l-4.63,2.39-202.03-118.82c-6.33-3.72-14.21-3.61-20.46.29l-222.63,139.13c-5.78,3.61-9.29,9.94-9.29,16.74v69.58c0,7.23,3.98,13.88,10.3,17.35l229.61,125.22c.43.25.9.47,1.37.69.04.04.11.04.14.07.25.11.43.22.65.29.36.14.72.25,1.12.36.04.04.04.07.07.04t.07.04c.83.22,1.7.43,2.57.58.29.04.58.14.87.18.66.08,1.33.13,2.01.14.19,0,.37.04.56.04,5.86,0,11.6-2.64,15.4-7.41l.04-.04c.11-.14.25-.29.36-.47.58-.72,1.08-1.52,1.55-2.39,5.21-9.58,1.7-21.58-7.88-26.79l-219.31-119.61v-46.92l203.19-126.99,191.58,112.71.22,5.21c0,.14,0,.29.04.43.04,1.12.14,2.2.29,3.29,0,.11,0,.22.04.36.11.8.22,1.55.4,2.35,0,.25.07.51.11.76.33,1.41.69,2.82,1.09,4.19.22.69.43,1.37.72,2.06.25.69.51,1.34.8,2.02.25.65.54,1.3.87,1.95.65,1.3,1.34,2.57,2.06,3.8.36.61.76,1.19,1.16,1.81.4.58.83,1.16,1.23,1.74.4.58.87,1.16,1.34,1.7.43.54.9,1.08,1.37,1.59.47.54.97,1.05,1.48,1.55.51.54,1.01,1.01,1.55,1.48.5.47,1.05.94,1.59,1.37,2.17,1.84,4.56,3.43,7.12,4.77,6.29,3.43,13.52,5.39,21.18,5.39,24.58,0,44.5-19.92,44.5-44.46s-19.92-44.5-44.5-44.5ZM705.34,321.82c-19.23,0-34.88-15.65-34.81-35.39.11-.65.18-1.27.22-1.92l.4-5.93-202.18-118.93-212.66,132.88v57.95l224.3,122.32c2.38,1.3,4.16,3.43,4.92,6.04.76,2.6.47,5.35-.83,7.74-2.6,4.77-8.96,6.69-13.77,4.05l-229.61-125.22c-3.25-1.77-5.28-5.21-5.28-8.93v-69.58c0-3.51,1.77-6.72,4.74-8.6l222.63-139.13c1.66-1.01,3.54-1.55,5.42-1.55,1.77,0,3.54.47,5.13,1.41l207.38,122,4.99-3.29c5.71-3.72,12.29-5.71,19.01-5.71,19.27,0,34.92,15.65,34.92,34.88s-15.65,34.92-34.92,34.92Z"/>
        <path class="cls-2" d="M705.34,242.44c-6.47,0-12.62,1.41-18.15,3.94h-.04c-.07.04-.18.07-.25.11-.25.14-.51.25-.76.36-.07.04-.18.11-.25.11-.25.14-.54.29-.79.43-.58.29-1.16.61-1.74.94-.76.43-1.52.9-2.28,1.37l-.25-.14-202.03-118.82c-6.33-3.72-14.21-3.61-20.46.29l-222.63,139.13c-5.78,3.61-9.29,9.94-9.29,16.74v69.58c0,7.23,3.98,13.88,10.3,17.35l229.61,125.22c.43.25.9.47,1.37.69.04.04.11.04.14.07.25.11.43.22.65.29.36.14.72.25,1.12.36.04.04.04.07.07.04t.07.04c.83.22,1.7.43,2.57.58.29.04.58.14.87.18.66.08,1.33.13,2.01.14.19,0,.37.04.56.04,5.86,0,11.6-2.64,15.4-7.41l.04-.04c.11-.14.25-.29.36-.47.58-.72,1.08-1.52,1.55-2.39,5.21-9.58,1.7-21.58-7.88-26.79l-219.31-119.61v-46.92l203.19-126.99,191.58,112.71.47.29-.07.76-.14,1.77c-.04,12.15,4.59,23.5,13.05,31.99,3.04,3.07,6.47,5.6,10.16,7.63,6.29,3.43,13.52,5.39,21.18,5.39,24.58,0,44.5-19.92,44.5-44.46s-19.92-44.5-44.5-44.5ZM705.34,312.21c-6.69,0-13.01-2.6-17.75-7.37-4.7-4.74-7.34-11.02-7.45-17.78.07-.65.14-1.27.18-1.88l.79-11.86-212.3-124.89-222.09,138.81v68.93l229.58,125.4-.8.65-229.9-125.72.25-70.05,222.6-139.1c.14-.07.25-.11.36-.11l212.77,125.07,9.98-6.51c4.16-2.71,8.93-4.16,13.77-4.16,13.95,0,25.3,11.35,25.3,25.27s-11.35,25.3-25.3,25.3ZM468.5,500.07c-.25-.07-.43-.18-.65-.25.25.11.43.22.65.29.36.14.72.25,1.12.36-.4-.11-.76-.25-1.12-.4ZM472.34,501.12c.29.04.58.14.87.18,2.64.32,5.39.11,8.06-.69,1.16-.33,2.28-.83,3.33-1.41-3.76,1.84-8.1,2.57-12.25,1.92Z"/>
      </g>
    </g>
    <g>
      <path class="cls-2" d="M761.84,715.47l-271.36,161.33-226.32-138.55c-11.31-6.9-14.86-21.65-7.95-32.97,6.94-11.28,21.69-14.86,33-7.92l201.63,123.41,246.49-146.54c11.39-6.72,26.1-3,32.86,8.39,6.8,11.39,3.04,26.1-8.35,32.86Z"/>
      <path class="cls-2" d="M770.19,682.61c-6.76-11.39-21.47-15.11-32.86-8.39l-246.49,146.54-201.63-123.41c-11.31-6.94-26.06-3.36-33,7.92-6.9,11.31-3.36,26.06,7.95,32.97l226.32,138.55,271.36-161.33c11.39-6.76,15.15-21.47,8.35-32.86ZM756.93,707.23l-266.37,158.36-221.41-135.52c-3.25-2.02-5.57-5.17-6.47-8.89-.9-3.76-.29-7.63,1.74-10.88,1.99-3.29,5.17-5.6,8.89-6.51,1.12-.25,2.28-.4,3.4-.4,2.6,0,5.21.72,7.48,2.13l206.59,126.45,251.44-149.47c6.83-4.08,15.69-1.81,19.74,4.99,4.05,6.83,1.81,15.69-5.02,19.74Z"/>
    </g>
  </g>
</svg>