<?xml version="1.0" encoding="UTF-8"?><svg id="Layer_1" xmlns="http://www.w3.org/2000/svg" viewBox="0 0 500 683"><defs><style>.cls-1{fill:#fff;stroke-width:0px;}</style></defs><path class="cls-1" d="m478.31,327.16v63.59c0,6.21-3.2,11.99-8.49,15.29l-203.41,127.14c-.59.36-1.22.73-1.85,1.03-.53.23-1.06.46-1.59.66h-.03c-1.32.49-2.71.82-4.1.96-.66.1-1.35.13-2.01.13-.76,0-1.56-.07-2.31-.16-.37-.07-.76-.14-1.12-.2-.36-.07-.76-.13-1.12-.23-.4-.1-.76-.23-1.12-.33v-.03c-.06,0-.13,0-.16-.03-.3-.1-.62-.23-.93-.36-.06,0-.13-.03-.2-.06-.26-.1-.56-.23-.86-.36v-.03s-.07-.03-.13-.03c-.3-.16-.6-.33-.89-.49-.1-.07-.2-.1-.3-.16l-184.55-108.54-.27-.16c-.59.4-1.19.76-1.82,1.09,0,.03-.03.03-.03.03-.4.23-.8.46-1.19.66-.13.07-.23.13-.33.2-5.65,2.94-12.02,4.66-18.83,4.66C18.2,431.37,0,413.17,0,390.74s18.2-40.66,40.66-40.66c7,0,13.61,1.78,19.39,4.92.46.27.96.53,1.42.82.1.03.2.1.26.14.56.33,1.12.69,1.65,1.06.07.03.1.06.16.13.5.33.96.66,1.43.99.59.43,1.22.9,1.78,1.43.34.26.63.53.93.82.6.46,1.16,1.02,1.72,1.58.46.47.89.93,1.35,1.42.86.96,1.69,1.95,2.48,3.01.39.53.76,1.06,1.12,1.58.36.56.73,1.09,1.06,1.65.1.14.2.27.27.43.56.99,1.12,2.02,1.62,3.04.86,1.78,1.58,3.63,2.18,5.55.2.63.36,1.29.53,1.92.16.66.33,1.32.46,1.98.13.66.27,1.28.36,1.95.03.36.1.73.14,1.06.06.53.13,1.02.16,1.55.03.53.06,1.03.1,1.56.03.69.06,1.39.06,2.08,0,.73-.1,1.39-.19,2.11l-.07.69.43.27,175.07,103,185.68-116.08v-42.85l-200.37-109.33c-8.75-4.76-11.99-15.73-7.2-24.48,2.45-4.49,6.58-7.56,11.17-8.79.53-.16,1.09-.27,1.65-.36.16,0,.36-.03.53-.07.03-.03.1-.03.13-.03,1.78-.23,3.57-.23,5.35.07,0,0,0,.03.03.03h.16c.2.03.43.1.66.16.13,0,.23.03.36.07,1.52.36,3,.93,4.42,1.72l209.79,114.46c.56.3,1.09.63,1.62.99.3.23.56.43.86.66.19.13.36.3.56.43.07.06.17.13.23.23,3.83,3.34,6.15,8.26,6.15,13.51"/><path class="cls-1" d="m472.16,313.65c-.06-.1-.16-.16-.23-.23-.2-.13-.36-.3-.56-.43-.3-.23-.56-.43-.86-.66-.52-.36-1.06-.69-1.61-.99l-209.79-114.46c-1.42-.8-2.91-1.35-4.42-1.72-.14-.03-.23-.06-.36-.06-.23-.07-.47-.13-.66-.16-.06,0-.13,0-.2-.03-1.78-.3-3.57-.3-5.35-.07-.03,0-.1,0-.13.03-.16.03-.36.07-.53.07-.56.1-1.12.2-1.65.36-4.59,1.22-8.72,4.29-11.17,8.79-4.79,8.75-1.55,19.72,7.2,24.48l200.37,109.33v42.85l-185.68,116.08-175.07-103-.2-4.79c0-.14,0-.23-.03-.36-.03-.53-.06-1.03-.1-1.56-.03-.53-.1-1.02-.16-1.55-.03-.33-.1-.69-.14-1.06-.1-.66-.23-1.29-.36-1.95-.13-.66-.3-1.32-.46-1.98-.16-.63-.33-1.29-.53-1.92-.6-1.91-1.32-3.77-2.18-5.55-.49-1.06-1.02-2.05-1.62-3.04-.07-.16-.16-.3-.26-.43-.34-.56-.7-1.08-1.06-1.65-.36-.53-.73-1.06-1.12-1.59-.73-1.06-1.56-2.04-2.48-3-.47-.49-.9-.95-1.36-1.42-.56-.56-1.12-1.12-1.72-1.58-.3-.3-.6-.56-.93-.83-.56-.53-1.19-.99-1.78-1.42-.47-.33-.93-.66-1.42-.99-.07-.07-.1-.1-.17-.13-.53-.36-1.09-.73-1.65-1.06-.56-.36-1.12-.7-1.69-.96-5.78-3.14-12.39-4.92-19.39-4.92-22.46,0-40.66,18.2-40.66,40.66s18.2,40.63,40.66,40.63c6.8,0,13.18-1.72,18.83-4.66l3.63-1.82,184.55,108.54c.1.06.2.1.3.16.3.16.6.33.89.49.07,0,.1.03.14.07.3.13.59.26.86.36.06.03.13.06.2.06.3.14.62.27.92.36.07.03.14.03.17.07.36.1.72.23,1.12.33.36.1.76.16,1.12.23.36.06.76.13,1.12.2.76.1,1.55.16,2.31.16.66,0,1.35-.03,2.01-.14,1.39-.13,2.78-.46,4.1-.95h.03c.53-.2,1.06-.43,1.59-.66.62-.3,1.26-.66,1.85-1.02l203.41-127.14c5.29-3.31,8.49-9.09,8.49-15.29v-63.59c0-5.25-2.31-10.18-6.15-13.51m-2.64,77.1c0,3.2-1.62,6.15-4.33,7.86l-203.45,127.14c-2.87,1.81-6.7,1.85-9.61.13l-189.54-111.45-4.56,2.98c-5.22,3.4-11.23,5.22-17.37,5.22-17.57,0-31.88-14.31-31.88-31.88s14.31-31.88,31.88-31.88,31.87,14.31,31.81,32.34c-.07.56-.16,1.12-.2,1.69l-.4,5.45,184.81,108.71,194.3-121.46v-52.92l-204.96-111.81c-2.18-1.19-3.77-3.14-4.46-5.52-.69-2.38-.43-4.89.76-7.07,1.19-2.18,3.14-3.77,5.52-4.46,2.38-.66,4.89-.43,7.07.76l209.79,114.42c2.97,1.65,4.82,4.79,4.82,8.16v63.59Z"/><path class="cls-1" d="m472.16,313.65c-.06-.1-.16-.16-.23-.23-.2-.13-.36-.3-.56-.43-.3-.23-.56-.43-.86-.66-.52-.36-1.06-.69-1.61-.99l-209.79-114.46c-1.42-.8-2.91-1.35-4.42-1.72-.14-.03-.23-.06-.36-.06-.23-.07-.47-.13-.66-.16-.06,0-.13,0-.2-.03-1.78-.3-3.57-.3-5.35-.07-.03,0-.1,0-.13.03-.16.03-.36.07-.53.07-.56.1-1.12.2-1.65.36-4.59,1.22-8.72,4.29-11.17,8.79-4.79,8.75-1.55,19.72,7.2,24.48l200.37,109.33v42.85l-185.68,116.08-175.07-103-.2-4.79c0-.14,0-.23-.03-.36-.03-.53-.06-1.03-.1-1.56-.03-.53-.1-1.02-.16-1.55-.03-.33-.1-.69-.14-1.06-.1-.66-.23-1.29-.36-1.95-.13-.66-.3-1.32-.46-1.98-.16-.63-.33-1.29-.53-1.92-.6-1.91-1.32-3.77-2.18-5.55-.49-1.06-1.02-2.05-1.62-3.04-.07-.16-.16-.3-.26-.43-.34-.56-.7-1.08-1.06-1.65-.36-.53-.73-1.06-1.12-1.59-.73-1.06-1.56-2.04-2.48-3-.47-.49-.9-.95-1.36-1.42-.56-.56-1.12-1.12-1.72-1.58-.3-.3-.6-.56-.93-.83-.56-.53-1.19-.99-1.78-1.42-.47-.33-.93-.66-1.42-.99-.07-.07-.1-.1-.17-.13-.53-.36-1.09-.73-1.65-1.06-.56-.36-1.12-.7-1.69-.96-5.78-3.14-12.39-4.92-19.39-4.92-22.46,0-40.66,18.2-40.66,40.66s18.2,40.63,40.66,40.63c6.8,0,13.18-1.72,18.83-4.66l3.63-1.82,184.55,108.54c.1.06.2.1.3.16.3.16.6.33.89.49.07,0,.1.03.14.07.3.13.59.26.86.36.06.03.13.06.2.06.3.14.62.27.92.36.07.03.14.03.17.07.36.1.72.23,1.12.33.36.1.76.16,1.12.23.36.06.76.13,1.12.2.76.1,1.55.16,2.31.16.66,0,1.35-.03,2.01-.14,1.39-.13,2.78-.46,4.1-.95h.03c.53-.2,1.06-.43,1.59-.66.62-.3,1.26-.66,1.85-1.02l203.41-127.14c5.29-3.31,8.49-9.09,8.49-15.29v-63.59c0-5.25-2.31-10.18-6.15-13.51m-2.64,77.1c0,3.2-1.62,6.15-4.33,7.86l-203.45,127.14c-2.87,1.81-6.7,1.85-9.61.13l-189.54-111.45-4.56,2.98c-5.22,3.4-11.23,5.22-17.37,5.22-17.57,0-31.88-14.31-31.88-31.88s14.31-31.88,31.88-31.88,31.87,14.31,31.81,32.34c-.07.56-.16,1.12-.2,1.69l-.4,5.45,184.81,108.71,194.3-121.46v-52.92l-204.96-111.81c-2.18-1.19-3.77-3.14-4.46-5.52-.69-2.38-.43-4.89.76-7.07,1.19-2.18,3.14-3.77,5.52-4.46,2.38-.66,4.89-.43,7.07.76l209.79,114.42c2.97,1.65,4.82,4.79,4.82,8.16v63.59Z"/><path class="cls-1" d="m472.17,313.65c-.27-.23-.53-.46-.8-.66-.3-.23-.56-.43-.86-.66-.53-.36-1.06-.69-1.62-.99l-209.79-114.46c-1.41-.8-2.9-1.36-4.42-1.72-.13-.03-.23-.06-.36-.06-.26-.07-.56-.13-.82-.16-.96-.16-1.95-.23-2.97-.23-.83,0-1.69.07-2.54.16-.17.03-.37.07-.53.07-.56.1-1.12.2-1.65.36-4.59,1.22-8.72,4.29-11.17,8.79-4.79,8.75-1.56,19.72,7.2,24.48l200.37,109.33v42.85l-185.68,116.08-175.07-103-.43-.27.06-.69.14-1.62c.06-11.1-4.2-21.47-11.93-29.27-1.78-1.78-3.73-3.4-5.75-4.82-.69-.47-1.39-.89-2.08-1.32-.46-.3-.95-.56-1.41-.82-5.78-3.14-12.39-4.92-19.4-4.92C18.21,350.08,0,368.28,0,390.74s18.2,40.63,40.66,40.63c6.81,0,13.18-1.72,18.83-4.66.1-.07.2-.14.33-.2.39-.2.79-.43,1.19-.66,0,0,.03,0,.03-.03.63-.33,1.22-.69,1.82-1.09l.26.16,184.55,108.54c.1.06.2.1.3.16.3.16.59.33.89.49.06,0,.1.03.13.07.3.13.6.26.86.36.07.03.13.06.2.06.3.14.62.27.93.36.06.03.13.03.16.07.36.1.73.23,1.12.33.36.1.76.16,1.12.23.36.06.76.13,1.12.2.76.1,1.55.16,2.31.16.66,0,1.36-.03,2.02-.14,1.39-.13,2.78-.46,4.09-.95h.03c.53-.2,1.06-.43,1.58-.66.63-.3,1.26-.66,1.85-1.02l203.41-127.14c5.28-3.31,8.49-9.09,8.49-15.29v-63.59c0-5.25-2.32-10.18-6.15-13.51m-215.6,204.7l-194.2-114.26-9.12,5.97c-3.79,2.48-8.12,3.8-12.59,3.8-12.75,0-23.12-10.37-23.12-23.12s10.37-23.12,23.12-23.12c6.11,0,11.89,2.41,16.22,6.74,4.29,4.33,6.71,10.08,6.8,16.28-.06.53-.1,1.09-.16,1.62l-.79,10.87,194.09,114.16,202.92-126.84v-63l-209.79-114.59.76-.6,210.05,114.89-.23,64.01-203.98,127.18Zm-7.56,15.79c-.33-.16-.69-.33-1.02-.53.3.16.59.33.89.49.06,0,.1.03.13.07.3.13.6.26.86.36-.26-.14-.56-.27-.86-.4m2.15.86c-.36-.13-.73-.26-1.09-.4.3.14.62.27.93.36.06.03.13.03.16.07.36.1.73.23,1.12.33.36.1.76.16,1.12.23.36.06.76.13,1.12.2,1.45.16,2.91.2,4.33.03.69-.1,1.35-.2,2.02-.36-3.2.7-6.58.56-9.71-.46"/><path class="cls-1" d="m478.31,145.22c0,22.43-18.2,40.63-40.66,40.63-7,0-13.61-1.78-19.36-4.92-2.35-1.22-4.53-2.67-6.51-4.36-.49-.4-.99-.83-1.45-1.26-.49-.43-.95-.86-1.42-1.36-.46-.46-.93-.93-1.35-1.42-.43-.46-.86-.96-1.26-1.45-.43-.49-.86-1.02-1.22-1.55-.37-.53-.76-1.06-1.12-1.58-.36-.56-.73-1.09-1.06-1.65-.66-1.12-1.29-2.28-1.89-3.47-.3-.6-.56-1.19-.79-1.78-.27-.63-.5-1.22-.73-1.85-.26-.62-.46-1.26-.66-1.88-.36-1.26-.69-2.54-.99-3.83-.03-.23-.1-.46-.1-.69-.16-.73-.26-1.42-.36-2.15-.03-.13-.03-.23-.03-.33-.13-.99-.23-1.98-.26-3.01-.03-.69-.07-1.39-.07-2.08,0-.73.1-1.42.2-2.11l.07-.69-.43-.27L221.78,39.15,36.11,155.19v42.88l200.41,109.31c8.75,4.75,11.96,15.72,7.2,24.47-.43.8-.89,1.52-1.42,2.18-.1.16-.23.3-.34.43l-.03.03c-3.47,4.36-8.72,6.77-14.07,6.77-.18,0-.34-.03-.51-.04-.61,0-1.23-.05-1.83-.12-.27-.03-.53-.14-.8-.16-.79-.14-1.58-.33-2.34-.53t-.07-.03s-.03,0-.07-.03c-.36-.1-.69-.2-1.02-.33v-.03c-.23-.07-.4-.16-.6-.23-.03-.03-.1-.03-.13-.06-.43-.2-.86-.4-1.26-.63L9.42,224.63C3.64,221.46,0,215.37,0,208.77v-63.59c0-6.21,3.2-11.99,8.49-15.29L211.94,2.75c5.71-3.57,12.91-3.67,18.7-.27l184.61,108.58.23.13c.69-.43,1.39-.86,2.08-1.26.53-.3,1.06-.59,1.58-.86.1-.06.23-.13.33-.2.14-.06.27-.13.4-.2.07,0,.16-.06.23-.1.23-.1.46-.2.69-.33.07-.03.13-.07.2-.1h.07c5.05-2.31,10.67-3.6,16.58-3.6,22.46,0,40.66,18.2,40.66,40.66"/><path class="cls-1" d="m437.65,104.56c-5.91,0-11.53,1.29-16.58,3.6h-.06c-.07.03-.14.06-.2.1-.23.13-.47.23-.69.33-.07.03-.16.1-.23.1-.13.06-.27.13-.4.2l-4.23,2.18L230.63,2.49c-5.78-3.4-12.98-3.31-18.7.26L8.49,129.89C3.21,133.19,0,138.97,0,145.19v63.59c0,6.61,3.63,12.68,9.41,15.85l209.82,114.42c.39.23.82.43,1.25.63.03.03.1.03.14.07.23.1.4.19.6.26.33.13.66.23,1.02.33.03.03.03.07.07.03t.06.03c.76.2,1.55.4,2.35.53.26.03.53.13.8.16.6.07,1.22.12,1.83.13.17,0,.34.03.51.03,5.36,0,10.6-2.41,14.07-6.77l.03-.03c.1-.13.23-.27.33-.43.53-.66.99-1.39,1.42-2.18,4.76-8.76,1.56-19.72-7.2-24.48L36.11,198.07v-42.87L221.78,39.15l175.07,102.99.2,4.76c0,.13,0,.27.03.4.03,1.02.13,2.02.26,3,0,.1,0,.2.03.33.1.73.2,1.42.36,2.15,0,.23.07.47.1.69.3,1.29.63,2.58.99,3.83.2.63.4,1.26.66,1.89.23.62.47,1.22.73,1.85.23.6.49,1.19.8,1.78.59,1.19,1.22,2.35,1.88,3.47.34.56.7,1.09,1.06,1.65.36.53.76,1.06,1.12,1.58.36.53.8,1.06,1.22,1.55.4.5.83.99,1.26,1.45.43.5.89.96,1.35,1.42.46.5.93.93,1.42,1.36.46.43.96.86,1.45,1.26,1.98,1.68,4.16,3.14,6.51,4.36,5.75,3.14,12.35,4.92,19.36,4.92,22.46,0,40.66-18.2,40.66-40.63s-18.2-40.66-40.66-40.66m0,72.54c-17.57,0-31.88-14.3-31.81-32.34.1-.6.16-1.16.2-1.75l.36-5.42L221.65,28.91,27.32,150.34v52.95l204.96,111.78c2.18,1.19,3.8,3.14,4.49,5.51.69,2.38.43,4.89-.76,7.07-2.38,4.36-8.19,6.11-12.59,3.7L13.61,216.93c-2.97-1.62-4.82-4.75-4.82-8.16v-63.59c0-3.21,1.62-6.15,4.33-7.87L216.56,10.18c1.52-.93,3.24-1.42,4.96-1.42,1.62,0,3.24.43,4.69,1.29l189.5,111.48,4.56-3c5.22-3.4,11.23-5.22,17.37-5.22,17.61,0,31.91,14.3,31.91,31.88s-14.3,31.91-31.91,31.91"/><path class="cls-1" d="m437.65,104.56c-5.91,0-11.53,1.29-16.58,3.6h-.06c-.07.03-.14.06-.2.1-.23.13-.47.23-.69.33-.07.03-.16.1-.23.1-.13.06-.27.13-.4.2l-4.23,2.18L230.63,2.49c-5.78-3.4-12.98-3.31-18.7.26L8.49,129.89C3.21,133.19,0,138.97,0,145.19v63.59c0,6.61,3.63,12.68,9.41,15.85l209.82,114.42c.39.23.82.43,1.25.63.03.03.1.03.14.07.23.1.4.19.6.26.33.13.66.23,1.02.33.03.03.03.07.07.03t.06.03c.76.2,1.55.4,2.35.53.26.03.53.13.8.16.6.07,1.22.12,1.83.13.17,0,.34.03.51.03,5.36,0,10.6-2.41,14.07-6.77l.03-.03c.1-.13.23-.27.33-.43.53-.66.99-1.39,1.42-2.18,4.76-8.76,1.56-19.72-7.2-24.48L36.11,198.07v-42.87L221.78,39.15l175.07,102.99.2,4.76c0,.13,0,.27.03.4.03,1.02.13,2.02.26,3,0,.1,0,.2.03.33.1.73.2,1.42.36,2.15,0,.23.07.47.1.69.3,1.29.63,2.58.99,3.83.2.63.4,1.26.66,1.89.23.62.47,1.22.73,1.85.23.6.49,1.19.8,1.78.59,1.19,1.22,2.35,1.88,3.47.34.56.7,1.09,1.06,1.65.36.53.76,1.06,1.12,1.58.36.53.8,1.06,1.22,1.55.4.5.83.99,1.26,1.45.43.5.89.96,1.35,1.42.46.5.93.93,1.42,1.36.46.43.96.86,1.45,1.26,1.98,1.68,4.16,3.14,6.51,4.36,5.75,3.14,12.35,4.92,19.36,4.92,22.46,0,40.66-18.2,40.66-40.63s-18.2-40.66-40.66-40.66m0,72.54c-17.57,0-31.88-14.3-31.81-32.34.1-.6.16-1.16.2-1.75l.36-5.42L221.65,28.91,27.32,150.34v52.95l204.96,111.78c2.18,1.19,3.8,3.14,4.49,5.51.69,2.38.43,4.89-.76,7.07-2.38,4.36-8.19,6.11-12.59,3.7L13.61,216.93c-2.97-1.62-4.82-4.75-4.82-8.16v-63.59c0-3.21,1.62-6.15,4.33-7.87L216.56,10.18c1.52-.93,3.24-1.42,4.96-1.42,1.62,0,3.24.43,4.69,1.29l189.5,111.48,4.56-3c5.22-3.4,11.23-5.22,17.37-5.22,17.61,0,31.91,14.3,31.91,31.88s-14.3,31.91-31.91,31.91"/><path class="cls-1" d="m437.65,104.56c-5.91,0-11.53,1.29-16.58,3.6h-.03c-.06.03-.16.06-.23.1-.23.13-.47.23-.7.33-.06.03-.16.1-.23.1-.23.13-.5.26-.73.4-.53.26-1.06.56-1.58.86-.7.39-1.39.82-2.08,1.26l-.23-.14L230.63,2.49c-5.78-3.4-12.98-3.31-18.7.26L8.49,129.89C3.21,133.19,0,138.97,0,145.19v63.59c0,6.61,3.63,12.68,9.41,15.85l209.82,114.42c.4.23.83.43,1.26.63.03.03.1.03.14.07.23.1.4.19.59.26.34.13.66.23,1.03.33.03.03.03.07.06.03t.07.03c.76.2,1.55.4,2.35.53.26.03.53.13.79.16.61.07,1.22.12,1.84.13.16,0,.34.03.51.03,5.36,0,10.6-2.41,14.07-6.77l.03-.03c.1-.13.23-.27.33-.43.53-.66.99-1.39,1.42-2.18,4.76-8.76,1.55-19.72-7.2-24.48L36.11,198.07v-42.87L221.78,39.15l175.07,102.99.43.27-.06.69-.14,1.62c-.03,11.1,4.2,21.47,11.93,29.23,2.78,2.81,5.91,5.12,9.29,6.97,5.75,3.14,12.35,4.92,19.36,4.92,22.46,0,40.66-18.2,40.66-40.63s-18.2-40.66-40.66-40.66m0,63.75c-6.11,0-11.89-2.38-16.22-6.74-4.29-4.33-6.71-10.08-6.8-16.25.07-.6.13-1.16.16-1.72l.73-10.83L221.52,18.64,18.56,145.48v62.99l209.79,114.59-.73.59L17.54,208.77l.23-64.02L221.18,17.64c.14-.06.23-.1.34-.1l194.43,114.29,9.12-5.95c3.8-2.48,8.16-3.8,12.59-3.8,12.75,0,23.12,10.37,23.12,23.09s-10.37,23.12-23.12,23.12m-216.43,171.67c-.23-.06-.39-.16-.59-.23.23.1.4.19.59.26.34.13.66.23,1.03.33-.36-.1-.69-.23-1.03-.36m3.5.96c.26.03.53.13.79.16,2.41.3,4.92.1,7.37-.62,1.06-.3,2.08-.76,3.04-1.29-3.44,1.68-7.4,2.35-11.2,1.75"/><path class="cls-1" d="m489.27,536.81l-247.97,147.42-206.82-126.61c-10.34-6.31-13.57-19.79-7.26-30.12,6.34-10.31,19.82-13.58,30.16-7.24l184.25,112.77,225.25-133.91c10.4-6.15,23.85-2.74,30.03,7.66,6.21,10.4,2.77,23.85-7.63,30.03"/><path class="cls-1" d="m496.9,506.79c-6.17-10.4-19.62-13.81-30.02-7.66l-225.25,133.91-184.25-112.77c-10.34-6.34-23.82-3.07-30.16,7.24-6.31,10.34-3.07,23.81,7.26,30.12l206.82,126.61,247.97-147.42c10.4-6.18,13.84-19.62,7.63-30.03m-12.12,22.5l-243.41,144.72-202.32-123.84c-2.97-1.85-5.09-4.73-5.91-8.13-.83-3.44-.27-6.97,1.58-9.94,1.82-3,4.73-5.12,8.13-5.95,1.02-.23,2.08-.36,3.1-.36,2.38,0,4.76.66,6.84,1.95l188.78,115.55,229.77-136.59c6.24-3.73,14.33-1.65,18.03,4.55,3.7,6.25,1.65,14.34-4.59,18.04"/></svg>