<?xml version="1.0" encoding="UTF-8"?>
<svg id="Layer_1" data-name="Layer 1" xmlns="http://www.w3.org/2000/svg" xmlns:xlink="http://www.w3.org/1999/xlink" viewBox="0 0 2000 2000">
  <defs>
    <style>
      .cls-1 {
        fill: #294c89;
        stroke-width: 0px;
      }

      .cls-2 {
        fill: url(#linear-gradient);
        stroke: #b7b7b7;
        stroke-miterlimit: 10;
      }

      .cls-3 {
        filter: url(#outer-glow-1);
      }
    </style>
    <linearGradient id="linear-gradient" x1="1000" y1="2020.89" x2="1000" y2="-28.13" gradientUnits="userSpaceOnUse">
      <stop offset="0" stop-color="#e6e6e6"/>
      <stop offset=".23" stop-color="#f3f3f3"/>
      <stop offset=".5" stop-color="#fff"/>
      <stop offset=".77" stop-color="#fcfcfc"/>
      <stop offset=".89" stop-color="#f5f5f5"/>
      <stop offset=".99" stop-color="#e8e8e8"/>
      <stop offset="1" stop-color="#e6e6e6"/>
    </linearGradient>
    <filter id="outer-glow-1" filterUnits="userSpaceOnUse">
      <feOffset dx="0" dy="0"/>
      <feGaussianBlur result="blur" stdDeviation="5"/>
      <feFlood flood-color="#fff" flood-opacity=".7"/>
      <feComposite in2="blur" operator="in"/>
      <feComposite in="SourceGraphic"/>
    </filter>
  </defs>
  <rect class="cls-2" x="-24.51" y="-28.13" width="2049.01" height="2049.01"/>
  <g class="cls-3">
    <g>
      <g>
        <path class="cls-1" d="M1477.52,970.89v133c0,12.99-6.7,25.08-17.76,31.99l-425.45,265.93c-1.24.76-2.55,1.52-3.87,2.14-1.11.48-2.21.97-3.32,1.38h-.07c-2.76,1.04-5.66,1.73-8.57,2-1.38.21-2.83.28-4.21.28-1.59,0-3.25-.14-4.83-.35-.76-.14-1.59-.28-2.35-.41-.76-.14-1.59-.28-2.35-.48-.83-.21-1.59-.48-2.35-.69v-.07c-.14,0-.28,0-.35-.07-.62-.21-1.31-.48-1.93-.76-.14,0-.28-.07-.41-.14-.55-.21-1.17-.48-1.79-.76v-.07c-.07,0-.14-.07-.28-.07-.62-.35-1.24-.69-1.87-1.04-.21-.14-.41-.21-.62-.35l-386-227.03-.55-.35c-1.24.83-2.49,1.59-3.8,2.28,0,.07-.07.07-.07.07-.83.48-1.66.97-2.49,1.38-.27.14-.48.28-.69.41-11.81,6.15-25.15,9.74-39.38,9.74-46.98,0-85.05-38.07-85.05-84.98s38.07-85.05,85.05-85.05c14.65,0,28.47,3.73,40.56,10.29.97.55,2,1.11,2.97,1.73.21.07.42.21.55.28,1.17.69,2.35,1.45,3.45,2.21.14.07.21.14.35.28,1.04.69,2,1.38,2.97,2.07,1.24.9,2.55,1.87,3.73,2.97.69.55,1.31,1.11,1.94,1.73,1.24.97,2.42,2.14,3.59,3.32.96.97,1.87,1.94,2.83,2.97,1.79,2,3.52,4.08,5.18,6.29.83,1.1,1.59,2.21,2.35,3.32.76,1.18,1.52,2.28,2.21,3.45.21.28.41.55.55.9,1.17,2.07,2.35,4.21,3.38,6.36,1.8,3.73,3.32,7.6,4.56,11.61.41,1.31.76,2.69,1.11,4.01.34,1.38.69,2.76.96,4.15.28,1.38.55,2.69.76,4.08.07.76.21,1.52.28,2.21.14,1.11.28,2.14.34,3.25.07,1.1.14,2.14.21,3.25.07,1.45.13,2.9.13,4.35s-.21,2.9-.41,4.42l-.14,1.45.9.55,366.17,215.42,388.35-242.78v-89.61l-419.1-228.69c-18.31-9.95-25.08-32.89-15.06-51.19,5.11-9.4,13.75-15.82,23.35-18.38,1.11-.34,2.28-.55,3.45-.76.34,0,.76-.07,1.11-.14.07-.07.21-.07.27-.07,3.73-.48,7.46-.48,11.19.14,0,0,0,.07.07.07h.34c.41.07.9.21,1.38.35.28,0,.48.07.76.14,3.18.76,6.29,1.94,9.26,3.59l438.79,239.4c1.17.62,2.28,1.31,3.38,2.07.62.48,1.17.9,1.8,1.38.41.28.76.62,1.17.9.14.14.35.27.48.48,8.02,6.98,12.85,17.27,12.85,28.26Z"/>
        <path class="cls-1" d="M1464.67,942.63c-.13-.21-.34-.35-.48-.48-.41-.28-.76-.62-1.17-.9-.62-.48-1.17-.9-1.8-1.38-1.1-.76-2.21-1.45-3.38-2.07l-438.79-239.4c-2.97-1.66-6.08-2.83-9.26-3.59-.28-.07-.48-.14-.76-.14-.48-.14-.97-.28-1.38-.35-.14,0-.28,0-.41-.07-3.73-.62-7.46-.62-11.19-.14-.07,0-.21,0-.27.07-.35.07-.76.14-1.11.14-1.17.21-2.35.41-3.45.76-9.6,2.56-18.24,8.98-23.35,18.38-10.02,18.31-3.25,41.25,15.06,51.19l419.1,228.69v89.61l-388.35,242.78-366.17-215.42-.41-10.02c0-.28,0-.48-.07-.76-.07-1.1-.14-2.14-.21-3.25-.07-1.1-.21-2.14-.34-3.25-.07-.69-.21-1.45-.28-2.21-.21-1.38-.49-2.69-.76-4.08-.27-1.38-.62-2.76-.96-4.15-.34-1.31-.69-2.69-1.11-4.01-1.24-4.01-2.76-7.88-4.56-11.61-1.04-2.21-2.14-4.28-3.38-6.36-.14-.35-.35-.62-.55-.9-.69-1.17-1.45-2.28-2.21-3.45-.76-1.1-1.52-2.21-2.35-3.32-1.52-2.21-3.25-4.28-5.18-6.29-.97-1.04-1.87-2-2.83-2.97-1.17-1.17-2.35-2.35-3.59-3.32-.62-.62-1.24-1.17-1.94-1.73-1.17-1.1-2.49-2.07-3.73-2.97-.97-.69-1.94-1.38-2.97-2.07-.14-.14-.21-.21-.35-.28-1.1-.76-2.28-1.52-3.45-2.21-1.17-.76-2.35-1.45-3.52-2-12.09-6.56-25.91-10.29-40.56-10.29-46.98,0-85.05,38.07-85.05,85.05s38.07,84.98,85.05,84.98c14.23,0,27.57-3.59,39.38-9.74l7.6-3.8,386,227.03c.21.14.41.21.62.35.62.35,1.24.69,1.87,1.04.13,0,.21.07.28.14.62.28,1.24.55,1.79.76.14.07.28.14.41.14.62.28,1.31.55,1.93.76.14.07.28.07.35.14.76.21,1.52.48,2.35.69.76.21,1.59.34,2.35.48.76.14,1.59.28,2.35.41,1.59.21,3.25.35,4.83.35,1.38,0,2.83-.07,4.21-.28,2.9-.28,5.81-.97,8.57-2h.07c1.11-.41,2.21-.9,3.32-1.38,1.31-.62,2.62-1.38,3.87-2.14l425.45-265.93c11.05-6.91,17.76-19,17.76-31.99v-133c0-10.99-4.84-21.28-12.85-28.26ZM1459.15,1103.88c0,6.7-3.39,12.85-9.05,16.44l-425.52,265.93c-6.01,3.8-14.03,3.87-20.11.28l-396.43-233.11-9.53,6.22c-10.92,7.11-23.49,10.91-36.34,10.91-36.75,0-66.67-29.91-66.67-66.67s29.92-66.67,66.67-66.67,66.67,29.92,66.53,67.64c-.13,1.17-.34,2.35-.41,3.52l-.83,11.4,386.55,227.37,406.39-254.04v-110.68l-428.7-233.87c-4.56-2.49-7.87-6.56-9.32-11.54-1.45-4.97-.9-10.23,1.59-14.78,2.49-4.56,6.56-7.88,11.54-9.33,4.97-1.38,10.23-.9,14.79,1.59l438.79,239.33c6.22,3.45,10.09,10.02,10.09,17.06v133Z"/>
      </g>
      <g>
        <path class="cls-1" d="M1464.67,942.63c-.13-.21-.34-.35-.48-.48-.41-.28-.76-.62-1.17-.9-.62-.48-1.17-.9-1.8-1.38-1.1-.76-2.21-1.45-3.38-2.07l-438.79-239.4c-2.97-1.66-6.08-2.83-9.26-3.59-.28-.07-.48-.14-.76-.14-.48-.14-.97-.28-1.38-.35-.14,0-.28,0-.41-.07-3.73-.62-7.46-.62-11.19-.14-.07,0-.21,0-.27.07-.35.07-.76.14-1.11.14-1.17.21-2.35.41-3.45.76-9.6,2.56-18.24,8.98-23.35,18.38-10.02,18.31-3.25,41.25,15.06,51.19l419.1,228.69v89.61l-388.35,242.78-366.17-215.42-.41-10.02c0-.28,0-.48-.07-.76-.07-1.1-.14-2.14-.21-3.25-.07-1.1-.21-2.14-.34-3.25-.07-.69-.21-1.45-.28-2.21-.21-1.38-.49-2.69-.76-4.08-.27-1.38-.62-2.76-.96-4.15-.34-1.31-.69-2.69-1.11-4.01-1.24-4.01-2.76-7.88-4.56-11.61-1.04-2.21-2.14-4.28-3.38-6.36-.14-.35-.35-.62-.55-.9-.69-1.17-1.45-2.28-2.21-3.45-.76-1.1-1.52-2.21-2.35-3.32-1.52-2.21-3.25-4.28-5.18-6.29-.97-1.04-1.87-2-2.83-2.97-1.17-1.17-2.35-2.35-3.59-3.32-.62-.62-1.24-1.17-1.94-1.73-1.17-1.1-2.49-2.07-3.73-2.97-.97-.69-1.94-1.38-2.97-2.07-.14-.14-.21-.21-.35-.28-1.1-.76-2.28-1.52-3.45-2.21-1.17-.76-2.35-1.45-3.52-2-12.09-6.56-25.91-10.29-40.56-10.29-46.98,0-85.05,38.07-85.05,85.05s38.07,84.98,85.05,84.98c14.23,0,27.57-3.59,39.38-9.74l7.6-3.8,386,227.03c.21.14.41.21.62.35.62.35,1.24.69,1.87,1.04.13,0,.21.07.28.14.62.28,1.24.55,1.79.76.14.07.28.14.41.14.62.28,1.31.55,1.93.76.14.07.28.07.35.14.76.21,1.52.48,2.35.69.76.21,1.59.34,2.35.48.76.14,1.59.28,2.35.41,1.59.21,3.25.35,4.83.35,1.38,0,2.83-.07,4.21-.28,2.9-.28,5.81-.97,8.57-2h.07c1.11-.41,2.21-.9,3.32-1.38,1.31-.62,2.62-1.38,3.87-2.14l425.45-265.93c11.05-6.91,17.76-19,17.76-31.99v-133c0-10.99-4.84-21.28-12.85-28.26ZM1459.15,1103.88c0,6.7-3.39,12.85-9.05,16.44l-425.52,265.93c-6.01,3.8-14.03,3.87-20.11.28l-396.43-233.11-9.53,6.22c-10.92,7.11-23.49,10.91-36.34,10.91-36.75,0-66.67-29.91-66.67-66.67s29.92-66.67,66.67-66.67,66.67,29.92,66.53,67.64c-.13,1.17-.34,2.35-.41,3.52l-.83,11.4,386.55,227.37,406.39-254.04v-110.68l-428.7-233.87c-4.56-2.49-7.87-6.56-9.32-11.54-1.45-4.97-.9-10.23,1.59-14.78,2.49-4.56,6.56-7.88,11.54-9.33,4.97-1.38,10.23-.9,14.79,1.59l438.79,239.33c6.22,3.45,10.09,10.02,10.09,17.06v133Z"/>
        <path class="cls-1" d="M1464.67,942.63c-.55-.48-1.1-.97-1.66-1.38-.62-.48-1.17-.9-1.8-1.38-1.1-.76-2.21-1.45-3.38-2.07l-438.79-239.4c-2.97-1.66-6.08-2.83-9.26-3.59-.28-.07-.48-.14-.76-.14-.55-.14-1.17-.28-1.73-.35-2-.35-4.08-.48-6.22-.48-1.73,0-3.53.14-5.32.35-.35.07-.76.14-1.11.14-1.17.21-2.35.41-3.45.76-9.6,2.56-18.24,8.98-23.35,18.38-10.02,18.31-3.25,41.25,15.06,51.19l419.1,228.69v89.61l-388.35,242.78-366.17-215.42-.9-.55.14-1.45.28-3.39c.13-23.21-8.77-44.91-24.94-61.21-3.73-3.73-7.81-7.11-12.02-10.09-1.45-.97-2.9-1.87-4.36-2.76-.96-.62-2-1.17-2.97-1.73-12.09-6.56-25.91-10.29-40.56-10.29-46.98,0-85.05,38.07-85.05,85.05s38.07,84.98,85.05,84.98c14.23,0,27.57-3.59,39.38-9.74.21-.14.41-.28.69-.41.83-.41,1.66-.9,2.49-1.38,0,0,.07,0,.07-.07,1.32-.69,2.56-1.45,3.8-2.28l.55.35,386,227.03c.21.14.41.21.62.35.62.35,1.24.69,1.87,1.04.13,0,.21.07.28.14.62.28,1.24.55,1.79.76.14.07.28.14.41.14.62.28,1.31.55,1.93.76.14.07.28.07.35.14.76.21,1.52.48,2.35.69.76.21,1.59.34,2.35.48.76.14,1.59.28,2.35.41,1.59.21,3.25.35,4.83.35,1.38,0,2.83-.07,4.21-.28,2.9-.28,5.81-.97,8.57-2h.07c1.11-.41,2.21-.9,3.32-1.38,1.31-.62,2.62-1.38,3.87-2.14l425.45-265.93c11.05-6.91,17.76-19,17.76-31.99v-133c0-10.99-4.84-21.28-12.85-28.26ZM1013.73,1370.78l-406.18-238.98-19.07,12.51c-7.94,5.18-17,7.95-26.32,7.95-26.67,0-48.36-21.7-48.36-48.36s21.7-48.36,48.36-48.36c12.78,0,24.87,5.04,33.92,14.09,8.98,9.05,14.02,21.07,14.23,34.06-.14,1.1-.21,2.28-.35,3.39l-1.66,22.73,405.97,238.77,424.42-265.3v-131.75l-438.79-239.67,1.59-1.24,439.34,240.29-.48,133.89-426.63,265.99ZM997.91,1403.8c-.69-.35-1.45-.69-2.14-1.1.62.35,1.24.69,1.87,1.04.13,0,.21.07.28.14.62.28,1.24.55,1.79.76-.55-.28-1.17-.55-1.79-.83ZM1002.4,1405.6c-.76-.28-1.52-.55-2.28-.83.62.28,1.31.55,1.93.76.14.07.28.07.35.14.76.21,1.52.48,2.35.69.76.21,1.59.34,2.35.48.76.14,1.59.28,2.35.41,3.04.35,6.08.41,9.05.07,1.45-.21,2.83-.41,4.22-.76-6.7,1.45-13.75,1.18-20.31-.97Z"/>
      </g>
    </g>
    <g>
      <g>
        <path class="cls-1" d="M1477.52,590.34c0,46.91-38.07,84.98-85.05,84.98-14.65,0-28.47-3.73-40.49-10.29-4.91-2.56-9.47-5.6-13.61-9.12-1.04-.83-2.07-1.73-3.04-2.62-1.04-.9-2-1.8-2.97-2.83-.97-.97-1.93-1.93-2.83-2.97-.9-.97-1.8-2-2.63-3.04-.9-1.04-1.79-2.14-2.55-3.25-.76-1.11-1.59-2.21-2.35-3.32-.76-1.18-1.52-2.28-2.21-3.45-1.38-2.35-2.7-4.77-3.94-7.25-.62-1.24-1.17-2.49-1.66-3.73-.55-1.31-1.04-2.56-1.52-3.87-.55-1.31-.96-2.62-1.38-3.94-.76-2.62-1.45-5.32-2.07-8.01-.07-.48-.21-.97-.21-1.45-.35-1.52-.55-2.97-.76-4.49-.07-.27-.07-.48-.07-.69-.28-2.07-.48-4.15-.55-6.29-.07-1.45-.14-2.9-.14-4.35s.21-2.97.41-4.42l.14-1.45-.9-.55-366.17-215.42-388.35,242.71v89.68l419.17,228.62c18.31,9.95,25.01,32.89,15.06,51.19-.9,1.66-1.87,3.18-2.97,4.56-.21.35-.48.62-.69.9l-.07.07c-7.26,9.12-18.24,14.16-29.43,14.16-.36,0-.71-.07-1.07-.08-1.29-.02-2.57-.11-3.84-.27-.55-.07-1.11-.28-1.66-.35-1.66-.28-3.32-.69-4.91-1.1q-.07-.07-.14-.07c-.07.07-.07,0-.14-.07-.76-.21-1.45-.41-2.14-.69v-.07c-.49-.14-.83-.35-1.24-.48-.07-.07-.21-.07-.28-.14-.9-.41-1.79-.83-2.62-1.31l-438.86-239.33c-12.09-6.63-19.69-19.35-19.69-33.16v-133c0-12.99,6.7-25.08,17.76-31.99l425.52-265.93c11.95-7.46,27.02-7.67,39.11-.55l386.14,227.1.49.28c1.45-.9,2.9-1.8,4.35-2.62,1.11-.62,2.21-1.24,3.32-1.8.21-.14.48-.28.69-.41.28-.14.55-.28.83-.41.14,0,.35-.14.49-.21.48-.21.97-.41,1.45-.69l.41-.21h.14c10.57-4.84,22.32-7.53,34.68-7.53,46.98,0,85.05,38.07,85.05,85.05Z"/>
        <path class="cls-1" d="M1392.47,505.29c-12.37,0-24.11,2.7-34.68,7.53h-.14l-.41.21c-.48.28-.97.48-1.45.69-.14.07-.34.21-.49.21-.27.14-.55.28-.83.41l-8.85,4.56-386.14-227.1c-12.09-7.12-27.15-6.91-39.11.55l-425.52,265.93c-11.05,6.91-17.76,19-17.76,31.99v133c0,13.82,7.6,26.53,19.69,33.16l438.86,239.33c.83.48,1.73.9,2.62,1.31.07.07.21.07.28.14.48.21.83.41,1.24.55.69.28,1.38.48,2.14.69.07.07.07.14.14.07q.07,0,.14.07c1.59.41,3.25.83,4.91,1.1.55.07,1.1.28,1.66.35,1.27.16,2.55.25,3.84.27.35,0,.71.08,1.07.08,11.19,0,22.18-5.05,29.43-14.16l.07-.07c.21-.28.49-.55.69-.9,1.11-1.38,2.07-2.9,2.97-4.56,9.95-18.31,3.25-41.25-15.06-51.19l-419.17-228.62v-89.68l388.35-242.71,366.17,215.42.41,9.95c0,.28,0,.55.07.83.07,2.14.28,4.21.55,6.29,0,.21,0,.41.07.69.21,1.52.41,2.97.76,4.49,0,.48.14.97.21,1.45.62,2.69,1.32,5.39,2.07,8.01.41,1.31.83,2.63,1.38,3.94.49,1.31.97,2.56,1.52,3.87.48,1.24,1.04,2.49,1.66,3.73,1.24,2.49,2.56,4.91,3.94,7.25.69,1.17,1.45,2.28,2.21,3.45.76,1.1,1.59,2.21,2.35,3.32.76,1.1,1.66,2.21,2.55,3.25.83,1.04,1.73,2.07,2.63,3.04.9,1.04,1.86,2,2.83,2.97.97,1.04,1.94,1.93,2.97,2.83.96.9,2,1.79,3.04,2.62,4.15,3.52,8.71,6.56,13.61,9.12,12.02,6.56,25.84,10.29,40.49,10.29,46.98,0,85.05-38.07,85.05-84.98s-38.07-85.05-85.05-85.05ZM1392.47,657.01c-36.75,0-66.67-29.92-66.54-67.64.21-1.24.35-2.42.42-3.66l.76-11.33-386.42-227.3-406.45,253.97v110.75l428.7,233.8c4.56,2.49,7.94,6.56,9.4,11.54,1.45,4.97.9,10.23-1.59,14.78-4.98,9.12-17.13,12.78-26.32,7.74l-438.86-239.33c-6.22-3.39-10.09-9.95-10.09-17.06v-133c0-6.7,3.38-12.85,9.05-16.44l425.52-265.93c3.18-1.93,6.77-2.97,10.36-2.97,3.39,0,6.77.9,9.81,2.7l396.37,233.18,9.53-6.29c10.92-7.12,23.49-10.92,36.34-10.92,36.83,0,66.74,29.92,66.74,66.67s-29.91,66.74-66.74,66.74Z"/>
      </g>
      <g>
        <path class="cls-1" d="M1392.47,505.29c-12.37,0-24.11,2.7-34.68,7.53h-.14l-.41.21c-.48.28-.97.48-1.45.69-.14.07-.34.21-.49.21-.27.14-.55.28-.83.41l-8.85,4.56-386.14-227.1c-12.09-7.12-27.15-6.91-39.11.55l-425.52,265.93c-11.05,6.91-17.76,19-17.76,31.99v133c0,13.82,7.6,26.53,19.69,33.16l438.86,239.33c.83.48,1.73.9,2.62,1.31.07.07.21.07.28.14.48.21.83.41,1.24.55.69.28,1.38.48,2.14.69.07.07.07.14.14.07q.07,0,.14.07c1.59.41,3.25.83,4.91,1.1.55.07,1.1.28,1.66.35,1.27.16,2.55.25,3.84.27.35,0,.71.08,1.07.08,11.19,0,22.18-5.05,29.43-14.16l.07-.07c.21-.28.49-.55.69-.9,1.11-1.38,2.07-2.9,2.97-4.56,9.95-18.31,3.25-41.25-15.06-51.19l-419.17-228.62v-89.68l388.35-242.71,366.17,215.42.41,9.95c0,.28,0,.55.07.83.07,2.14.28,4.21.55,6.29,0,.21,0,.41.07.69.21,1.52.41,2.97.76,4.49,0,.48.14.97.21,1.45.62,2.69,1.32,5.39,2.07,8.01.41,1.31.83,2.63,1.38,3.94.49,1.31.97,2.56,1.52,3.87.48,1.24,1.04,2.49,1.66,3.73,1.24,2.49,2.56,4.91,3.94,7.25.69,1.17,1.45,2.28,2.21,3.45.76,1.1,1.59,2.21,2.35,3.32.76,1.1,1.66,2.21,2.55,3.25.83,1.04,1.73,2.07,2.63,3.04.9,1.04,1.86,2,2.83,2.97.97,1.04,1.94,1.93,2.97,2.83.96.9,2,1.79,3.04,2.62,4.15,3.52,8.71,6.56,13.61,9.12,12.02,6.56,25.84,10.29,40.49,10.29,46.98,0,85.05-38.07,85.05-84.98s-38.07-85.05-85.05-85.05ZM1392.47,657.01c-36.75,0-66.67-29.92-66.54-67.64.21-1.24.35-2.42.42-3.66l.76-11.33-386.42-227.3-406.45,253.97v110.75l428.7,233.8c4.56,2.49,7.94,6.56,9.4,11.54,1.45,4.97.9,10.23-1.59,14.78-4.98,9.12-17.13,12.78-26.32,7.74l-438.86-239.33c-6.22-3.39-10.09-9.95-10.09-17.06v-133c0-6.7,3.38-12.85,9.05-16.44l425.52-265.93c3.18-1.93,6.77-2.97,10.36-2.97,3.39,0,6.77.9,9.81,2.7l396.37,233.18,9.53-6.29c10.92-7.12,23.49-10.92,36.34-10.92,36.83,0,66.74,29.92,66.74,66.67s-29.91,66.74-66.74,66.74Z"/>
        <path class="cls-1" d="M1392.47,505.29c-12.37,0-24.11,2.7-34.68,7.53h-.07c-.14.07-.34.14-.48.21-.48.28-.97.48-1.45.69-.14.07-.34.21-.49.21-.48.28-1.04.55-1.52.83-1.11.55-2.21,1.17-3.32,1.8-1.45.83-2.9,1.73-4.35,2.62l-.49-.28-386.14-227.1c-12.09-7.12-27.15-6.91-39.11.55l-425.52,265.93c-11.05,6.91-17.76,19-17.76,31.99v133c0,13.82,7.6,26.53,19.69,33.16l438.86,239.33c.83.48,1.73.9,2.62,1.31.07.07.21.07.28.14.48.21.83.41,1.24.55.69.28,1.38.48,2.14.69.07.07.07.14.14.07q.07,0,.14.07c1.59.41,3.25.83,4.91,1.1.55.07,1.1.28,1.66.35,1.27.16,2.55.25,3.84.27.35,0,.71.08,1.07.08,11.19,0,22.18-5.05,29.43-14.16l.07-.07c.21-.28.49-.55.69-.9,1.11-1.38,2.07-2.9,2.97-4.56,9.95-18.31,3.25-41.25-15.06-51.19l-419.17-228.62v-89.68l388.35-242.71,366.17,215.42.9.55-.14,1.45-.28,3.39c-.07,23.21,8.77,44.91,24.94,61.14,5.8,5.87,12.36,10.71,19.41,14.58,12.02,6.56,25.84,10.29,40.49,10.29,46.98,0,85.05-38.07,85.05-84.98s-38.07-85.05-85.05-85.05ZM1392.47,638.63c-12.78,0-24.87-4.97-33.92-14.09-8.98-9.05-14.02-21.07-14.23-33.99.14-1.24.28-2.42.35-3.59l1.52-22.66-405.76-238.7-424.49,265.3v131.75l438.79,239.67-1.52,1.24-439.41-240.29.49-133.89,425.45-265.86c.28-.14.49-.21.69-.21l406.66,239.05,19.07-12.43c7.94-5.18,17.06-7.95,26.32-7.95,26.67,0,48.36,21.69,48.36,48.29s-21.7,48.36-48.36,48.36ZM939.8,997.69c-.49-.14-.83-.35-1.24-.48.48.21.83.41,1.24.55.69.28,1.38.48,2.14.69-.76-.21-1.45-.48-2.14-.76ZM947.12,999.7c.55.07,1.1.28,1.66.35,5.04.62,10.3.21,15.41-1.31,2.21-.62,4.36-1.59,6.36-2.7-7.19,3.52-15.48,4.91-23.42,3.66Z"/>
      </g>
    </g>
    <g>
      <path class="cls-1" d="M1500.46,1409.4l-518.65,308.35-432.57-264.82c-21.62-13.2-28.39-41.38-15.2-63.01,13.26-21.56,41.45-28.4,63.08-15.13l385.38,235.87,471.12-280.09c21.76-12.85,49.88-5.73,62.8,16.03,12.99,21.76,5.8,49.88-15.96,62.8Z"/>
      <path class="cls-1" d="M1516.42,1346.59c-12.92-21.76-41.04-28.88-62.8-16.03l-471.12,280.09-385.38-235.87c-21.62-13.27-49.81-6.42-63.08,15.13-13.2,21.63-6.43,49.81,15.2,63.01l432.57,264.82,518.65-308.35c21.76-12.92,28.95-41.04,15.96-62.8ZM1491.07,1393.64l-509.12,302.68-423.17-259.02c-6.22-3.87-10.64-9.88-12.37-17-1.73-7.19-.55-14.58,3.32-20.8,3.8-6.29,9.88-10.71,17-12.43,2.14-.48,4.35-.76,6.49-.76,4.98,0,9.95,1.38,14.3,4.08l394.85,241.67,480.58-285.69c13.06-7.81,29.99-3.45,37.72,9.54,7.74,13.06,3.45,29.99-9.6,37.72Z"/>
    </g>
  </g>
</svg>