<?xml version="1.0" encoding="UTF-8"?><svg id="Layer_1" xmlns="http://www.w3.org/2000/svg" viewBox="0 0 1000 1347.25"><defs><style>.cls-1,.cls-2{stroke-width:0px;}.cls-2{fill:#fff;}</style></defs><rect class="cls-1" x="-17.79" y="-12.67" width="1032.4" height="1378.76"/><path class="cls-2" d="m751.39,660.04v69.54c0,6.79-3.5,13.11-9.29,16.72l-222.45,139.04c-.65.4-1.33.8-2.02,1.12-.58.26-1.16.51-1.74.72h-.03c-1.45.54-2.96.91-4.48,1.05-.72.11-1.48.15-2.2.15-.83,0-1.7-.07-2.53-.18-.4-.07-.83-.14-1.23-.22-.39-.07-.83-.15-1.23-.25-.43-.11-.83-.26-1.23-.36v-.04c-.07,0-.15,0-.18-.04-.32-.11-.69-.25-1.01-.4-.07,0-.15-.04-.22-.07-.29-.11-.62-.25-.94-.4v-.04s-.07-.03-.14-.03c-.33-.18-.65-.36-.97-.54-.11-.07-.22-.11-.33-.18l-201.82-118.7-.28-.18c-.65.43-1.3.83-1.99,1.19,0,.04-.04.04-.04.04-.43.25-.87.5-1.3.72-.15.07-.25.14-.36.22-6.18,3.22-13.15,5.1-20.59,5.1-24.57,0-44.47-19.91-44.47-44.43s19.9-44.47,44.47-44.47c7.66,0,14.88,1.95,21.2,5.38.51.29,1.05.58,1.55.9.11.04.22.11.29.15.61.36,1.23.76,1.81,1.15.07.04.11.07.18.15.54.36,1.05.72,1.55,1.08.65.47,1.34.97,1.95,1.55.36.29.69.58,1.01.91.65.5,1.27,1.12,1.88,1.73.5.5.97,1.01,1.48,1.55.94,1.05,1.84,2.13,2.71,3.29.43.58.83,1.16,1.23,1.73.4.61.8,1.19,1.16,1.81.11.14.22.29.29.47.61,1.08,1.23,2.2,1.77,3.32.94,1.95,1.73,3.97,2.38,6.07.22.69.4,1.41.58,2.1.18.72.36,1.45.5,2.16.15.72.29,1.41.4,2.13.04.4.11.8.15,1.16.07.58.14,1.12.18,1.7.04.58.07,1.12.11,1.7.04.76.07,1.52.07,2.28s-.11,1.51-.22,2.31l-.07.76.47.29,191.45,112.63,203.05-126.94v-46.85l-219.12-119.57c-9.57-5.2-13.11-17.2-7.88-26.77,2.67-4.91,7.19-8.27,12.21-9.61.58-.18,1.19-.29,1.81-.4.18,0,.4-.04.58-.07.03-.03.11-.03.14-.03,1.95-.26,3.9-.26,5.85.07,0,0,0,.04.04.04h.18c.22.04.47.11.72.18.14,0,.25.04.39.07,1.66.4,3.29,1.01,4.84,1.88l229.42,125.17c.62.32,1.19.69,1.77,1.08.32.26.61.47.94.72.22.15.39.33.61.47.07.07.18.15.25.25,4.19,3.65,6.72,9.03,6.72,14.78"/><path class="cls-2" d="m744.68,645.27c-.07-.11-.18-.18-.26-.25-.22-.14-.39-.32-.61-.47-.32-.26-.61-.47-.94-.72-.58-.4-1.16-.76-1.77-1.08l-229.42-125.17c-1.55-.87-3.18-1.48-4.84-1.88-.15-.04-.25-.07-.4-.07-.25-.07-.5-.15-.72-.18-.07,0-.14,0-.22-.03-1.95-.33-3.9-.33-5.85-.07-.03,0-.11,0-.14.04-.18.04-.4.07-.58.07-.61.11-1.23.22-1.81.4-5.02,1.34-9.54,4.7-12.21,9.61-5.24,9.57-1.7,21.56,7.87,26.77l219.13,119.57v46.85l-203.05,126.94-191.45-112.63-.22-5.24c0-.14,0-.25-.03-.4-.04-.58-.07-1.12-.11-1.7-.04-.58-.11-1.12-.18-1.7-.04-.36-.11-.76-.14-1.16-.11-.72-.26-1.41-.4-2.13-.15-.72-.32-1.45-.51-2.17-.18-.69-.36-1.41-.58-2.1-.65-2.1-1.45-4.12-2.38-6.07-.54-1.15-1.12-2.24-1.77-3.32-.07-.18-.18-.32-.29-.47-.36-.61-.76-1.19-1.16-1.81-.4-.58-.8-1.16-1.23-1.73-.8-1.16-1.7-2.24-2.71-3.29-.51-.54-.98-1.05-1.48-1.55-.62-.61-1.23-1.23-1.88-1.73-.32-.32-.65-.61-1.01-.9-.62-.58-1.3-1.08-1.95-1.55-.51-.36-1.01-.72-1.55-1.08-.07-.07-.11-.11-.18-.15-.58-.39-1.19-.79-1.81-1.15-.61-.4-1.23-.76-1.84-1.05-6.32-3.43-13.55-5.38-21.21-5.38-24.56,0-44.47,19.9-44.47,44.47s19.9,44.43,44.47,44.43c7.44,0,14.41-1.88,20.59-5.1l3.97-1.99,201.82,118.7c.11.07.22.11.32.18.32.18.65.36.97.54.07,0,.11.04.15.07.32.14.65.29.94.4.07.03.15.07.22.07.32.15.69.29,1.01.4.07.04.14.04.18.07.4.11.8.25,1.23.36.39.11.83.18,1.23.25.4.07.83.15,1.23.22.83.11,1.7.18,2.53.18.72,0,1.48-.04,2.2-.15,1.52-.14,3.03-.5,4.48-1.05h.04c.58-.22,1.16-.47,1.73-.72.69-.32,1.37-.72,2.02-1.12l222.45-139.04c5.78-3.61,9.29-9.94,9.29-16.72v-69.54c0-5.74-2.53-11.13-6.72-14.78m-2.89,84.31c0,3.5-1.77,6.72-4.73,8.6l-222.48,139.04c-3.14,1.99-7.33,2.02-10.51.15l-207.27-121.88-4.99,3.25c-5.71,3.72-12.28,5.71-19,5.71-19.21,0-34.86-15.64-34.86-34.86s15.64-34.86,34.86-34.86,34.86,15.64,34.79,35.36c-.07.62-.18,1.23-.22,1.84l-.43,5.96,202.11,118.88,212.48-132.83v-57.87l-224.14-122.28c-2.38-1.3-4.12-3.43-4.88-6.03-.76-2.6-.47-5.34.83-7.73,1.3-2.39,3.43-4.12,6.03-4.88,2.6-.72,5.34-.47,7.73.83l229.42,125.13c3.25,1.81,5.27,5.24,5.27,8.92v69.54Z"/><path class="cls-2" d="m744.68,645.27c-.07-.11-.18-.18-.26-.25-.22-.14-.39-.32-.61-.47-.32-.26-.61-.47-.94-.72-.58-.4-1.16-.76-1.77-1.08l-229.42-125.17c-1.55-.87-3.18-1.48-4.84-1.88-.15-.04-.25-.07-.4-.07-.25-.07-.5-.15-.72-.18-.07,0-.14,0-.22-.03-1.95-.33-3.9-.33-5.85-.07-.03,0-.11,0-.14.04-.18.04-.4.07-.58.07-.61.11-1.23.22-1.81.4-5.02,1.34-9.54,4.7-12.21,9.61-5.24,9.57-1.7,21.56,7.87,26.77l219.13,119.57v46.85l-203.05,126.94-191.45-112.63-.22-5.24c0-.14,0-.25-.03-.4-.04-.58-.07-1.12-.11-1.7-.04-.58-.11-1.12-.18-1.7-.04-.36-.11-.76-.14-1.16-.11-.72-.26-1.41-.4-2.13-.15-.72-.32-1.45-.51-2.17-.18-.69-.36-1.41-.58-2.1-.65-2.1-1.45-4.12-2.38-6.07-.54-1.15-1.12-2.24-1.77-3.32-.07-.18-.18-.32-.29-.47-.36-.61-.76-1.19-1.16-1.81-.4-.58-.8-1.16-1.23-1.73-.8-1.16-1.7-2.24-2.71-3.29-.51-.54-.98-1.05-1.48-1.55-.62-.61-1.23-1.23-1.88-1.73-.32-.32-.65-.61-1.01-.9-.62-.58-1.3-1.08-1.95-1.55-.51-.36-1.01-.72-1.55-1.08-.07-.07-.11-.11-.18-.15-.58-.39-1.19-.79-1.81-1.15-.61-.4-1.23-.76-1.84-1.05-6.32-3.43-13.55-5.38-21.21-5.38-24.56,0-44.47,19.9-44.47,44.47s19.9,44.43,44.47,44.43c7.44,0,14.41-1.88,20.59-5.1l3.97-1.99,201.82,118.7c.11.07.22.11.32.18.32.18.65.36.97.54.07,0,.11.04.15.07.32.14.65.29.94.4.07.03.15.07.22.07.32.15.69.29,1.01.4.07.04.14.04.18.07.4.11.8.25,1.23.36.39.11.83.18,1.23.25.4.07.83.15,1.23.22.83.11,1.7.18,2.53.18.72,0,1.48-.04,2.2-.15,1.52-.14,3.03-.5,4.48-1.05h.04c.58-.22,1.16-.47,1.73-.72.69-.32,1.37-.72,2.02-1.12l222.45-139.04c5.78-3.61,9.29-9.94,9.29-16.72v-69.54c0-5.74-2.53-11.13-6.72-14.78m-2.89,84.31c0,3.5-1.77,6.72-4.73,8.6l-222.48,139.04c-3.14,1.99-7.33,2.02-10.51.15l-207.27-121.88-4.99,3.25c-5.71,3.72-12.28,5.71-19,5.71-19.21,0-34.86-15.64-34.86-34.86s15.64-34.86,34.86-34.86,34.86,15.64,34.79,35.36c-.07.62-.18,1.23-.22,1.84l-.43,5.96,202.11,118.88,212.48-132.83v-57.87l-224.14-122.28c-2.38-1.3-4.12-3.43-4.88-6.03-.76-2.6-.47-5.34.83-7.73,1.3-2.39,3.43-4.12,6.03-4.88,2.6-.72,5.34-.47,7.73.83l229.42,125.13c3.25,1.81,5.27,5.24,5.27,8.92v69.54Z"/><path class="cls-2" d="m744.67,645.27c-.29-.25-.58-.5-.87-.72-.32-.26-.61-.47-.94-.72-.58-.4-1.15-.76-1.77-1.08l-229.42-125.17c-1.55-.87-3.18-1.48-4.84-1.88-.15-.04-.25-.07-.4-.07-.29-.07-.61-.15-.9-.18-1.05-.18-2.14-.25-3.25-.25-.9,0-1.84.07-2.78.18-.18.04-.4.07-.58.07-.61.11-1.23.22-1.8.4-5.02,1.34-9.54,4.7-12.21,9.61-5.24,9.57-1.7,21.56,7.87,26.77l219.12,119.57v46.85l-203.05,126.94-191.45-112.63-.47-.29.07-.76.14-1.77c.07-12.14-4.58-23.48-13.04-32-1.95-1.95-4.08-3.72-6.28-5.27-.76-.5-1.52-.97-2.28-1.45-.5-.32-1.05-.61-1.55-.9-6.32-3.43-13.55-5.38-21.21-5.38-24.56,0-44.47,19.9-44.47,44.47s19.9,44.43,44.47,44.43c7.44,0,14.41-1.88,20.59-5.1.11-.07.22-.14.36-.22.43-.22.87-.47,1.3-.72,0,0,.03,0,.03-.04.69-.36,1.34-.76,1.99-1.19l.29.18,201.82,118.7c.11.07.22.11.32.18.32.18.65.36.97.54.07,0,.11.04.15.07.32.14.65.29.94.4.07.03.15.07.22.07.32.15.69.29,1.01.4.07.04.15.04.18.07.4.11.79.25,1.23.36.4.11.83.18,1.23.25.4.07.83.15,1.23.22.83.11,1.7.18,2.53.18.72,0,1.48-.04,2.2-.15,1.52-.14,3.04-.5,4.48-1.05h.04c.58-.22,1.16-.47,1.73-.72.69-.32,1.37-.72,2.02-1.12l222.45-139.04c5.78-3.61,9.28-9.94,9.28-16.72v-69.54c0-5.74-2.53-11.13-6.72-14.78m-235.77,223.86l-212.37-124.95-9.97,6.54c-4.15,2.71-8.89,4.16-13.76,4.16-13.94,0-25.28-11.34-25.28-25.29s11.34-25.29,25.28-25.29c6.68,0,13.01,2.64,17.74,7.37,4.69,4.73,7.33,11.02,7.44,17.81-.07.58-.11,1.19-.18,1.77l-.87,11.88,212.26,124.84,221.9-138.71v-68.89l-229.42-125.31.83-.65,229.71,125.64-.25,70.01-223.06,139.07Zm-8.27,17.27c-.36-.18-.76-.36-1.12-.58.32.18.65.36.97.54.07,0,.11.04.15.07.32.14.65.29.94.4-.29-.15-.61-.29-.94-.43m2.35.94c-.4-.15-.8-.29-1.19-.43.32.15.69.29,1.01.4.07.04.15.04.18.07.4.11.79.25,1.23.36.4.11.83.18,1.23.25.4.07.83.15,1.23.22,1.59.18,3.18.22,4.73.03.76-.11,1.48-.22,2.21-.4-3.51.76-7.19.62-10.62-.5"/><path class="cls-2" d="m751.39,461.08c0,24.53-19.9,44.43-44.47,44.43-7.66,0-14.88-1.95-21.17-5.38-2.57-1.34-4.95-2.92-7.12-4.77-.54-.43-1.08-.91-1.59-1.37-.54-.47-1.05-.94-1.55-1.48-.51-.51-1.01-1.01-1.48-1.55-.47-.5-.94-1.05-1.38-1.59-.47-.54-.94-1.12-1.33-1.7-.4-.58-.84-1.16-1.23-1.73-.4-.61-.8-1.19-1.16-1.81-.72-1.23-1.41-2.49-2.06-3.79-.32-.65-.61-1.3-.87-1.95-.29-.69-.54-1.34-.8-2.02-.29-.69-.51-1.37-.72-2.06-.4-1.37-.76-2.78-1.08-4.19-.04-.25-.11-.5-.11-.76-.18-.79-.29-1.55-.39-2.35-.04-.14-.04-.25-.04-.36-.14-1.08-.25-2.17-.29-3.29-.04-.76-.07-1.52-.07-2.28s.11-1.55.22-2.31l.07-.76-.47-.29-191.45-112.63-203.05,126.9v46.89l219.16,119.53c9.57,5.2,13.08,17.2,7.88,26.77-.47.87-.97,1.66-1.55,2.38-.11.18-.25.33-.36.47l-.04.04c-3.79,4.77-9.53,7.41-15.39,7.41-.19,0-.37-.04-.55-.04-.68-.01-1.35-.06-2.01-.14-.29-.04-.58-.14-.87-.18-.87-.15-1.73-.36-2.56-.58t-.07-.04s-.04,0-.07-.04c-.4-.11-.76-.22-1.12-.36v-.04c-.25-.07-.43-.18-.65-.26-.04-.03-.11-.03-.15-.07-.47-.22-.94-.43-1.37-.69l-229.45-125.13c-6.32-3.47-10.3-10.11-10.3-17.34v-69.54c0-6.79,3.5-13.11,9.29-16.72l222.48-139.04c6.25-3.9,14.13-4.01,20.45-.29l201.89,118.74.26.15c.76-.47,1.51-.94,2.27-1.37.58-.33,1.16-.65,1.73-.94.11-.07.25-.14.36-.22.15-.07.29-.15.43-.22.07,0,.18-.07.25-.11.25-.11.51-.22.76-.36.07-.04.15-.07.22-.11h.07c5.53-2.53,11.67-3.94,18.13-3.94,24.57,0,44.47,19.9,44.47,44.47"/><path class="cls-2" d="m706.93,416.61c-6.47,0-12.61,1.41-18.13,3.94h-.07c-.07.04-.15.07-.22.11-.25.14-.51.25-.76.36-.07.04-.18.11-.26.11-.14.07-.28.15-.43.22l-4.62,2.38-201.89-118.74c-6.32-3.72-14.2-3.61-20.45.29l-222.48,139.04c-5.78,3.61-9.29,9.93-9.29,16.72v69.54c0,7.22,3.97,13.87,10.29,17.34l229.46,125.13c.43.26.91.47,1.37.69.04.04.11.04.15.07.25.11.43.22.65.29.36.15.72.26,1.12.36.04.04.04.07.07.04t.07.04c.83.22,1.7.43,2.57.58.29.03.58.14.87.18.66.08,1.34.13,2.01.14.19,0,.37.04.56.04,5.85,0,11.6-2.64,15.39-7.41l.04-.04c.11-.15.25-.29.36-.47.58-.72,1.08-1.51,1.55-2.38,5.2-9.57,1.69-21.56-7.88-26.77l-219.16-119.53v-46.89l203.05-126.9,191.45,112.63.22,5.2c0,.15,0,.29.04.43.04,1.12.14,2.2.29,3.29,0,.11,0,.22.04.36.11.8.22,1.55.4,2.35,0,.25.07.51.11.76.33,1.41.69,2.82,1.09,4.19.22.69.43,1.37.72,2.06.26.69.51,1.34.8,2.02.25.65.54,1.3.87,1.95.65,1.3,1.34,2.56,2.06,3.79.36.61.76,1.19,1.15,1.81.4.58.83,1.15,1.23,1.73.4.58.87,1.15,1.34,1.7.43.54.9,1.08,1.37,1.59.47.54.97,1.05,1.48,1.55.51.54,1.01,1.01,1.55,1.48.5.47,1.05.94,1.59,1.37,2.17,1.84,4.55,3.43,7.12,4.77,6.29,3.43,13.51,5.38,21.17,5.38,24.56,0,44.47-19.9,44.47-44.43s-19.91-44.47-44.47-44.47m0,79.33c-19.22,0-34.86-15.64-34.79-35.37.11-.65.18-1.26.22-1.91l.4-5.92-202.04-118.85-212.52,132.79v57.91l224.14,122.24c2.38,1.3,4.15,3.43,4.91,6.03.76,2.6.47,5.35-.83,7.73-2.6,4.77-8.96,6.68-13.76,4.05l-229.46-125.13c-3.25-1.77-5.27-5.2-5.27-8.92v-69.54c0-3.5,1.77-6.72,4.73-8.6l222.48-139.04c1.66-1.01,3.54-1.56,5.42-1.56,1.77,0,3.54.47,5.13,1.41l207.24,121.92,4.98-3.29c5.71-3.72,12.28-5.71,19-5.71,19.25,0,34.89,15.64,34.89,34.86s-15.64,34.89-34.89,34.89"/><path class="cls-2" d="m706.93,416.61c-6.47,0-12.61,1.41-18.13,3.94h-.07c-.07.04-.15.07-.22.11-.25.14-.51.25-.76.36-.07.04-.18.11-.26.11-.14.07-.28.15-.43.22l-4.62,2.38-201.89-118.74c-6.32-3.72-14.2-3.61-20.45.29l-222.48,139.04c-5.78,3.61-9.29,9.93-9.29,16.72v69.54c0,7.22,3.97,13.87,10.29,17.34l229.46,125.13c.43.26.91.47,1.37.69.04.04.11.04.15.07.25.11.43.22.65.29.36.15.72.26,1.12.36.04.04.04.07.07.04t.07.04c.83.22,1.7.43,2.57.58.29.03.58.14.87.18.66.08,1.34.13,2.01.14.19,0,.37.04.56.04,5.85,0,11.6-2.64,15.39-7.41l.04-.04c.11-.15.25-.29.36-.47.58-.72,1.08-1.51,1.55-2.38,5.2-9.57,1.69-21.56-7.88-26.77l-219.16-119.53v-46.89l203.05-126.9,191.45,112.63.22,5.2c0,.15,0,.29.04.43.04,1.12.14,2.2.29,3.29,0,.11,0,.22.04.36.11.8.22,1.55.4,2.35,0,.25.07.51.11.76.33,1.41.69,2.82,1.09,4.19.22.69.43,1.37.72,2.06.26.69.51,1.34.8,2.02.25.65.54,1.3.87,1.95.65,1.3,1.34,2.56,2.06,3.79.36.61.76,1.19,1.15,1.81.4.58.83,1.15,1.23,1.73.4.58.87,1.15,1.34,1.7.43.54.9,1.08,1.37,1.59.47.54.97,1.05,1.48,1.55.51.54,1.01,1.01,1.55,1.48.5.47,1.05.94,1.59,1.37,2.17,1.84,4.55,3.43,7.12,4.77,6.29,3.43,13.51,5.38,21.17,5.38,24.56,0,44.47-19.9,44.47-44.43s-19.91-44.47-44.47-44.47m0,79.33c-19.22,0-34.86-15.64-34.79-35.37.11-.65.18-1.26.22-1.91l.4-5.92-202.04-118.85-212.52,132.79v57.91l224.14,122.24c2.38,1.3,4.15,3.43,4.91,6.03.76,2.6.47,5.35-.83,7.73-2.6,4.77-8.96,6.68-13.76,4.05l-229.46-125.13c-3.25-1.77-5.27-5.2-5.27-8.92v-69.54c0-3.5,1.77-6.72,4.73-8.6l222.48-139.04c1.66-1.01,3.54-1.56,5.42-1.56,1.77,0,3.54.47,5.13,1.41l207.24,121.92,4.98-3.29c5.71-3.72,12.28-5.71,19-5.71,19.25,0,34.89,15.64,34.89,34.86s-15.64,34.89-34.89,34.89"/><path class="cls-2" d="m706.93,416.61c-6.47,0-12.61,1.41-18.13,3.94h-.04c-.07.04-.18.07-.25.11-.26.15-.51.25-.76.36-.07.04-.18.11-.26.11-.25.14-.54.29-.79.43-.58.29-1.16.62-1.73.94-.76.43-1.52.9-2.28,1.37l-.25-.15-201.89-118.74c-6.32-3.72-14.2-3.61-20.45.29l-222.48,139.04c-5.78,3.61-9.28,9.94-9.28,16.72v69.54c0,7.22,3.97,13.87,10.29,17.34l229.46,125.13c.43.25.9.47,1.37.69.04.04.11.04.15.07.25.11.43.22.65.29.36.14.72.25,1.12.36.03.04.03.07.07.04t.07.04c.83.22,1.7.43,2.57.58.29.04.58.15.87.18.66.08,1.34.13,2.01.14.19,0,.37.04.56.04,5.85,0,11.6-2.64,15.39-7.41l.04-.04c.11-.14.25-.29.36-.47.58-.72,1.08-1.52,1.55-2.39,5.21-9.57,1.7-21.56-7.87-26.77l-219.16-119.53v-46.89l203.05-126.9,191.45,112.63.47.29-.07.76-.14,1.77c-.04,12.14,4.59,23.48,13.04,31.97,3.03,3.07,6.46,5.6,10.15,7.62,6.28,3.43,13.51,5.38,21.17,5.38,24.56,0,44.47-19.9,44.47-44.43s-19.91-44.47-44.47-44.47m0,69.72c-6.68,0-13.01-2.6-17.74-7.37-4.7-4.73-7.33-11.02-7.44-17.77.07-.65.14-1.27.18-1.88l.79-11.85-212.15-124.8-221.94,138.71v68.89l229.42,125.31-.8.65-229.74-125.64.25-70.01,222.45-139c.14-.07.25-.11.36-.11l212.62,124.99,9.97-6.5c4.15-2.71,8.92-4.15,13.76-4.15,13.94,0,25.28,11.34,25.28,25.25s-11.34,25.29-25.28,25.29m-236.68,187.73c-.26-.07-.43-.18-.65-.25.25.11.43.22.65.29.36.14.72.25,1.12.36-.4-.11-.76-.25-1.12-.4m3.83,1.05c.29.04.58.15.87.18,2.64.32,5.38.11,8.06-.69,1.16-.33,2.28-.83,3.33-1.41-3.76,1.84-8.09,2.57-12.25,1.92"/><path class="cls-2" d="m763.39,889.32l-271.18,161.22-226.17-138.46c-11.31-6.9-14.85-21.64-7.95-32.95,6.94-11.27,21.67-14.84,32.98-7.91l201.5,123.32,246.32-146.44c11.38-6.72,26.08-3,32.84,8.38,6.79,11.38,3.03,26.08-8.34,32.84"/><path class="cls-2" d="m771.73,856.48c-6.76-11.38-21.46-15.1-32.84-8.38l-246.33,146.45-201.49-123.33c-11.31-6.94-26.04-3.36-32.98,7.91-6.9,11.3-3.36,26.04,7.95,32.94l226.17,138.46,271.18-161.22c11.38-6.75,15.13-21.46,8.34-32.84m-13.26,24.6l-266.19,158.26-221.26-135.43c-3.25-2.03-5.56-5.17-6.46-8.89-.9-3.76-.29-7.62,1.73-10.87,1.99-3.29,5.16-5.6,8.88-6.5,1.12-.25,2.28-.4,3.4-.4,2.6,0,5.2.72,7.48,2.13l206.45,126.36,251.27-149.37c6.83-4.08,15.68-1.81,19.72,4.99,4.05,6.83,1.81,15.68-5.02,19.72"/></svg>