<?xml version="1.0" encoding="UTF-8"?><svg id="Layer_1" xmlns="http://www.w3.org/2000/svg" viewBox="0 0 1920 2627"><defs><style>.cls-1{stroke-width:0px;}</style></defs><path class="cls-1" d="m1836.7,1256.28v244.17c0,23.84-12.3,46.04-32.6,58.73l-781.11,488.21c-2.27,1.4-4.69,2.79-7.09,3.95-2.03.87-4.08,1.77-6.11,2.53h-.11c-5.08,1.9-10.4,3.16-15.75,3.69-2.53.37-5.19.5-7.72.5-2.92,0-5.98-.26-8.88-.63-1.42-.26-2.92-.52-4.32-.76-1.4-.26-2.92-.5-4.32-.89-1.53-.37-2.92-.89-4.32-1.26v-.13c-.24,0-.5,0-.63-.13-1.13-.37-2.4-.87-3.55-1.4-.24,0-.5-.13-.76-.24-1-.39-2.14-.89-3.29-1.4v-.13c-.13,0-.26-.13-.5-.13-1.13-.63-2.29-1.26-3.42-1.9-.39-.26-.76-.39-1.16-.63l-708.66-416.81-1.03-.63c-2.27,1.53-4.56,2.92-6.98,4.19,0,.13-.11.13-.11.13-1.53.87-3.05,1.77-4.58,2.53-.5.26-.89.5-1.26.76-21.68,11.3-46.17,17.88-72.3,17.88C69.9,1656.48,0,1586.58,0,1500.46s69.9-156.15,156.15-156.15c26.89,0,52.25,6.85,74.46,18.91,1.77,1.03,3.69,2.03,5.45,3.16.37.13.76.39,1,.52,2.16,1.26,4.32,2.66,6.35,4.06.26.13.39.24.63.5,1.92,1.26,3.69,2.53,5.47,3.79,2.27,1.66,4.69,3.45,6.83,5.47,1.29,1,2.42,2.03,3.55,3.16,2.29,1.77,4.45,3.93,6.61,6.08,1.77,1.79,3.42,3.56,5.19,5.45,3.32,3.69,6.48,7.48,9.53,11.56,1.5,2.03,2.9,4.06,4.3,6.08,1.4,2.16,2.79,4.19,4.06,6.32.39.52.76,1.02,1.02,1.66,2.16,3.82,4.32,7.74,6.22,11.67,3.29,6.85,6.08,13.96,8.37,21.31.76,2.42,1.4,4.95,2.03,7.37.63,2.53,1.26,5.06,1.77,7.61.5,2.53,1.02,4.93,1.4,7.48.13,1.4.39,2.79.52,4.06.24,2.03.5,3.93.63,5.95.11,2.03.24,3.95.37,5.98.13,2.66.24,5.32.24,7.98,0,2.79-.37,5.32-.74,8.11l-.26,2.66,1.66,1.03,672.26,395.5,713-445.73v-164.53l-769.44-419.84c-33.61-18.28-46.04-60.39-27.65-94,9.4-17.25,25.25-29.05,42.88-33.74,2.03-.63,4.19-1.03,6.35-1.4.63,0,1.4-.13,2.03-.26.13-.13.37-.13.5-.13,6.85-.87,13.7-.87,20.54.26,0,0,0,.13.13.13h.63c.76.13,1.66.37,2.55.63.5,0,.87.13,1.4.26,5.82,1.4,11.54,3.56,16.99,6.59l805.58,439.51c2.16,1.13,4.19,2.42,6.22,3.82,1.16.87,2.16,1.64,3.32,2.53.74.5,1.37,1.13,2.14,1.66.26.24.65.5.89.87,14.72,12.82,23.6,31.71,23.6,51.88"/><path class="cls-1" d="m1813.1,1204.4c-.24-.37-.63-.63-.87-.89-.76-.5-1.4-1.13-2.16-1.64-1.16-.89-2.16-1.66-3.32-2.55-2.01-1.4-4.06-2.66-6.19-3.79l-805.6-439.51c-5.45-3.05-11.17-5.19-16.99-6.61-.52-.11-.89-.24-1.4-.24-.89-.26-1.79-.5-2.55-.63-.24,0-.5,0-.76-.13-6.85-1.13-13.7-1.13-20.54-.26-.11,0-.37,0-.5.13-.63.13-1.4.26-2.03.26-2.16.37-4.32.76-6.35,1.4-17.62,4.69-33.48,16.49-42.88,33.74-18.38,33.61-5.95,75.72,27.65,94l769.44,419.84v164.53l-713,445.73-672.26-395.5-.76-18.38c0-.52,0-.89-.13-1.4-.13-2.05-.24-3.95-.37-5.98-.13-2.03-.39-3.93-.63-5.95-.13-1.26-.39-2.66-.52-4.06-.37-2.55-.87-4.95-1.4-7.48-.5-2.55-1.13-5.08-1.77-7.61-.63-2.42-1.26-4.95-2.03-7.37-2.29-7.35-5.08-14.46-8.37-21.31-1.9-4.06-3.93-7.87-6.22-11.67-.26-.63-.63-1.13-1-1.66-1.29-2.14-2.68-4.17-4.08-6.32-1.4-2.03-2.79-4.08-4.3-6.11-2.79-4.06-5.98-7.85-9.51-11.54-1.79-1.9-3.45-3.66-5.21-5.45-2.16-2.16-4.32-4.32-6.59-6.08-1.16-1.13-2.29-2.16-3.55-3.18-2.16-2.03-4.58-3.79-6.85-5.45-1.79-1.26-3.55-2.53-5.45-3.79-.26-.26-.39-.37-.65-.5-2.03-1.4-4.19-2.79-6.32-4.06-2.16-1.4-4.32-2.68-6.48-3.69-22.2-12.06-47.57-18.91-74.46-18.91-86.25,0-156.15,69.9-156.15,156.15s69.9,156.02,156.15,156.02c26.13,0,50.62-6.61,72.3-17.88l13.96-6.98,708.68,416.81c.37.24.76.37,1.13.63,1.13.63,2.29,1.26,3.42,1.9.26,0,.39.13.52.26,1.13.5,2.27,1,3.29,1.4.24.11.5.24.76.24,1.13.52,2.4,1.02,3.53,1.4.26.13.52.13.65.26,1.37.37,2.77.89,4.3,1.26,1.4.37,2.92.63,4.32.89,1.4.24,2.92.5,4.32.76,2.92.37,5.95.63,8.88.63,2.53,0,5.19-.13,7.72-.52,5.34-.5,10.66-1.77,15.75-3.66h.11c2.05-.76,4.08-1.66,6.11-2.55,2.4-1.13,4.82-2.53,7.09-3.93l781.11-488.21c20.3-12.69,32.6-34.89,32.6-58.73v-244.17c0-20.17-8.88-39.08-23.6-51.88m-10.14,296.06c0,12.3-6.22,23.6-16.62,30.18l-781.24,488.24c-11.04,6.96-25.73,7.09-36.9.5l-727.83-427.98-17.51,11.43c-20.04,13.06-43.12,20.04-66.71,20.04-67.48,0-122.41-54.94-122.41-122.41s54.94-122.41,122.41-122.41,122.39,54.94,122.15,124.18c-.26,2.16-.63,4.32-.76,6.48l-1.53,20.94,709.68,417.44,746.1-466.4v-203.21l-787.06-429.35c-8.37-4.58-14.46-12.06-17.12-21.2-2.66-9.14-1.66-18.78,2.9-27.13,4.58-8.37,12.06-14.48,21.2-17.14,9.14-2.53,18.78-1.64,27.15,2.92l805.57,439.38c11.41,6.35,18.52,18.41,18.52,31.34v244.17Z"/><path class="cls-1" d="m1813.1,1204.4c-.24-.37-.63-.63-.87-.89-.76-.5-1.4-1.13-2.16-1.64-1.16-.89-2.16-1.66-3.32-2.55-2.01-1.4-4.06-2.66-6.19-3.79l-805.6-439.51c-5.45-3.05-11.17-5.19-16.99-6.61-.52-.11-.89-.24-1.4-.24-.89-.26-1.79-.5-2.55-.63-.24,0-.5,0-.76-.13-6.85-1.13-13.7-1.13-20.54-.26-.11,0-.37,0-.5.13-.63.13-1.4.26-2.03.26-2.16.37-4.32.76-6.35,1.4-17.62,4.69-33.48,16.49-42.88,33.74-18.38,33.61-5.95,75.72,27.65,94l769.44,419.84v164.53l-713,445.73-672.26-395.5-.76-18.38c0-.52,0-.89-.13-1.4-.13-2.05-.24-3.95-.37-5.98-.13-2.03-.39-3.93-.63-5.95-.13-1.26-.39-2.66-.52-4.06-.37-2.55-.87-4.95-1.4-7.48-.5-2.55-1.13-5.08-1.77-7.61-.63-2.42-1.26-4.95-2.03-7.37-2.29-7.35-5.08-14.46-8.37-21.31-1.9-4.06-3.93-7.87-6.22-11.67-.26-.63-.63-1.13-1-1.66-1.29-2.14-2.68-4.17-4.08-6.32-1.4-2.03-2.79-4.08-4.3-6.11-2.79-4.06-5.98-7.85-9.51-11.54-1.79-1.9-3.45-3.66-5.21-5.45-2.16-2.16-4.32-4.32-6.59-6.08-1.16-1.13-2.29-2.16-3.55-3.18-2.16-2.03-4.58-3.79-6.85-5.45-1.79-1.26-3.55-2.53-5.45-3.79-.26-.26-.39-.37-.65-.5-2.03-1.4-4.19-2.79-6.32-4.06-2.16-1.4-4.32-2.68-6.48-3.69-22.2-12.06-47.57-18.91-74.46-18.91-86.25,0-156.15,69.9-156.15,156.15s69.9,156.02,156.15,156.02c26.13,0,50.62-6.61,72.3-17.88l13.96-6.98,708.68,416.81c.37.24.76.37,1.13.63,1.13.63,2.29,1.26,3.42,1.9.26,0,.39.13.52.26,1.13.5,2.27,1,3.29,1.4.24.11.5.24.76.24,1.13.52,2.4,1.02,3.53,1.4.26.13.52.13.65.26,1.37.37,2.77.89,4.3,1.26,1.4.37,2.92.63,4.32.89,1.4.24,2.92.5,4.32.76,2.92.37,5.95.63,8.88.63,2.53,0,5.19-.13,7.72-.52,5.34-.5,10.66-1.77,15.75-3.66h.11c2.05-.76,4.08-1.66,6.11-2.55,2.4-1.13,4.82-2.53,7.09-3.93l781.11-488.21c20.3-12.69,32.6-34.89,32.6-58.73v-244.17c0-20.17-8.88-39.08-23.6-51.88m-10.14,296.06c0,12.3-6.22,23.6-16.62,30.18l-781.24,488.24c-11.04,6.96-25.73,7.09-36.9.5l-727.83-427.98-17.51,11.43c-20.04,13.06-43.12,20.04-66.71,20.04-67.48,0-122.41-54.94-122.41-122.41s54.94-122.41,122.41-122.41,122.39,54.94,122.15,124.18c-.26,2.16-.63,4.32-.76,6.48l-1.53,20.94,709.68,417.44,746.1-466.4v-203.21l-787.06-429.35c-8.37-4.58-14.46-12.06-17.12-21.2-2.66-9.14-1.66-18.78,2.9-27.13,4.58-8.37,12.06-14.48,21.2-17.14,9.14-2.53,18.78-1.64,27.15,2.92l805.57,439.38c11.41,6.35,18.52,18.41,18.52,31.34v244.17Z"/><path class="cls-1" d="m1813.11,1204.4c-1.03-.89-2.03-1.77-3.05-2.53-1.13-.89-2.16-1.66-3.29-2.55-2.03-1.4-4.06-2.66-6.22-3.79l-805.6-439.51c-5.43-3.05-11.14-5.21-16.99-6.61-.5-.11-.87-.24-1.4-.24-1-.26-2.16-.5-3.16-.63-3.69-.63-7.48-.89-11.41-.89-3.18,0-6.48.26-9.77.63-.65.13-1.42.26-2.03.26-2.16.37-4.32.76-6.35,1.4-17.64,4.69-33.5,16.49-42.88,33.74-18.41,33.61-5.98,75.72,27.65,94l769.44,419.84v164.53l-713,445.73-672.28-395.5-1.64-1.03.24-2.66.52-6.22c.24-42.61-16.12-82.44-45.8-112.38-6.85-6.85-14.33-13.06-22.07-18.52-2.66-1.79-5.32-3.42-8-5.08-1.77-1.13-3.66-2.16-5.43-3.16-22.2-12.06-47.59-18.91-74.48-18.91C69.91,1344.31.01,1414.21.01,1500.46s69.9,156.02,156.13,156.02c26.15,0,50.62-6.61,72.32-17.88.37-.26.76-.52,1.26-.76,1.5-.76,3.03-1.66,4.56-2.55,0,0,.13,0,.13-.11,2.42-1.26,4.69-2.66,6.98-4.19l1,.63,708.68,416.81c.39.24.76.37,1.16.63,1.13.63,2.27,1.26,3.42,1.9.24,0,.37.13.5.26,1.13.5,2.29,1,3.29,1.4.26.11.5.24.76.24,1.13.52,2.4,1.02,3.55,1.4.24.13.5.13.63.26,1.4.37,2.79.89,4.32,1.26,1.4.37,2.9.63,4.3.89,1.4.24,2.92.5,4.32.76,2.92.37,5.95.63,8.88.63,2.55,0,5.21-.13,7.74-.52,5.32-.5,10.66-1.77,15.72-3.66h.13c2.03-.76,4.06-1.66,6.08-2.55,2.42-1.13,4.82-2.53,7.11-3.93l781.11-488.21c20.28-12.69,32.6-34.89,32.6-58.73v-244.17c0-20.17-8.9-39.08-23.6-51.88m-827.91,786.06l-745.71-438.75-35.03,22.94c-14.57,9.53-31.19,14.59-48.33,14.59-48.96,0-88.78-39.82-88.78-88.78s39.82-88.78,88.78-88.78c23.47,0,45.67,9.25,62.29,25.87,16.49,16.62,25.76,38.69,26.13,62.53-.24,2.03-.37,4.19-.63,6.22l-3.03,41.74,745.32,438.36,779.21-487.06v-241.9l-805.58-440.02,2.9-2.29,806.6,441.17-.87,245.81-783.26,488.37Zm-29.05,60.63c-1.26-.63-2.66-1.27-3.93-2.03,1.13.63,2.27,1.26,3.42,1.9.24,0,.37.13.5.26,1.13.5,2.29,1,3.29,1.4-1-.52-2.16-1.02-3.29-1.53m8.24,3.29c-1.4-.5-2.79-1-4.19-1.53,1.13.52,2.4,1.02,3.55,1.4.24.13.5.13.63.26,1.4.37,2.79.89,4.32,1.26,1.4.37,2.9.63,4.3.89,1.4.24,2.92.5,4.32.76,5.58.63,11.17.76,16.62.11,2.66-.37,5.19-.76,7.74-1.4-12.3,2.68-25.25,2.16-37.29-1.77"/><path class="cls-1" d="m1836.7,557.63c0,86.12-69.9,156.02-156.15,156.02-26.89,0-52.25-6.85-74.33-18.91-9.01-4.69-17.38-10.27-24.99-16.73-1.9-1.53-3.79-3.18-5.58-4.82-1.9-1.66-3.66-3.32-5.45-5.21-1.77-1.77-3.56-3.56-5.19-5.45-1.66-1.77-3.29-3.69-4.82-5.58-1.66-1.9-3.29-3.93-4.69-5.95-1.42-2.03-2.92-4.06-4.32-6.08-1.4-2.16-2.79-4.19-4.06-6.35-2.55-4.32-4.95-8.77-7.24-13.33-1.13-2.29-2.16-4.56-3.03-6.85-1.02-2.42-1.92-4.69-2.81-7.11-1-2.4-1.77-4.82-2.53-7.22-1.4-4.82-2.66-9.77-3.79-14.72-.13-.89-.39-1.77-.39-2.66-.63-2.79-1-5.45-1.4-8.24-.13-.5-.13-.89-.13-1.26-.5-3.82-.87-7.61-1-11.56-.13-2.66-.26-5.32-.26-7.98,0-2.79.39-5.45.76-8.11l.26-2.66-1.66-1.02L851.64,150.33,138.64,595.93v164.66l769.57,419.73c33.61,18.25,45.91,60.37,27.65,93.97-1.66,3.05-3.42,5.84-5.45,8.37-.39.63-.89,1.13-1.29,1.66l-.11.13c-13.33,16.73-33.5,26-54.04,26-.68,0-1.31-.13-1.96-.15-2.36-.02-4.71-.2-7.04-.48-1.02-.13-2.03-.52-3.05-.63-3.03-.52-6.08-1.26-8.99-2.03q-.13-.13-.26-.13c-.13.13-.13,0-.26-.13-1.4-.37-2.66-.76-3.93-1.26v-.13c-.89-.26-1.53-.63-2.29-.89-.13-.11-.37-.11-.5-.24-1.66-.76-3.29-1.53-4.82-2.42L36.16,862.56C13.96,850.39,0,827.03,0,801.67v-244.17c0-23.84,12.3-46.04,32.6-58.73L813.85,10.55c21.94-13.7,49.59-14.09,71.79-1.02l708.92,416.94.89.5c2.66-1.64,5.32-3.29,7.98-4.82,2.03-1.13,4.06-2.27,6.08-3.29.39-.24.89-.5,1.27-.76.52-.24,1.02-.5,1.53-.76.26,0,.63-.24.89-.37.87-.37,1.77-.76,2.66-1.27.26-.13.5-.26.76-.39h.26c19.39-8.88,40.96-13.83,63.66-13.83,86.25,0,156.15,69.9,156.15,156.15"/><path class="cls-1" d="m1680.56,401.49c-22.7,0-44.27,4.95-63.68,13.83h-.24c-.26.11-.52.24-.76.37-.89.5-1.79.89-2.66,1.26-.26.13-.63.39-.89.39-.5.24-1.02.5-1.53.76l-16.25,8.35L885.62,9.54c-22.2-13.06-49.85-12.69-71.79,1L32.62,498.78C12.31,511.45.01,533.66.01,557.51v244.17c0,25.36,13.96,48.7,36.14,60.87l805.73,439.38c1.5.89,3.16,1.66,4.8,2.42.13.13.39.13.52.26.87.37,1.53.74,2.29,1,1.26.5,2.53.89,3.93,1.26.13.13.13.26.26.13q.11,0,.24.13c2.92.76,5.95,1.53,9.01,2.03,1,.13,2.03.5,3.05.63,2.31.28,4.67.46,7.04.5.65.02,1.29.13,1.94.13,20.57,0,40.72-9.25,54.04-26l.13-.13c.39-.5.89-1.02,1.26-1.66,2.03-2.53,3.82-5.32,5.45-8.35,18.28-33.63,5.98-75.74-27.65-94L138.65,760.58v-164.63L851.63,150.34l672.28,395.48.76,18.28c0,.5,0,1.02.13,1.53.13,3.93.5,7.74,1,11.54,0,.39,0,.76.13,1.26.37,2.79.76,5.45,1.4,8.24,0,.89.26,1.79.37,2.66,1.16,4.95,2.42,9.9,3.82,14.72.76,2.42,1.53,4.82,2.53,7.24.89,2.4,1.79,4.69,2.79,7.09.89,2.29,1.9,4.58,3.05,6.85,2.27,4.58,4.69,9.01,7.22,13.33,1.29,2.16,2.68,4.19,4.06,6.35,1.4,2.03,2.92,4.06,4.32,6.09,1.4,2.03,3.05,4.06,4.69,5.95,1.53,1.92,3.18,3.82,4.84,5.58,1.64,1.92,3.4,3.69,5.19,5.45,1.77,1.92,3.56,3.55,5.45,5.21,1.77,1.64,3.69,3.29,5.58,4.82,7.61,6.46,15.99,12.04,24.99,16.75,22.07,12.04,47.43,18.89,74.33,18.89,86.25,0,156.15-69.88,156.15-156.02s-69.9-156.13-156.15-156.13m0,278.54c-67.48,0-122.41-54.91-122.15-124.18.37-2.29.63-4.45.76-6.72l1.4-20.81L851.12,111.02,104.91,577.29v203.32l787.06,429.24c8.37,4.56,14.59,12.04,17.25,21.18,2.66,9.14,1.66,18.78-2.92,27.15-9.14,16.75-31.45,23.47-48.33,14.2L52.27,833c-11.41-6.22-18.52-18.25-18.52-31.32v-244.17c0-12.32,6.22-23.6,16.62-30.21L831.58,39.1c5.84-3.55,12.43-5.45,19.04-5.45,6.22,0,12.43,1.64,18.01,4.95l727.7,428.09,17.51-11.54c20.04-13.06,43.12-20.04,66.71-20.04,67.61,0,122.52,54.91,122.52,122.41s-54.91,122.52-122.52,122.52"/><path class="cls-1" d="m1680.56,401.49c-22.7,0-44.27,4.95-63.68,13.83h-.24c-.26.11-.52.24-.76.37-.89.5-1.79.89-2.66,1.26-.26.13-.63.39-.89.39-.5.24-1.02.5-1.53.76l-16.25,8.35L885.62,9.54c-22.2-13.06-49.85-12.69-71.79,1L32.62,498.78C12.31,511.45.01,533.66.01,557.51v244.17c0,25.36,13.96,48.7,36.14,60.87l805.73,439.38c1.5.89,3.16,1.66,4.8,2.42.13.13.39.13.52.26.87.37,1.53.74,2.29,1,1.26.5,2.53.89,3.93,1.26.13.13.13.26.26.13q.11,0,.24.13c2.92.76,5.95,1.53,9.01,2.03,1,.13,2.03.5,3.05.63,2.31.28,4.67.46,7.04.5.65.02,1.29.13,1.94.13,20.57,0,40.72-9.25,54.04-26l.13-.13c.39-.5.89-1.02,1.26-1.66,2.03-2.53,3.82-5.32,5.45-8.35,18.28-33.63,5.98-75.74-27.65-94L138.65,760.58v-164.63L851.63,150.34l672.28,395.48.76,18.28c0,.5,0,1.02.13,1.53.13,3.93.5,7.74,1,11.54,0,.39,0,.76.13,1.26.37,2.79.76,5.45,1.4,8.24,0,.89.26,1.79.37,2.66,1.16,4.95,2.42,9.9,3.82,14.72.76,2.42,1.53,4.82,2.53,7.24.89,2.4,1.79,4.69,2.79,7.09.89,2.29,1.9,4.58,3.05,6.85,2.27,4.58,4.69,9.01,7.22,13.33,1.29,2.16,2.68,4.19,4.06,6.35,1.4,2.03,2.92,4.06,4.32,6.09,1.4,2.03,3.05,4.06,4.69,5.95,1.53,1.92,3.18,3.82,4.84,5.58,1.64,1.92,3.4,3.69,5.19,5.45,1.77,1.92,3.56,3.55,5.45,5.21,1.77,1.64,3.69,3.29,5.58,4.82,7.61,6.46,15.99,12.04,24.99,16.75,22.07,12.04,47.43,18.89,74.33,18.89,86.25,0,156.15-69.88,156.15-156.02s-69.9-156.13-156.15-156.13m0,278.54c-67.48,0-122.41-54.91-122.15-124.18.37-2.29.63-4.45.76-6.72l1.4-20.81L851.12,111.02,104.91,577.29v203.32l787.06,429.24c8.37,4.56,14.59,12.04,17.25,21.18,2.66,9.14,1.66,18.78-2.92,27.15-9.14,16.75-31.45,23.47-48.33,14.2L52.27,833c-11.41-6.22-18.52-18.25-18.52-31.32v-244.17c0-12.32,6.22-23.6,16.62-30.21L831.58,39.1c5.84-3.55,12.43-5.45,19.04-5.45,6.22,0,12.43,1.64,18.01,4.95l727.7,428.09,17.51-11.54c20.04-13.06,43.12-20.04,66.71-20.04,67.61,0,122.52,54.91,122.52,122.41s-54.91,122.52-122.52,122.52"/><path class="cls-1" d="m1680.56,401.49c-22.7,0-44.27,4.95-63.68,13.83h-.13c-.24.11-.63.24-.87.37-.89.5-1.79.89-2.68,1.26-.24.13-.61.39-.87.39-.89.5-1.92,1-2.79,1.53-2.03,1-4.06,2.14-6.08,3.29-2.68,1.5-5.34,3.16-8,4.82l-.89-.52L885.63,9.54c-22.2-13.06-49.85-12.69-71.79,1L32.62,498.78C12.31,511.45.01,533.66.01,557.51v244.17c0,25.36,13.94,48.7,36.14,60.87l805.71,439.38c1.53.89,3.18,1.66,4.82,2.42.13.13.39.13.52.26.87.37,1.53.74,2.27,1,1.29.5,2.55.89,3.95,1.26.11.13.11.26.24.13q.13,0,.26.13c2.92.76,5.95,1.53,9.01,2.03,1,.13,2.03.5,3.03.63,2.33.28,4.69.46,7.07.5.63.02,1.29.13,1.94.13,20.57,0,40.72-9.25,54.04-26l.13-.13c.37-.5.89-1.02,1.26-1.66,2.03-2.53,3.79-5.32,5.45-8.35,18.28-33.63,5.95-75.74-27.65-94L138.65,760.58v-164.63L851.63,150.34l672.28,395.48,1.64,1.02-.24,2.66-.52,6.22c-.11,42.61,16.12,82.46,45.8,112.25,10.66,10.8,22.7,19.67,35.66,26.78,22.07,12.04,47.43,18.89,74.33,18.89,86.25,0,156.15-69.88,156.15-156.02s-69.9-156.13-156.15-156.13m0,244.8c-23.47,0-45.67-9.14-62.29-25.89-16.49-16.62-25.76-38.69-26.13-62.39.26-2.29.5-4.45.63-6.61l2.79-41.59L850.62,71.57,71.28,558.65v241.88l805.6,440.04-2.79,2.27L67.36,801.69l.89-245.83L849.34,67.75c.52-.24.89-.37,1.29-.37l746.6,438.88,35-22.83c14.59-9.51,31.32-14.59,48.33-14.59,48.96,0,88.78,39.82,88.78,88.68s-39.82,88.78-88.78,88.78m-831.09,659.19c-.87-.24-1.5-.63-2.27-.87.87.37,1.53.74,2.27,1,1.29.5,2.55.89,3.95,1.26-1.4-.37-2.66-.87-3.95-1.4m13.46,3.69c1,.13,2.03.5,3.03.63,9.27,1.13,18.91.39,28.29-2.4,4.08-1.16,8-2.92,11.69-4.95-13.19,6.46-28.42,9.01-43.01,6.72"/><path class="cls-1" d="m1878.81,2061.36l-952.22,566.09-794.17-486.18c-39.69-24.23-52.12-75.98-27.89-115.67,24.34-39.58,76.09-52.14,115.8-27.78l707.52,433.04,864.96-514.21c39.95-23.6,91.58-10.53,115.3,29.42,23.84,39.95,10.64,91.58-29.31,115.3"/><path class="cls-1" d="m1908.1,1946.06c-23.71-39.95-75.33-53.02-115.28-29.42l-864.96,514.21-707.52-433.04c-39.71-24.36-91.47-11.8-115.8,27.78-24.23,39.69-11.8,91.44,27.89,115.67l794.17,486.18,952.22-566.09c39.95-23.73,53.15-75.35,29.29-115.3m-46.54,86.38l-934.71,555.71-776.92-475.54c-11.41-7.11-19.54-18.14-22.7-31.21-3.18-13.19-1.02-26.76,6.08-38.19,6.98-11.54,18.14-19.65,31.21-22.83,3.93-.87,7.98-1.4,11.91-1.4,9.14,0,18.28,2.55,26.26,7.5l724.93,443.7,882.32-524.5c23.97-14.33,55.05-6.35,69.24,17.49,14.22,23.99,6.35,55.07-17.62,69.26"/></svg>