<?xml version="1.0" encoding="UTF-8"?><svg id="Layer_1" xmlns="http://www.w3.org/2000/svg" viewBox="0 0 1920 2579.25"><defs><style>.cls-1{fill:#294c89;stroke-width:0px;}</style></defs><path class="cls-1" d="m1439.98,1260.21v132.77c0,12.96-6.69,25.03-17.73,31.93l-424.72,265.46c-1.23.76-2.54,1.52-3.85,2.14-1.11.49-2.21.97-3.32,1.38h-.06c-2.76,1.04-5.66,1.73-8.56,2-1.38.21-2.82.28-4.2.28-1.59,0-3.24-.14-4.83-.35-.76-.14-1.58-.27-2.35-.41-.75-.14-1.58-.28-2.34-.48-.83-.21-1.59-.49-2.34-.69v-.07c-.14,0-.28,0-.35-.07-.62-.21-1.31-.48-1.93-.76-.14,0-.28-.07-.41-.14-.56-.2-1.18-.48-1.8-.76v-.07c-.07,0-.14-.06-.27-.06-.63-.35-1.24-.69-1.86-1.04-.21-.14-.42-.2-.63-.34l-385.33-226.63-.54-.35c-1.25.83-2.49,1.59-3.8,2.28,0,.07-.07.07-.07.07-.83.48-1.65.96-2.48,1.38-.28.13-.48.27-.69.41-11.79,6.14-25.1,9.73-39.31,9.73-46.9,0-84.9-38.01-84.9-84.83s38-84.9,84.9-84.9c14.62,0,28.41,3.73,40.48,10.28.97.55,2,1.1,2.96,1.72.21.07.42.21.56.28,1.17.69,2.35,1.45,3.45,2.2.13.07.2.14.34.28,1.04.69,2,1.38,2.97,2.07,1.24.9,2.55,1.86,3.72,2.96.69.56,1.31,1.11,1.93,1.73,1.25.96,2.42,2.14,3.59,3.31.96.96,1.86,1.93,2.83,2.96,1.79,2,3.51,4.07,5.17,6.28.83,1.1,1.58,2.21,2.34,3.31.76,1.17,1.52,2.28,2.21,3.45.2.27.41.55.55.9,1.17,2.06,2.35,4.2,3.38,6.34,1.79,3.72,3.31,7.59,4.55,11.59.42,1.31.76,2.69,1.11,4,.34,1.37.69,2.76.96,4.13.28,1.38.55,2.69.76,4.07.07.76.21,1.52.28,2.21.14,1.1.27,2.14.34,3.24.07,1.1.14,2.14.21,3.24.07,1.45.13,2.9.13,4.35s-.2,2.89-.41,4.41l-.13,1.45.89.55,365.54,215.04,387.68-242.36v-89.46l-418.37-228.29c-18.28-9.93-25.04-32.83-15.04-51.1,5.1-9.38,13.73-15.8,23.31-18.35,1.11-.34,2.28-.55,3.45-.76.34,0,.76-.07,1.11-.14.06-.06.2-.06.27-.06,3.72-.49,7.45-.49,11.17.13,0,0,0,.07.07.07h.35c.41.07.9.21,1.38.35.27,0,.48.07.75.13,3.18.76,6.28,1.94,9.24,3.59l438.03,238.98c1.18.62,2.28,1.31,3.38,2.06.62.49,1.17.9,1.8,1.38.41.28.75.63,1.17.9.14.14.35.28.48.48,8,6.97,12.83,17.24,12.83,28.21"/><path class="cls-1" d="m1427.16,1232c-.14-.2-.35-.34-.49-.48-.41-.27-.75-.62-1.17-.89-.62-.49-1.17-.9-1.79-1.38-1.1-.76-2.21-1.45-3.38-2.07l-438.03-238.98c-2.96-1.65-6.07-2.82-9.24-3.58-.28-.07-.48-.14-.76-.14-.48-.14-.96-.28-1.38-.35-.14,0-.27,0-.41-.06-3.73-.63-7.45-.63-11.18-.14-.06,0-.2,0-.27.07-.35.07-.76.13-1.1.13-1.17.21-2.35.42-3.45.76-9.59,2.55-18.21,8.97-23.31,18.35-10,18.27-3.24,41.17,15.03,51.1l418.37,228.29v89.45l-387.68,242.36-365.54-215.05-.42-10c0-.27,0-.48-.06-.76-.07-1.1-.14-2.13-.21-3.24-.07-1.1-.21-2.13-.35-3.24-.07-.69-.21-1.45-.27-2.21-.21-1.37-.49-2.68-.76-4.06-.28-1.38-.62-2.76-.97-4.14-.34-1.31-.69-2.69-1.1-4-1.24-4-2.76-7.86-4.55-11.59-1.04-2.2-2.14-4.28-3.38-6.34-.14-.35-.35-.62-.55-.9-.69-1.17-1.45-2.27-2.21-3.45-.76-1.1-1.52-2.21-2.34-3.31-1.52-2.21-3.25-4.27-5.17-6.27-.97-1.04-1.87-2-2.83-2.97-1.18-1.17-2.35-2.34-3.59-3.31-.62-.62-1.24-1.17-1.93-1.72-1.18-1.11-2.49-2.07-3.72-2.97-.97-.69-1.94-1.38-2.97-2.07-.14-.14-.21-.2-.35-.28-1.1-.75-2.27-1.51-3.45-2.2-1.17-.76-2.34-1.45-3.51-2-12.07-6.55-25.86-10.28-40.49-10.28-46.89,0-84.9,38-84.9,84.9s38,84.83,84.9,84.83c14.21,0,27.52-3.59,39.32-9.73l7.58-3.79,385.33,226.63c.21.14.41.21.62.34.62.35,1.24.69,1.86,1.04.14,0,.21.07.28.14.62.27,1.24.55,1.79.76.14.06.28.13.42.13.62.28,1.31.55,1.93.76.13.07.27.07.34.14.76.21,1.52.48,2.35.69.75.2,1.58.34,2.34.48.76.14,1.59.28,2.35.42,1.58.2,3.24.34,4.82.34,1.38,0,2.83-.07,4.21-.28,2.9-.27,5.79-.96,8.55-2h.07c1.1-.41,2.21-.89,3.31-1.38,1.31-.61,2.62-1.37,3.86-2.13l424.72-265.47c11.03-6.9,17.73-18.97,17.73-31.93v-132.77c0-10.96-4.83-21.24-12.83-28.21m-5.52,160.98c0,6.69-3.38,12.83-9.04,16.41l-424.78,265.47c-6,3.79-14,3.86-20.07.28l-395.75-232.7-9.52,6.21c-10.89,7.1-23.44,10.89-36.28,10.89-36.69,0-66.55-29.86-66.55-66.55s29.87-66.55,66.55-66.55,66.56,29.86,66.42,67.52c-.14,1.18-.35,2.35-.41,3.52l-.83,11.38,385.88,226.98,405.68-253.6v-110.49l-427.96-233.46c-4.55-2.48-7.86-6.55-9.31-11.52-1.44-4.96-.9-10.2,1.59-14.75,2.48-4.56,6.55-7.87,11.52-9.31,4.96-1.38,10.2-.9,14.76,1.58l438.02,238.91c6.21,3.45,10.07,10,10.07,17.03v132.77Z"/><path class="cls-1" d="m1427.16,1232c-.14-.2-.35-.34-.49-.48-.41-.27-.75-.62-1.17-.89-.62-.49-1.17-.9-1.79-1.38-1.1-.76-2.21-1.45-3.38-2.07l-438.03-238.98c-2.96-1.65-6.07-2.82-9.24-3.58-.28-.07-.48-.14-.76-.14-.48-.14-.96-.28-1.38-.35-.14,0-.27,0-.41-.06-3.73-.63-7.45-.63-11.18-.14-.06,0-.2,0-.27.07-.35.07-.76.13-1.1.13-1.17.21-2.35.42-3.45.76-9.59,2.55-18.21,8.97-23.31,18.35-10,18.27-3.24,41.17,15.03,51.1l418.37,228.29v89.45l-387.68,242.36-365.54-215.05-.42-10c0-.27,0-.48-.06-.76-.07-1.1-.14-2.13-.21-3.24-.07-1.1-.21-2.13-.35-3.24-.07-.69-.21-1.45-.27-2.21-.21-1.37-.49-2.68-.76-4.06-.28-1.38-.62-2.76-.97-4.14-.34-1.31-.69-2.69-1.1-4-1.24-4-2.76-7.86-4.55-11.59-1.04-2.2-2.14-4.28-3.38-6.34-.14-.35-.35-.62-.55-.9-.69-1.17-1.45-2.27-2.21-3.45-.76-1.1-1.52-2.21-2.34-3.31-1.52-2.21-3.25-4.27-5.17-6.27-.97-1.04-1.87-2-2.83-2.97-1.18-1.17-2.35-2.34-3.59-3.31-.62-.62-1.24-1.17-1.93-1.72-1.18-1.11-2.49-2.07-3.72-2.97-.97-.69-1.94-1.38-2.97-2.07-.14-.14-.21-.2-.35-.28-1.1-.75-2.27-1.51-3.45-2.2-1.17-.76-2.34-1.45-3.51-2-12.07-6.55-25.86-10.28-40.49-10.28-46.89,0-84.9,38-84.9,84.9s38,84.83,84.9,84.83c14.21,0,27.52-3.59,39.32-9.73l7.58-3.79,385.33,226.63c.21.14.41.21.62.34.62.35,1.24.69,1.86,1.04.14,0,.21.07.28.14.62.27,1.24.55,1.79.76.14.06.28.13.42.13.62.28,1.31.55,1.93.76.13.07.27.07.34.14.76.21,1.52.48,2.35.69.75.2,1.58.34,2.34.48.76.14,1.59.28,2.35.42,1.58.2,3.24.34,4.82.34,1.38,0,2.83-.07,4.21-.28,2.9-.27,5.79-.96,8.55-2h.07c1.1-.41,2.21-.89,3.31-1.38,1.31-.61,2.62-1.37,3.86-2.13l424.72-265.47c11.03-6.9,17.73-18.97,17.73-31.93v-132.77c0-10.96-4.83-21.24-12.83-28.21m-5.52,160.98c0,6.69-3.38,12.83-9.04,16.41l-424.78,265.47c-6,3.79-14,3.86-20.07.28l-395.75-232.7-9.52,6.21c-10.89,7.1-23.44,10.89-36.28,10.89-36.69,0-66.55-29.86-66.55-66.55s29.87-66.55,66.55-66.55,66.56,29.86,66.42,67.52c-.14,1.18-.35,2.35-.41,3.52l-.83,11.38,385.88,226.98,405.68-253.6v-110.49l-427.96-233.46c-4.55-2.48-7.86-6.55-9.31-11.52-1.44-4.96-.9-10.2,1.59-14.75,2.48-4.56,6.55-7.87,11.52-9.31,4.96-1.38,10.2-.9,14.76,1.58l438.02,238.91c6.21,3.45,10.07,10,10.07,17.03v132.77Z"/><path class="cls-1" d="m1427.15,1232c-.55-.48-1.1-.96-1.65-1.37-.62-.49-1.17-.9-1.8-1.38-1.1-.76-2.2-1.45-3.37-2.07l-438.03-238.98c-2.97-1.65-6.07-2.82-9.24-3.58-.28-.07-.48-.14-.76-.14-.55-.14-1.17-.28-1.72-.35-2-.34-4.08-.48-6.21-.48-1.72,0-3.52.14-5.31.35-.35.07-.76.13-1.11.13-1.17.21-2.34.42-3.44.76-9.59,2.55-18.21,8.97-23.31,18.35-10,18.27-3.25,41.17,15.03,51.1l418.37,228.29v89.45l-387.68,242.36-365.54-215.05-.89-.55.14-1.45.27-3.38c.14-23.17-8.75-44.83-24.9-61.1-3.72-3.72-7.79-7.1-11.99-10.07-1.45-.96-2.9-1.86-4.35-2.76-.96-.62-2-1.17-2.96-1.72-12.07-6.55-25.87-10.28-40.49-10.28-46.89,0-84.9,38-84.9,84.9s38,84.83,84.9,84.83c14.21,0,27.52-3.59,39.31-9.73.21-.14.42-.27.69-.41.83-.41,1.66-.9,2.49-1.38,0,0,.06,0,.06-.07,1.32-.69,2.56-1.45,3.8-2.28l.55.35,385.33,226.63c.21.14.41.21.62.34.62.35,1.24.69,1.86,1.04.14,0,.21.07.28.14.62.27,1.24.55,1.79.76.14.06.28.13.41.13.62.28,1.31.55,1.93.76.14.07.28.07.35.14.76.21,1.51.48,2.34.69.76.2,1.59.34,2.35.48.76.14,1.58.28,2.34.42,1.59.2,3.24.34,4.83.34,1.38,0,2.83-.07,4.2-.28,2.91-.27,5.8-.96,8.56-2h.07c1.1-.41,2.21-.89,3.31-1.38,1.31-.61,2.62-1.37,3.86-2.13l424.72-265.47c11.03-6.9,17.72-18.97,17.72-31.93v-132.77c0-10.96-4.83-21.24-12.83-28.21m-450.16,427.41l-405.47-238.57-19.04,12.48c-7.93,5.18-16.97,7.94-26.28,7.94-26.62,0-48.27-21.66-48.27-48.28s21.65-48.28,48.27-48.28c12.76,0,24.83,5.04,33.87,14.07,8.96,9.04,13.99,21.04,14.2,34-.14,1.11-.21,2.28-.34,3.38l-1.66,22.69,405.27,238.36,423.68-264.84v-131.53l-438.02-239.26,1.58-1.24,438.58,239.88-.48,133.67-425.89,265.53Zm-15.79,32.97c-.69-.35-1.45-.69-2.14-1.11.62.35,1.24.69,1.86,1.04.14,0,.21.07.28.14.62.27,1.24.55,1.79.76-.55-.28-1.17-.56-1.79-.83m4.48,1.79c-.76-.28-1.52-.55-2.28-.83.62.28,1.31.55,1.93.76.14.07.28.07.35.14.76.21,1.51.48,2.34.69.76.2,1.59.34,2.35.48.76.14,1.58.28,2.34.42,3.04.34,6.07.41,9.03.06,1.46-.2,2.83-.41,4.22-.76-6.7,1.45-13.73,1.18-20.28-.96"/><path class="cls-1" d="m1439.98,880.33c0,46.83-38,84.83-84.9,84.83-14.62,0-28.41-3.73-40.41-10.28-4.9-2.55-9.45-5.58-13.59-9.1-1.03-.83-2.07-1.73-3.03-2.62-1.03-.9-2-1.79-2.97-2.83-.97-.97-1.93-1.93-2.82-2.97-.9-.96-1.8-2-2.63-3.03-.89-1.04-1.79-2.14-2.54-3.24-.77-1.11-1.6-2.21-2.35-3.31-.76-1.17-1.52-2.28-2.21-3.45-1.38-2.34-2.69-4.76-3.93-7.24-.62-1.24-1.17-2.48-1.65-3.73-.56-1.31-1.04-2.55-1.52-3.86-.56-1.31-.97-2.62-1.38-3.93-.76-2.62-1.45-5.31-2.07-8-.07-.48-.21-.96-.21-1.45-.34-1.51-.55-2.96-.75-4.48-.08-.27-.08-.48-.08-.69-.27-2.07-.48-4.14-.55-6.27-.07-1.45-.14-2.9-.14-4.35s.21-2.96.42-4.41l.14-1.45-.9-.55-365.53-215.05-387.68,242.29v89.52l418.44,228.22c18.28,9.93,24.97,32.83,15.04,51.1-.9,1.66-1.86,3.17-2.97,4.55-.2.35-.48.63-.69.9l-.07.07c-7.24,9.1-18.2,14.14-29.38,14.14-.36,0-.71-.07-1.06-.08-1.29-.02-2.57-.11-3.83-.27-.56-.07-1.11-.27-1.66-.34-1.65-.28-3.31-.69-4.89-1.1q-.07-.07-.14-.07c-.07.07-.07,0-.14-.07-.76-.21-1.45-.42-2.14-.69v-.07c-.48-.14-.83-.35-1.24-.49-.07-.06-.2-.06-.28-.13-.89-.42-1.79-.83-2.62-1.31l-438.09-238.91c-12.07-6.62-19.66-19.31-19.66-33.1v-132.77c0-12.96,6.69-25.03,17.73-31.93l424.78-265.47c11.93-7.44,26.97-7.65,39.04-.55l385.47,226.7.49.28c1.45-.9,2.89-1.8,4.34-2.62,1.11-.63,2.21-1.25,3.31-1.8.21-.14.48-.27.69-.41.28-.14.55-.28.83-.42.14,0,.34-.13.48-.2.48-.21.97-.42,1.45-.69.14-.07.28-.14.41-.21h.14c10.55-4.83,22.28-7.52,34.62-7.52,46.9,0,84.9,38,84.9,84.9"/><path class="cls-1" d="m1355.08,795.42c-12.35,0-24.07,2.69-34.62,7.52h-.14c-.14.07-.28.14-.41.21-.48.27-.97.48-1.45.68-.14.08-.34.21-.49.21-.27.14-.54.28-.82.42l-8.83,4.55-385.47-226.7c-12.07-7.1-27.11-6.9-39.04.55l-424.78,265.47c-11.04,6.9-17.73,18.96-17.73,31.93v132.77c0,13.79,7.59,26.48,19.65,33.1l438.1,238.91c.83.49,1.73.9,2.62,1.31.07.08.21.08.28.14.48.21.83.42,1.24.55.69.28,1.38.49,2.14.69.07.07.07.14.14.07q.06,0,.13.07c1.59.42,3.24.83,4.9,1.11.55.06,1.1.27,1.65.34,1.27.15,2.55.24,3.83.27.36,0,.7.08,1.07.08,11.17,0,22.14-5.04,29.38-14.14l.07-.07c.21-.28.48-.55.69-.9,1.1-1.38,2.07-2.89,2.97-4.55,9.93-18.27,3.23-41.17-15.04-51.1l-418.44-228.22v-89.52l387.68-242.29,365.54,215.04.41,9.93c0,.28,0,.56.07.83.07,2.14.27,4.21.55,6.28,0,.21,0,.41.07.69.21,1.52.41,2.96.76,4.48,0,.48.14.97.2,1.45.63,2.69,1.32,5.38,2.08,8,.41,1.31.82,2.62,1.37,3.93.49,1.31.97,2.55,1.52,3.86.48,1.24,1.04,2.49,1.65,3.73,1.25,2.48,2.56,4.89,3.94,7.24.69,1.17,1.45,2.27,2.2,3.45.76,1.1,1.59,2.2,2.35,3.31.76,1.1,1.65,2.2,2.55,3.24.83,1.03,1.72,2.07,2.62,3.03.9,1.04,1.86,2,2.83,2.97.97,1.03,1.93,1.93,2.97,2.83.96.89,2,1.79,3.03,2.62,4.14,3.51,8.69,6.55,13.59,9.1,12,6.55,25.79,10.27,40.41,10.27,46.89,0,84.9-38,84.9-84.83s-38.01-84.9-84.9-84.9m0,151.46c-36.69,0-66.55-29.86-66.42-67.52.21-1.24.35-2.41.42-3.65l.76-11.31-385.75-226.91-405.75,253.53v110.56l427.96,233.39c4.55,2.48,7.93,6.55,9.38,11.51,1.45,4.97.9,10.21-1.58,14.76-4.97,9.11-17.11,12.76-26.28,7.73l-438.1-238.91c-6.2-3.38-10.07-9.93-10.07-17.03v-132.77c0-6.69,3.38-12.83,9.04-16.41l424.78-265.47c3.18-1.93,6.76-2.97,10.35-2.97,3.38,0,6.76.9,9.79,2.69l395.68,232.77,9.51-6.27c10.9-7.11,23.45-10.9,36.28-10.9,36.76,0,66.62,29.86,66.62,66.55s-29.86,66.62-66.62,66.62"/><path class="cls-1" d="m1355.08,795.42c-12.35,0-24.07,2.69-34.62,7.52h-.14c-.14.07-.28.14-.41.21-.48.27-.97.48-1.45.68-.14.08-.34.21-.49.21-.27.14-.54.28-.82.42l-8.83,4.55-385.47-226.7c-12.07-7.1-27.11-6.9-39.04.55l-424.78,265.47c-11.04,6.9-17.73,18.96-17.73,31.93v132.77c0,13.79,7.59,26.48,19.65,33.1l438.1,238.91c.83.49,1.73.9,2.62,1.31.07.08.21.08.28.14.48.21.83.42,1.24.55.69.28,1.38.49,2.14.69.07.07.07.14.14.07q.06,0,.13.07c1.59.42,3.24.83,4.9,1.11.55.06,1.1.27,1.65.34,1.27.15,2.55.24,3.83.27.36,0,.7.08,1.07.08,11.17,0,22.14-5.04,29.38-14.14l.07-.07c.21-.28.48-.55.69-.9,1.1-1.38,2.07-2.89,2.97-4.55,9.93-18.27,3.23-41.17-15.04-51.1l-418.44-228.22v-89.52l387.68-242.29,365.54,215.04.41,9.93c0,.28,0,.56.07.83.07,2.14.27,4.21.55,6.28,0,.21,0,.41.07.69.21,1.52.41,2.96.76,4.48,0,.48.14.97.2,1.45.63,2.69,1.32,5.38,2.08,8,.41,1.31.82,2.62,1.37,3.93.49,1.31.97,2.55,1.52,3.86.48,1.24,1.04,2.49,1.65,3.73,1.25,2.48,2.56,4.89,3.94,7.24.69,1.17,1.45,2.27,2.2,3.45.76,1.1,1.59,2.2,2.35,3.31.76,1.1,1.65,2.2,2.55,3.24.83,1.03,1.72,2.07,2.62,3.03.9,1.04,1.86,2,2.83,2.97.97,1.03,1.93,1.93,2.97,2.83.96.89,2,1.79,3.03,2.62,4.14,3.51,8.69,6.55,13.59,9.1,12,6.55,25.79,10.27,40.41,10.27,46.89,0,84.9-38,84.9-84.83s-38.01-84.9-84.9-84.9m0,151.46c-36.69,0-66.55-29.86-66.42-67.52.21-1.24.35-2.41.42-3.65l.76-11.31-385.75-226.91-405.75,253.53v110.56l427.96,233.39c4.55,2.48,7.93,6.55,9.38,11.51,1.45,4.97.9,10.21-1.58,14.76-4.97,9.11-17.11,12.76-26.28,7.73l-438.1-238.91c-6.2-3.38-10.07-9.93-10.07-17.03v-132.77c0-6.69,3.38-12.83,9.04-16.41l424.78-265.47c3.18-1.93,6.76-2.97,10.35-2.97,3.38,0,6.76.9,9.79,2.69l395.68,232.77,9.51-6.27c10.9-7.11,23.45-10.9,36.28-10.9,36.76,0,66.62,29.86,66.62,66.55s-29.86,66.62-66.62,66.62"/><path class="cls-1" d="m1355.08,795.42c-12.35,0-24.07,2.7-34.62,7.52h-.07c-.14.07-.35.14-.48.21-.49.28-.97.48-1.45.69-.14.07-.35.21-.49.21-.48.27-1.03.55-1.51.82-1.11.55-2.21,1.18-3.31,1.8-1.45.82-2.9,1.72-4.35,2.62l-.48-.28-385.47-226.7c-12.07-7.1-27.11-6.89-39.04.55l-424.79,265.47c-11.03,6.9-17.72,18.97-17.72,31.93v132.77c0,13.79,7.58,26.48,19.65,33.1l438.1,238.91c.83.48,1.72.9,2.62,1.31.07.07.21.07.28.14.48.21.82.41,1.24.55.69.27,1.38.48,2.14.69.06.07.06.14.14.07q.06,0,.13.07c1.59.41,3.24.82,4.9,1.1.55.07,1.1.28,1.65.35,1.27.15,2.55.24,3.83.26.36,0,.7.08,1.07.08,11.17,0,22.14-5.04,29.38-14.14l.07-.07c.21-.27.48-.55.69-.89,1.1-1.38,2.06-2.9,2.96-4.56,9.94-18.27,3.24-41.17-15.03-51.1l-418.44-228.22v-89.52l387.68-242.29,365.54,215.05.89.55-.14,1.45-.27,3.38c-.07,23.17,8.76,44.83,24.9,61.04,5.79,5.86,12.34,10.69,19.38,14.55,11.99,6.55,25.79,10.28,40.41,10.28,46.89,0,84.9-38,84.9-84.83s-38.01-84.9-84.9-84.9m0,133.12c-12.76,0-24.83-4.97-33.86-14.07-8.97-9.04-14-21.03-14.21-33.93.14-1.24.27-2.42.35-3.59l1.51-22.62-405.06-238.29-423.75,264.84v131.53l438.03,239.26-1.52,1.24-438.65-239.88.48-133.66,424.72-265.4c.27-.14.48-.21.69-.21l405.96,238.64,19.03-12.41c7.93-5.17,17.03-7.93,26.28-7.93,26.62,0,48.27,21.65,48.27,48.21s-21.65,48.28-48.27,48.28m-451.89,358.43c-.49-.14-.83-.35-1.24-.48.48.21.82.41,1.24.55.69.27,1.38.48,2.14.69-.76-.21-1.45-.48-2.14-.76m7.31,2c.55.07,1.1.28,1.65.35,5.04.61,10.28.2,15.38-1.31,2.21-.63,4.35-1.59,6.35-2.7-7.17,3.52-15.45,4.9-23.38,3.66"/><path class="cls-1" d="m1462.88,1697.96l-517.75,307.81-431.82-264.36c-21.59-13.18-28.35-41.31-15.17-62.9,13.24-21.51,41.38-28.34,62.97-15.1l384.71,235.46,470.3-279.6c21.73-12.83,49.79-5.72,62.69,16,12.97,21.73,5.79,49.79-15.93,62.69"/><path class="cls-1" d="m1478.81,1635.26c-12.9-21.72-40.97-28.82-62.69-16l-470.31,279.61-384.71-235.46c-21.59-13.24-49.72-6.41-62.97,15.11-13.17,21.58-6.41,49.72,15.17,62.9l431.82,264.36,517.75-307.81c21.72-12.89,28.89-40.96,15.93-62.69m-25.31,46.97l-508.23,302.16-422.44-258.57c-6.2-3.87-10.62-9.87-12.34-16.97-1.72-7.17-.55-14.55,3.31-20.76,3.79-6.27,9.86-10.69,16.96-12.41,2.14-.48,4.35-.76,6.49-.76,4.96,0,9.93,1.38,14.27,4.07l394.16,241.26,479.75-285.19c13.03-7.79,29.93-3.45,37.65,9.52,7.73,13.03,3.45,29.93-9.58,37.65"/></svg>